<?xml version="1.0" encoding="utf-8" standalone="no"?>
<!DOCTYPE svg PUBLIC "-//W3C//DTD SVG 1.1//EN"
  "http://www.w3.org/Graphics/SVG/1.1/DTD/svg11.dtd">
<svg xmlns:xlink="http://www.w3.org/1999/xlink" width="856.08pt" height="568.08pt" viewBox="0 0 856.08 568.08" xmlns="http://www.w3.org/2000/svg" version="1.1">
 <metadata>
  <rdf:RDF xmlns:dc="http://purl.org/dc/elements/1.1/" xmlns:cc="http://creativecommons.org/ns#" xmlns:rdf="http://www.w3.org/1999/02/22-rdf-syntax-ns#">
   <cc:Work>
    <dc:type rdf:resource="http://purl.org/dc/dcmitype/StillImage"/>
    <dc:date>2025-08-25T17:52:31.948961</dc:date>
    <dc:format>image/svg+xml</dc:format>
    <dc:creator>
     <cc:Agent>
      <dc:title>Matplotlib v3.10.0, https://matplotlib.org/</dc:title>
     </cc:Agent>
    </dc:creator>
   </cc:Work>
  </rdf:RDF>
 </metadata>
 <defs>
  <style type="text/css">*{stroke-linejoin: round; stroke-linecap: butt}</style>
 </defs>
 <g id="figure_1">
  <g id="patch_1">
   <path d="M -0 568.08 
L 856.08 568.08 
L 856.08 0 
L -0 0 
z
" style="fill: #ffffff"/>
  </g>
  <g id="axes_1">
   <g id="patch_2">
    <path d="M 44.448487 528.68419 
L 852.48 528.68419 
L 852.48 19.285876 
L 44.448487 19.285876 
z
" style="fill: #ffffff"/>
   </g>
   <g id="matplotlib.axis_1">
    <g id="xtick_1">
     <g id="line2d_1">
      <defs>
       <path id="mec3a1bd38d" d="M 0 0 
L 0 3.5 
" style="stroke: #262626; stroke-width: 1.5"/>
      </defs>
      <g>
       <use xlink:href="#mec3a1bd38d" x="81.177192" y="528.68419" style="fill: #262626; stroke: #262626; stroke-width: 1.5"/>
      </g>
     </g>
     <g id="text_1">
      <!-- $\mathdefault{0}$ -->
      <g style="fill: #262626" transform="translate(77.762948 545.370067) scale(0.14 -0.14)">
       <defs>
        <path id="CMSS17-30" d="M 2758 2073 
C 2758 2439 2752 3120 2490 3647 
C 2227 4153 1805 4288 1504 4288 
C 1069 4288 698 4031 506 3621 
C 301 3191 243 2748 243 2073 
C 243 1611 262 1046 493 551 
C 755 6 1197 -128 1498 -128 
C 1894 -128 2278 83 2496 525 
C 2720 988 2758 1495 2758 2073 
z
M 1498 262 
C 1011 262 864 821 819 1007 
C 742 1328 730 1636 730 2144 
C 730 2542 730 2992 851 3345 
C 998 3756 1254 3897 1498 3897 
C 1971 3897 2125 3422 2176 3255 
C 2272 2915 2272 2516 2272 2144 
C 2272 1546 2272 262 1498 262 
z
" transform="scale(0.015625)"/>
       </defs>
       <use xlink:href="#CMSS17-30" transform="scale(0.996264)"/>
      </g>
     </g>
    </g>
    <g id="xtick_2">
     <g id="line2d_2">
      <g>
       <use xlink:href="#mec3a1bd38d" x="194.188592" y="528.68419" style="fill: #262626; stroke: #262626; stroke-width: 1.5"/>
      </g>
     </g>
     <g id="text_2">
      <!-- $\mathdefault{5}$ -->
      <g style="fill: #262626" transform="translate(190.774348 545.370067) scale(0.14 -0.14)">
       <defs>
        <path id="CMSS17-35" d="M 934 3814 
L 2502 3814 
L 2502 4224 
L 467 4224 
L 467 1830 
L 896 1830 
C 1011 2103 1248 2304 1555 2304 
C 1843 2304 2163 2044 2163 1299 
C 2163 502 1709 268 1376 268 
C 966 268 589 521 422 871 
L 218 508 
C 512 51 992 -128 1376 -128 
C 2118 -128 2701 508 2701 1286 
C 2701 2083 2182 2694 1562 2694 
C 1338 2694 1120 2617 934 2464 
L 934 3814 
z
" transform="scale(0.015625)"/>
       </defs>
       <use xlink:href="#CMSS17-35" transform="scale(0.996264)"/>
      </g>
     </g>
    </g>
    <g id="xtick_3">
     <g id="line2d_3">
      <g>
       <use xlink:href="#mec3a1bd38d" x="307.199993" y="528.68419" style="fill: #262626; stroke: #262626; stroke-width: 1.5"/>
      </g>
     </g>
     <g id="text_3">
      <!-- $\mathdefault{10}$ -->
      <g style="fill: #262626" transform="translate(300.371504 545.370067) scale(0.14 -0.14)">
       <defs>
        <path id="CMSS17-31" d="M 1818 4288 
L 1696 4288 
C 1350 3949 947 3902 538 3891 
L 538 3520 
C 723 3526 1024 3539 1325 3673 
L 1325 371 
L 570 371 
L 570 0 
L 2573 0 
L 2573 371 
L 1818 371 
L 1818 4288 
z
" transform="scale(0.015625)"/>
       </defs>
       <use xlink:href="#CMSS17-31" transform="scale(0.996264)"/>
       <use xlink:href="#CMSS17-30" transform="translate(46.843624 0) scale(0.996264)"/>
      </g>
     </g>
    </g>
    <g id="xtick_4">
     <g id="line2d_4">
      <g>
       <use xlink:href="#mec3a1bd38d" x="420.211393" y="528.68419" style="fill: #262626; stroke: #262626; stroke-width: 1.5"/>
      </g>
     </g>
     <g id="text_4">
      <!-- $\mathdefault{15}$ -->
      <g style="fill: #262626" transform="translate(413.382905 545.370067) scale(0.14 -0.14)">
       <use xlink:href="#CMSS17-31" transform="scale(0.996264)"/>
       <use xlink:href="#CMSS17-35" transform="translate(46.843624 0) scale(0.996264)"/>
      </g>
     </g>
    </g>
    <g id="xtick_5">
     <g id="line2d_5">
      <g>
       <use xlink:href="#mec3a1bd38d" x="533.222794" y="528.68419" style="fill: #262626; stroke: #262626; stroke-width: 1.5"/>
      </g>
     </g>
     <g id="text_5">
      <!-- $\mathdefault{20}$ -->
      <g style="fill: #262626" transform="translate(526.394305 545.370067) scale(0.14 -0.14)">
       <defs>
        <path id="CMSS17-32" d="M 1651 1353 
C 1830 1538 2099 1761 2285 1984 
C 2464 2201 2701 2507 2701 2953 
C 2701 3655 2227 4288 1421 4288 
C 787 4288 422 3891 250 3272 
L 499 2928 
C 640 3508 838 3878 1338 3878 
C 1888 3878 2195 3431 2195 2940 
C 2195 2354 1747 1901 1408 1563 
C 1030 1187 659 805 301 409 
L 301 0 
L 2701 0 
L 2701 435 
L 1613 435 
C 1536 435 1459 428 1382 428 
L 742 428 
L 742 435 
L 1651 1353 
z
" transform="scale(0.015625)"/>
       </defs>
       <use xlink:href="#CMSS17-32" transform="scale(0.996264)"/>
       <use xlink:href="#CMSS17-30" transform="translate(46.843624 0) scale(0.996264)"/>
      </g>
     </g>
    </g>
    <g id="xtick_6">
     <g id="line2d_6">
      <g>
       <use xlink:href="#mec3a1bd38d" x="646.234194" y="528.68419" style="fill: #262626; stroke: #262626; stroke-width: 1.5"/>
      </g>
     </g>
     <g id="text_6">
      <!-- $\mathdefault{25}$ -->
      <g style="fill: #262626" transform="translate(639.405706 545.370067) scale(0.14 -0.14)">
       <use xlink:href="#CMSS17-32" transform="scale(0.996264)"/>
       <use xlink:href="#CMSS17-35" transform="translate(46.843624 0) scale(0.996264)"/>
      </g>
     </g>
    </g>
    <g id="xtick_7">
     <g id="line2d_7">
      <g>
       <use xlink:href="#mec3a1bd38d" x="759.245595" y="528.68419" style="fill: #262626; stroke: #262626; stroke-width: 1.5"/>
      </g>
     </g>
     <g id="text_7">
      <!-- $\mathdefault{30}$ -->
      <g style="fill: #262626" transform="translate(752.417106 545.370067) scale(0.14 -0.14)">
       <defs>
        <path id="CMSS17-33" d="M 1005 2060 
L 1440 2060 
C 2042 2060 2214 1532 2214 1164 
C 2214 662 1933 268 1472 268 
C 1114 268 608 449 320 926 
C 275 700 275 687 250 533 
C 550 89 1037 -128 1485 -128 
C 2214 -128 2752 481 2752 1158 
C 2752 1667 2400 2092 1920 2252 
C 2304 2463 2586 2860 2586 3321 
C 2586 3859 2093 4288 1491 4288 
C 941 4288 512 3948 333 3583 
C 378 3519 493 3334 550 3238 
C 691 3615 1056 3897 1485 3897 
C 1843 3897 2080 3660 2080 3321 
C 2080 2969 1856 2585 1478 2496 
C 1453 2496 1056 2457 1005 2451 
L 1005 2060 
z
" transform="scale(0.015625)"/>
       </defs>
       <use xlink:href="#CMSS17-33" transform="scale(0.996264)"/>
       <use xlink:href="#CMSS17-30" transform="translate(46.843624 0) scale(0.996264)"/>
      </g>
     </g>
    </g>
    <g id="xtick_8">
     <g id="line2d_8">
      <defs>
       <path id="mc66f468a38" d="M 0 0 
L 0 2.5 
" style="stroke: #262626; stroke-width: 1.5"/>
      </defs>
      <g>
       <use xlink:href="#mc66f468a38" x="58.574912" y="528.68419" style="fill: #262626; stroke: #262626; stroke-width: 1.5"/>
      </g>
     </g>
    </g>
    <g id="xtick_9">
     <g id="line2d_9">
      <g>
       <use xlink:href="#mc66f468a38" x="103.779472" y="528.68419" style="fill: #262626; stroke: #262626; stroke-width: 1.5"/>
      </g>
     </g>
    </g>
    <g id="xtick_10">
     <g id="line2d_10">
      <g>
       <use xlink:href="#mc66f468a38" x="126.381752" y="528.68419" style="fill: #262626; stroke: #262626; stroke-width: 1.5"/>
      </g>
     </g>
    </g>
    <g id="xtick_11">
     <g id="line2d_11">
      <g>
       <use xlink:href="#mc66f468a38" x="148.984032" y="528.68419" style="fill: #262626; stroke: #262626; stroke-width: 1.5"/>
      </g>
     </g>
    </g>
    <g id="xtick_12">
     <g id="line2d_12">
      <g>
       <use xlink:href="#mc66f468a38" x="171.586312" y="528.68419" style="fill: #262626; stroke: #262626; stroke-width: 1.5"/>
      </g>
     </g>
    </g>
    <g id="xtick_13">
     <g id="line2d_13">
      <g>
       <use xlink:href="#mc66f468a38" x="216.790873" y="528.68419" style="fill: #262626; stroke: #262626; stroke-width: 1.5"/>
      </g>
     </g>
    </g>
    <g id="xtick_14">
     <g id="line2d_14">
      <g>
       <use xlink:href="#mc66f468a38" x="239.393153" y="528.68419" style="fill: #262626; stroke: #262626; stroke-width: 1.5"/>
      </g>
     </g>
    </g>
    <g id="xtick_15">
     <g id="line2d_15">
      <g>
       <use xlink:href="#mc66f468a38" x="261.995433" y="528.68419" style="fill: #262626; stroke: #262626; stroke-width: 1.5"/>
      </g>
     </g>
    </g>
    <g id="xtick_16">
     <g id="line2d_16">
      <g>
       <use xlink:href="#mc66f468a38" x="284.597713" y="528.68419" style="fill: #262626; stroke: #262626; stroke-width: 1.5"/>
      </g>
     </g>
    </g>
    <g id="xtick_17">
     <g id="line2d_17">
      <g>
       <use xlink:href="#mc66f468a38" x="329.802273" y="528.68419" style="fill: #262626; stroke: #262626; stroke-width: 1.5"/>
      </g>
     </g>
    </g>
    <g id="xtick_18">
     <g id="line2d_18">
      <g>
       <use xlink:href="#mc66f468a38" x="352.404553" y="528.68419" style="fill: #262626; stroke: #262626; stroke-width: 1.5"/>
      </g>
     </g>
    </g>
    <g id="xtick_19">
     <g id="line2d_19">
      <g>
       <use xlink:href="#mc66f468a38" x="375.006833" y="528.68419" style="fill: #262626; stroke: #262626; stroke-width: 1.5"/>
      </g>
     </g>
    </g>
    <g id="xtick_20">
     <g id="line2d_20">
      <g>
       <use xlink:href="#mc66f468a38" x="397.609113" y="528.68419" style="fill: #262626; stroke: #262626; stroke-width: 1.5"/>
      </g>
     </g>
    </g>
    <g id="xtick_21">
     <g id="line2d_21">
      <g>
       <use xlink:href="#mc66f468a38" x="442.813673" y="528.68419" style="fill: #262626; stroke: #262626; stroke-width: 1.5"/>
      </g>
     </g>
    </g>
    <g id="xtick_22">
     <g id="line2d_22">
      <g>
       <use xlink:href="#mc66f468a38" x="465.415954" y="528.68419" style="fill: #262626; stroke: #262626; stroke-width: 1.5"/>
      </g>
     </g>
    </g>
    <g id="xtick_23">
     <g id="line2d_23">
      <g>
       <use xlink:href="#mc66f468a38" x="488.018234" y="528.68419" style="fill: #262626; stroke: #262626; stroke-width: 1.5"/>
      </g>
     </g>
    </g>
    <g id="xtick_24">
     <g id="line2d_24">
      <g>
       <use xlink:href="#mc66f468a38" x="510.620514" y="528.68419" style="fill: #262626; stroke: #262626; stroke-width: 1.5"/>
      </g>
     </g>
    </g>
    <g id="xtick_25">
     <g id="line2d_25">
      <g>
       <use xlink:href="#mc66f468a38" x="555.825074" y="528.68419" style="fill: #262626; stroke: #262626; stroke-width: 1.5"/>
      </g>
     </g>
    </g>
    <g id="xtick_26">
     <g id="line2d_26">
      <g>
       <use xlink:href="#mc66f468a38" x="578.427354" y="528.68419" style="fill: #262626; stroke: #262626; stroke-width: 1.5"/>
      </g>
     </g>
    </g>
    <g id="xtick_27">
     <g id="line2d_27">
      <g>
       <use xlink:href="#mc66f468a38" x="601.029634" y="528.68419" style="fill: #262626; stroke: #262626; stroke-width: 1.5"/>
      </g>
     </g>
    </g>
    <g id="xtick_28">
     <g id="line2d_28">
      <g>
       <use xlink:href="#mc66f468a38" x="623.631914" y="528.68419" style="fill: #262626; stroke: #262626; stroke-width: 1.5"/>
      </g>
     </g>
    </g>
    <g id="xtick_29">
     <g id="line2d_29">
      <g>
       <use xlink:href="#mc66f468a38" x="668.836474" y="528.68419" style="fill: #262626; stroke: #262626; stroke-width: 1.5"/>
      </g>
     </g>
    </g>
    <g id="xtick_30">
     <g id="line2d_30">
      <g>
       <use xlink:href="#mc66f468a38" x="691.438754" y="528.68419" style="fill: #262626; stroke: #262626; stroke-width: 1.5"/>
      </g>
     </g>
    </g>
    <g id="xtick_31">
     <g id="line2d_31">
      <g>
       <use xlink:href="#mc66f468a38" x="714.041034" y="528.68419" style="fill: #262626; stroke: #262626; stroke-width: 1.5"/>
      </g>
     </g>
    </g>
    <g id="xtick_32">
     <g id="line2d_32">
      <g>
       <use xlink:href="#mc66f468a38" x="736.643315" y="528.68419" style="fill: #262626; stroke: #262626; stroke-width: 1.5"/>
      </g>
     </g>
    </g>
    <g id="xtick_33">
     <g id="line2d_33">
      <g>
       <use xlink:href="#mc66f468a38" x="781.847875" y="528.68419" style="fill: #262626; stroke: #262626; stroke-width: 1.5"/>
      </g>
     </g>
    </g>
    <g id="xtick_34">
     <g id="line2d_34">
      <g>
       <use xlink:href="#mc66f468a38" x="804.450155" y="528.68419" style="fill: #262626; stroke: #262626; stroke-width: 1.5"/>
      </g>
     </g>
    </g>
    <g id="xtick_35">
     <g id="line2d_35">
      <g>
       <use xlink:href="#mc66f468a38" x="827.052435" y="528.68419" style="fill: #262626; stroke: #262626; stroke-width: 1.5"/>
      </g>
     </g>
    </g>
    <g id="xtick_36">
     <g id="line2d_36">
      <g>
       <use xlink:href="#mc66f468a38" x="849.654715" y="528.68419" style="fill: #262626; stroke: #262626; stroke-width: 1.5"/>
      </g>
     </g>
    </g>
    <g id="text_8">
     <!-- Time -->
     <g style="fill: #262626" transform="translate(433.766066 561.767972) scale(0.14 -0.14)">
      <defs>
       <path id="CMSS17-54" d="M 2317 3987 
L 2848 3987 
C 2925 3987 3002 3980 3078 3980 
L 3878 3980 
L 3878 4396 
L 218 4396 
L 218 3980 
L 1018 3980 
C 1094 3980 1171 3987 1248 3987 
L 1779 3987 
L 1779 0 
L 2317 0 
L 2317 3987 
z
" transform="scale(0.015625)"/>
       <path id="CMSS17-69" d="M 979 4224 
L 442 4224 
L 442 3686 
L 979 3686 
L 979 4224 
z
M 947 2752 
L 474 2752 
L 474 0 
L 947 0 
L 947 2752 
z
" transform="scale(0.015625)"/>
       <path id="CMSS17-6d" d="M 4288 1878 
C 4288 2309 4179 2816 3462 2816 
C 2982 2816 2694 2515 2566 2328 
C 2451 2668 2182 2816 1798 2816 
C 1363 2816 1088 2566 941 2386 
L 941 2783 
L 474 2783 
L 474 0 
L 960 0 
L 960 1556 
C 960 1936 1101 2425 1555 2425 
C 2138 2425 2138 2013 2138 1826 
L 2138 0 
L 2624 0 
L 2624 1556 
C 2624 1936 2765 2425 3219 2425 
C 3802 2425 3802 2013 3802 1826 
L 3802 0 
L 4288 0 
L 4288 1878 
z
" transform="scale(0.015625)"/>
       <path id="CMSS17-65" d="M 2502 1375 
C 2502 1587 2490 2001 2285 2347 
C 2061 2713 1696 2816 1421 2816 
C 755 2816 192 2184 192 1363 
C 192 579 774 -64 1510 -64 
C 1798 -64 2150 19 2470 249 
C 2470 275 2458 414 2451 421 
C 2451 433 2432 629 2432 655 
C 2125 408 1773 326 1517 326 
C 1107 326 666 667 646 1375 
L 2502 1375 
z
M 698 1728 
C 781 2086 1062 2425 1421 2425 
C 1517 2425 1965 2412 2080 1728 
L 698 1728 
z
" transform="scale(0.015625)"/>
      </defs>
      <use xlink:href="#CMSS17-54" transform="scale(0.996264)"/>
      <use xlink:href="#CMSS17-69" transform="translate(63.819454 0) scale(0.996264)"/>
      <use xlink:href="#CMSS17-6d" transform="translate(86.000177 0) scale(0.996264)"/>
      <use xlink:href="#CMSS17-65" transform="translate(160.229431 0) scale(0.996264)"/>
     </g>
    </g>
   </g>
   <g id="matplotlib.axis_2">
    <g id="ytick_1">
     <g id="line2d_37">
      <defs>
       <path id="mbdf98dab6a" d="M 0 0 
L -3.5 0 
" style="stroke: #262626; stroke-width: 1.5"/>
      </defs>
      <g>
       <use xlink:href="#mbdf98dab6a" x="44.448487" y="504.983124" style="fill: #262626; stroke: #262626; stroke-width: 1.5"/>
      </g>
     </g>
     <g id="text_9">
      <!-- $\mathdefault{0.0}$ -->
      <g style="fill: #262626" transform="translate(19.997905 509.826062) scale(0.14 -0.14)">
       <defs>
        <path id="CMSS17-2e" d="M 1088 512 
L 576 512 
L 576 0 
L 1088 0 
L 1088 512 
z
" transform="scale(0.015625)"/>
       </defs>
       <use xlink:href="#CMSS17-30" transform="scale(0.996264)"/>
       <use xlink:href="#CMSS17-2e" transform="translate(46.843624 0) scale(0.996264)"/>
       <use xlink:href="#CMSS17-30" transform="translate(72.867828 0) scale(0.996264)"/>
      </g>
     </g>
    </g>
    <g id="ytick_2">
     <g id="line2d_38">
      <g>
       <use xlink:href="#mbdf98dab6a" x="44.448487" y="405.153786" style="fill: #262626; stroke: #262626; stroke-width: 1.5"/>
      </g>
     </g>
     <g id="text_10">
      <!-- $\mathdefault{0.5}$ -->
      <g style="fill: #262626" transform="translate(19.997905 409.996724) scale(0.14 -0.14)">
       <use xlink:href="#CMSS17-30" transform="scale(0.996264)"/>
       <use xlink:href="#CMSS17-2e" transform="translate(46.843624 0) scale(0.996264)"/>
       <use xlink:href="#CMSS17-35" transform="translate(72.867828 0) scale(0.996264)"/>
      </g>
     </g>
    </g>
    <g id="ytick_3">
     <g id="line2d_39">
      <g>
       <use xlink:href="#mbdf98dab6a" x="44.448487" y="305.324448" style="fill: #262626; stroke: #262626; stroke-width: 1.5"/>
      </g>
     </g>
     <g id="text_11">
      <!-- $\mathdefault{1.0}$ -->
      <g style="fill: #262626" transform="translate(19.997905 310.167386) scale(0.14 -0.14)">
       <use xlink:href="#CMSS17-31" transform="scale(0.996264)"/>
       <use xlink:href="#CMSS17-2e" transform="translate(46.843624 0) scale(0.996264)"/>
       <use xlink:href="#CMSS17-30" transform="translate(72.867828 0) scale(0.996264)"/>
      </g>
     </g>
    </g>
    <g id="ytick_4">
     <g id="line2d_40">
      <g>
       <use xlink:href="#mbdf98dab6a" x="44.448487" y="205.49511" style="fill: #262626; stroke: #262626; stroke-width: 1.5"/>
      </g>
     </g>
     <g id="text_12">
      <!-- $\mathdefault{1.5}$ -->
      <g style="fill: #262626" transform="translate(19.997905 210.338048) scale(0.14 -0.14)">
       <use xlink:href="#CMSS17-31" transform="scale(0.996264)"/>
       <use xlink:href="#CMSS17-2e" transform="translate(46.843624 0) scale(0.996264)"/>
       <use xlink:href="#CMSS17-35" transform="translate(72.867828 0) scale(0.996264)"/>
      </g>
     </g>
    </g>
    <g id="ytick_5">
     <g id="line2d_41">
      <g>
       <use xlink:href="#mbdf98dab6a" x="44.448487" y="105.665771" style="fill: #262626; stroke: #262626; stroke-width: 1.5"/>
      </g>
     </g>
     <g id="text_13">
      <!-- $\mathdefault{2.0}$ -->
      <g style="fill: #262626" transform="translate(19.997905 110.50871) scale(0.14 -0.14)">
       <use xlink:href="#CMSS17-32" transform="scale(0.996264)"/>
       <use xlink:href="#CMSS17-2e" transform="translate(46.843624 0) scale(0.996264)"/>
       <use xlink:href="#CMSS17-30" transform="translate(72.867828 0) scale(0.996264)"/>
      </g>
     </g>
    </g>
    <g id="ytick_6">
     <g id="line2d_42">
      <defs>
       <path id="mbce9223a84" d="M 0 0 
L -2.5 0 
" style="stroke: #262626; stroke-width: 1.5"/>
      </defs>
      <g>
       <use xlink:href="#mbce9223a84" x="44.448487" y="524.948992" style="fill: #262626; stroke: #262626; stroke-width: 1.5"/>
      </g>
     </g>
    </g>
    <g id="ytick_7">
     <g id="line2d_43">
      <g>
       <use xlink:href="#mbce9223a84" x="44.448487" y="485.017257" style="fill: #262626; stroke: #262626; stroke-width: 1.5"/>
      </g>
     </g>
    </g>
    <g id="ytick_8">
     <g id="line2d_44">
      <g>
       <use xlink:href="#mbce9223a84" x="44.448487" y="465.051389" style="fill: #262626; stroke: #262626; stroke-width: 1.5"/>
      </g>
     </g>
    </g>
    <g id="ytick_9">
     <g id="line2d_45">
      <g>
       <use xlink:href="#mbce9223a84" x="44.448487" y="445.085521" style="fill: #262626; stroke: #262626; stroke-width: 1.5"/>
      </g>
     </g>
    </g>
    <g id="ytick_10">
     <g id="line2d_46">
      <g>
       <use xlink:href="#mbce9223a84" x="44.448487" y="425.119654" style="fill: #262626; stroke: #262626; stroke-width: 1.5"/>
      </g>
     </g>
    </g>
    <g id="ytick_11">
     <g id="line2d_47">
      <g>
       <use xlink:href="#mbce9223a84" x="44.448487" y="385.187918" style="fill: #262626; stroke: #262626; stroke-width: 1.5"/>
      </g>
     </g>
    </g>
    <g id="ytick_12">
     <g id="line2d_48">
      <g>
       <use xlink:href="#mbce9223a84" x="44.448487" y="365.222051" style="fill: #262626; stroke: #262626; stroke-width: 1.5"/>
      </g>
     </g>
    </g>
    <g id="ytick_13">
     <g id="line2d_49">
      <g>
       <use xlink:href="#mbce9223a84" x="44.448487" y="345.256183" style="fill: #262626; stroke: #262626; stroke-width: 1.5"/>
      </g>
     </g>
    </g>
    <g id="ytick_14">
     <g id="line2d_50">
      <g>
       <use xlink:href="#mbce9223a84" x="44.448487" y="325.290315" style="fill: #262626; stroke: #262626; stroke-width: 1.5"/>
      </g>
     </g>
    </g>
    <g id="ytick_15">
     <g id="line2d_51">
      <g>
       <use xlink:href="#mbce9223a84" x="44.448487" y="285.35858" style="fill: #262626; stroke: #262626; stroke-width: 1.5"/>
      </g>
     </g>
    </g>
    <g id="ytick_16">
     <g id="line2d_52">
      <g>
       <use xlink:href="#mbce9223a84" x="44.448487" y="265.392713" style="fill: #262626; stroke: #262626; stroke-width: 1.5"/>
      </g>
     </g>
    </g>
    <g id="ytick_17">
     <g id="line2d_53">
      <g>
       <use xlink:href="#mbce9223a84" x="44.448487" y="245.426845" style="fill: #262626; stroke: #262626; stroke-width: 1.5"/>
      </g>
     </g>
    </g>
    <g id="ytick_18">
     <g id="line2d_54">
      <g>
       <use xlink:href="#mbce9223a84" x="44.448487" y="225.460977" style="fill: #262626; stroke: #262626; stroke-width: 1.5"/>
      </g>
     </g>
    </g>
    <g id="ytick_19">
     <g id="line2d_55">
      <g>
       <use xlink:href="#mbce9223a84" x="44.448487" y="185.529242" style="fill: #262626; stroke: #262626; stroke-width: 1.5"/>
      </g>
     </g>
    </g>
    <g id="ytick_20">
     <g id="line2d_56">
      <g>
       <use xlink:href="#mbce9223a84" x="44.448487" y="165.563374" style="fill: #262626; stroke: #262626; stroke-width: 1.5"/>
      </g>
     </g>
    </g>
    <g id="ytick_21">
     <g id="line2d_57">
      <g>
       <use xlink:href="#mbce9223a84" x="44.448487" y="145.597507" style="fill: #262626; stroke: #262626; stroke-width: 1.5"/>
      </g>
     </g>
    </g>
    <g id="ytick_22">
     <g id="line2d_58">
      <g>
       <use xlink:href="#mbce9223a84" x="44.448487" y="125.631639" style="fill: #262626; stroke: #262626; stroke-width: 1.5"/>
      </g>
     </g>
    </g>
    <g id="ytick_23">
     <g id="line2d_59">
      <g>
       <use xlink:href="#mbce9223a84" x="44.448487" y="85.699904" style="fill: #262626; stroke: #262626; stroke-width: 1.5"/>
      </g>
     </g>
    </g>
    <g id="ytick_24">
     <g id="line2d_60">
      <g>
       <use xlink:href="#mbce9223a84" x="44.448487" y="65.734036" style="fill: #262626; stroke: #262626; stroke-width: 1.5"/>
      </g>
     </g>
    </g>
    <g id="ytick_25">
     <g id="line2d_61">
      <g>
       <use xlink:href="#mbce9223a84" x="44.448487" y="45.768168" style="fill: #262626; stroke: #262626; stroke-width: 1.5"/>
      </g>
     </g>
    </g>
    <g id="ytick_26">
     <g id="line2d_62">
      <g>
       <use xlink:href="#mbce9223a84" x="44.448487" y="25.802301" style="fill: #262626; stroke: #262626; stroke-width: 1.5"/>
      </g>
     </g>
    </g>
    <g id="text_14">
     <!-- Normalized Wound Area -->
     <g style="fill: #262626" transform="translate(13.285876 343.528969) rotate(-90) scale(0.14 -0.14)">
      <defs>
       <path id="CMSS17-4e" d="M 1466 4179 
L 1350 4416 
L 563 4416 
L 563 0 
L 1062 0 
L 1062 3925 
L 1069 3931 
C 1114 3817 1139 3759 1402 3193 
L 2771 236 
L 2886 0 
L 3674 0 
L 3674 4416 
L 3174 4416 
L 3174 490 
L 3168 484 
C 3123 598 3098 655 2835 1222 
L 1466 4179 
z
" transform="scale(0.015625)"/>
       <path id="CMSS17-6f" d="M 2829 1356 
C 2829 2175 2221 2816 1504 2816 
C 768 2816 173 2156 173 1356 
C 173 544 787 -64 1498 -64 
C 2227 -64 2829 563 2829 1356 
z
M 1504 339 
C 1050 339 659 710 659 1407 
C 659 2150 1114 2425 1498 2425 
C 1914 2425 2342 2124 2342 1407 
C 2342 684 1926 339 1504 339 
z
" transform="scale(0.015625)"/>
       <path id="CMSS17-72" d="M 954 1369 
C 954 1974 1395 2379 1958 2392 
L 1958 2816 
C 1549 2809 1165 2604 934 2270 
L 934 2783 
L 480 2783 
L 480 0 
L 954 0 
L 954 1369 
z
" transform="scale(0.015625)"/>
       <path id="CMSS17-61" d="M 2406 1789 
C 2406 2399 1978 2816 1402 2816 
C 1120 2816 813 2764 461 2559 
L 499 2133 
C 659 2250 934 2438 1395 2438 
C 1722 2438 1920 2185 1920 1782 
L 1920 1536 
C 896 1504 256 1209 256 711 
C 256 452 416 -64 947 -64 
C 1043 -64 1562 -52 1933 224 
L 1933 -13 
L 2406 -13 
L 2406 1789 
z
M 1920 824 
C 1920 711 1920 559 1728 446 
C 1562 339 1350 326 1261 326 
C 941 326 723 503 723 723 
C 723 1165 1722 1209 1920 1216 
L 1920 824 
z
" transform="scale(0.015625)"/>
       <path id="CMSS17-6c" d="M 947 4416 
L 474 4416 
L 474 0 
L 947 0 
L 947 4416 
z
" transform="scale(0.015625)"/>
       <path id="CMSS17-7a" d="M 2400 2502 
L 2400 2752 
L 250 2752 
L 250 2367 
L 1069 2367 
C 1146 2367 1222 2374 1299 2374 
L 1747 2374 
L 166 262 
L 166 0 
L 2419 0 
L 2419 396 
L 1549 396 
C 1472 396 1395 390 1318 390 
L 826 390 
L 2400 2502 
z
" transform="scale(0.015625)"/>
       <path id="CMSS17-64" d="M 2611 4416 
L 2138 4416 
L 2138 2495 
C 1939 2662 1613 2816 1254 2816 
C 672 2816 211 2179 211 1375 
C 211 572 666 -64 1235 -64 
C 1677 -64 1971 172 2125 307 
L 2125 -13 
L 2611 -13 
L 2611 4416 
z
M 2125 851 
C 2125 760 2125 663 1926 488 
C 1798 378 1645 326 1498 326 
C 1152 326 698 585 698 1369 
C 698 2185 1210 2425 1562 2425 
C 1798 2425 1990 2308 2125 2114 
L 2125 851 
z
" transform="scale(0.015625)"/>
       <path id="CMSS17-57" d="M 5581 4416 
L 5094 4416 
L 4557 2436 
C 4474 2118 4397 1800 4320 1482 
C 4205 1012 4122 681 4109 516 
L 4102 516 
C 4090 687 4006 1050 3904 1457 
C 3827 1794 3744 2131 3654 2462 
L 3123 4416 
L 2586 4416 
L 2080 2564 
L 1824 1552 
C 1632 751 1626 636 1613 509 
L 1606 509 
C 1606 547 1581 757 1402 1501 
C 1312 1870 1222 2246 1126 2602 
L 634 4416 
L 83 4416 
L 1299 0 
L 1830 0 
L 2336 1838 
L 2592 2850 
C 2765 3562 2803 3740 2816 3899 
L 2822 3899 
C 2822 3874 2880 3473 3130 2544 
L 3808 0 
L 4365 0 
L 5581 4416 
z
" transform="scale(0.015625)"/>
       <path id="CMSS17-75" d="M 2618 2752 
L 2131 2752 
L 2131 976 
C 2131 500 1786 307 1421 307 
C 998 307 960 448 960 712 
L 960 2752 
L 474 2752 
L 474 680 
C 474 179 646 -64 1088 -64 
C 1306 -64 1798 -13 2144 307 
L 2144 -13 
L 2618 -13 
L 2618 2752 
z
" transform="scale(0.015625)"/>
       <path id="CMSS17-6e" d="M 2618 1878 
C 2618 2283 2522 2816 1798 2816 
C 1389 2816 1120 2604 941 2386 
L 941 2783 
L 474 2783 
L 474 0 
L 960 0 
L 960 1556 
C 960 1962 1114 2425 1549 2425 
C 2112 2425 2131 2045 2131 1826 
L 2131 0 
L 2618 0 
L 2618 1878 
z
" transform="scale(0.015625)"/>
       <path id="CMSS17-41" d="M 2272 4416 
L 1722 4416 
L 166 0 
L 653 0 
L 1101 1280 
L 2816 1280 
L 3270 0 
L 3827 0 
L 2272 4416 
z
M 2694 1638 
L 1222 1638 
C 1530 2530 1914 3638 1958 3924 
L 1965 3924 
C 2010 3663 2138 3281 2246 2956 
L 2694 1638 
z
" transform="scale(0.015625)"/>
      </defs>
      <use xlink:href="#CMSS17-4e" transform="scale(0.996264)"/>
      <use xlink:href="#CMSS17-6f" transform="translate(66.061519 0) scale(0.996264)"/>
      <use xlink:href="#CMSS17-72" transform="translate(110.302689 0) scale(0.996264)"/>
      <use xlink:href="#CMSS17-6d" transform="translate(142.212461 0) scale(0.996264)"/>
      <use xlink:href="#CMSS17-61" transform="translate(216.441716 0) scale(0.996264)"/>
      <use xlink:href="#CMSS17-6c" transform="translate(261.363636 0) scale(0.996264)"/>
      <use xlink:href="#CMSS17-69" transform="translate(283.544359 0) scale(0.996264)"/>
      <use xlink:href="#CMSS17-7a" transform="translate(305.725082 0) scale(0.996264)"/>
      <use xlink:href="#CMSS17-65" transform="translate(346.402954 0) scale(0.996264)"/>
      <use xlink:href="#CMSS17-64" transform="translate(388.041776 0) scale(0.996264)"/>
      <use xlink:href="#CMSS17-57" transform="translate(467.475832 0) scale(0.996264)"/>
      <use xlink:href="#CMSS17-6f" transform="translate(553.115544 0) scale(0.996264)"/>
      <use xlink:href="#CMSS17-75" transform="translate(599.959168 0) scale(0.996264)"/>
      <use xlink:href="#CMSS17-6e" transform="translate(648.164111 0) scale(0.996264)"/>
      <use xlink:href="#CMSS17-64" transform="translate(696.369054 0) scale(0.996264)"/>
      <use xlink:href="#CMSS17-41" transform="translate(775.80311 0) scale(0.996264)"/>
      <use xlink:href="#CMSS17-72" transform="translate(838.020965 0) scale(0.996264)"/>
      <use xlink:href="#CMSS17-65" transform="translate(869.930738 0) scale(0.996264)"/>
      <use xlink:href="#CMSS17-61" transform="translate(911.56956 0) scale(0.996264)"/>
     </g>
    </g>
   </g>
   <g id="FillBetweenPolyCollection_1"/>
   <g id="FillBetweenPolyCollection_2"/>
   <g id="FillBetweenPolyCollection_3"/>
   <g id="FillBetweenPolyCollection_4"/>
   <g id="FillBetweenPolyCollection_5"/>
   <g id="FillBetweenPolyCollection_6"/>
   <g id="FillBetweenPolyCollection_7"/>
   <g id="FillBetweenPolyCollection_8"/>
   <g id="FillBetweenPolyCollection_9"/>
   <g id="FillBetweenPolyCollection_10"/>
   <g id="FillBetweenPolyCollection_11"/>
   <g id="FillBetweenPolyCollection_12"/>
   <g id="FillBetweenPolyCollection_13"/>
   <g id="line2d_63">
    <path d="M 81.177192 305.324448 
L 92.478332 300.15168 
L 103.779472 294.350035 
L 115.080612 288.003678 
L 126.381752 281.071231 
L 137.682892 273.357986 
L 148.984032 264.572369 
L 160.285172 254.462769 
L 171.586312 242.997608 
L 182.887452 230.526357 
L 194.188592 217.853425 
L 205.489732 206.17568 
L 216.790873 196.874727 
L 228.092013 191.205016 
L 239.393153 189.961559 
L 250.694293 193.230034 
L 261.995433 200.308118 
L 273.296573 209.841469 
L 284.597713 220.153874 
L 295.898853 229.688945 
L 307.199993 237.441275 
L 318.501133 243.252019 
L 329.802273 247.879702 
L 341.103413 252.820797 
L 352.404553 259.926352 
L 363.705693 270.918436 
L 375.006833 286.936097 
L 386.307973 308.228304 
L 397.609113 334.066515 
L 408.910253 362.887263 
L 420.211393 392.614782 
L 431.512533 421.07229 
L 442.813673 446.377705 
L 454.114813 467.235633 
L 465.415954 483.07424 
L 476.717094 504.983124 
L 488.018234 504.983124 
L 499.319374 504.983124 
L 510.620514 504.983124 
L 521.921654 504.983124 
L 533.222794 504.983124 
L 544.523934 504.983124 
L 555.825074 504.983124 
L 567.126214 504.983124 
L 578.427354 504.983124 
L 589.728494 504.983124 
L 601.029634 504.983124 
L 612.330774 504.983124 
L 623.631914 504.983124 
L 634.933054 504.983124 
L 646.234194 504.983124 
L 657.535334 504.983124 
L 668.836474 504.983124 
L 680.137614 504.983124 
L 691.438754 504.983124 
L 702.739894 504.983124 
L 714.041034 504.983124 
L 725.342175 504.983124 
L 736.643315 504.983124 
L 747.944455 504.983124 
L 759.245595 504.983124 
L 770.546735 504.983124 
L 781.847875 504.983124 
L 793.149015 504.983124 
L 804.450155 504.983124 
L 815.751295 504.983124 
" clip-path="url(#p3704508466)" style="fill: none; stroke: #f77189; stroke-opacity: 0.8; stroke-width: 2; stroke-linecap: round"/>
   </g>
   <g id="line2d_64">
    <path d="M 81.177192 305.324448 
L 92.478332 292.733997 
L 103.779472 281.481511 
L 115.080612 271.746674 
L 126.381752 263.470496 
L 137.682892 256.362458 
L 148.984032 249.862744 
L 160.285172 243.105796 
L 171.586312 234.974642 
L 182.887452 224.318045 
L 194.188592 210.318533 
L 205.489732 192.888757 
L 216.790873 172.904602 
L 228.092013 152.111616 
L 239.393153 132.670851 
L 250.694293 116.48337 
L 261.995433 104.557905 
L 273.296573 96.690726 
L 284.597713 91.600715 
L 295.898853 87.467242 
L 307.199993 82.651064 
L 318.501133 76.317853 
L 329.802273 68.747838 
L 341.103413 61.257385 
L 352.404553 55.802963 
L 363.705693 54.425273 
L 375.006833 58.706143 
L 386.307973 69.377212 
L 397.609113 86.170769 
L 408.910253 107.953702 
L 420.211393 133.125834 
L 431.512533 160.182081 
L 442.813673 188.247696 
L 454.114813 217.345775 
L 465.415954 248.205014 
L 476.717094 281.586404 
L 488.018234 317.351724 
L 499.319374 353.699225 
L 510.620514 387.024446 
L 521.921654 412.662368 
L 533.222794 426.385379 
L 544.523934 426.135786 
L 555.825074 413.264716 
L 567.126214 392.663393 
L 578.427354 371.589488 
L 589.728494 357.536616 
L 601.029634 355.919328 
L 612.330774 368.447245 
L 623.631914 392.788581 
L 634.933054 423.599426 
L 646.234194 454.45858 
L 657.535334 504.983124 
L 668.836474 504.983124 
L 680.137614 505.529722 
L 691.438754 504.983124 
L 702.739894 504.983124 
L 714.041034 504.983124 
L 725.342175 504.983124 
L 736.643315 504.983124 
L 747.944455 504.983124 
L 759.245595 504.983124 
L 770.546735 504.983124 
L 781.847875 504.983124 
L 793.149015 504.983124 
L 804.450155 504.983124 
L 815.751295 504.983124 
" clip-path="url(#p3704508466)" style="fill: none; stroke: #eb8032; stroke-opacity: 0.8; stroke-width: 2; stroke-linecap: round"/>
   </g>
   <g id="line2d_65">
    <path d="M 81.177192 305.324448 
L 92.478332 283.349934 
L 103.779472 262.952228 
L 115.080612 246.513189 
L 126.381752 235.810121 
L 137.682892 231.499365 
L 148.984032 232.81557 
L 160.285172 237.618834 
L 171.586312 242.829334 
L 182.887452 245.16455 
L 194.188592 241.981059 
L 205.489732 231.96735 
L 216.790873 215.465382 
L 228.092013 194.312964 
L 239.393153 171.258467 
L 250.694293 149.144269 
L 261.995433 130.12964 
L 273.296573 115.198904 
L 284.597713 104.088541 
L 295.898853 95.614263 
L 307.199993 88.246682 
L 318.501133 80.719936 
L 329.802273 72.477241 
L 341.103413 63.84109 
L 352.404553 55.901409 
L 363.705693 50.199632 
L 375.006833 48.32536 
L 386.307973 51.535555 
L 397.609113 60.472906 
L 408.910253 75.023378 
L 420.211393 94.326592 
L 431.512533 116.93605 
L 442.813673 141.109277 
L 454.114813 165.18234 
L 465.415954 187.951096 
L 476.717094 208.957307 
L 488.018234 228.580398 
L 499.319374 247.876931 
L 510.620514 268.18472 
L 521.921654 290.593691 
L 533.222794 315.44763 
L 544.523934 342.051126 
L 555.825074 368.703257 
L 567.126214 393.077567 
L 578.427354 412.850687 
L 589.728494 426.391518 
L 601.029634 433.292618 
L 612.330774 434.567758 
L 623.631914 432.441194 
L 634.933054 429.781307 
L 646.234194 429.341918 
L 657.535334 433.033477 
L 668.836474 441.435682 
L 680.137614 453.688292 
L 691.438754 467.782774 
L 702.739894 481.160097 
L 714.041034 491.434659 
L 725.342175 504.983124 
L 736.643315 504.983124 
L 747.944455 504.983124 
L 759.245595 487.861547 
L 770.546735 481.501448 
L 781.847875 476.791283 
L 793.149015 474.968362 
L 804.450155 476.339834 
L 815.751295 480.33632 
" clip-path="url(#p3704508466)" style="fill: none; stroke: #c19632; stroke-opacity: 0.8; stroke-width: 2; stroke-linecap: round"/>
   </g>
   <g id="line2d_66">
    <path d="M 81.177192 305.324448 
L 92.478332 258.888495 
L 103.779472 228.12787 
L 115.080612 208.637101 
L 126.381752 194.665173 
L 137.682892 182.559457 
L 148.984032 171.94296 
L 160.285172 164.296667 
L 171.586312 160.435204 
L 182.887452 158.967226 
L 194.188592 156.860294 
L 205.489732 151.519052 
L 216.790873 142.661706 
L 228.092013 132.521135 
L 239.393153 124.206494 
L 250.694293 119.403092 
L 261.995433 117.022263 
L 273.296573 113.730429 
L 284.597713 106.034454 
L 295.898853 92.609526 
L 307.199993 75.402116 
L 318.501133 58.772664 
L 329.802273 47.126234 
L 341.103413 42.440345 
L 352.404553 43.250942 
L 363.705693 45.826508 
L 375.006833 46.866598 
L 386.307973 45.970717 
L 397.609113 46.139058 
L 408.910253 51.82398 
L 420.211393 65.787044 
L 431.512533 86.993668 
L 442.813673 111.170415 
L 454.114813 133.755024 
L 465.415954 153.126963 
L 476.717094 171.665304 
L 488.018234 193.740395 
L 499.319374 222.109991 
L 510.620514 255.510079 
L 521.921654 289.368403 
L 533.222794 319.115313 
L 544.523934 343.472589 
L 555.825074 365.104688 
L 567.126214 388.150554 
L 578.427354 414.66001 
L 589.728494 442.765636 
L 601.029634 467.917122 
L 612.330774 486.031465 
L 623.631914 496.04446 
L 634.933054 500.09262 
L 646.234194 504.983124 
L 657.535334 504.983124 
L 668.836474 504.983124 
L 680.137614 504.983124 
L 691.438754 504.983124 
L 702.739894 504.983124 
L 714.041034 504.983124 
L 725.342175 504.983124 
L 736.643315 504.983124 
L 747.944455 504.983124 
L 759.245595 504.983124 
L 770.546735 504.983124 
L 781.847875 504.983124 
L 793.149015 504.983124 
L 804.450155 504.983124 
L 815.751295 504.983124 
" clip-path="url(#p3704508466)" style="fill: none; stroke: #a0a131; stroke-opacity: 0.8; stroke-width: 2; stroke-linecap: round"/>
   </g>
   <g id="line2d_67">
    <path d="M 81.177192 305.324448 
L 92.478332 298.867972 
L 103.779472 292.049247 
L 115.080612 285.205036 
L 126.381752 278.684733 
L 137.682892 272.789749 
L 148.984032 267.721945 
L 160.285172 263.553135 
L 171.586312 260.223894 
L 182.887452 257.573868 
L 194.188592 255.398641 
L 205.489732 253.521676 
L 216.790873 251.865458 
L 228.092013 250.50495 
L 239.393153 249.689307 
L 250.694293 249.824016 
L 261.995433 251.413995 
L 273.296573 254.976812 
L 284.597713 260.942184 
L 295.898853 269.557575 
L 307.199993 280.8192 
L 318.501133 294.44317 
L 329.802273 309.883791 
L 341.103413 326.396881 
L 352.404553 343.13738 
L 363.705693 359.274138 
L 375.006833 374.1019 
L 386.307973 387.131515 
L 397.609113 398.143847 
L 408.910253 407.199773 
L 420.211393 414.606512 
L 431.512533 420.847883 
L 442.813673 426.491668 
L 454.114813 432.090261 
L 465.415954 438.090917 
L 476.717094 444.769348 
L 488.018234 452.195825 
L 499.319374 460.237116 
L 510.620514 468.591621 
L 521.921654 476.849769 
L 533.222794 484.568106 
L 544.523934 491.343864 
L 555.825074 504.983124 
L 567.126214 504.983124 
L 578.427354 504.983124 
L 589.728494 504.983124 
L 601.029634 504.983124 
L 612.330774 504.983124 
L 623.631914 504.983124 
L 634.933054 504.983124 
L 646.234194 504.983124 
L 657.535334 504.983124 
L 668.836474 504.983124 
L 680.137614 504.983124 
L 691.438754 504.983124 
L 702.739894 504.983124 
L 714.041034 504.983124 
L 725.342175 504.983124 
L 736.643315 504.983124 
L 747.944455 504.983124 
L 759.245595 504.983124 
L 770.546735 504.983124 
L 781.847875 504.983124 
L 793.149015 504.983124 
L 804.450155 504.983124 
L 815.751295 504.983124 
" clip-path="url(#p3704508466)" style="fill: none; stroke: #71ac31; stroke-opacity: 0.8; stroke-width: 2; stroke-linecap: round"/>
   </g>
   <g id="line2d_68">
    <path d="M 81.177192 305.324448 
L 92.478332 289.113097 
L 103.779472 270.049435 
L 115.080612 250.24854 
L 126.381752 231.644351 
L 137.682892 215.484883 
L 148.984032 202.076252 
L 160.285172 190.862063 
L 171.586312 180.795301 
L 182.887452 170.846892 
L 194.188592 160.447657 
L 205.489732 149.698872 
L 216.790873 139.292408 
L 228.092013 130.205236 
L 239.393153 123.319438 
L 250.694293 119.132063 
L 261.995433 117.659423 
L 273.296573 118.541717 
L 284.597713 121.265152 
L 295.898853 125.379746 
L 307.199993 130.614195 
L 318.501133 136.856799 
L 329.802273 144.046706 
L 341.103413 152.065577 
L 352.404553 160.715555 
L 363.705693 169.81802 
L 375.006833 179.393389 
L 386.307973 189.819972 
L 397.609113 201.851714 
L 408.910253 216.416889 
L 420.211393 234.213896 
L 431.512533 255.232028 
L 442.813673 278.403559 
L 454.114813 301.591545 
L 465.415954 322.016062 
L 476.717094 337.046099 
L 488.018234 345.104321 
L 499.319374 346.333652 
L 510.620514 342.720629 
L 521.921654 337.561804 
L 533.222794 334.425492 
L 544.523934 335.98557 
L 555.825074 343.178487 
L 567.126214 355.014805 
L 578.427354 369.108448 
L 589.728494 382.689374 
L 601.029634 393.673332 
L 612.330774 401.360955 
L 623.631914 406.521564 
L 634.933054 410.89275 
L 646.234194 416.36509 
L 657.535334 424.219111 
L 668.836474 434.710147 
L 680.137614 447.108312 
L 691.438754 460.095538 
L 702.739894 472.293397 
L 714.041034 482.688461 
L 725.342175 490.816961 
L 736.643315 504.983124 
L 747.944455 504.983124 
L 759.245595 504.983124 
L 770.546735 504.983124 
L 781.847875 504.983124 
L 793.149015 504.983124 
L 804.450155 504.983124 
L 815.751295 504.983124 
" clip-path="url(#p3704508466)" style="fill: none; stroke: #33b16f; stroke-opacity: 0.8; stroke-width: 2; stroke-linecap: round"/>
   </g>
   <g id="line2d_69">
    <path d="M 81.177192 305.324448 
L 92.478332 295.745316 
L 103.779472 287.042366 
L 115.080612 278.6418 
L 126.381752 269.933925 
L 137.682892 260.491181 
L 148.984032 250.235078 
L 160.285172 239.494175 
L 171.586312 228.927962 
L 182.887452 219.336091 
L 194.188592 211.414106 
L 205.489732 205.540045 
L 216.790873 201.670564 
L 228.092013 199.389966 
L 239.393153 198.100812 
L 250.694293 197.289766 
L 261.995433 196.768127 
L 273.296573 196.788722 
L 284.597713 197.98231 
L 295.898853 201.124886 
L 307.199993 206.817263 
L 318.501133 215.201679 
L 329.802273 225.83625 
L 341.103413 237.794034 
L 352.404553 249.966948 
L 363.705693 261.469105 
L 375.006833 271.985081 
L 386.307973 281.919381 
L 397.609113 292.273538 
L 408.910253 304.281173 
L 420.211393 318.927933 
L 431.512533 336.532474 
L 442.813673 356.545516 
L 454.114813 377.643098 
L 465.415954 398.080237 
L 476.717094 416.176328 
L 488.018234 430.761179 
L 499.319374 441.435017 
L 510.620514 448.573653 
L 521.921654 453.106942 
L 533.222794 456.175114 
L 544.523934 458.795632 
L 555.825074 461.647691 
L 567.126214 465.019245 
L 578.427354 468.892625 
L 589.728494 473.097943 
L 601.029634 477.454109 
L 612.330774 481.842736 
L 623.631914 486.203697 
L 634.933054 490.480586 
L 646.234194 494.563273 
L 657.535334 498.268005 
L 668.836474 504.983124 
L 680.137614 504.983124 
L 691.438754 504.983124 
L 702.739894 504.983124 
L 714.041034 504.983124 
L 725.342175 504.983124 
L 736.643315 504.983124 
L 747.944455 504.983124 
L 759.245595 504.983124 
L 770.546735 504.983124 
L 781.847875 504.983124 
L 793.149015 504.983124 
L 804.450155 504.983124 
L 815.751295 504.983124 
" clip-path="url(#p3704508466)" style="fill: none; stroke: #35ae97; stroke-opacity: 0.8; stroke-width: 2; stroke-linecap: round"/>
   </g>
   <g id="line2d_70">
    <path d="M 81.177192 305.324448 
L 92.478332 278.189676 
L 103.779472 263.635186 
L 115.080612 255.792654 
L 126.381752 247.045008 
L 137.682892 233.656181 
L 148.984032 217.219361 
L 160.285172 201.464129 
L 171.586312 188.374517 
L 182.887452 177.70472 
L 194.188592 169.760027 
L 205.489732 167.394398 
L 216.790873 173.982391 
L 228.092013 188.923559 
L 239.393153 205.756588 
L 250.694293 216.020018 
L 261.995433 216.180073 
L 273.296573 211.193051 
L 284.597713 210.765535 
L 295.898853 221.091792 
L 307.199993 239.350528 
L 318.501133 255.996983 
L 329.802273 262.819156 
L 341.103413 259.517627 
L 352.404553 253.185303 
L 363.705693 251.83877 
L 375.006833 258.411929 
L 386.307973 270.387397 
L 397.609113 284.186652 
L 408.910253 298.964549 
L 420.211393 315.946335 
L 431.512533 334.847962 
L 442.813673 352.167051 
L 454.114813 363.76534 
L 465.415954 369.030357 
L 476.717094 371.896065 
L 488.018234 377.389944 
L 499.319374 387.257095 
L 510.620514 399.07688 
L 521.921654 409.356342 
L 533.222794 416.98146 
L 544.523934 423.571972 
L 555.825074 431.015792 
L 567.126214 439.273881 
L 578.427354 446.641995 
L 589.728494 451.70816 
L 601.029634 454.756964 
L 612.330774 457.487081 
L 623.631914 461.742834 
L 634.933054 468.471684 
L 646.234194 477.368414 
L 657.535334 487.003717 
L 668.836474 504.983124 
L 680.137614 504.983124 
L 691.438754 504.983124 
L 702.739894 504.983124 
L 714.041034 504.983124 
L 725.342175 504.983124 
L 736.643315 504.983124 
L 747.944455 504.983124 
L 759.245595 504.983124 
L 770.546735 504.983124 
L 781.847875 504.983124 
L 793.149015 504.983124 
L 804.450155 504.983124 
L 815.751295 504.983124 
" clip-path="url(#p3704508466)" style="fill: none; stroke: #36abb0; stroke-opacity: 0.8; stroke-width: 2; stroke-linecap: round"/>
   </g>
   <g id="line2d_71">
    <path d="M 81.177192 305.324448 
L 92.478332 293.484948 
L 103.779472 284.166069 
L 115.080612 277.062093 
L 126.381752 271.256189 
L 137.682892 265.51694 
L 148.984032 258.711255 
L 160.285172 250.21188 
L 171.586312 240.167638 
L 182.887452 229.537724 
L 194.188592 219.860199 
L 205.489732 212.808822 
L 216.790873 209.664471 
L 228.092013 210.863086 
L 239.393153 215.767832 
L 250.694293 222.751116 
L 261.995433 229.57993 
L 273.296573 234.003829 
L 284.597713 234.378424 
L 295.898853 230.140722 
L 307.199993 221.992943 
L 318.501133 211.737344 
L 329.802273 201.809625 
L 341.103413 194.649049 
L 352.404553 192.09007 
L 363.705693 194.948019 
L 375.006833 202.905427 
L 386.307973 214.709248 
L 397.609113 228.595715 
L 408.910253 242.799475 
L 420.211393 255.994034 
L 431.512533 267.549704 
L 442.813673 277.564591 
L 454.114813 286.696989 
L 465.415954 295.879451 
L 476.717094 306.012552 
L 488.018234 317.720902 
L 499.319374 331.217856 
L 510.620514 346.285477 
L 521.921654 362.346852 
L 533.222794 378.594833 
L 544.523934 394.142642 
L 555.825074 408.169857 
L 567.126214 420.044966 
L 578.427354 429.409307 
L 589.728494 436.208912 
L 601.029634 440.665323 
L 612.330774 443.1878 
L 623.631914 444.246682 
L 634.933054 444.244597 
L 646.234194 443.429533 
L 657.535334 441.884378 
L 668.836474 439.601052 
L 680.137614 436.612487 
L 691.438754 433.12682 
L 702.739894 429.599602 
L 714.041034 426.698392 
L 725.342175 425.154975 
L 736.643315 425.548134 
L 747.944455 428.094279 
L 759.245595 432.528698 
L 770.546735 438.132445 
L 781.847875 443.908648 
L 793.149015 448.857 
L 804.450155 452.257791 
L 815.751295 453.871493 
" clip-path="url(#p3704508466)" style="fill: none; stroke: #39a8cc; stroke-opacity: 0.8; stroke-width: 2; stroke-linecap: round"/>
   </g>
   <g id="line2d_72">
    <path d="M 81.177192 305.324448 
L 92.478332 294.223129 
L 103.779472 284.630033 
L 115.080612 276.233656 
L 126.381752 268.449619 
L 137.682892 260.575345 
L 148.984032 251.980559 
L 160.285172 242.289489 
L 171.586312 231.509558 
L 182.887452 220.072106 
L 194.188592 208.771011 
L 205.489732 198.610296 
L 216.790873 190.595262 
L 228.092013 185.517097 
L 239.393153 183.783775 
L 250.694293 185.339353 
L 261.995433 189.691916 
L 273.296573 196.043156 
L 284.597713 203.486956 
L 295.898853 211.227267 
L 307.199993 218.7615 
L 318.501133 225.985507 
L 329.802273 233.197245 
L 341.103413 241.002401 
L 352.404553 250.149499 
L 363.705693 261.33767 
L 375.006833 275.043612 
L 386.307973 291.40507 
L 397.609113 310.180067 
L 408.910253 330.780146 
L 420.211393 352.358627 
L 431.512533 373.926181 
L 442.813673 394.467342 
L 454.114813 413.0409 
L 465.415954 428.859287 
L 476.717094 441.351595 
L 488.018234 450.217442 
L 499.319374 455.473768 
L 510.620514 457.486648 
L 521.921654 456.970817 
L 533.222794 454.936731 
L 544.523934 452.572247 
L 555.825074 451.062962 
L 567.126214 451.377246 
L 578.427354 454.061157 
L 589.728494 459.097084 
L 601.029634 465.872811 
L 612.330774 473.284804 
L 623.631914 479.966205 
L 634.933054 484.595575 
L 646.234194 504.983124 
L 657.535334 504.983124 
L 668.836474 504.983124 
L 680.137614 504.983124 
L 691.438754 504.983124 
L 702.739894 504.983124 
L 714.041034 504.983124 
L 725.342175 504.983124 
L 736.643315 504.983124 
L 747.944455 504.983124 
L 759.245595 504.983124 
L 770.546735 504.983124 
L 781.847875 504.983124 
L 793.149015 504.983124 
L 804.450155 504.983124 
L 815.751295 504.983124 
" clip-path="url(#p3704508466)" style="fill: none; stroke: #639df4; stroke-opacity: 0.8; stroke-width: 2; stroke-linecap: round"/>
   </g>
   <g id="line2d_73">
    <path d="M 81.177192 305.324448 
L 92.478332 288.213768 
L 103.779472 270.672282 
L 115.080612 256.448451 
L 126.381752 247.600136 
L 137.682892 243.44927 
L 148.984032 241.197755 
L 160.285172 237.803222 
L 171.586312 231.819702 
L 182.887452 223.979535 
L 194.188592 216.255675 
L 205.489732 210.228267 
L 216.790873 205.97528 
L 228.092013 202.187855 
L 239.393153 197.247257 
L 250.694293 190.347255 
L 261.995433 181.864422 
L 273.296573 172.902881 
L 284.597713 164.621922 
L 295.898853 158.006042 
L 307.199993 154.150281 
L 318.501133 154.51485 
L 329.802273 160.605213 
L 341.103413 173.180278 
L 352.404553 191.69121 
L 363.705693 214.501455 
L 375.006833 239.637348 
L 386.307973 265.269918 
L 397.609113 289.547973 
L 408.910253 310.386248 
L 420.211393 326.135436 
L 431.512533 337.082615 
L 442.813673 346.354074 
L 454.114813 358.692585 
L 465.415954 377.322653 
L 476.717094 401.230728 
L 488.018234 425.432935 
L 499.319374 444.501504 
L 510.620514 456.630079 
L 521.921654 464.676059 
L 533.222794 473.024389 
L 544.523934 482.86565 
L 555.825074 490.192967 
L 567.126214 488.711875 
L 578.427354 475.545788 
L 589.728494 454.889581 
L 601.029634 436.198894 
L 612.330774 428.029894 
L 623.631914 432.356372 
L 634.933054 443.83312 
L 646.234194 454.383251 
L 657.535334 459.234532 
L 668.836474 459.66845 
L 680.137614 460.751544 
L 691.438754 466.43206 
L 702.739894 476.202075 
L 714.041034 485.828525 
L 725.342175 491.146403 
L 736.643315 491.539806 
L 747.944455 490.272264 
L 759.245595 504.983124 
L 770.546735 504.983124 
L 781.847875 504.983124 
L 793.149015 504.983124 
L 804.450155 504.983124 
L 815.751295 504.983124 
" clip-path="url(#p3704508466)" style="fill: none; stroke: #b486f4; stroke-opacity: 0.8; stroke-width: 2; stroke-linecap: round"/>
   </g>
   <g id="line2d_74">
    <path d="M 81.177192 305.324448 
L 92.478332 287.320408 
L 103.779472 269.661385 
L 115.080612 253.038488 
L 126.381752 238.059495 
L 137.682892 225.188936 
L 148.984032 214.699499 
L 160.285172 206.642007 
L 171.586312 200.839777 
L 182.887452 196.910706 
L 194.188592 194.317125 
L 205.489732 192.439655 
L 216.790873 190.667473 
L 228.092013 188.494175 
L 239.393153 185.606341 
L 250.694293 181.951564 
L 261.995433 177.774312 
L 273.296573 173.611619 
L 284.597713 170.24588 
L 295.898853 168.618258 
L 307.199993 169.71246 
L 318.501133 174.423846 
L 329.802273 183.431996 
L 341.103413 197.095268 
L 352.404553 215.383336 
L 363.705693 237.858376 
L 375.006833 263.708378 
L 386.307973 291.828132 
L 397.609113 320.936148 
L 408.910253 349.710472 
L 420.211393 376.923866 
L 431.512533 401.559694 
L 442.813673 422.893719 
L 454.114813 440.533202 
L 465.415954 454.411907 
L 476.717094 464.746573 
L 488.018234 471.965849 
L 499.319374 476.625716 
L 510.620514 479.325775 
L 521.921654 504.983124 
L 533.222794 504.983124 
L 544.523934 480.983003 
L 555.825074 480.696887 
L 567.126214 480.399053 
L 578.427354 480.219949 
L 589.728494 480.248037 
L 601.029634 480.549972 
L 612.330774 481.181539 
L 623.631914 482.188098 
L 634.933054 483.596023 
L 646.234194 485.398713 
L 657.535334 504.983124 
L 668.836474 489.912149 
L 680.137614 504.983124 
L 691.438754 504.983124 
L 702.739894 504.983124 
L 714.041034 504.983124 
L 725.342175 504.983124 
L 736.643315 504.983124 
L 747.944455 504.983124 
L 759.245595 504.983124 
L 770.546735 504.983124 
L 781.847875 504.983124 
L 793.149015 504.983124 
L 804.450155 504.983124 
L 815.751295 504.983124 
" clip-path="url(#p3704508466)" style="fill: none; stroke: #f35cf4; stroke-opacity: 0.8; stroke-width: 2; stroke-linecap: round"/>
   </g>
   <g id="line2d_75">
    <path d="M 81.177192 305.324448 
L 92.478332 287.802393 
L 103.779472 269.033111 
L 115.080612 250.646678 
L 126.381752 234.191218 
L 137.682892 220.767402 
L 148.984032 210.779412 
L 160.285172 203.901669 
L 171.586312 199.291405 
L 182.887452 195.985251 
L 194.188592 193.338728 
L 205.489732 191.336515 
L 216.790873 190.638268 
L 228.092013 192.322451 
L 239.393153 197.414082 
L 250.694293 206.38089 
L 261.995433 218.810344 
L 273.296573 233.418243 
L 284.597713 248.407063 
L 295.898853 262.042376 
L 307.199993 273.214242 
L 318.501133 281.746863 
L 329.802273 288.321481 
L 341.103413 294.044079 
L 352.404553 299.84797 
L 363.705693 305.999747 
L 375.006833 311.937636 
L 386.307973 316.52914 
L 397.609113 318.651679 
L 408.910253 317.855191 
L 420.211393 314.821289 
L 431.512533 311.407108 
L 442.813673 310.22132 
L 454.114813 313.85964 
L 465.415954 324.057419 
L 476.717094 341.050891 
L 488.018234 363.368237 
L 499.319374 388.126874 
L 510.620514 411.748125 
L 521.921654 430.871092 
L 533.222794 443.194378 
L 544.523934 448.008925 
L 555.825074 446.28998 
L 567.126214 440.352421 
L 578.427354 433.19636 
L 589.728494 427.74314 
L 601.029634 426.169477 
L 612.330774 429.495752 
L 623.631914 437.497013 
L 634.933054 448.912425 
L 646.234194 461.857312 
L 657.535334 474.306993 
L 668.836474 504.983124 
L 680.137614 504.983124 
L 691.438754 504.983124 
L 702.739894 504.983124 
L 714.041034 504.983124 
L 725.342175 504.983124 
L 736.643315 504.983124 
L 747.944455 504.983124 
L 759.245595 504.983124 
L 770.546735 504.983124 
L 781.847875 504.983124 
L 793.149015 504.983124 
L 804.450155 504.983124 
L 815.751295 504.983124 
" clip-path="url(#p3704508466)" style="fill: none; stroke: #f668be; stroke-opacity: 0.8; stroke-width: 2; stroke-linecap: round"/>
   </g>
   <g id="line2d_76"/>
   <g id="line2d_77"/>
   <g id="line2d_78"/>
   <g id="line2d_79"/>
   <g id="line2d_80"/>
   <g id="line2d_81"/>
   <g id="line2d_82"/>
   <g id="line2d_83"/>
   <g id="line2d_84"/>
   <g id="line2d_85"/>
   <g id="line2d_86"/>
   <g id="line2d_87"/>
   <g id="line2d_88"/>
   <g id="patch_3">
    <path d="M 44.448487 528.68419 
L 44.448487 19.285876 
" style="fill: none; stroke: #262626; stroke-width: 1.5; stroke-linejoin: miter; stroke-linecap: square"/>
   </g>
   <g id="patch_4">
    <path d="M 852.48 528.68419 
L 852.48 19.285876 
" style="fill: none; stroke: #262626; stroke-width: 1.5; stroke-linejoin: miter; stroke-linecap: square"/>
   </g>
   <g id="patch_5">
    <path d="M 44.448487 528.68419 
L 852.48 528.68419 
" style="fill: none; stroke: #262626; stroke-width: 1.5; stroke-linejoin: miter; stroke-linecap: square"/>
   </g>
   <g id="patch_6">
    <path d="M 44.448487 19.285876 
L 852.48 19.285876 
" style="fill: none; stroke: #262626; stroke-width: 1.5; stroke-linejoin: miter; stroke-linecap: square"/>
   </g>
   <g id="text_15">
    <!-- DMSO Wells: Individual Time Series with Labels -->
    <g style="fill: #262626" transform="translate(309.090654 13.285876) scale(0.14 -0.14)">
     <defs>
      <path id="CMSS17-44" d="M 570 4416 
L 570 0 
L 2144 0 
C 3194 0 4000 981 4000 2169 
C 4000 3396 3194 4416 2144 4416 
L 570 4416 
z
M 1094 358 
L 1094 4057 
L 2003 4057 
C 2861 4057 3475 3275 3475 2169 
C 3475 1108 2867 358 2003 358 
L 1094 358 
z
" transform="scale(0.015625)"/>
      <path id="CMSS17-4d" d="M 3194 2373 
L 2886 1476 
C 2835 1311 2662 795 2624 592 
L 2618 592 
C 2598 719 2560 853 2458 1177 
C 2400 1368 2336 1565 2272 1743 
L 1325 4416 
L 576 4416 
L 576 0 
L 1075 0 
L 1075 3899 
L 1082 3899 
C 1082 3893 1139 3613 1530 2500 
L 2374 102 
L 2848 102 
L 3610 2233 
C 3661 2379 3821 2843 3891 3066 
C 3955 3257 4115 3728 4154 3912 
L 4160 3912 
L 4160 0 
L 4666 0 
L 4666 4416 
L 3923 4416 
L 3194 2373 
z
" transform="scale(0.015625)"/>
      <path id="CMSS17-53" d="M 2797 4230 
C 2515 4396 2208 4544 1690 4544 
C 864 4544 333 3934 333 3309 
C 333 3064 403 2787 653 2504 
C 902 2220 1184 2143 1542 2053 
C 1690 2014 1939 1943 1984 1924 
C 2342 1782 2515 1454 2515 1144 
C 2515 738 2202 307 1645 307 
C 1453 307 890 339 358 829 
L 269 320 
C 794 -64 1363 -128 1651 -128 
C 2438 -128 3002 494 3002 1202 
C 3002 1460 2925 1789 2656 2092 
C 2394 2381 2163 2446 1638 2588 
C 1338 2665 1146 2717 986 2916 
C 877 3058 819 3193 819 3367 
C 819 3728 1126 4121 1690 4121 
C 1971 4121 2336 4063 2707 3715 
L 2797 4230 
z
" transform="scale(0.015625)"/>
      <path id="CMSS17-4f" d="M 4096 2201 
C 4096 3541 3219 4544 2214 4544 
C 1210 4544 333 3535 333 2201 
C 333 855 1222 -128 2214 -128 
C 3206 -128 4096 855 4096 2201 
z
M 2214 275 
C 1510 275 870 1067 870 2285 
C 870 3470 1549 4140 2214 4140 
C 2880 4140 3558 3470 3558 2285 
C 3558 1061 2912 275 2214 275 
z
" transform="scale(0.015625)"/>
      <path id="CMSS17-73" d="M 2061 2623 
C 1683 2803 1389 2816 1197 2816 
C 742 2816 198 2655 198 2009 
C 198 1363 902 1222 1094 1183 
C 1389 1126 1715 1062 1715 742 
C 1715 339 1254 339 1171 339 
C 915 339 563 409 243 639 
L 166 211 
C 531 0 883 -64 1178 -64 
C 1965 -64 2163 416 2163 780 
C 2163 1094 1984 1305 1862 1401 
C 1651 1567 1574 1587 1050 1695 
C 960 1708 646 1779 646 2067 
C 646 2431 1050 2431 1139 2431 
C 1555 2431 1811 2303 1984 2207 
L 2061 2623 
z
" transform="scale(0.015625)"/>
      <path id="CMSS17-3a" d="M 1088 2752 
L 576 2752 
L 576 2239 
L 1088 2239 
L 1088 2752 
z
M 576 512 
L 576 0 
L 1088 0 
L 1088 512 
L 576 512 
z
" transform="scale(0.015625)"/>
      <path id="CMSS17-49" d="M 1094 4416 
L 557 4416 
L 557 0 
L 1094 0 
L 1094 4416 
z
" transform="scale(0.015625)"/>
      <path id="CMSS17-76" d="M 2675 2752 
L 2176 2752 
L 1747 1555 
C 1613 1164 1421 627 1389 352 
L 1382 352 
C 1370 467 1318 633 1286 748 
C 1248 889 1197 1056 1158 1171 
L 595 2752 
L 83 2752 
L 1094 0 
L 1664 0 
L 2675 2752 
z
" transform="scale(0.015625)"/>
      <path id="CMSS17-77" d="M 4013 2752 
L 3526 2752 
L 3187 1600 
C 3117 1356 2918 684 2893 371 
L 2886 371 
C 2874 563 2765 1024 2586 1632 
L 2259 2752 
L 1818 2752 
L 1498 1657 
C 1338 1100 1216 627 1203 371 
L 1197 371 
C 1171 748 909 1632 870 1772 
L 582 2752 
L 83 2752 
L 915 0 
L 1402 0 
C 1734 1100 1990 1952 2010 2380 
C 2022 2169 2131 1715 2195 1491 
L 2618 0 
L 3181 0 
L 4013 2752 
z
" transform="scale(0.015625)"/>
      <path id="CMSS17-74" d="M 1069 2380 
L 1901 2380 
L 1901 2752 
L 1069 2752 
L 1069 3520 
L 614 3520 
L 614 2752 
L 109 2752 
L 109 2380 
L 602 2380 
L 602 751 
C 602 384 685 -64 1107 -64 
C 1427 -64 1722 25 2003 172 
L 1901 551 
C 1747 416 1562 339 1363 339 
C 1082 339 1069 699 1069 860 
L 1069 2380 
z
" transform="scale(0.015625)"/>
      <path id="CMSS17-68" d="M 2618 1878 
C 2618 2283 2522 2816 1798 2816 
C 1395 2816 1133 2617 947 2399 
L 947 4416 
L 474 4416 
L 474 0 
L 960 0 
L 960 1556 
C 960 1962 1114 2425 1549 2425 
C 2112 2425 2131 2045 2131 1826 
L 2131 0 
L 2618 0 
L 2618 1878 
z
" transform="scale(0.015625)"/>
      <path id="CMSS17-4c" d="M 1670 416 
C 1594 416 1517 409 1440 409 
L 1101 409 
L 1101 4416 
L 563 4416 
L 563 0 
L 3002 0 
L 3002 416 
L 1670 416 
z
" transform="scale(0.015625)"/>
      <path id="CMSS17-62" d="M 954 4416 
L 480 4416 
L 480 -13 
L 966 -13 
L 966 275 
C 1210 38 1504 -64 1766 -64 
C 2381 -64 2880 559 2880 1382 
C 2880 2133 2496 2816 1926 2816 
C 1523 2816 1165 2649 954 2476 
L 954 4416 
z
M 966 2095 
C 1107 2276 1306 2425 1587 2425 
C 1965 2425 2394 2146 2394 1382 
C 2394 566 1882 326 1530 326 
C 1402 326 1267 358 1139 468 
C 966 624 966 721 966 812 
L 966 2095 
z
" transform="scale(0.015625)"/>
     </defs>
     <use xlink:href="#CMSS17-44" transform="scale(0.996264)"/>
     <use xlink:href="#CMSS17-4d" transform="translate(67.542842 0) scale(0.996264)"/>
     <use xlink:href="#CMSS17-53" transform="translate(149.218872 0) scale(0.996264)"/>
     <use xlink:href="#CMSS17-4f" transform="translate(201.267388 0) scale(0.996264)"/>
     <use xlink:href="#CMSS17-57" transform="translate(301.520756 0) scale(0.996264)"/>
     <use xlink:href="#CMSS17-65" transform="translate(387.160468 0) scale(0.996264)"/>
     <use xlink:href="#CMSS17-6c" transform="translate(428.79929 0) scale(0.996264)"/>
     <use xlink:href="#CMSS17-6c" transform="translate(450.980013 0) scale(0.996264)"/>
     <use xlink:href="#CMSS17-73" transform="translate(473.160736 0) scale(0.996264)"/>
     <use xlink:href="#CMSS17-3a" transform="translate(509.074278 0) scale(0.996264)"/>
     <use xlink:href="#CMSS17-49" transform="translate(576.73729 0) scale(0.996264)"/>
     <use xlink:href="#CMSS17-6e" transform="translate(602.521216 0) scale(0.996264)"/>
     <use xlink:href="#CMSS17-64" transform="translate(650.726159 0) scale(0.996264)"/>
     <use xlink:href="#CMSS17-69" transform="translate(698.931102 0) scale(0.996264)"/>
     <use xlink:href="#CMSS17-76" transform="translate(721.111825 0) scale(0.996264)"/>
     <use xlink:href="#CMSS17-69" transform="translate(764.111967 0) scale(0.996264)"/>
     <use xlink:href="#CMSS17-64" transform="translate(786.29269 0) scale(0.996264)"/>
     <use xlink:href="#CMSS17-75" transform="translate(834.497633 0) scale(0.996264)"/>
     <use xlink:href="#CMSS17-61" transform="translate(882.702576 0) scale(0.996264)"/>
     <use xlink:href="#CMSS17-6c" transform="translate(927.624497 0) scale(0.996264)"/>
     <use xlink:href="#CMSS17-54" transform="translate(981.034332 0) scale(0.996264)"/>
     <use xlink:href="#CMSS17-69" transform="translate(1044.853786 0) scale(0.996264)"/>
     <use xlink:href="#CMSS17-6d" transform="translate(1067.034509 0) scale(0.996264)"/>
     <use xlink:href="#CMSS17-65" transform="translate(1141.263764 0) scale(0.996264)"/>
     <use xlink:href="#CMSS17-53" transform="translate(1214.131699 0) scale(0.996264)"/>
     <use xlink:href="#CMSS17-65" transform="translate(1266.180215 0) scale(0.996264)"/>
     <use xlink:href="#CMSS17-72" transform="translate(1307.819037 0) scale(0.996264)"/>
     <use xlink:href="#CMSS17-69" transform="translate(1339.728809 0) scale(0.996264)"/>
     <use xlink:href="#CMSS17-65" transform="translate(1361.909532 0) scale(0.996264)"/>
     <use xlink:href="#CMSS17-73" transform="translate(1403.548354 0) scale(0.996264)"/>
     <use xlink:href="#CMSS17-77" transform="translate(1470.691009 0) scale(0.996264)"/>
     <use xlink:href="#CMSS17-69" transform="translate(1534.510554 0) scale(0.996264)"/>
     <use xlink:href="#CMSS17-74" transform="translate(1556.691277 0) scale(0.996264)"/>
     <use xlink:href="#CMSS17-68" transform="translate(1590.522844 0) scale(0.996264)"/>
     <use xlink:href="#CMSS17-4c" transform="translate(1669.9569 0) scale(0.996264)"/>
     <use xlink:href="#CMSS17-61" transform="translate(1720.644005 0) scale(0.996264)"/>
     <use xlink:href="#CMSS17-62" transform="translate(1765.565926 0) scale(0.996264)"/>
     <use xlink:href="#CMSS17-65" transform="translate(1816.373308 0) scale(0.996264)"/>
     <use xlink:href="#CMSS17-6c" transform="translate(1858.01213 0) scale(0.996264)"/>
     <use xlink:href="#CMSS17-73" transform="translate(1880.192853 0) scale(0.996264)"/>
    </g>
   </g>
   <g id="legend_1">
    <g id="text_16">
     <!-- Wells -->
     <g style="fill: #262626" transform="translate(66.42254 35.603365) scale(0.16 -0.16)">
      <use xlink:href="#CMSS17-57" transform="scale(0.996264)"/>
      <use xlink:href="#CMSS17-65" transform="translate(85.639712 0) scale(0.996264)"/>
      <use xlink:href="#CMSS17-6c" transform="translate(127.278534 0) scale(0.996264)"/>
      <use xlink:href="#CMSS17-6c" transform="translate(149.459257 0) scale(0.996264)"/>
      <use xlink:href="#CMSS17-73" transform="translate(171.63998 0) scale(0.996264)"/>
     </g>
    </g>
    <g id="line2d_89">
     <path d="M 49.696387 43.659191 
L 55.527387 43.659191 
L 61.358387 43.659191 
" style="fill: none; stroke: #f77189; stroke-opacity: 0.8; stroke-width: 2; stroke-linecap: round"/>
    </g>
    <g id="text_17">
     <!-- R7P8_AI_s002_A03 -->
     <g style="fill: #262626" transform="translate(66.023187 45.700041) scale(0.05831 -0.05831)">
      <defs>
       <path id="CMSS17-52" d="M 2522 2099 
L 2534 2105 
C 3533 2450 3539 3125 3539 3244 
C 3539 3838 2925 4416 2003 4416 
L 570 4416 
L 570 0 
L 1094 0 
L 1094 2041 
L 2035 2041 
L 3168 0 
L 3706 0 
L 2522 2099 
z
M 1094 2432 
L 1094 4057 
L 1933 4057 
C 2746 4057 3034 3607 3034 3244 
C 3034 2907 2778 2432 1933 2432 
L 1094 2432 
z
" transform="scale(0.015625)"/>
       <path id="CMSS17-37" d="M 1389 3788 
C 1466 3788 1542 3795 1619 3795 
L 2355 3795 
C 1440 2715 915 1350 915 -64 
L 1427 -64 
C 1427 1305 1875 2695 2752 3807 
L 2752 4224 
L 250 4224 
L 250 3788 
L 1389 3788 
z
" transform="scale(0.015625)"/>
       <path id="CMSS17-50" d="M 2106 1856 
C 2874 1856 3501 2447 3501 3139 
C 3501 3818 2899 4416 2067 4416 
L 570 4416 
L 570 0 
L 1107 0 
L 1107 1856 
L 2106 1856 
z
M 1926 4057 
C 2669 4057 2995 3598 2995 3139 
C 2995 2711 2694 2227 1926 2227 
L 1094 2227 
L 1094 4057 
L 1926 4057 
z
" transform="scale(0.015625)"/>
       <path id="CMSS17-38" d="M 1933 2246 
C 2419 2406 2669 2793 2669 3174 
C 2669 3774 2157 4288 1504 4288 
C 826 4288 333 3755 333 3174 
C 333 2799 576 2412 1069 2246 
C 442 2003 250 1516 250 1152 
C 250 448 819 -128 1498 -128 
C 2202 -128 2752 460 2752 1152 
C 2752 1574 2502 2022 1933 2246 
z
M 1504 2438 
C 1075 2438 787 2728 787 3167 
C 787 3613 1075 3897 1504 3897 
C 1901 3897 2214 3639 2214 3167 
C 2214 2703 1907 2438 1504 2438 
z
M 1504 268 
C 1139 268 749 518 749 1158 
C 749 1817 1184 2048 1498 2048 
C 1843 2048 2253 1804 2253 1158 
C 2253 492 1830 268 1504 268 
z
" transform="scale(0.015625)"/>
      </defs>
      <use xlink:href="#CMSS17-52" transform="scale(0.996264)"/>
      <use xlink:href="#CMSS17-37" transform="translate(60.416155 0) scale(0.996264)"/>
      <use xlink:href="#CMSS17-50" transform="translate(107.259778 0) scale(0.996264)"/>
      <use xlink:href="#CMSS17-38" transform="translate(166.995365 0) scale(0.996264)"/>
      <use xlink:href="#CMSS17-41" transform="translate(247.566483 0) scale(0.996264)"/>
      <use xlink:href="#CMSS17-49" transform="translate(309.784338 0) scale(0.996264)"/>
      <use xlink:href="#CMSS17-73" transform="translate(369.295759 0) scale(0.996264)"/>
      <use xlink:href="#CMSS17-30" transform="translate(405.209301 0) scale(0.996264)"/>
      <use xlink:href="#CMSS17-30" transform="translate(452.052925 0) scale(0.996264)"/>
      <use xlink:href="#CMSS17-32" transform="translate(498.896548 0) scale(0.996264)"/>
      <use xlink:href="#CMSS17-41" transform="translate(579.467667 0) scale(0.996264)"/>
      <use xlink:href="#CMSS17-30" transform="translate(641.685522 0) scale(0.996264)"/>
      <use xlink:href="#CMSS17-33" transform="translate(688.529145 0) scale(0.996264)"/>
      <path d="M 219.459999 0 
L 247.566483 0 
L 247.566483 0.3985 
L 219.459999 0.3985 
L 219.459999 0 
z
"/>
      <path d="M 341.189275 0 
L 369.295759 0 
L 369.295759 0.3985 
L 341.189275 0.3985 
L 341.189275 0 
z
"/>
      <path d="M 551.361183 0 
L 579.467667 0 
L 579.467667 0.3985 
L 551.361183 0.3985 
L 551.361183 0 
z
"/>
     </g>
    </g>
    <g id="line2d_90">
     <path d="M 49.696387 51.785959 
L 55.527387 51.785959 
L 61.358387 51.785959 
" style="fill: none; stroke: #eb8032; stroke-opacity: 0.8; stroke-width: 2; stroke-linecap: round"/>
    </g>
    <g id="text_18">
     <!-- R7P8_AI_s017_B01 -->
     <g style="fill: #262626" transform="translate(66.023187 53.826809) scale(0.05831 -0.05831)">
      <defs>
       <path id="CMSS17-42" d="M 570 4416 
L 570 0 
L 2163 0 
C 3034 0 3667 575 3667 1200 
C 3667 1684 3251 2175 2502 2316 
C 3334 2559 3501 3039 3501 3311 
C 3501 3880 2874 4416 1997 4416 
L 570 4416 
z
M 1088 2496 
L 1088 4057 
L 1824 4057 
C 2483 4057 3002 3722 3002 3305 
C 3002 2925 2592 2496 1766 2496 
L 1088 2496 
z
M 1088 358 
L 1088 2105 
L 1939 2105 
C 2630 2105 3162 1678 3162 1206 
C 3162 772 2694 358 1984 358 
L 1088 358 
z
" transform="scale(0.015625)"/>
      </defs>
      <use xlink:href="#CMSS17-52" transform="scale(0.996264)"/>
      <use xlink:href="#CMSS17-37" transform="translate(60.416155 0) scale(0.996264)"/>
      <use xlink:href="#CMSS17-50" transform="translate(107.259778 0) scale(0.996264)"/>
      <use xlink:href="#CMSS17-38" transform="translate(166.995365 0) scale(0.996264)"/>
      <use xlink:href="#CMSS17-41" transform="translate(247.566483 0) scale(0.996264)"/>
      <use xlink:href="#CMSS17-49" transform="translate(309.784338 0) scale(0.996264)"/>
      <use xlink:href="#CMSS17-73" transform="translate(369.295759 0) scale(0.996264)"/>
      <use xlink:href="#CMSS17-30" transform="translate(405.209301 0) scale(0.996264)"/>
      <use xlink:href="#CMSS17-31" transform="translate(452.052925 0) scale(0.996264)"/>
      <use xlink:href="#CMSS17-37" transform="translate(498.896548 0) scale(0.996264)"/>
      <use xlink:href="#CMSS17-42" transform="translate(579.467667 0) scale(0.996264)"/>
      <use xlink:href="#CMSS17-30" transform="translate(641.805707 0) scale(0.996264)"/>
      <use xlink:href="#CMSS17-31" transform="translate(688.649331 0) scale(0.996264)"/>
      <path d="M 219.459999 0 
L 247.566483 0 
L 247.566483 0.3985 
L 219.459999 0.3985 
L 219.459999 0 
z
"/>
      <path d="M 341.189275 0 
L 369.295759 0 
L 369.295759 0.3985 
L 341.189275 0.3985 
L 341.189275 0 
z
"/>
      <path d="M 551.361183 0 
L 579.467667 0 
L 579.467667 0.3985 
L 551.361183 0.3985 
L 551.361183 0 
z
"/>
     </g>
    </g>
    <g id="line2d_91">
     <path d="M 49.696387 59.912728 
L 55.527387 59.912728 
L 61.358387 59.912728 
" style="fill: none; stroke: #c19632; stroke-opacity: 0.8; stroke-width: 2; stroke-linecap: round"/>
    </g>
    <g id="text_19">
     <!-- R7P8_AI_s021_C04 -->
     <g style="fill: #262626" transform="translate(66.023187 61.953578) scale(0.05831 -0.05831)">
      <defs>
       <path id="CMSS17-43" d="M 3501 705 
C 3072 416 2874 332 2355 332 
C 1459 332 934 1304 934 2191 
C 934 3137 1472 4070 2381 4070 
C 2790 4070 3059 3954 3386 3748 
L 3475 4255 
C 3168 4409 2778 4480 2387 4480 
C 1158 4480 397 3343 397 2191 
C 397 924 1299 -77 2323 -77 
C 2874 -77 3066 -32 3539 268 
L 3501 705 
z
" transform="scale(0.015625)"/>
       <path id="CMSS17-34" d="M 2253 1088 
L 2835 1088 
L 2835 1478 
L 2253 1478 
L 2253 4224 
L 1690 4224 
L 166 1478 
L 166 1088 
L 1747 1088 
L 1747 0 
L 2253 0 
L 2253 1088 
z
M 659 1478 
C 1030 2139 1766 3474 1766 3927 
L 1766 1478 
L 659 1478 
z
" transform="scale(0.015625)"/>
      </defs>
      <use xlink:href="#CMSS17-52" transform="scale(0.996264)"/>
      <use xlink:href="#CMSS17-37" transform="translate(60.416155 0) scale(0.996264)"/>
      <use xlink:href="#CMSS17-50" transform="translate(107.259778 0) scale(0.996264)"/>
      <use xlink:href="#CMSS17-38" transform="translate(166.995365 0) scale(0.996264)"/>
      <use xlink:href="#CMSS17-41" transform="translate(247.566483 0) scale(0.996264)"/>
      <use xlink:href="#CMSS17-49" transform="translate(309.784338 0) scale(0.996264)"/>
      <use xlink:href="#CMSS17-73" transform="translate(369.295759 0) scale(0.996264)"/>
      <use xlink:href="#CMSS17-30" transform="translate(405.209301 0) scale(0.996264)"/>
      <use xlink:href="#CMSS17-32" transform="translate(452.052925 0) scale(0.996264)"/>
      <use xlink:href="#CMSS17-31" transform="translate(498.896548 0) scale(0.996264)"/>
      <use xlink:href="#CMSS17-43" transform="translate(579.467667 0) scale(0.996264)"/>
      <use xlink:href="#CMSS17-30" transform="translate(639.323439 0) scale(0.996264)"/>
      <use xlink:href="#CMSS17-34" transform="translate(686.167062 0) scale(0.996264)"/>
      <path d="M 219.459999 0 
L 247.566483 0 
L 247.566483 0.3985 
L 219.459999 0.3985 
L 219.459999 0 
z
"/>
      <path d="M 341.189275 0 
L 369.295759 0 
L 369.295759 0.3985 
L 341.189275 0.3985 
L 341.189275 0 
z
"/>
      <path d="M 551.361183 0 
L 579.467667 0 
L 579.467667 0.3985 
L 551.361183 0.3985 
L 551.361183 0 
z
"/>
     </g>
    </g>
    <g id="line2d_92">
     <path d="M 49.696387 68.039496 
L 55.527387 68.039496 
L 61.358387 68.039496 
" style="fill: none; stroke: #a0a131; stroke-opacity: 0.8; stroke-width: 2; stroke-linecap: round"/>
    </g>
    <g id="text_20">
     <!-- R7P8_AI_s057_F05 -->
     <g style="fill: #262626" transform="translate(66.023187 70.080346) scale(0.05831 -0.05831)">
      <defs>
       <path id="CMSS17-46" d="M 2918 1984 
L 2918 2374 
L 1101 2374 
L 1101 3993 
L 1882 3993 
C 1958 3993 2035 3987 2112 3987 
L 3168 3987 
L 3168 4403 
L 563 4403 
L 563 0 
L 1101 0 
L 1101 1984 
L 2918 1984 
z
" transform="scale(0.015625)"/>
      </defs>
      <use xlink:href="#CMSS17-52" transform="scale(0.996264)"/>
      <use xlink:href="#CMSS17-37" transform="translate(60.416155 0) scale(0.996264)"/>
      <use xlink:href="#CMSS17-50" transform="translate(107.259778 0) scale(0.996264)"/>
      <use xlink:href="#CMSS17-38" transform="translate(166.995365 0) scale(0.996264)"/>
      <use xlink:href="#CMSS17-41" transform="translate(247.566483 0) scale(0.996264)"/>
      <use xlink:href="#CMSS17-49" transform="translate(309.784338 0) scale(0.996264)"/>
      <use xlink:href="#CMSS17-73" transform="translate(369.295759 0) scale(0.996264)"/>
      <use xlink:href="#CMSS17-30" transform="translate(405.209301 0) scale(0.996264)"/>
      <use xlink:href="#CMSS17-35" transform="translate(452.052925 0) scale(0.996264)"/>
      <use xlink:href="#CMSS17-37" transform="translate(498.896548 0) scale(0.996264)"/>
      <use xlink:href="#CMSS17-46" transform="translate(579.467667 0) scale(0.996264)"/>
      <use xlink:href="#CMSS17-30" transform="translate(632.757226 0) scale(0.996264)"/>
      <use xlink:href="#CMSS17-35" transform="translate(679.60085 0) scale(0.996264)"/>
      <path d="M 219.459999 0 
L 247.566483 0 
L 247.566483 0.3985 
L 219.459999 0.3985 
L 219.459999 0 
z
"/>
      <path d="M 341.189275 0 
L 369.295759 0 
L 369.295759 0.3985 
L 341.189275 0.3985 
L 341.189275 0 
z
"/>
      <path d="M 551.361183 0 
L 579.467667 0 
L 579.467667 0.3985 
L 551.361183 0.3985 
L 551.361183 0 
z
"/>
     </g>
    </g>
    <g id="line2d_93">
     <path d="M 49.696387 76.166265 
L 55.527387 76.166265 
L 61.358387 76.166265 
" style="fill: none; stroke: #71ac31; stroke-opacity: 0.8; stroke-width: 2; stroke-linecap: round"/>
    </g>
    <g id="text_21">
     <!-- R7P9_AI_s017_B02 -->
     <g style="fill: #262626" transform="translate(66.023187 78.207115) scale(0.05831 -0.05831)">
      <defs>
       <path id="CMSS17-39" d="M 435 172 
C 614 19 845 -128 1235 -128 
C 2010 -128 2752 738 2752 2136 
C 2752 3987 1952 4288 1523 4288 
C 1094 4288 819 4095 582 3789 
C 301 3438 250 3125 250 2761 
C 250 2327 326 2059 506 1753 
C 749 1356 973 1273 1222 1273 
C 1600 1273 1978 1459 2234 1778 
C 2189 908 1798 268 1235 268 
C 1005 268 819 340 634 516 
L 435 172 
z
M 2214 2774 
C 2221 2729 2221 2646 2221 2621 
C 2221 2085 1914 1664 1466 1664 
C 1171 1664 1018 1817 902 2015 
C 762 2263 755 2506 755 2761 
C 755 3010 755 3284 934 3559 
C 1069 3757 1235 3897 1523 3897 
C 2112 3897 2208 3036 2214 2774 
z
" transform="scale(0.015625)"/>
      </defs>
      <use xlink:href="#CMSS17-52" transform="scale(0.996264)"/>
      <use xlink:href="#CMSS17-37" transform="translate(60.416155 0) scale(0.996264)"/>
      <use xlink:href="#CMSS17-50" transform="translate(107.259778 0) scale(0.996264)"/>
      <use xlink:href="#CMSS17-39" transform="translate(166.995365 0) scale(0.996264)"/>
      <use xlink:href="#CMSS17-41" transform="translate(247.566483 0) scale(0.996264)"/>
      <use xlink:href="#CMSS17-49" transform="translate(309.784338 0) scale(0.996264)"/>
      <use xlink:href="#CMSS17-73" transform="translate(369.295759 0) scale(0.996264)"/>
      <use xlink:href="#CMSS17-30" transform="translate(405.209301 0) scale(0.996264)"/>
      <use xlink:href="#CMSS17-31" transform="translate(452.052925 0) scale(0.996264)"/>
      <use xlink:href="#CMSS17-37" transform="translate(498.896548 0) scale(0.996264)"/>
      <use xlink:href="#CMSS17-42" transform="translate(579.467667 0) scale(0.996264)"/>
      <use xlink:href="#CMSS17-30" transform="translate(641.805707 0) scale(0.996264)"/>
      <use xlink:href="#CMSS17-32" transform="translate(688.649331 0) scale(0.996264)"/>
      <path d="M 219.459999 0 
L 247.566483 0 
L 247.566483 0.3985 
L 219.459999 0.3985 
L 219.459999 0 
z
"/>
      <path d="M 341.189275 0 
L 369.295759 0 
L 369.295759 0.3985 
L 341.189275 0.3985 
L 341.189275 0 
z
"/>
      <path d="M 551.361183 0 
L 579.467667 0 
L 579.467667 0.3985 
L 551.361183 0.3985 
L 551.361183 0 
z
"/>
     </g>
    </g>
    <g id="line2d_94">
     <path d="M 49.696387 84.293033 
L 55.527387 84.293033 
L 61.358387 84.293033 
" style="fill: none; stroke: #33b16f; stroke-opacity: 0.8; stroke-width: 2; stroke-linecap: round"/>
    </g>
    <g id="text_22">
     <!-- R7P9_AI_s026_C09 -->
     <g style="fill: #262626" transform="translate(66.023187 86.333883) scale(0.05831 -0.05831)">
      <defs>
       <path id="CMSS17-36" d="M 2496 4159 
C 2227 4268 2035 4288 1856 4288 
C 1024 4288 250 3408 250 2023 
C 250 268 986 -128 1510 -128 
C 1798 -128 2086 -39 2362 281 
C 2643 619 2752 900 2752 1392 
C 2752 2183 2362 2886 1779 2886 
C 1357 2886 992 2662 768 2381 
C 832 3290 1254 3897 1862 3897 
C 2029 3897 2246 3871 2496 3760 
L 2496 4159 
z
M 774 1372 
C 774 1423 774 1455 781 1551 
C 781 2049 1069 2496 1536 2496 
C 1837 2496 1990 2336 2106 2138 
C 2240 1889 2246 1653 2246 1392 
C 2246 1143 2246 894 2099 638 
C 1978 441 1818 268 1510 268 
C 902 268 800 1117 774 1372 
z
" transform="scale(0.015625)"/>
      </defs>
      <use xlink:href="#CMSS17-52" transform="scale(0.996264)"/>
      <use xlink:href="#CMSS17-37" transform="translate(60.416155 0) scale(0.996264)"/>
      <use xlink:href="#CMSS17-50" transform="translate(107.259778 0) scale(0.996264)"/>
      <use xlink:href="#CMSS17-39" transform="translate(166.995365 0) scale(0.996264)"/>
      <use xlink:href="#CMSS17-41" transform="translate(247.566483 0) scale(0.996264)"/>
      <use xlink:href="#CMSS17-49" transform="translate(309.784338 0) scale(0.996264)"/>
      <use xlink:href="#CMSS17-73" transform="translate(369.295759 0) scale(0.996264)"/>
      <use xlink:href="#CMSS17-30" transform="translate(405.209301 0) scale(0.996264)"/>
      <use xlink:href="#CMSS17-32" transform="translate(452.052925 0) scale(0.996264)"/>
      <use xlink:href="#CMSS17-36" transform="translate(498.896548 0) scale(0.996264)"/>
      <use xlink:href="#CMSS17-43" transform="translate(579.467667 0) scale(0.996264)"/>
      <use xlink:href="#CMSS17-30" transform="translate(639.323439 0) scale(0.996264)"/>
      <use xlink:href="#CMSS17-39" transform="translate(686.167062 0) scale(0.996264)"/>
      <path d="M 219.459999 0 
L 247.566483 0 
L 247.566483 0.3985 
L 219.459999 0.3985 
L 219.459999 0 
z
"/>
      <path d="M 341.189275 0 
L 369.295759 0 
L 369.295759 0.3985 
L 341.189275 0.3985 
L 341.189275 0 
z
"/>
      <path d="M 551.361183 0 
L 579.467667 0 
L 579.467667 0.3985 
L 551.361183 0.3985 
L 551.361183 0 
z
"/>
     </g>
    </g>
    <g id="line2d_95">
     <path d="M 49.696387 92.419802 
L 55.527387 92.419802 
L 61.358387 92.419802 
" style="fill: none; stroke: #35ae97; stroke-opacity: 0.8; stroke-width: 2; stroke-linecap: round"/>
    </g>
    <g id="text_23">
     <!-- R7P9_AI_s036_D05 -->
     <g style="fill: #262626" transform="translate(66.023187 94.460652) scale(0.05831 -0.05831)">
      <use xlink:href="#CMSS17-52" transform="scale(0.996264)"/>
      <use xlink:href="#CMSS17-37" transform="translate(60.416155 0) scale(0.996264)"/>
      <use xlink:href="#CMSS17-50" transform="translate(107.259778 0) scale(0.996264)"/>
      <use xlink:href="#CMSS17-39" transform="translate(166.995365 0) scale(0.996264)"/>
      <use xlink:href="#CMSS17-41" transform="translate(247.566483 0) scale(0.996264)"/>
      <use xlink:href="#CMSS17-49" transform="translate(309.784338 0) scale(0.996264)"/>
      <use xlink:href="#CMSS17-73" transform="translate(369.295759 0) scale(0.996264)"/>
      <use xlink:href="#CMSS17-30" transform="translate(405.209301 0) scale(0.996264)"/>
      <use xlink:href="#CMSS17-33" transform="translate(452.052925 0) scale(0.996264)"/>
      <use xlink:href="#CMSS17-36" transform="translate(498.896548 0) scale(0.996264)"/>
      <use xlink:href="#CMSS17-44" transform="translate(579.467667 0) scale(0.996264)"/>
      <use xlink:href="#CMSS17-30" transform="translate(647.010509 0) scale(0.996264)"/>
      <use xlink:href="#CMSS17-35" transform="translate(693.854132 0) scale(0.996264)"/>
      <path d="M 219.459999 0 
L 247.566483 0 
L 247.566483 0.3985 
L 219.459999 0.3985 
L 219.459999 0 
z
"/>
      <path d="M 341.189275 0 
L 369.295759 0 
L 369.295759 0.3985 
L 341.189275 0.3985 
L 341.189275 0 
z
"/>
      <path d="M 551.361183 0 
L 579.467667 0 
L 579.467667 0.3985 
L 551.361183 0.3985 
L 551.361183 0 
z
"/>
     </g>
    </g>
    <g id="line2d_96">
     <path d="M 49.696387 100.54657 
L 55.527387 100.54657 
L 61.358387 100.54657 
" style="fill: none; stroke: #36abb0; stroke-opacity: 0.8; stroke-width: 2; stroke-linecap: round"/>
    </g>
    <g id="text_24">
     <!-- R7P9_AI_s063_G07 -->
     <g style="fill: #262626" transform="translate(66.023187 102.58742) scale(0.05831 -0.05831)">
      <defs>
       <path id="CMSS17-47" d="M 3610 1868 
L 2336 1868 
L 2336 1472 
L 3123 1472 
L 3123 473 
C 2874 403 2618 352 2362 352 
C 1466 352 934 1311 934 2220 
C 934 3123 1491 4070 2362 4070 
C 2854 4070 3130 3916 3469 3660 
L 3552 4172 
C 3130 4390 2867 4480 2387 4480 
C 1146 4480 397 3353 397 2201 
C 397 1100 1152 -64 2349 -64 
C 2797 -64 3213 51 3610 249 
L 3610 1868 
z
" transform="scale(0.015625)"/>
      </defs>
      <use xlink:href="#CMSS17-52" transform="scale(0.996264)"/>
      <use xlink:href="#CMSS17-37" transform="translate(60.416155 0) scale(0.996264)"/>
      <use xlink:href="#CMSS17-50" transform="translate(107.259778 0) scale(0.996264)"/>
      <use xlink:href="#CMSS17-39" transform="translate(166.995365 0) scale(0.996264)"/>
      <use xlink:href="#CMSS17-41" transform="translate(247.566483 0) scale(0.996264)"/>
      <use xlink:href="#CMSS17-49" transform="translate(309.784338 0) scale(0.996264)"/>
      <use xlink:href="#CMSS17-73" transform="translate(369.295759 0) scale(0.996264)"/>
      <use xlink:href="#CMSS17-30" transform="translate(405.209301 0) scale(0.996264)"/>
      <use xlink:href="#CMSS17-36" transform="translate(452.052925 0) scale(0.996264)"/>
      <use xlink:href="#CMSS17-33" transform="translate(498.896548 0) scale(0.996264)"/>
      <use xlink:href="#CMSS17-47" transform="translate(579.467667 0) scale(0.996264)"/>
      <use xlink:href="#CMSS17-30" transform="translate(641.925893 0) scale(0.996264)"/>
      <use xlink:href="#CMSS17-37" transform="translate(688.769516 0) scale(0.996264)"/>
      <path d="M 219.459999 0 
L 247.566483 0 
L 247.566483 0.3985 
L 219.459999 0.3985 
L 219.459999 0 
z
"/>
      <path d="M 341.189275 0 
L 369.295759 0 
L 369.295759 0.3985 
L 341.189275 0.3985 
L 341.189275 0 
z
"/>
      <path d="M 551.361183 0 
L 579.467667 0 
L 579.467667 0.3985 
L 551.361183 0.3985 
L 551.361183 0 
z
"/>
     </g>
    </g>
    <g id="line2d_97">
     <path d="M 49.696387 108.673338 
L 55.527387 108.673338 
L 61.358387 108.673338 
" style="fill: none; stroke: #39a8cc; stroke-opacity: 0.8; stroke-width: 2; stroke-linecap: round"/>
    </g>
    <g id="text_25">
     <!-- R7P9_AI_s067_H12 -->
     <g style="fill: #262626" transform="translate(66.023187 110.714188) scale(0.05831 -0.05831)">
      <defs>
       <path id="CMSS17-48" d="M 3674 4416 
L 3136 4416 
L 3136 2496 
L 1101 2496 
L 1101 4416 
L 563 4416 
L 563 0 
L 1101 0 
L 1101 2105 
L 3136 2105 
L 3136 0 
L 3674 0 
L 3674 4416 
z
" transform="scale(0.015625)"/>
      </defs>
      <use xlink:href="#CMSS17-52" transform="scale(0.996264)"/>
      <use xlink:href="#CMSS17-37" transform="translate(60.416155 0) scale(0.996264)"/>
      <use xlink:href="#CMSS17-50" transform="translate(107.259778 0) scale(0.996264)"/>
      <use xlink:href="#CMSS17-39" transform="translate(166.995365 0) scale(0.996264)"/>
      <use xlink:href="#CMSS17-41" transform="translate(247.566483 0) scale(0.996264)"/>
      <use xlink:href="#CMSS17-49" transform="translate(309.784338 0) scale(0.996264)"/>
      <use xlink:href="#CMSS17-73" transform="translate(369.295759 0) scale(0.996264)"/>
      <use xlink:href="#CMSS17-30" transform="translate(405.209301 0) scale(0.996264)"/>
      <use xlink:href="#CMSS17-36" transform="translate(452.052925 0) scale(0.996264)"/>
      <use xlink:href="#CMSS17-37" transform="translate(498.896548 0) scale(0.996264)"/>
      <use xlink:href="#CMSS17-48" transform="translate(579.467667 0) scale(0.996264)"/>
      <use xlink:href="#CMSS17-31" transform="translate(645.529186 0) scale(0.996264)"/>
      <use xlink:href="#CMSS17-32" transform="translate(692.37281 0) scale(0.996264)"/>
      <path d="M 219.459999 0 
L 247.566483 0 
L 247.566483 0.3985 
L 219.459999 0.3985 
L 219.459999 0 
z
"/>
      <path d="M 341.189275 0 
L 369.295759 0 
L 369.295759 0.3985 
L 341.189275 0.3985 
L 341.189275 0 
z
"/>
      <path d="M 551.361183 0 
L 579.467667 0 
L 579.467667 0.3985 
L 551.361183 0.3985 
L 551.361183 0 
z
"/>
     </g>
    </g>
    <g id="line2d_98">
     <path d="M 49.696387 116.800107 
L 55.527387 116.800107 
L 61.358387 116.800107 
" style="fill: none; stroke: #639df4; stroke-opacity: 0.8; stroke-width: 2; stroke-linecap: round"/>
    </g>
    <g id="text_26">
     <!-- R7P10_AI_s017_B02 -->
     <g style="fill: #262626" transform="translate(66.023187 118.840957) scale(0.05831 -0.05831)">
      <use xlink:href="#CMSS17-52" transform="scale(0.996264)"/>
      <use xlink:href="#CMSS17-37" transform="translate(60.416155 0) scale(0.996264)"/>
      <use xlink:href="#CMSS17-50" transform="translate(107.259778 0) scale(0.996264)"/>
      <use xlink:href="#CMSS17-31" transform="translate(166.995365 0) scale(0.996264)"/>
      <use xlink:href="#CMSS17-30" transform="translate(213.838988 0) scale(0.996264)"/>
      <use xlink:href="#CMSS17-41" transform="translate(294.410107 0) scale(0.996264)"/>
      <use xlink:href="#CMSS17-49" transform="translate(356.627962 0) scale(0.996264)"/>
      <use xlink:href="#CMSS17-73" transform="translate(416.139383 0) scale(0.996264)"/>
      <use xlink:href="#CMSS17-30" transform="translate(452.052925 0) scale(0.996264)"/>
      <use xlink:href="#CMSS17-31" transform="translate(498.896548 0) scale(0.996264)"/>
      <use xlink:href="#CMSS17-37" transform="translate(545.740172 0) scale(0.996264)"/>
      <use xlink:href="#CMSS17-42" transform="translate(626.311291 0) scale(0.996264)"/>
      <use xlink:href="#CMSS17-30" transform="translate(688.649331 0) scale(0.996264)"/>
      <use xlink:href="#CMSS17-32" transform="translate(735.492954 0) scale(0.996264)"/>
      <path d="M 266.303623 0 
L 294.410107 0 
L 294.410107 0.3985 
L 266.303623 0.3985 
L 266.303623 0 
z
"/>
      <path d="M 388.032898 0 
L 416.139383 0 
L 416.139383 0.3985 
L 388.032898 0.3985 
L 388.032898 0 
z
"/>
      <path d="M 598.204806 0 
L 626.311291 0 
L 626.311291 0.3985 
L 598.204806 0.3985 
L 598.204806 0 
z
"/>
     </g>
    </g>
    <g id="line2d_99">
     <path d="M 49.696387 124.926875 
L 55.527387 124.926875 
L 61.358387 124.926875 
" style="fill: none; stroke: #b486f4; stroke-opacity: 0.8; stroke-width: 2; stroke-linecap: round"/>
    </g>
    <g id="text_27">
     <!-- R7P10_AI_s020_C03 -->
     <g style="fill: #262626" transform="translate(66.023187 126.967725) scale(0.05831 -0.05831)">
      <use xlink:href="#CMSS17-52" transform="scale(0.996264)"/>
      <use xlink:href="#CMSS17-37" transform="translate(60.416155 0) scale(0.996264)"/>
      <use xlink:href="#CMSS17-50" transform="translate(107.259778 0) scale(0.996264)"/>
      <use xlink:href="#CMSS17-31" transform="translate(166.995365 0) scale(0.996264)"/>
      <use xlink:href="#CMSS17-30" transform="translate(213.838988 0) scale(0.996264)"/>
      <use xlink:href="#CMSS17-41" transform="translate(294.410107 0) scale(0.996264)"/>
      <use xlink:href="#CMSS17-49" transform="translate(356.627962 0) scale(0.996264)"/>
      <use xlink:href="#CMSS17-73" transform="translate(416.139383 0) scale(0.996264)"/>
      <use xlink:href="#CMSS17-30" transform="translate(452.052925 0) scale(0.996264)"/>
      <use xlink:href="#CMSS17-32" transform="translate(498.896548 0) scale(0.996264)"/>
      <use xlink:href="#CMSS17-30" transform="translate(545.740172 0) scale(0.996264)"/>
      <use xlink:href="#CMSS17-43" transform="translate(626.311291 0) scale(0.996264)"/>
      <use xlink:href="#CMSS17-30" transform="translate(686.167062 0) scale(0.996264)"/>
      <use xlink:href="#CMSS17-33" transform="translate(733.010686 0) scale(0.996264)"/>
      <path d="M 266.303623 0 
L 294.410107 0 
L 294.410107 0.3985 
L 266.303623 0.3985 
L 266.303623 0 
z
"/>
      <path d="M 388.032898 0 
L 416.139383 0 
L 416.139383 0.3985 
L 388.032898 0.3985 
L 388.032898 0 
z
"/>
      <path d="M 598.204806 0 
L 626.311291 0 
L 626.311291 0.3985 
L 598.204806 0.3985 
L 598.204806 0 
z
"/>
     </g>
    </g>
    <g id="line2d_100">
     <path d="M 49.696387 133.053644 
L 55.527387 133.053644 
L 61.358387 133.053644 
" style="fill: none; stroke: #f35cf4; stroke-opacity: 0.8; stroke-width: 2; stroke-linecap: round"/>
    </g>
    <g id="text_28">
     <!-- R7P10_AI_s057_F08 -->
     <g style="fill: #262626" transform="translate(66.023187 135.094494) scale(0.05831 -0.05831)">
      <use xlink:href="#CMSS17-52" transform="scale(0.996264)"/>
      <use xlink:href="#CMSS17-37" transform="translate(60.416155 0) scale(0.996264)"/>
      <use xlink:href="#CMSS17-50" transform="translate(107.259778 0) scale(0.996264)"/>
      <use xlink:href="#CMSS17-31" transform="translate(166.995365 0) scale(0.996264)"/>
      <use xlink:href="#CMSS17-30" transform="translate(213.838988 0) scale(0.996264)"/>
      <use xlink:href="#CMSS17-41" transform="translate(294.410107 0) scale(0.996264)"/>
      <use xlink:href="#CMSS17-49" transform="translate(356.627962 0) scale(0.996264)"/>
      <use xlink:href="#CMSS17-73" transform="translate(416.139383 0) scale(0.996264)"/>
      <use xlink:href="#CMSS17-30" transform="translate(452.052925 0) scale(0.996264)"/>
      <use xlink:href="#CMSS17-35" transform="translate(498.896548 0) scale(0.996264)"/>
      <use xlink:href="#CMSS17-37" transform="translate(545.740172 0) scale(0.996264)"/>
      <use xlink:href="#CMSS17-46" transform="translate(626.311291 0) scale(0.996264)"/>
      <use xlink:href="#CMSS17-30" transform="translate(679.60085 0) scale(0.996264)"/>
      <use xlink:href="#CMSS17-38" transform="translate(726.444473 0) scale(0.996264)"/>
      <path d="M 266.303623 0 
L 294.410107 0 
L 294.410107 0.3985 
L 266.303623 0.3985 
L 266.303623 0 
z
"/>
      <path d="M 388.032898 0 
L 416.139383 0 
L 416.139383 0.3985 
L 388.032898 0.3985 
L 388.032898 0 
z
"/>
      <path d="M 598.204806 0 
L 626.311291 0 
L 626.311291 0.3985 
L 598.204806 0.3985 
L 598.204806 0 
z
"/>
     </g>
    </g>
    <g id="line2d_101">
     <path d="M 49.696387 141.180412 
L 55.527387 141.180412 
L 61.358387 141.180412 
" style="fill: none; stroke: #f668be; stroke-opacity: 0.8; stroke-width: 2; stroke-linecap: round"/>
    </g>
    <g id="text_29">
     <!-- R7P10_AI_s073_G11 -->
     <g style="fill: #262626" transform="translate(66.023187 143.221262) scale(0.05831 -0.05831)">
      <use xlink:href="#CMSS17-52" transform="scale(0.996264)"/>
      <use xlink:href="#CMSS17-37" transform="translate(60.416155 0) scale(0.996264)"/>
      <use xlink:href="#CMSS17-50" transform="translate(107.259778 0) scale(0.996264)"/>
      <use xlink:href="#CMSS17-31" transform="translate(166.995365 0) scale(0.996264)"/>
      <use xlink:href="#CMSS17-30" transform="translate(213.838988 0) scale(0.996264)"/>
      <use xlink:href="#CMSS17-41" transform="translate(294.410107 0) scale(0.996264)"/>
      <use xlink:href="#CMSS17-49" transform="translate(356.627962 0) scale(0.996264)"/>
      <use xlink:href="#CMSS17-73" transform="translate(416.139383 0) scale(0.996264)"/>
      <use xlink:href="#CMSS17-30" transform="translate(452.052925 0) scale(0.996264)"/>
      <use xlink:href="#CMSS17-37" transform="translate(498.896548 0) scale(0.996264)"/>
      <use xlink:href="#CMSS17-33" transform="translate(545.740172 0) scale(0.996264)"/>
      <use xlink:href="#CMSS17-47" transform="translate(626.311291 0) scale(0.996264)"/>
      <use xlink:href="#CMSS17-31" transform="translate(688.769516 0) scale(0.996264)"/>
      <use xlink:href="#CMSS17-31" transform="translate(735.61314 0) scale(0.996264)"/>
      <path d="M 266.303623 0 
L 294.410107 0 
L 294.410107 0.3985 
L 266.303623 0.3985 
L 266.303623 0 
z
"/>
      <path d="M 388.032898 0 
L 416.139383 0 
L 416.139383 0.3985 
L 388.032898 0.3985 
L 388.032898 0 
z
"/>
      <path d="M 598.204806 0 
L 626.311291 0 
L 626.311291 0.3985 
L 598.204806 0.3985 
L 598.204806 0 
z
"/>
     </g>
    </g>
   </g>
  </g>
 </g>
 <defs>
  <clipPath id="p3704508466">
   <rect x="44.448487" y="19.285876" width="808.031513" height="509.398314"/>
  </clipPath>
 </defs>
</svg>
