<?xml version="1.0" encoding="utf-8" standalone="no"?>
<!DOCTYPE svg PUBLIC "-//W3C//DTD SVG 1.1//EN"
  "http://www.w3.org/Graphics/SVG/1.1/DTD/svg11.dtd">
<svg xmlns:xlink="http://www.w3.org/1999/xlink" width="857.552059pt" height="568.08pt" viewBox="0 0 857.552059 568.08" xmlns="http://www.w3.org/2000/svg" version="1.1">
 <metadata>
  <rdf:RDF xmlns:dc="http://purl.org/dc/elements/1.1/" xmlns:cc="http://creativecommons.org/ns#" xmlns:rdf="http://www.w3.org/1999/02/22-rdf-syntax-ns#">
   <cc:Work>
    <dc:type rdf:resource="http://purl.org/dc/dcmitype/StillImage"/>
    <dc:date>2025-08-17T01:51:30.175512</dc:date>
    <dc:format>image/svg+xml</dc:format>
    <dc:creator>
     <cc:Agent>
      <dc:title>Matplotlib v3.10.0, https://matplotlib.org/</dc:title>
     </cc:Agent>
    </dc:creator>
   </cc:Work>
  </rdf:RDF>
 </metadata>
 <defs>
  <style type="text/css">*{stroke-linejoin: round; stroke-linecap: butt}</style>
 </defs>
 <g id="figure_1">
  <g id="patch_1">
   <path d="M -0 568.08 
L 857.552059 568.08 
L 857.552059 0 
L -0 0 
z
" style="fill: #ffffff"/>
  </g>
  <g id="axes_1">
   <g id="patch_2">
    <path d="M 44.448487 528.68419 
L 743.489674 528.68419 
L 743.489674 19.285876 
L 44.448487 19.285876 
z
" style="fill: #ffffff"/>
   </g>
   <g id="matplotlib.axis_1">
    <g id="xtick_1">
     <g id="line2d_1">
      <defs>
       <path id="m22bcf05f0a" d="M 0 0 
L 0 3.5 
" style="stroke: #262626; stroke-width: 1.5"/>
      </defs>
      <g>
       <use xlink:href="#m22bcf05f0a" x="76.223086" y="528.68419" style="fill: #262626; stroke: #262626; stroke-width: 1.5"/>
      </g>
     </g>
     <g id="text_1">
      <!-- $\mathdefault{0}$ -->
      <g style="fill: #262626" transform="translate(72.808842 545.370067) scale(0.14 -0.14)">
       <defs>
        <path id="CMSS17-30" d="M 2758 2073 
C 2758 2439 2752 3120 2490 3647 
C 2227 4153 1805 4288 1504 4288 
C 1069 4288 698 4031 506 3621 
C 301 3191 243 2748 243 2073 
C 243 1611 262 1046 493 551 
C 755 6 1197 -128 1498 -128 
C 1894 -128 2278 83 2496 525 
C 2720 988 2758 1495 2758 2073 
z
M 1498 262 
C 1011 262 864 821 819 1007 
C 742 1328 730 1636 730 2144 
C 730 2542 730 2992 851 3345 
C 998 3756 1254 3897 1498 3897 
C 1971 3897 2125 3422 2176 3255 
C 2272 2915 2272 2516 2272 2144 
C 2272 1546 2272 262 1498 262 
z
" transform="scale(0.015625)"/>
       </defs>
       <use xlink:href="#CMSS17-30" transform="scale(0.996264)"/>
      </g>
     </g>
    </g>
    <g id="xtick_2">
     <g id="line2d_2">
      <g>
       <use xlink:href="#m22bcf05f0a" x="227.530703" y="528.68419" style="fill: #262626; stroke: #262626; stroke-width: 1.5"/>
      </g>
     </g>
     <g id="text_2">
      <!-- $\mathdefault{10}$ -->
      <g style="fill: #262626" transform="translate(220.702214 545.370067) scale(0.14 -0.14)">
       <defs>
        <path id="CMSS17-31" d="M 1818 4288 
L 1696 4288 
C 1350 3949 947 3902 538 3891 
L 538 3520 
C 723 3526 1024 3539 1325 3673 
L 1325 371 
L 570 371 
L 570 0 
L 2573 0 
L 2573 371 
L 1818 371 
L 1818 4288 
z
" transform="scale(0.015625)"/>
       </defs>
       <use xlink:href="#CMSS17-31" transform="scale(0.996264)"/>
       <use xlink:href="#CMSS17-30" transform="translate(46.843624 0) scale(0.996264)"/>
      </g>
     </g>
    </g>
    <g id="xtick_3">
     <g id="line2d_3">
      <g>
       <use xlink:href="#m22bcf05f0a" x="378.838319" y="528.68419" style="fill: #262626; stroke: #262626; stroke-width: 1.5"/>
      </g>
     </g>
     <g id="text_3">
      <!-- $\mathdefault{20}$ -->
      <g style="fill: #262626" transform="translate(372.00983 545.370067) scale(0.14 -0.14)">
       <defs>
        <path id="CMSS17-32" d="M 1651 1353 
C 1830 1538 2099 1761 2285 1984 
C 2464 2201 2701 2507 2701 2953 
C 2701 3655 2227 4288 1421 4288 
C 787 4288 422 3891 250 3272 
L 499 2928 
C 640 3508 838 3878 1338 3878 
C 1888 3878 2195 3431 2195 2940 
C 2195 2354 1747 1901 1408 1563 
C 1030 1187 659 805 301 409 
L 301 0 
L 2701 0 
L 2701 435 
L 1613 435 
C 1536 435 1459 428 1382 428 
L 742 428 
L 742 435 
L 1651 1353 
z
" transform="scale(0.015625)"/>
       </defs>
       <use xlink:href="#CMSS17-32" transform="scale(0.996264)"/>
       <use xlink:href="#CMSS17-30" transform="translate(46.843624 0) scale(0.996264)"/>
      </g>
     </g>
    </g>
    <g id="xtick_4">
     <g id="line2d_4">
      <g>
       <use xlink:href="#m22bcf05f0a" x="530.145935" y="528.68419" style="fill: #262626; stroke: #262626; stroke-width: 1.5"/>
      </g>
     </g>
     <g id="text_4">
      <!-- $\mathdefault{30}$ -->
      <g style="fill: #262626" transform="translate(523.317447 545.370067) scale(0.14 -0.14)">
       <defs>
        <path id="CMSS17-33" d="M 1005 2060 
L 1440 2060 
C 2042 2060 2214 1532 2214 1164 
C 2214 662 1933 268 1472 268 
C 1114 268 608 449 320 926 
C 275 700 275 687 250 533 
C 550 89 1037 -128 1485 -128 
C 2214 -128 2752 481 2752 1158 
C 2752 1667 2400 2092 1920 2252 
C 2304 2463 2586 2860 2586 3321 
C 2586 3859 2093 4288 1491 4288 
C 941 4288 512 3948 333 3583 
C 378 3519 493 3334 550 3238 
C 691 3615 1056 3897 1485 3897 
C 1843 3897 2080 3660 2080 3321 
C 2080 2969 1856 2585 1478 2496 
C 1453 2496 1056 2457 1005 2451 
L 1005 2060 
z
" transform="scale(0.015625)"/>
       </defs>
       <use xlink:href="#CMSS17-33" transform="scale(0.996264)"/>
       <use xlink:href="#CMSS17-30" transform="translate(46.843624 0) scale(0.996264)"/>
      </g>
     </g>
    </g>
    <g id="xtick_5">
     <g id="line2d_5">
      <g>
       <use xlink:href="#m22bcf05f0a" x="681.453552" y="528.68419" style="fill: #262626; stroke: #262626; stroke-width: 1.5"/>
      </g>
     </g>
     <g id="text_5">
      <!-- $\mathdefault{40}$ -->
      <g style="fill: #262626" transform="translate(674.625063 545.370067) scale(0.14 -0.14)">
       <defs>
        <path id="CMSS17-34" d="M 2253 1088 
L 2835 1088 
L 2835 1478 
L 2253 1478 
L 2253 4224 
L 1690 4224 
L 166 1478 
L 166 1088 
L 1747 1088 
L 1747 0 
L 2253 0 
L 2253 1088 
z
M 659 1478 
C 1030 2139 1766 3474 1766 3927 
L 1766 1478 
L 659 1478 
z
" transform="scale(0.015625)"/>
       </defs>
       <use xlink:href="#CMSS17-34" transform="scale(0.996264)"/>
       <use xlink:href="#CMSS17-30" transform="translate(46.843624 0) scale(0.996264)"/>
      </g>
     </g>
    </g>
    <g id="xtick_6">
     <g id="line2d_6">
      <defs>
       <path id="mb61b6e8c36" d="M 0 0 
L 0 2.5 
" style="stroke: #262626; stroke-width: 1.5"/>
      </defs>
      <g>
       <use xlink:href="#mb61b6e8c36" x="45.961563" y="528.68419" style="fill: #262626; stroke: #262626; stroke-width: 1.5"/>
      </g>
     </g>
    </g>
    <g id="xtick_7">
     <g id="line2d_7">
      <g>
       <use xlink:href="#mb61b6e8c36" x="106.48461" y="528.68419" style="fill: #262626; stroke: #262626; stroke-width: 1.5"/>
      </g>
     </g>
    </g>
    <g id="xtick_8">
     <g id="line2d_8">
      <g>
       <use xlink:href="#mb61b6e8c36" x="136.746133" y="528.68419" style="fill: #262626; stroke: #262626; stroke-width: 1.5"/>
      </g>
     </g>
    </g>
    <g id="xtick_9">
     <g id="line2d_9">
      <g>
       <use xlink:href="#mb61b6e8c36" x="167.007656" y="528.68419" style="fill: #262626; stroke: #262626; stroke-width: 1.5"/>
      </g>
     </g>
    </g>
    <g id="xtick_10">
     <g id="line2d_10">
      <g>
       <use xlink:href="#mb61b6e8c36" x="197.269179" y="528.68419" style="fill: #262626; stroke: #262626; stroke-width: 1.5"/>
      </g>
     </g>
    </g>
    <g id="xtick_11">
     <g id="line2d_11">
      <g>
       <use xlink:href="#mb61b6e8c36" x="257.792226" y="528.68419" style="fill: #262626; stroke: #262626; stroke-width: 1.5"/>
      </g>
     </g>
    </g>
    <g id="xtick_12">
     <g id="line2d_12">
      <g>
       <use xlink:href="#mb61b6e8c36" x="288.053749" y="528.68419" style="fill: #262626; stroke: #262626; stroke-width: 1.5"/>
      </g>
     </g>
    </g>
    <g id="xtick_13">
     <g id="line2d_13">
      <g>
       <use xlink:href="#mb61b6e8c36" x="318.315272" y="528.68419" style="fill: #262626; stroke: #262626; stroke-width: 1.5"/>
      </g>
     </g>
    </g>
    <g id="xtick_14">
     <g id="line2d_14">
      <g>
       <use xlink:href="#mb61b6e8c36" x="348.576796" y="528.68419" style="fill: #262626; stroke: #262626; stroke-width: 1.5"/>
      </g>
     </g>
    </g>
    <g id="xtick_15">
     <g id="line2d_15">
      <g>
       <use xlink:href="#mb61b6e8c36" x="409.099842" y="528.68419" style="fill: #262626; stroke: #262626; stroke-width: 1.5"/>
      </g>
     </g>
    </g>
    <g id="xtick_16">
     <g id="line2d_16">
      <g>
       <use xlink:href="#mb61b6e8c36" x="439.361366" y="528.68419" style="fill: #262626; stroke: #262626; stroke-width: 1.5"/>
      </g>
     </g>
    </g>
    <g id="xtick_17">
     <g id="line2d_17">
      <g>
       <use xlink:href="#mb61b6e8c36" x="469.622889" y="528.68419" style="fill: #262626; stroke: #262626; stroke-width: 1.5"/>
      </g>
     </g>
    </g>
    <g id="xtick_18">
     <g id="line2d_18">
      <g>
       <use xlink:href="#mb61b6e8c36" x="499.884412" y="528.68419" style="fill: #262626; stroke: #262626; stroke-width: 1.5"/>
      </g>
     </g>
    </g>
    <g id="xtick_19">
     <g id="line2d_19">
      <g>
       <use xlink:href="#mb61b6e8c36" x="560.407459" y="528.68419" style="fill: #262626; stroke: #262626; stroke-width: 1.5"/>
      </g>
     </g>
    </g>
    <g id="xtick_20">
     <g id="line2d_20">
      <g>
       <use xlink:href="#mb61b6e8c36" x="590.668982" y="528.68419" style="fill: #262626; stroke: #262626; stroke-width: 1.5"/>
      </g>
     </g>
    </g>
    <g id="xtick_21">
     <g id="line2d_21">
      <g>
       <use xlink:href="#mb61b6e8c36" x="620.930505" y="528.68419" style="fill: #262626; stroke: #262626; stroke-width: 1.5"/>
      </g>
     </g>
    </g>
    <g id="xtick_22">
     <g id="line2d_22">
      <g>
       <use xlink:href="#mb61b6e8c36" x="651.192028" y="528.68419" style="fill: #262626; stroke: #262626; stroke-width: 1.5"/>
      </g>
     </g>
    </g>
    <g id="xtick_23">
     <g id="line2d_23">
      <g>
       <use xlink:href="#mb61b6e8c36" x="711.715075" y="528.68419" style="fill: #262626; stroke: #262626; stroke-width: 1.5"/>
      </g>
     </g>
    </g>
    <g id="xtick_24">
     <g id="line2d_24">
      <g>
       <use xlink:href="#mb61b6e8c36" x="741.976598" y="528.68419" style="fill: #262626; stroke: #262626; stroke-width: 1.5"/>
      </g>
     </g>
    </g>
    <g id="text_6">
     <!-- Time -->
     <g style="fill: #262626" transform="translate(379.270903 561.767972) scale(0.14 -0.14)">
      <defs>
       <path id="CMSS17-54" d="M 2317 3987 
L 2848 3987 
C 2925 3987 3002 3980 3078 3980 
L 3878 3980 
L 3878 4396 
L 218 4396 
L 218 3980 
L 1018 3980 
C 1094 3980 1171 3987 1248 3987 
L 1779 3987 
L 1779 0 
L 2317 0 
L 2317 3987 
z
" transform="scale(0.015625)"/>
       <path id="CMSS17-69" d="M 979 4224 
L 442 4224 
L 442 3686 
L 979 3686 
L 979 4224 
z
M 947 2752 
L 474 2752 
L 474 0 
L 947 0 
L 947 2752 
z
" transform="scale(0.015625)"/>
       <path id="CMSS17-6d" d="M 4288 1878 
C 4288 2309 4179 2816 3462 2816 
C 2982 2816 2694 2515 2566 2328 
C 2451 2668 2182 2816 1798 2816 
C 1363 2816 1088 2566 941 2386 
L 941 2783 
L 474 2783 
L 474 0 
L 960 0 
L 960 1556 
C 960 1936 1101 2425 1555 2425 
C 2138 2425 2138 2013 2138 1826 
L 2138 0 
L 2624 0 
L 2624 1556 
C 2624 1936 2765 2425 3219 2425 
C 3802 2425 3802 2013 3802 1826 
L 3802 0 
L 4288 0 
L 4288 1878 
z
" transform="scale(0.015625)"/>
       <path id="CMSS17-65" d="M 2502 1375 
C 2502 1587 2490 2001 2285 2347 
C 2061 2713 1696 2816 1421 2816 
C 755 2816 192 2184 192 1363 
C 192 579 774 -64 1510 -64 
C 1798 -64 2150 19 2470 249 
C 2470 275 2458 414 2451 421 
C 2451 433 2432 629 2432 655 
C 2125 408 1773 326 1517 326 
C 1107 326 666 667 646 1375 
L 2502 1375 
z
M 698 1728 
C 781 2086 1062 2425 1421 2425 
C 1517 2425 1965 2412 2080 1728 
L 698 1728 
z
" transform="scale(0.015625)"/>
      </defs>
      <use xlink:href="#CMSS17-54" transform="scale(0.996264)"/>
      <use xlink:href="#CMSS17-69" transform="translate(63.819454 0) scale(0.996264)"/>
      <use xlink:href="#CMSS17-6d" transform="translate(86.000177 0) scale(0.996264)"/>
      <use xlink:href="#CMSS17-65" transform="translate(160.229431 0) scale(0.996264)"/>
     </g>
    </g>
   </g>
   <g id="matplotlib.axis_2">
    <g id="ytick_1">
     <g id="line2d_25">
      <defs>
       <path id="m30aac71c9a" d="M 0 0 
L -3.5 0 
" style="stroke: #262626; stroke-width: 1.5"/>
      </defs>
      <g>
       <use xlink:href="#m30aac71c9a" x="44.448487" y="505.529722" style="fill: #262626; stroke: #262626; stroke-width: 1.5"/>
      </g>
     </g>
     <g id="text_7">
      <!-- $\mathdefault{0.0}$ -->
      <g style="fill: #262626" transform="translate(19.997905 510.37266) scale(0.14 -0.14)">
       <defs>
        <path id="CMSS17-2e" d="M 1088 512 
L 576 512 
L 576 0 
L 1088 0 
L 1088 512 
z
" transform="scale(0.015625)"/>
       </defs>
       <use xlink:href="#CMSS17-30" transform="scale(0.996264)"/>
       <use xlink:href="#CMSS17-2e" transform="translate(46.843624 0) scale(0.996264)"/>
       <use xlink:href="#CMSS17-30" transform="translate(72.867828 0) scale(0.996264)"/>
      </g>
     </g>
    </g>
    <g id="ytick_2">
     <g id="line2d_26">
      <g>
       <use xlink:href="#m30aac71c9a" x="44.448487" y="430.963367" style="fill: #262626; stroke: #262626; stroke-width: 1.5"/>
      </g>
     </g>
     <g id="text_8">
      <!-- $\mathdefault{0.5}$ -->
      <g style="fill: #262626" transform="translate(19.997905 435.806306) scale(0.14 -0.14)">
       <defs>
        <path id="CMSS17-35" d="M 934 3814 
L 2502 3814 
L 2502 4224 
L 467 4224 
L 467 1830 
L 896 1830 
C 1011 2103 1248 2304 1555 2304 
C 1843 2304 2163 2044 2163 1299 
C 2163 502 1709 268 1376 268 
C 966 268 589 521 422 871 
L 218 508 
C 512 51 992 -128 1376 -128 
C 2118 -128 2701 508 2701 1286 
C 2701 2083 2182 2694 1562 2694 
C 1338 2694 1120 2617 934 2464 
L 934 3814 
z
" transform="scale(0.015625)"/>
       </defs>
       <use xlink:href="#CMSS17-30" transform="scale(0.996264)"/>
       <use xlink:href="#CMSS17-2e" transform="translate(46.843624 0) scale(0.996264)"/>
       <use xlink:href="#CMSS17-35" transform="translate(72.867828 0) scale(0.996264)"/>
      </g>
     </g>
    </g>
    <g id="ytick_3">
     <g id="line2d_27">
      <g>
       <use xlink:href="#m30aac71c9a" x="44.448487" y="356.397013" style="fill: #262626; stroke: #262626; stroke-width: 1.5"/>
      </g>
     </g>
     <g id="text_9">
      <!-- $\mathdefault{1.0}$ -->
      <g style="fill: #262626" transform="translate(19.997905 361.239951) scale(0.14 -0.14)">
       <use xlink:href="#CMSS17-31" transform="scale(0.996264)"/>
       <use xlink:href="#CMSS17-2e" transform="translate(46.843624 0) scale(0.996264)"/>
       <use xlink:href="#CMSS17-30" transform="translate(72.867828 0) scale(0.996264)"/>
      </g>
     </g>
    </g>
    <g id="ytick_4">
     <g id="line2d_28">
      <g>
       <use xlink:href="#m30aac71c9a" x="44.448487" y="281.830659" style="fill: #262626; stroke: #262626; stroke-width: 1.5"/>
      </g>
     </g>
     <g id="text_10">
      <!-- $\mathdefault{1.5}$ -->
      <g style="fill: #262626" transform="translate(19.997905 286.673597) scale(0.14 -0.14)">
       <use xlink:href="#CMSS17-31" transform="scale(0.996264)"/>
       <use xlink:href="#CMSS17-2e" transform="translate(46.843624 0) scale(0.996264)"/>
       <use xlink:href="#CMSS17-35" transform="translate(72.867828 0) scale(0.996264)"/>
      </g>
     </g>
    </g>
    <g id="ytick_5">
     <g id="line2d_29">
      <g>
       <use xlink:href="#m30aac71c9a" x="44.448487" y="207.264305" style="fill: #262626; stroke: #262626; stroke-width: 1.5"/>
      </g>
     </g>
     <g id="text_11">
      <!-- $\mathdefault{2.0}$ -->
      <g style="fill: #262626" transform="translate(19.997905 212.107243) scale(0.14 -0.14)">
       <use xlink:href="#CMSS17-32" transform="scale(0.996264)"/>
       <use xlink:href="#CMSS17-2e" transform="translate(46.843624 0) scale(0.996264)"/>
       <use xlink:href="#CMSS17-30" transform="translate(72.867828 0) scale(0.996264)"/>
      </g>
     </g>
    </g>
    <g id="ytick_6">
     <g id="line2d_30">
      <g>
       <use xlink:href="#m30aac71c9a" x="44.448487" y="132.69795" style="fill: #262626; stroke: #262626; stroke-width: 1.5"/>
      </g>
     </g>
     <g id="text_12">
      <!-- $\mathdefault{2.5}$ -->
      <g style="fill: #262626" transform="translate(19.997905 137.540889) scale(0.14 -0.14)">
       <use xlink:href="#CMSS17-32" transform="scale(0.996264)"/>
       <use xlink:href="#CMSS17-2e" transform="translate(46.843624 0) scale(0.996264)"/>
       <use xlink:href="#CMSS17-35" transform="translate(72.867828 0) scale(0.996264)"/>
      </g>
     </g>
    </g>
    <g id="ytick_7">
     <g id="line2d_31">
      <g>
       <use xlink:href="#m30aac71c9a" x="44.448487" y="58.131596" style="fill: #262626; stroke: #262626; stroke-width: 1.5"/>
      </g>
     </g>
     <g id="text_13">
      <!-- $\mathdefault{3.0}$ -->
      <g style="fill: #262626" transform="translate(19.997905 62.974534) scale(0.14 -0.14)">
       <use xlink:href="#CMSS17-33" transform="scale(0.996264)"/>
       <use xlink:href="#CMSS17-2e" transform="translate(46.843624 0) scale(0.996264)"/>
       <use xlink:href="#CMSS17-30" transform="translate(72.867828 0) scale(0.996264)"/>
      </g>
     </g>
    </g>
    <g id="ytick_8">
     <g id="line2d_32">
      <defs>
       <path id="me07dcde172" d="M 0 0 
L -2.5 0 
" style="stroke: #262626; stroke-width: 1.5"/>
      </defs>
      <g>
       <use xlink:href="#me07dcde172" x="44.448487" y="520.442992" style="fill: #262626; stroke: #262626; stroke-width: 1.5"/>
      </g>
     </g>
    </g>
    <g id="ytick_9">
     <g id="line2d_33">
      <g>
       <use xlink:href="#me07dcde172" x="44.448487" y="490.616451" style="fill: #262626; stroke: #262626; stroke-width: 1.5"/>
      </g>
     </g>
    </g>
    <g id="ytick_10">
     <g id="line2d_34">
      <g>
       <use xlink:href="#me07dcde172" x="44.448487" y="475.70318" style="fill: #262626; stroke: #262626; stroke-width: 1.5"/>
      </g>
     </g>
    </g>
    <g id="ytick_11">
     <g id="line2d_35">
      <g>
       <use xlink:href="#me07dcde172" x="44.448487" y="460.789909" style="fill: #262626; stroke: #262626; stroke-width: 1.5"/>
      </g>
     </g>
    </g>
    <g id="ytick_12">
     <g id="line2d_36">
      <g>
       <use xlink:href="#me07dcde172" x="44.448487" y="445.876638" style="fill: #262626; stroke: #262626; stroke-width: 1.5"/>
      </g>
     </g>
    </g>
    <g id="ytick_13">
     <g id="line2d_37">
      <g>
       <use xlink:href="#me07dcde172" x="44.448487" y="416.050096" style="fill: #262626; stroke: #262626; stroke-width: 1.5"/>
      </g>
     </g>
    </g>
    <g id="ytick_14">
     <g id="line2d_38">
      <g>
       <use xlink:href="#me07dcde172" x="44.448487" y="401.136826" style="fill: #262626; stroke: #262626; stroke-width: 1.5"/>
      </g>
     </g>
    </g>
    <g id="ytick_15">
     <g id="line2d_39">
      <g>
       <use xlink:href="#me07dcde172" x="44.448487" y="386.223555" style="fill: #262626; stroke: #262626; stroke-width: 1.5"/>
      </g>
     </g>
    </g>
    <g id="ytick_16">
     <g id="line2d_40">
      <g>
       <use xlink:href="#me07dcde172" x="44.448487" y="371.310284" style="fill: #262626; stroke: #262626; stroke-width: 1.5"/>
      </g>
     </g>
    </g>
    <g id="ytick_17">
     <g id="line2d_41">
      <g>
       <use xlink:href="#me07dcde172" x="44.448487" y="341.483742" style="fill: #262626; stroke: #262626; stroke-width: 1.5"/>
      </g>
     </g>
    </g>
    <g id="ytick_18">
     <g id="line2d_42">
      <g>
       <use xlink:href="#me07dcde172" x="44.448487" y="326.570471" style="fill: #262626; stroke: #262626; stroke-width: 1.5"/>
      </g>
     </g>
    </g>
    <g id="ytick_19">
     <g id="line2d_43">
      <g>
       <use xlink:href="#me07dcde172" x="44.448487" y="311.657201" style="fill: #262626; stroke: #262626; stroke-width: 1.5"/>
      </g>
     </g>
    </g>
    <g id="ytick_20">
     <g id="line2d_44">
      <g>
       <use xlink:href="#me07dcde172" x="44.448487" y="296.74393" style="fill: #262626; stroke: #262626; stroke-width: 1.5"/>
      </g>
     </g>
    </g>
    <g id="ytick_21">
     <g id="line2d_45">
      <g>
       <use xlink:href="#me07dcde172" x="44.448487" y="266.917388" style="fill: #262626; stroke: #262626; stroke-width: 1.5"/>
      </g>
     </g>
    </g>
    <g id="ytick_22">
     <g id="line2d_46">
      <g>
       <use xlink:href="#me07dcde172" x="44.448487" y="252.004117" style="fill: #262626; stroke: #262626; stroke-width: 1.5"/>
      </g>
     </g>
    </g>
    <g id="ytick_23">
     <g id="line2d_47">
      <g>
       <use xlink:href="#me07dcde172" x="44.448487" y="237.090846" style="fill: #262626; stroke: #262626; stroke-width: 1.5"/>
      </g>
     </g>
    </g>
    <g id="ytick_24">
     <g id="line2d_48">
      <g>
       <use xlink:href="#me07dcde172" x="44.448487" y="222.177576" style="fill: #262626; stroke: #262626; stroke-width: 1.5"/>
      </g>
     </g>
    </g>
    <g id="ytick_25">
     <g id="line2d_49">
      <g>
       <use xlink:href="#me07dcde172" x="44.448487" y="192.351034" style="fill: #262626; stroke: #262626; stroke-width: 1.5"/>
      </g>
     </g>
    </g>
    <g id="ytick_26">
     <g id="line2d_50">
      <g>
       <use xlink:href="#me07dcde172" x="44.448487" y="177.437763" style="fill: #262626; stroke: #262626; stroke-width: 1.5"/>
      </g>
     </g>
    </g>
    <g id="ytick_27">
     <g id="line2d_51">
      <g>
       <use xlink:href="#me07dcde172" x="44.448487" y="162.524492" style="fill: #262626; stroke: #262626; stroke-width: 1.5"/>
      </g>
     </g>
    </g>
    <g id="ytick_28">
     <g id="line2d_52">
      <g>
       <use xlink:href="#me07dcde172" x="44.448487" y="147.611221" style="fill: #262626; stroke: #262626; stroke-width: 1.5"/>
      </g>
     </g>
    </g>
    <g id="ytick_29">
     <g id="line2d_53">
      <g>
       <use xlink:href="#me07dcde172" x="44.448487" y="117.78468" style="fill: #262626; stroke: #262626; stroke-width: 1.5"/>
      </g>
     </g>
    </g>
    <g id="ytick_30">
     <g id="line2d_54">
      <g>
       <use xlink:href="#me07dcde172" x="44.448487" y="102.871409" style="fill: #262626; stroke: #262626; stroke-width: 1.5"/>
      </g>
     </g>
    </g>
    <g id="ytick_31">
     <g id="line2d_55">
      <g>
       <use xlink:href="#me07dcde172" x="44.448487" y="87.958138" style="fill: #262626; stroke: #262626; stroke-width: 1.5"/>
      </g>
     </g>
    </g>
    <g id="ytick_32">
     <g id="line2d_56">
      <g>
       <use xlink:href="#me07dcde172" x="44.448487" y="73.044867" style="fill: #262626; stroke: #262626; stroke-width: 1.5"/>
      </g>
     </g>
    </g>
    <g id="ytick_33">
     <g id="line2d_57">
      <g>
       <use xlink:href="#me07dcde172" x="44.448487" y="43.218325" style="fill: #262626; stroke: #262626; stroke-width: 1.5"/>
      </g>
     </g>
    </g>
    <g id="ytick_34">
     <g id="line2d_58">
      <g>
       <use xlink:href="#me07dcde172" x="44.448487" y="28.305055" style="fill: #262626; stroke: #262626; stroke-width: 1.5"/>
      </g>
     </g>
    </g>
    <g id="text_14">
     <!-- Normalized Wound Area -->
     <g style="fill: #262626" transform="translate(13.285876 343.528969) rotate(-90) scale(0.14 -0.14)">
      <defs>
       <path id="CMSS17-4e" d="M 1466 4179 
L 1350 4416 
L 563 4416 
L 563 0 
L 1062 0 
L 1062 3925 
L 1069 3931 
C 1114 3817 1139 3759 1402 3193 
L 2771 236 
L 2886 0 
L 3674 0 
L 3674 4416 
L 3174 4416 
L 3174 490 
L 3168 484 
C 3123 598 3098 655 2835 1222 
L 1466 4179 
z
" transform="scale(0.015625)"/>
       <path id="CMSS17-6f" d="M 2829 1356 
C 2829 2175 2221 2816 1504 2816 
C 768 2816 173 2156 173 1356 
C 173 544 787 -64 1498 -64 
C 2227 -64 2829 563 2829 1356 
z
M 1504 339 
C 1050 339 659 710 659 1407 
C 659 2150 1114 2425 1498 2425 
C 1914 2425 2342 2124 2342 1407 
C 2342 684 1926 339 1504 339 
z
" transform="scale(0.015625)"/>
       <path id="CMSS17-72" d="M 954 1369 
C 954 1974 1395 2379 1958 2392 
L 1958 2816 
C 1549 2809 1165 2604 934 2270 
L 934 2783 
L 480 2783 
L 480 0 
L 954 0 
L 954 1369 
z
" transform="scale(0.015625)"/>
       <path id="CMSS17-61" d="M 2406 1789 
C 2406 2399 1978 2816 1402 2816 
C 1120 2816 813 2764 461 2559 
L 499 2133 
C 659 2250 934 2438 1395 2438 
C 1722 2438 1920 2185 1920 1782 
L 1920 1536 
C 896 1504 256 1209 256 711 
C 256 452 416 -64 947 -64 
C 1043 -64 1562 -52 1933 224 
L 1933 -13 
L 2406 -13 
L 2406 1789 
z
M 1920 824 
C 1920 711 1920 559 1728 446 
C 1562 339 1350 326 1261 326 
C 941 326 723 503 723 723 
C 723 1165 1722 1209 1920 1216 
L 1920 824 
z
" transform="scale(0.015625)"/>
       <path id="CMSS17-6c" d="M 947 4416 
L 474 4416 
L 474 0 
L 947 0 
L 947 4416 
z
" transform="scale(0.015625)"/>
       <path id="CMSS17-7a" d="M 2400 2502 
L 2400 2752 
L 250 2752 
L 250 2367 
L 1069 2367 
C 1146 2367 1222 2374 1299 2374 
L 1747 2374 
L 166 262 
L 166 0 
L 2419 0 
L 2419 396 
L 1549 396 
C 1472 396 1395 390 1318 390 
L 826 390 
L 2400 2502 
z
" transform="scale(0.015625)"/>
       <path id="CMSS17-64" d="M 2611 4416 
L 2138 4416 
L 2138 2495 
C 1939 2662 1613 2816 1254 2816 
C 672 2816 211 2179 211 1375 
C 211 572 666 -64 1235 -64 
C 1677 -64 1971 172 2125 307 
L 2125 -13 
L 2611 -13 
L 2611 4416 
z
M 2125 851 
C 2125 760 2125 663 1926 488 
C 1798 378 1645 326 1498 326 
C 1152 326 698 585 698 1369 
C 698 2185 1210 2425 1562 2425 
C 1798 2425 1990 2308 2125 2114 
L 2125 851 
z
" transform="scale(0.015625)"/>
       <path id="CMSS17-57" d="M 5581 4416 
L 5094 4416 
L 4557 2436 
C 4474 2118 4397 1800 4320 1482 
C 4205 1012 4122 681 4109 516 
L 4102 516 
C 4090 687 4006 1050 3904 1457 
C 3827 1794 3744 2131 3654 2462 
L 3123 4416 
L 2586 4416 
L 2080 2564 
L 1824 1552 
C 1632 751 1626 636 1613 509 
L 1606 509 
C 1606 547 1581 757 1402 1501 
C 1312 1870 1222 2246 1126 2602 
L 634 4416 
L 83 4416 
L 1299 0 
L 1830 0 
L 2336 1838 
L 2592 2850 
C 2765 3562 2803 3740 2816 3899 
L 2822 3899 
C 2822 3874 2880 3473 3130 2544 
L 3808 0 
L 4365 0 
L 5581 4416 
z
" transform="scale(0.015625)"/>
       <path id="CMSS17-75" d="M 2618 2752 
L 2131 2752 
L 2131 976 
C 2131 500 1786 307 1421 307 
C 998 307 960 448 960 712 
L 960 2752 
L 474 2752 
L 474 680 
C 474 179 646 -64 1088 -64 
C 1306 -64 1798 -13 2144 307 
L 2144 -13 
L 2618 -13 
L 2618 2752 
z
" transform="scale(0.015625)"/>
       <path id="CMSS17-6e" d="M 2618 1878 
C 2618 2283 2522 2816 1798 2816 
C 1389 2816 1120 2604 941 2386 
L 941 2783 
L 474 2783 
L 474 0 
L 960 0 
L 960 1556 
C 960 1962 1114 2425 1549 2425 
C 2112 2425 2131 2045 2131 1826 
L 2131 0 
L 2618 0 
L 2618 1878 
z
" transform="scale(0.015625)"/>
       <path id="CMSS17-41" d="M 2272 4416 
L 1722 4416 
L 166 0 
L 653 0 
L 1101 1280 
L 2816 1280 
L 3270 0 
L 3827 0 
L 2272 4416 
z
M 2694 1638 
L 1222 1638 
C 1530 2530 1914 3638 1958 3924 
L 1965 3924 
C 2010 3663 2138 3281 2246 2956 
L 2694 1638 
z
" transform="scale(0.015625)"/>
      </defs>
      <use xlink:href="#CMSS17-4e" transform="scale(0.996264)"/>
      <use xlink:href="#CMSS17-6f" transform="translate(66.061519 0) scale(0.996264)"/>
      <use xlink:href="#CMSS17-72" transform="translate(110.302689 0) scale(0.996264)"/>
      <use xlink:href="#CMSS17-6d" transform="translate(142.212461 0) scale(0.996264)"/>
      <use xlink:href="#CMSS17-61" transform="translate(216.441716 0) scale(0.996264)"/>
      <use xlink:href="#CMSS17-6c" transform="translate(261.363636 0) scale(0.996264)"/>
      <use xlink:href="#CMSS17-69" transform="translate(283.544359 0) scale(0.996264)"/>
      <use xlink:href="#CMSS17-7a" transform="translate(305.725082 0) scale(0.996264)"/>
      <use xlink:href="#CMSS17-65" transform="translate(346.402954 0) scale(0.996264)"/>
      <use xlink:href="#CMSS17-64" transform="translate(388.041776 0) scale(0.996264)"/>
      <use xlink:href="#CMSS17-57" transform="translate(467.475832 0) scale(0.996264)"/>
      <use xlink:href="#CMSS17-6f" transform="translate(553.115544 0) scale(0.996264)"/>
      <use xlink:href="#CMSS17-75" transform="translate(599.959168 0) scale(0.996264)"/>
      <use xlink:href="#CMSS17-6e" transform="translate(648.164111 0) scale(0.996264)"/>
      <use xlink:href="#CMSS17-64" transform="translate(696.369054 0) scale(0.996264)"/>
      <use xlink:href="#CMSS17-41" transform="translate(775.80311 0) scale(0.996264)"/>
      <use xlink:href="#CMSS17-72" transform="translate(838.020965 0) scale(0.996264)"/>
      <use xlink:href="#CMSS17-65" transform="translate(869.930738 0) scale(0.996264)"/>
      <use xlink:href="#CMSS17-61" transform="translate(911.56956 0) scale(0.996264)"/>
     </g>
    </g>
   </g>
   <g id="FillBetweenPolyCollection_1">
    <defs>
     <path id="m867707ebb3" d="M 76.223086 -211.682987 
L 76.223086 -211.682987 
L 83.788467 -213.488134 
L 91.353848 -214.877307 
L 98.919229 -216.211066 
L 106.48461 -217.824906 
L 114.04999 -219.953118 
L 121.615371 -222.683629 
L 129.180752 -225.954469 
L 136.746133 -229.589082 
L 144.311514 -233.355543 
L 151.876894 -237.028203 
L 159.442275 -240.431505 
L 167.007656 -243.453968 
L 174.573037 -246.032321 
L 182.138418 -248.116992 
L 189.703799 -249.63663 
L 197.269179 -250.479206 
L 204.83456 -250.500627 
L 212.399941 -249.561519 
L 219.965322 -247.582036 
L 227.530703 -244.596845 
L 235.096083 -240.790111 
L 242.661464 -236.494204 
L 250.226845 -232.145352 
L 257.792226 -228.202104 
L 265.357607 -225.044933 
L 272.922988 -222.883659 
L 280.488368 -221.700335 
L 288.053749 -221.247368 
L 295.61913 -221.105353 
L 303.184511 -220.78657 
L 310.749892 -219.854607 
L 318.315272 -218.023917 
L 325.880653 -215.208841 
L 333.446034 -211.508541 
L 341.011415 -207.136979 
L 348.576796 -202.327041 
L 356.142177 -197.247391 
L 363.707557 -191.965048 
L 371.272938 -186.467834 
L 378.838319 -180.735464 
L 386.4037 -174.826445 
L 393.969081 -168.938981 
L 401.534461 -163.41216 
L 409.099842 -158.656305 
L 416.665223 -155.030113 
L 424.230604 -152.70593 
L 431.795985 -151.573577 
L 439.361366 -151.223518 
L 446.926746 -151.02471 
L 454.492127 -150.280153 
L 462.057508 -148.415559 
L 469.622889 -145.143492 
L 477.18827 -140.5515 
L 484.75365 -135.086031 
L 492.319031 -129.436351 
L 499.884412 -124.35346 
L 507.449793 -120.458159 
L 515.015174 -118.0942 
L 522.580555 -117.266767 
L 530.145935 -117.679107 
L 537.711316 -118.849844 
L 545.276697 -120.270037 
L 552.842078 -121.549232 
L 560.407459 -122.506211 
L 567.972839 -123.18005 
L 575.53822 -123.763754 
L 583.103601 -124.487635 
L 590.668982 -125.494826 
L 598.234363 -126.752563 
L 605.799744 -128.029938 
L 613.365124 -128.950287 
L 620.930505 -129.101473 
L 628.495886 -128.168122 
L 636.061267 -126.042438 
L 643.626648 -122.876776 
L 651.192028 -119.05958 
L 658.757409 -115.120581 
L 666.32279 -111.593474 
L 673.888171 -108.877557 
L 681.453552 -107.13991 
L 689.018933 -106.28678 
L 696.584313 -106.011295 
L 704.149694 -105.901526 
L 711.715075 -105.575519 
L 711.715075 -105.575519 
L 711.715075 -105.575519 
L 704.149694 -105.901526 
L 696.584313 -106.011295 
L 689.018933 -106.28678 
L 681.453552 -107.13991 
L 673.888171 -108.877557 
L 666.32279 -111.593474 
L 658.757409 -115.120581 
L 651.192028 -119.05958 
L 643.626648 -122.876776 
L 636.061267 -126.042438 
L 628.495886 -128.168122 
L 620.930505 -129.101473 
L 613.365124 -128.950287 
L 605.799744 -128.029938 
L 598.234363 -126.752563 
L 590.668982 -125.494826 
L 583.103601 -124.487635 
L 575.53822 -123.763754 
L 567.972839 -123.18005 
L 560.407459 -122.506211 
L 552.842078 -121.549232 
L 545.276697 -120.270037 
L 537.711316 -118.849844 
L 530.145935 -117.679107 
L 522.580555 -117.266767 
L 515.015174 -118.0942 
L 507.449793 -120.458159 
L 499.884412 -124.35346 
L 492.319031 -129.436351 
L 484.75365 -135.086031 
L 477.18827 -140.5515 
L 469.622889 -145.143492 
L 462.057508 -148.415559 
L 454.492127 -150.280153 
L 446.926746 -151.02471 
L 439.361366 -151.223518 
L 431.795985 -151.573577 
L 424.230604 -152.70593 
L 416.665223 -155.030113 
L 409.099842 -158.656305 
L 401.534461 -163.41216 
L 393.969081 -168.938981 
L 386.4037 -174.826445 
L 378.838319 -180.735464 
L 371.272938 -186.467834 
L 363.707557 -191.965048 
L 356.142177 -197.247391 
L 348.576796 -202.327041 
L 341.011415 -207.136979 
L 333.446034 -211.508541 
L 325.880653 -215.208841 
L 318.315272 -218.023917 
L 310.749892 -219.854607 
L 303.184511 -220.78657 
L 295.61913 -221.105353 
L 288.053749 -221.247368 
L 280.488368 -221.700335 
L 272.922988 -222.883659 
L 265.357607 -225.044933 
L 257.792226 -228.202104 
L 250.226845 -232.145352 
L 242.661464 -236.494204 
L 235.096083 -240.790111 
L 227.530703 -244.596845 
L 219.965322 -247.582036 
L 212.399941 -249.561519 
L 204.83456 -250.500627 
L 197.269179 -250.479206 
L 189.703799 -249.63663 
L 182.138418 -248.116992 
L 174.573037 -246.032321 
L 167.007656 -243.453968 
L 159.442275 -240.431505 
L 151.876894 -237.028203 
L 144.311514 -233.355543 
L 136.746133 -229.589082 
L 129.180752 -225.954469 
L 121.615371 -222.683629 
L 114.04999 -219.953118 
L 106.48461 -217.824906 
L 98.919229 -216.211066 
L 91.353848 -214.877307 
L 83.788467 -213.488134 
L 76.223086 -211.682987 
z
" style="stroke: #0c5da5; stroke-opacity: 0.2"/>
    </defs>
    <g clip-path="url(#pb8af01d1cf)">
     <use xlink:href="#m867707ebb3" x="0" y="568.08" style="fill: #0c5da5; fill-opacity: 0.2; stroke: #0c5da5; stroke-opacity: 0.2"/>
    </g>
   </g>
   <g id="FillBetweenPolyCollection_2">
    <defs>
     <path id="m20aae4754c" d="M 76.223086 -211.682987 
L 76.223086 -211.682987 
L 83.788467 -221.365864 
L 91.353848 -230.66987 
L 98.919229 -240.278041 
L 106.48461 -250.773443 
L 114.04999 -262.378728 
L 121.615371 -274.81087 
L 129.180752 -287.311331 
L 136.746133 -298.849365 
L 144.311514 -308.429898 
L 151.876894 -315.394319 
L 159.442275 -319.601959 
L 167.007656 -321.42463 
L 174.573037 -321.559573 
L 182.138418 -320.738096 
L 189.703799 -319.44762 
L 197.269179 -317.776298 
L 204.83456 -315.435452 
L 212.399941 -311.938922 
L 219.965322 -306.853483 
L 227.530703 -300.008659 
L 235.096083 -291.578114 
L 242.661464 -282.006154 
L 250.226845 -271.823195 
L 257.792226 -261.441321 
L 265.357607 -251.024932 
L 272.922988 -240.491957 
L 280.488368 -229.638371 
L 288.053749 -218.322321 
L 295.61913 -206.619627 
L 303.184511 -194.878961 
L 310.749892 -183.652742 
L 318.315272 -173.535097 
L 325.880653 -164.976011 
L 333.446034 -158.145853 
L 341.011415 -152.897897 
L 348.576796 -148.833198 
L 356.142177 -145.433046 
L 363.707557 -142.205086 
L 371.272938 -138.794836 
L 378.838319 -135.037566 
L 386.4037 -130.952458 
L 393.969081 -126.699106 
L 401.534461 -122.520081 
L 409.099842 -118.685611 
L 416.665223 -115.445594 
L 424.230604 -112.988081 
L 431.795985 -111.404979 
L 439.361366 -110.671604 
L 446.926746 -110.650286 
L 454.492127 -111.124059 
L 462.057508 -111.854461 
L 469.622889 -112.643446 
L 477.18827 -113.372061 
L 484.75365 -113.994422 
L 492.319031 -114.484596 
L 499.884412 -114.758689 
L 507.449793 -114.612693 
L 515.015174 -113.717643 
L 522.580555 -111.693738 
L 530.145935 -108.250505 
L 537.711316 -103.345123 
L 545.276697 -97.29202 
L 552.842078 -90.764871 
L 560.407459 -84.667246 
L 567.972839 -79.89839 
L 575.53822 -77.08622 
L 583.103601 -76.381034 
L 590.668982 -77.38967 
L 598.234363 -79.28392 
L 605.799744 -81.055118 
L 613.365124 -81.83256 
L 620.930505 -81.157935 
L 628.495886 -79.121692 
L 636.061267 -76.315215 
L 643.626648 -73.616899 
L 651.192028 -71.886758 
L 658.757409 -71.673015 
L 666.32279 -73.026286 
L 673.888171 -75.477409 
L 681.453552 -78.179657 
L 689.018933 -80.164702 
L 696.584313 -80.630716 
L 704.149694 -79.177954 
L 711.715075 -75.929496 
L 711.715075 -75.929496 
L 711.715075 -75.929496 
L 704.149694 -79.177954 
L 696.584313 -80.630716 
L 689.018933 -80.164702 
L 681.453552 -78.179657 
L 673.888171 -75.477409 
L 666.32279 -73.026286 
L 658.757409 -71.673015 
L 651.192028 -71.886758 
L 643.626648 -73.616899 
L 636.061267 -76.315215 
L 628.495886 -79.121692 
L 620.930505 -81.157935 
L 613.365124 -81.83256 
L 605.799744 -81.055118 
L 598.234363 -79.28392 
L 590.668982 -77.38967 
L 583.103601 -76.381034 
L 575.53822 -77.08622 
L 567.972839 -79.89839 
L 560.407459 -84.667246 
L 552.842078 -90.764871 
L 545.276697 -97.29202 
L 537.711316 -103.345123 
L 530.145935 -108.250505 
L 522.580555 -111.693738 
L 515.015174 -113.717643 
L 507.449793 -114.612693 
L 499.884412 -114.758689 
L 492.319031 -114.484596 
L 484.75365 -113.994422 
L 477.18827 -113.372061 
L 469.622889 -112.643446 
L 462.057508 -111.854461 
L 454.492127 -111.124059 
L 446.926746 -110.650286 
L 439.361366 -110.671604 
L 431.795985 -111.404979 
L 424.230604 -112.988081 
L 416.665223 -115.445594 
L 409.099842 -118.685611 
L 401.534461 -122.520081 
L 393.969081 -126.699106 
L 386.4037 -130.952458 
L 378.838319 -135.037566 
L 371.272938 -138.794836 
L 363.707557 -142.205086 
L 356.142177 -145.433046 
L 348.576796 -148.833198 
L 341.011415 -152.897897 
L 333.446034 -158.145853 
L 325.880653 -164.976011 
L 318.315272 -173.535097 
L 310.749892 -183.652742 
L 303.184511 -194.878961 
L 295.61913 -206.619627 
L 288.053749 -218.322321 
L 280.488368 -229.638371 
L 272.922988 -240.491957 
L 265.357607 -251.024932 
L 257.792226 -261.441321 
L 250.226845 -271.823195 
L 242.661464 -282.006154 
L 235.096083 -291.578114 
L 227.530703 -300.008659 
L 219.965322 -306.853483 
L 212.399941 -311.938922 
L 204.83456 -315.435452 
L 197.269179 -317.776298 
L 189.703799 -319.44762 
L 182.138418 -320.738096 
L 174.573037 -321.559573 
L 167.007656 -321.42463 
L 159.442275 -319.601959 
L 151.876894 -315.394319 
L 144.311514 -308.429898 
L 136.746133 -298.849365 
L 129.180752 -287.311331 
L 121.615371 -274.81087 
L 114.04999 -262.378728 
L 106.48461 -250.773443 
L 98.919229 -240.278041 
L 91.353848 -230.66987 
L 83.788467 -221.365864 
L 76.223086 -211.682987 
z
" style="stroke: #00b945; stroke-opacity: 0.2"/>
    </defs>
    <g clip-path="url(#pb8af01d1cf)">
     <use xlink:href="#m20aae4754c" x="0" y="568.08" style="fill: #00b945; fill-opacity: 0.2; stroke: #00b945; stroke-opacity: 0.2"/>
    </g>
   </g>
   <g id="FillBetweenPolyCollection_3">
    <defs>
     <path id="m372d25aabe" d="M 76.223086 -211.682987 
L 76.223086 -211.682987 
L 83.788467 -216.281804 
L 91.353848 -222.340183 
L 98.919229 -229.734614 
L 106.48461 -238.21298 
L 114.04999 -247.412869 
L 121.615371 -256.893338 
L 129.180752 -266.176695 
L 136.746133 -274.795257 
L 144.311514 -282.337203 
L 151.876894 -288.485554 
L 159.442275 -293.045189 
L 167.007656 -295.954421 
L 174.573037 -297.279852 
L 182.138418 -297.195575 
L 189.703799 -295.950043 
L 197.269179 -293.825608 
L 204.83456 -291.096665 
L 212.399941 -287.992357 
L 219.965322 -284.668956 
L 227.530703 -281.19539 
L 235.096083 -277.55338 
L 242.661464 -273.65141 
L 250.226845 -269.349792 
L 257.792226 -264.492543 
L 265.357607 -258.940987 
L 272.922988 -252.603941 
L 280.488368 -245.460005 
L 288.053749 -237.568794 
L 295.61913 -229.069651 
L 303.184511 -220.168228 
L 310.749892 -211.113093 
L 318.315272 -202.165925 
L 325.880653 -193.569784 
L 333.446034 -185.520179 
L 341.011415 -178.143223 
L 348.576796 -171.484146 
L 356.142177 -165.507825 
L 363.707557 -160.111213 
L 371.272938 -155.145638 
L 378.838319 -150.445386 
L 386.4037 -145.857914 
L 393.969081 -141.270713 
L 401.534461 -136.630361 
L 409.099842 -131.95058 
L 416.665223 -127.307994 
L 424.230604 -122.826465 
L 431.795985 -118.6529 
L 439.361366 -114.929039 
L 446.926746 -111.764457 
L 454.492127 -109.215797 
L 462.057508 -107.276077 
L 469.622889 -105.875954 
L 477.18827 -104.896524 
L 484.75365 -104.190966 
L 492.319031 -103.610663 
L 499.884412 -103.030573 
L 507.449793 -102.3689 
L 515.015174 -101.597331 
L 522.580555 -100.740125 
L 530.145935 -99.862658 
L 537.711316 -99.052159 
L 545.276697 -98.394912 
L 552.842078 -97.954817 
L 560.407459 -97.7577 
L 567.972839 -97.784471 
L 575.53822 -97.974174 
L 583.103601 -98.235912 
L 590.668982 -98.466739 
L 598.234363 -98.571488 
L 605.799744 -98.480245 
L 613.365124 -98.159883 
L 620.930505 -97.617473 
L 628.495886 -96.895259 
L 636.061267 -96.058682 
L 643.626648 -95.180396 
L 651.192028 -94.323964 
L 658.757409 -93.530841 
L 666.32279 -92.813432 
L 673.888171 -92.155625 
L 681.453552 -91.520578 
L 689.018933 -90.864014 
L 696.584313 -90.1502 
L 704.149694 -89.367283 
L 711.715075 -88.538847 
L 711.715075 -88.538847 
L 711.715075 -88.538847 
L 704.149694 -89.367283 
L 696.584313 -90.1502 
L 689.018933 -90.864014 
L 681.453552 -91.520578 
L 673.888171 -92.155625 
L 666.32279 -92.813432 
L 658.757409 -93.530841 
L 651.192028 -94.323964 
L 643.626648 -95.180396 
L 636.061267 -96.058682 
L 628.495886 -96.895259 
L 620.930505 -97.617473 
L 613.365124 -98.159883 
L 605.799744 -98.480245 
L 598.234363 -98.571488 
L 590.668982 -98.466739 
L 583.103601 -98.235912 
L 575.53822 -97.974174 
L 567.972839 -97.784471 
L 560.407459 -97.7577 
L 552.842078 -97.954817 
L 545.276697 -98.394912 
L 537.711316 -99.052159 
L 530.145935 -99.862658 
L 522.580555 -100.740125 
L 515.015174 -101.597331 
L 507.449793 -102.3689 
L 499.884412 -103.030573 
L 492.319031 -103.610663 
L 484.75365 -104.190966 
L 477.18827 -104.896524 
L 469.622889 -105.875954 
L 462.057508 -107.276077 
L 454.492127 -109.215797 
L 446.926746 -111.764457 
L 439.361366 -114.929039 
L 431.795985 -118.6529 
L 424.230604 -122.826465 
L 416.665223 -127.307994 
L 409.099842 -131.95058 
L 401.534461 -136.630361 
L 393.969081 -141.270713 
L 386.4037 -145.857914 
L 378.838319 -150.445386 
L 371.272938 -155.145638 
L 363.707557 -160.111213 
L 356.142177 -165.507825 
L 348.576796 -171.484146 
L 341.011415 -178.143223 
L 333.446034 -185.520179 
L 325.880653 -193.569784 
L 318.315272 -202.165925 
L 310.749892 -211.113093 
L 303.184511 -220.168228 
L 295.61913 -229.069651 
L 288.053749 -237.568794 
L 280.488368 -245.460005 
L 272.922988 -252.603941 
L 265.357607 -258.940987 
L 257.792226 -264.492543 
L 250.226845 -269.349792 
L 242.661464 -273.65141 
L 235.096083 -277.55338 
L 227.530703 -281.19539 
L 219.965322 -284.668956 
L 212.399941 -287.992357 
L 204.83456 -291.096665 
L 197.269179 -293.825608 
L 189.703799 -295.950043 
L 182.138418 -297.195575 
L 174.573037 -297.279852 
L 167.007656 -295.954421 
L 159.442275 -293.045189 
L 151.876894 -288.485554 
L 144.311514 -282.337203 
L 136.746133 -274.795257 
L 129.180752 -266.176695 
L 121.615371 -256.893338 
L 114.04999 -247.412869 
L 106.48461 -238.21298 
L 98.919229 -229.734614 
L 91.353848 -222.340183 
L 83.788467 -216.281804 
L 76.223086 -211.682987 
z
" style="stroke: #ff9500; stroke-opacity: 0.2"/>
    </defs>
    <g clip-path="url(#pb8af01d1cf)">
     <use xlink:href="#m372d25aabe" x="0" y="568.08" style="fill: #ff9500; fill-opacity: 0.2; stroke: #ff9500; stroke-opacity: 0.2"/>
    </g>
   </g>
   <g id="FillBetweenPolyCollection_4">
    <defs>
     <path id="m3807e3d0e7" d="M 76.223086 -211.682987 
L 76.223086 -211.682987 
L 83.788467 -225.003477 
L 91.353848 -236.950412 
L 98.919229 -247.381107 
L 106.48461 -256.3202 
L 114.04999 -263.935841 
L 121.615371 -270.495212 
L 129.180752 -276.305597 
L 136.746133 -281.649672 
L 144.311514 -286.724919 
L 151.876894 -291.596899 
L 159.442275 -296.174467 
L 167.007656 -300.21205 
L 174.573037 -303.340183 
L 182.138418 -305.121089 
L 189.703799 -305.121865 
L 197.269179 -302.994393 
L 204.83456 -298.549123 
L 212.399941 -291.809795 
L 219.965322 -283.038258 
L 227.530703 -272.722661 
L 235.096083 -261.527994 
L 242.661464 -250.21438 
L 250.226845 -239.534631 
L 257.792226 -230.127129 
L 265.357607 -222.422161 
L 272.922988 -216.57868 
L 280.488368 -212.464041 
L 288.053749 -209.682093 
L 295.61913 -207.646342 
L 303.184511 -205.686273 
L 310.749892 -203.168161 
L 318.315272 -199.60825 
L 325.880653 -194.757026 
L 333.446034 -188.638457 
L 341.011415 -181.536679 
L 348.576796 -173.932958 
L 356.142177 -166.405752 
L 363.707557 -159.514133 
L 371.272938 -153.688062 
L 378.838319 -149.147297 
L 386.4037 -145.864395 
L 393.969081 -143.577735 
L 401.534461 -141.849919 
L 409.099842 -140.157637 
L 416.665223 -137.993189 
L 424.230604 -134.956501 
L 431.795985 -130.819899 
L 439.361366 -125.554912 
L 446.926746 -119.319344 
L 454.492127 -112.411467 
L 462.057508 -105.204469 
L 469.622889 -98.077035 
L 477.18827 -91.354721 
L 484.75365 -85.272315 
L 492.319031 -79.96113 
L 499.884412 -75.458795 
L 507.449793 -62.550278 
L 515.015174 -62.550278 
L 522.580555 -62.550278 
L 530.145935 -62.550278 
L 537.711316 -62.550278 
L 545.276697 -62.550278 
L 552.842078 -62.550278 
L 560.407459 -62.550278 
L 567.972839 -62.550278 
L 575.53822 -62.550278 
L 583.103601 -62.550278 
L 590.668982 -62.550278 
L 598.234363 -62.550278 
L 605.799744 -62.550278 
L 613.365124 -62.550278 
L 620.930505 -62.550278 
L 628.495886 -62.550278 
L 636.061267 -62.550278 
L 643.626648 -62.550278 
L 651.192028 -62.550278 
L 658.757409 -62.550278 
L 666.32279 -62.550278 
L 673.888171 -62.550278 
L 681.453552 -62.550278 
L 689.018933 -62.550278 
L 696.584313 -62.550278 
L 704.149694 -62.550278 
L 711.715075 -62.550278 
L 711.715075 -62.550278 
L 711.715075 -62.550278 
L 704.149694 -62.550278 
L 696.584313 -62.550278 
L 689.018933 -62.550278 
L 681.453552 -62.550278 
L 673.888171 -62.550278 
L 666.32279 -62.550278 
L 658.757409 -62.550278 
L 651.192028 -62.550278 
L 643.626648 -62.550278 
L 636.061267 -62.550278 
L 628.495886 -62.550278 
L 620.930505 -62.550278 
L 613.365124 -62.550278 
L 605.799744 -62.550278 
L 598.234363 -62.550278 
L 590.668982 -62.550278 
L 583.103601 -62.550278 
L 575.53822 -62.550278 
L 567.972839 -62.550278 
L 560.407459 -62.550278 
L 552.842078 -62.550278 
L 545.276697 -62.550278 
L 537.711316 -62.550278 
L 530.145935 -62.550278 
L 522.580555 -62.550278 
L 515.015174 -62.550278 
L 507.449793 -62.550278 
L 499.884412 -75.458795 
L 492.319031 -79.96113 
L 484.75365 -85.272315 
L 477.18827 -91.354721 
L 469.622889 -98.077035 
L 462.057508 -105.204469 
L 454.492127 -112.411467 
L 446.926746 -119.319344 
L 439.361366 -125.554912 
L 431.795985 -130.819899 
L 424.230604 -134.956501 
L 416.665223 -137.993189 
L 409.099842 -140.157637 
L 401.534461 -141.849919 
L 393.969081 -143.577735 
L 386.4037 -145.864395 
L 378.838319 -149.147297 
L 371.272938 -153.688062 
L 363.707557 -159.514133 
L 356.142177 -166.405752 
L 348.576796 -173.932958 
L 341.011415 -181.536679 
L 333.446034 -188.638457 
L 325.880653 -194.757026 
L 318.315272 -199.60825 
L 310.749892 -203.168161 
L 303.184511 -205.686273 
L 295.61913 -207.646342 
L 288.053749 -209.682093 
L 280.488368 -212.464041 
L 272.922988 -216.57868 
L 265.357607 -222.422161 
L 257.792226 -230.127129 
L 250.226845 -239.534631 
L 242.661464 -250.21438 
L 235.096083 -261.527994 
L 227.530703 -272.722661 
L 219.965322 -283.038258 
L 212.399941 -291.809795 
L 204.83456 -298.549123 
L 197.269179 -302.994393 
L 189.703799 -305.121865 
L 182.138418 -305.121089 
L 174.573037 -303.340183 
L 167.007656 -300.21205 
L 159.442275 -296.174467 
L 151.876894 -291.596899 
L 144.311514 -286.724919 
L 136.746133 -281.649672 
L 129.180752 -276.305597 
L 121.615371 -270.495212 
L 114.04999 -263.935841 
L 106.48461 -256.3202 
L 98.919229 -247.381107 
L 91.353848 -236.950412 
L 83.788467 -225.003477 
L 76.223086 -211.682987 
z
" style="stroke: #ff2c00; stroke-opacity: 0.2"/>
    </defs>
    <g clip-path="url(#pb8af01d1cf)">
     <use xlink:href="#m3807e3d0e7" x="0" y="568.08" style="fill: #ff2c00; fill-opacity: 0.2; stroke: #ff2c00; stroke-opacity: 0.2"/>
    </g>
   </g>
   <g id="FillBetweenPolyCollection_5">
    <defs>
     <path id="m787c61e2e8" d="M 76.223086 -211.682987 
L 76.223086 -211.682987 
L 83.788467 -227.142543 
L 91.353848 -236.161826 
L 98.919229 -247.310459 
L 106.48461 -269.656532 
L 114.04999 -307.33075 
L 121.615371 -356.692348 
L 129.180752 -407.880207 
L 136.746133 -449.857181 
L 144.311514 -475.923838 
L 151.876894 -486.512171 
L 159.442275 -487.918583 
L 167.007656 -488.168068 
L 174.573037 -492.716672 
L 182.138418 -502.348404 
L 189.703799 -513.915537 
L 197.269179 -522.841227 
L 204.83456 -525.639655 
L 212.399941 -521.236426 
L 219.965322 -510.888495 
L 227.530703 -497.214961 
L 235.096083 -482.987038 
L 242.661464 -470.140005 
L 250.226845 -459.285283 
L 257.792226 -449.861349 
L 265.357607 -440.828015 
L 272.922988 -431.488139 
L 280.488368 -421.881044 
L 288.053749 -412.476658 
L 295.61913 -403.476202 
L 303.184511 -394.402491 
L 310.749892 -384.436459 
L 318.315272 -373.256554 
L 325.880653 -361.589464 
L 333.446034 -350.84662 
L 341.011415 -342.029787 
L 348.576796 -334.827366 
L 356.142177 -327.763998 
L 363.707557 -319.379326 
L 371.272938 -309.46311 
L 378.838319 -299.256319 
L 386.4037 -290.411847 
L 393.969081 -283.626117 
L 401.534461 -278.171606 
L 409.099842 -272.75096 
L 416.665223 -266.87206 
L 424.230604 -261.435073 
L 431.795985 -257.918383 
L 439.361366 -256.837412 
L 446.926746 -256.862748 
L 454.492127 -255.46584 
L 462.057508 -250.659846 
L 469.622889 -242.459464 
L 477.18827 -232.905954 
L 484.75365 -224.672938 
L 492.319031 -219.368958 
L 499.884412 -216.784054 
L 507.449793 -215.462889 
L 515.015174 -213.927778 
L 522.580555 -211.502612 
L 530.145935 -208.215768 
L 537.711316 -204.125541 
L 545.276697 -198.845757 
L 552.842078 -191.74842 
L 560.407459 -182.640932 
L 567.972839 -172.282785 
L 575.53822 -162.254811 
L 583.103601 -154.23374 
L 590.668982 -149.179614 
L 598.234363 -146.97435 
L 605.799744 -146.692734 
L 613.365124 -147.255852 
L 620.930505 -148.019592 
L 628.495886 -148.972367 
L 636.061267 -150.509411 
L 643.626648 -152.992648 
L 651.192028 -156.368955 
L 658.757409 -160.033914 
L 666.32279 -162.996894 
L 673.888171 -164.290272 
L 681.453552 -163.463349 
L 689.018933 -160.908372 
L 696.584313 -157.759338 
L 704.149694 -155.285468 
L 711.715075 -154.044306 
L 711.715075 -154.044306 
L 711.715075 -154.044306 
L 704.149694 -155.285468 
L 696.584313 -157.759338 
L 689.018933 -160.908372 
L 681.453552 -163.463349 
L 673.888171 -164.290272 
L 666.32279 -162.996894 
L 658.757409 -160.033914 
L 651.192028 -156.368955 
L 643.626648 -152.992648 
L 636.061267 -150.509411 
L 628.495886 -148.972367 
L 620.930505 -148.019592 
L 613.365124 -147.255852 
L 605.799744 -146.692734 
L 598.234363 -146.97435 
L 590.668982 -149.179614 
L 583.103601 -154.23374 
L 575.53822 -162.254811 
L 567.972839 -172.282785 
L 560.407459 -182.640932 
L 552.842078 -191.74842 
L 545.276697 -198.845757 
L 537.711316 -204.125541 
L 530.145935 -208.215768 
L 522.580555 -211.502612 
L 515.015174 -213.927778 
L 507.449793 -215.462889 
L 499.884412 -216.784054 
L 492.319031 -219.368958 
L 484.75365 -224.672938 
L 477.18827 -232.905954 
L 469.622889 -242.459464 
L 462.057508 -250.659846 
L 454.492127 -255.46584 
L 446.926746 -256.862748 
L 439.361366 -256.837412 
L 431.795985 -257.918383 
L 424.230604 -261.435073 
L 416.665223 -266.87206 
L 409.099842 -272.75096 
L 401.534461 -278.171606 
L 393.969081 -283.626117 
L 386.4037 -290.411847 
L 378.838319 -299.256319 
L 371.272938 -309.46311 
L 363.707557 -319.379326 
L 356.142177 -327.763998 
L 348.576796 -334.827366 
L 341.011415 -342.029787 
L 333.446034 -350.84662 
L 325.880653 -361.589464 
L 318.315272 -373.256554 
L 310.749892 -384.436459 
L 303.184511 -394.402491 
L 295.61913 -403.476202 
L 288.053749 -412.476658 
L 280.488368 -421.881044 
L 272.922988 -431.488139 
L 265.357607 -440.828015 
L 257.792226 -449.861349 
L 250.226845 -459.285283 
L 242.661464 -470.140005 
L 235.096083 -482.987038 
L 227.530703 -497.214961 
L 219.965322 -510.888495 
L 212.399941 -521.236426 
L 204.83456 -525.639655 
L 197.269179 -522.841227 
L 189.703799 -513.915537 
L 182.138418 -502.348404 
L 174.573037 -492.716672 
L 167.007656 -488.168068 
L 159.442275 -487.918583 
L 151.876894 -486.512171 
L 144.311514 -475.923838 
L 136.746133 -449.857181 
L 129.180752 -407.880207 
L 121.615371 -356.692348 
L 114.04999 -307.33075 
L 106.48461 -269.656532 
L 98.919229 -247.310459 
L 91.353848 -236.161826 
L 83.788467 -227.142543 
L 76.223086 -211.682987 
z
" style="stroke: #845b97; stroke-opacity: 0.2"/>
    </defs>
    <g clip-path="url(#pb8af01d1cf)">
     <use xlink:href="#m787c61e2e8" x="0" y="568.08" style="fill: #845b97; fill-opacity: 0.2; stroke: #845b97; stroke-opacity: 0.2"/>
    </g>
   </g>
   <g id="line2d_59">
    <path d="M 76.223086 356.397013 
L 83.788467 354.591866 
L 91.353848 353.202693 
L 98.919229 351.868934 
L 106.48461 350.255094 
L 114.04999 348.126882 
L 121.615371 345.396371 
L 129.180752 342.125531 
L 136.746133 338.490918 
L 144.311514 334.724457 
L 151.876894 331.051797 
L 159.442275 327.648495 
L 167.007656 324.626032 
L 174.573037 322.047679 
L 182.138418 319.963008 
L 189.703799 318.44337 
L 197.269179 317.600794 
L 204.83456 317.579373 
L 212.399941 318.518481 
L 219.965322 320.497964 
L 227.530703 323.483155 
L 235.096083 327.289889 
L 242.661464 331.585796 
L 250.226845 335.934648 
L 257.792226 339.877896 
L 265.357607 343.035067 
L 272.922988 345.196341 
L 280.488368 346.379665 
L 288.053749 346.832632 
L 295.61913 346.974647 
L 303.184511 347.29343 
L 310.749892 348.225393 
L 318.315272 350.056083 
L 325.880653 352.871159 
L 333.446034 356.571459 
L 341.011415 360.943021 
L 348.576796 365.752959 
L 356.142177 370.832609 
L 363.707557 376.114952 
L 371.272938 381.612166 
L 378.838319 387.344536 
L 386.4037 393.253555 
L 393.969081 399.141019 
L 401.534461 404.66784 
L 409.099842 409.423695 
L 416.665223 413.049887 
L 424.230604 415.37407 
L 431.795985 416.506423 
L 439.361366 416.856482 
L 446.926746 417.05529 
L 454.492127 417.799847 
L 462.057508 419.664441 
L 469.622889 422.936508 
L 477.18827 427.5285 
L 484.75365 432.993969 
L 492.319031 438.643649 
L 499.884412 443.72654 
L 507.449793 447.621841 
L 515.015174 449.9858 
L 522.580555 450.813233 
L 530.145935 450.400893 
L 537.711316 449.230156 
L 545.276697 447.809963 
L 552.842078 446.530768 
L 560.407459 445.573789 
L 567.972839 444.89995 
L 575.53822 444.316246 
L 583.103601 443.592365 
L 590.668982 442.585174 
L 598.234363 441.327437 
L 605.799744 440.050062 
L 613.365124 439.129713 
L 620.930505 438.978527 
L 628.495886 439.911878 
L 636.061267 442.037562 
L 643.626648 445.203224 
L 651.192028 449.02042 
L 658.757409 452.959419 
L 666.32279 456.486526 
L 673.888171 459.202443 
L 681.453552 460.94009 
L 689.018933 461.79322 
L 696.584313 462.068705 
L 704.149694 462.178474 
L 711.715075 462.504481 
" clip-path="url(#pb8af01d1cf)" style="fill: none; stroke: #0c5da5; stroke-opacity: 0.8; stroke-width: 2; stroke-linecap: round"/>
   </g>
   <g id="line2d_60">
    <path d="M 76.223086 356.397013 
L 83.788467 346.714136 
L 91.353848 337.41013 
L 98.919229 327.801959 
L 106.48461 317.306557 
L 114.04999 305.701272 
L 121.615371 293.26913 
L 129.180752 280.768669 
L 136.746133 269.230635 
L 144.311514 259.650102 
L 151.876894 252.685681 
L 159.442275 248.478041 
L 167.007656 246.65537 
L 174.573037 246.520427 
L 182.138418 247.341904 
L 189.703799 248.63238 
L 197.269179 250.303702 
L 204.83456 252.644548 
L 212.399941 256.141078 
L 219.965322 261.226517 
L 227.530703 268.071341 
L 235.096083 276.501886 
L 242.661464 286.073846 
L 250.226845 296.256805 
L 257.792226 306.638679 
L 265.357607 317.055068 
L 272.922988 327.588043 
L 280.488368 338.441629 
L 288.053749 349.757679 
L 295.61913 361.460373 
L 303.184511 373.201039 
L 310.749892 384.427258 
L 318.315272 394.544903 
L 325.880653 403.103989 
L 333.446034 409.934147 
L 341.011415 415.182103 
L 348.576796 419.246802 
L 356.142177 422.646954 
L 363.707557 425.874914 
L 371.272938 429.285164 
L 378.838319 433.042434 
L 386.4037 437.127542 
L 393.969081 441.380894 
L 401.534461 445.559919 
L 409.099842 449.394389 
L 416.665223 452.634406 
L 424.230604 455.091919 
L 431.795985 456.675021 
L 439.361366 457.408396 
L 446.926746 457.429714 
L 454.492127 456.955941 
L 462.057508 456.225539 
L 469.622889 455.436554 
L 477.18827 454.707939 
L 484.75365 454.085578 
L 492.319031 453.595404 
L 499.884412 453.321311 
L 507.449793 453.467307 
L 515.015174 454.362357 
L 522.580555 456.386262 
L 530.145935 459.829495 
L 537.711316 464.734877 
L 545.276697 470.78798 
L 552.842078 477.315129 
L 560.407459 483.412754 
L 567.972839 488.18161 
L 575.53822 490.99378 
L 583.103601 491.698966 
L 590.668982 490.69033 
L 598.234363 488.79608 
L 605.799744 487.024882 
L 613.365124 486.24744 
L 620.930505 486.922065 
L 628.495886 488.958308 
L 636.061267 491.764785 
L 643.626648 494.463101 
L 651.192028 496.193242 
L 658.757409 496.406985 
L 666.32279 495.053714 
L 673.888171 492.602591 
L 681.453552 489.900343 
L 689.018933 487.915298 
L 696.584313 487.449284 
L 704.149694 488.902046 
L 711.715075 492.150504 
" clip-path="url(#pb8af01d1cf)" style="fill: none; stroke: #00b945; stroke-opacity: 0.8; stroke-width: 2; stroke-linecap: round"/>
   </g>
   <g id="line2d_61">
    <path d="M 76.223086 356.397013 
L 83.788467 351.798196 
L 91.353848 345.739817 
L 98.919229 338.345386 
L 106.48461 329.86702 
L 114.04999 320.667131 
L 121.615371 311.186662 
L 129.180752 301.903305 
L 136.746133 293.284743 
L 144.311514 285.742797 
L 151.876894 279.594446 
L 159.442275 275.034811 
L 167.007656 272.125579 
L 174.573037 270.800148 
L 182.138418 270.884425 
L 189.703799 272.129957 
L 197.269179 274.254392 
L 204.83456 276.983335 
L 212.399941 280.087643 
L 219.965322 283.411044 
L 227.530703 286.88461 
L 235.096083 290.52662 
L 242.661464 294.42859 
L 250.226845 298.730208 
L 257.792226 303.587457 
L 265.357607 309.139013 
L 272.922988 315.476059 
L 280.488368 322.619995 
L 288.053749 330.511206 
L 295.61913 339.010349 
L 303.184511 347.911772 
L 310.749892 356.966907 
L 318.315272 365.914075 
L 325.880653 374.510216 
L 333.446034 382.559821 
L 341.011415 389.936777 
L 348.576796 396.595854 
L 356.142177 402.572175 
L 363.707557 407.968787 
L 371.272938 412.934362 
L 378.838319 417.634614 
L 386.4037 422.222086 
L 393.969081 426.809287 
L 401.534461 431.449639 
L 409.099842 436.12942 
L 416.665223 440.772006 
L 424.230604 445.253535 
L 431.795985 449.4271 
L 439.361366 453.150961 
L 446.926746 456.315543 
L 454.492127 458.864203 
L 462.057508 460.803923 
L 469.622889 462.204046 
L 477.18827 463.183476 
L 484.75365 463.889034 
L 492.319031 464.469337 
L 499.884412 465.049427 
L 507.449793 465.7111 
L 515.015174 466.482669 
L 522.580555 467.339875 
L 530.145935 468.217342 
L 537.711316 469.027841 
L 545.276697 469.685088 
L 552.842078 470.125183 
L 560.407459 470.3223 
L 567.972839 470.295529 
L 575.53822 470.105826 
L 583.103601 469.844088 
L 590.668982 469.613261 
L 598.234363 469.508512 
L 605.799744 469.599755 
L 613.365124 469.920117 
L 620.930505 470.462527 
L 628.495886 471.184741 
L 636.061267 472.021318 
L 643.626648 472.899604 
L 651.192028 473.756036 
L 658.757409 474.549159 
L 666.32279 475.266568 
L 673.888171 475.924375 
L 681.453552 476.559422 
L 689.018933 477.215986 
L 696.584313 477.9298 
L 704.149694 478.712717 
L 711.715075 479.541153 
" clip-path="url(#pb8af01d1cf)" style="fill: none; stroke: #ff9500; stroke-opacity: 0.8; stroke-width: 2; stroke-linecap: round"/>
   </g>
   <g id="line2d_62">
    <path d="M 76.223086 356.397013 
L 83.788467 343.076523 
L 91.353848 331.129588 
L 98.919229 320.698893 
L 106.48461 311.7598 
L 114.04999 304.144159 
L 121.615371 297.584788 
L 129.180752 291.774403 
L 136.746133 286.430328 
L 144.311514 281.355081 
L 151.876894 276.483101 
L 159.442275 271.905533 
L 167.007656 267.86795 
L 174.573037 264.739817 
L 182.138418 262.958911 
L 189.703799 262.958135 
L 197.269179 265.085607 
L 204.83456 269.530877 
L 212.399941 276.270205 
L 219.965322 285.041742 
L 227.530703 295.357339 
L 235.096083 306.552006 
L 242.661464 317.86562 
L 250.226845 328.545369 
L 257.792226 337.952871 
L 265.357607 345.657839 
L 272.922988 351.50132 
L 280.488368 355.615959 
L 288.053749 358.397907 
L 295.61913 360.433658 
L 303.184511 362.393727 
L 310.749892 364.911839 
L 318.315272 368.47175 
L 325.880653 373.322974 
L 333.446034 379.441543 
L 341.011415 386.543321 
L 348.576796 394.147042 
L 356.142177 401.674248 
L 363.707557 408.565867 
L 371.272938 414.391938 
L 378.838319 418.932703 
L 386.4037 422.215605 
L 393.969081 424.502265 
L 401.534461 426.230081 
L 409.099842 427.922363 
L 416.665223 430.086811 
L 424.230604 433.123499 
L 431.795985 437.260101 
L 439.361366 442.525088 
L 446.926746 448.760656 
L 454.492127 455.668533 
L 462.057508 462.875531 
L 469.622889 470.002965 
L 477.18827 476.725279 
L 484.75365 482.807685 
L 492.319031 488.11887 
L 499.884412 492.621205 
L 507.449793 505.529722 
L 515.015174 505.529722 
L 522.580555 505.529722 
L 530.145935 505.529722 
L 537.711316 505.529722 
L 545.276697 505.529722 
L 552.842078 505.529722 
L 560.407459 505.529722 
L 567.972839 505.529722 
L 575.53822 505.529722 
L 583.103601 505.529722 
L 590.668982 505.529722 
L 598.234363 505.529722 
L 605.799744 505.529722 
L 613.365124 505.529722 
L 620.930505 505.529722 
L 628.495886 505.529722 
L 636.061267 505.529722 
L 643.626648 505.529722 
L 651.192028 505.529722 
L 658.757409 505.529722 
L 666.32279 505.529722 
L 673.888171 505.529722 
L 681.453552 505.529722 
L 689.018933 505.529722 
L 696.584313 505.529722 
L 704.149694 505.529722 
L 711.715075 505.529722 
" clip-path="url(#pb8af01d1cf)" style="fill: none; stroke: #ff2c00; stroke-opacity: 0.8; stroke-width: 2; stroke-linecap: round"/>
   </g>
   <g id="line2d_63">
    <path d="M 76.223086 356.397013 
L 83.788467 340.937457 
L 91.353848 331.918174 
L 98.919229 320.769541 
L 106.48461 298.423468 
L 114.04999 260.74925 
L 121.615371 211.387652 
L 129.180752 160.199793 
L 136.746133 118.222819 
L 144.311514 92.156162 
L 151.876894 81.567829 
L 159.442275 80.161417 
L 167.007656 79.911932 
L 174.573037 75.363328 
L 182.138418 65.731596 
L 189.703799 54.164463 
L 197.269179 45.238773 
L 204.83456 42.440345 
L 212.399941 46.843574 
L 219.965322 57.191505 
L 227.530703 70.865039 
L 235.096083 85.092962 
L 242.661464 97.939995 
L 250.226845 108.794717 
L 257.792226 118.218651 
L 265.357607 127.251985 
L 272.922988 136.591861 
L 280.488368 146.198956 
L 288.053749 155.603342 
L 295.61913 164.603798 
L 303.184511 173.677509 
L 310.749892 183.643541 
L 318.315272 194.823446 
L 325.880653 206.490536 
L 333.446034 217.23338 
L 341.011415 226.050213 
L 348.576796 233.252634 
L 356.142177 240.316002 
L 363.707557 248.700674 
L 371.272938 258.61689 
L 378.838319 268.823681 
L 386.4037 277.668153 
L 393.969081 284.453883 
L 401.534461 289.908394 
L 409.099842 295.32904 
L 416.665223 301.20794 
L 424.230604 306.644927 
L 431.795985 310.161617 
L 439.361366 311.242588 
L 446.926746 311.217252 
L 454.492127 312.61416 
L 462.057508 317.420154 
L 469.622889 325.620536 
L 477.18827 335.174046 
L 484.75365 343.407062 
L 492.319031 348.711042 
L 499.884412 351.295946 
L 507.449793 352.617111 
L 515.015174 354.152222 
L 522.580555 356.577388 
L 530.145935 359.864232 
L 537.711316 363.954459 
L 545.276697 369.234243 
L 552.842078 376.33158 
L 560.407459 385.439068 
L 567.972839 395.797215 
L 575.53822 405.825189 
L 583.103601 413.84626 
L 590.668982 418.900386 
L 598.234363 421.10565 
L 605.799744 421.387266 
L 613.365124 420.824148 
L 620.930505 420.060408 
L 628.495886 419.107633 
L 636.061267 417.570589 
L 643.626648 415.087352 
L 651.192028 411.711045 
L 658.757409 408.046086 
L 666.32279 405.083106 
L 673.888171 403.789728 
L 681.453552 404.616651 
L 689.018933 407.171628 
L 696.584313 410.320662 
L 704.149694 412.794532 
L 711.715075 414.035694 
" clip-path="url(#pb8af01d1cf)" style="fill: none; stroke: #845b97; stroke-opacity: 0.8; stroke-width: 2; stroke-linecap: round"/>
   </g>
   <g id="line2d_64"/>
   <g id="line2d_65"/>
   <g id="line2d_66"/>
   <g id="line2d_67"/>
   <g id="line2d_68"/>
   <g id="patch_3">
    <path d="M 44.448487 528.68419 
L 44.448487 19.285876 
" style="fill: none; stroke: #262626; stroke-width: 1.5; stroke-linejoin: miter; stroke-linecap: square"/>
   </g>
   <g id="patch_4">
    <path d="M 743.489674 528.68419 
L 743.489674 19.285876 
" style="fill: none; stroke: #262626; stroke-width: 1.5; stroke-linejoin: miter; stroke-linecap: square"/>
   </g>
   <g id="patch_5">
    <path d="M 44.448487 528.68419 
L 743.489674 528.68419 
" style="fill: none; stroke: #262626; stroke-width: 1.5; stroke-linejoin: miter; stroke-linecap: square"/>
   </g>
   <g id="patch_6">
    <path d="M 44.448487 19.285876 
L 743.489674 19.285876 
" style="fill: none; stroke: #262626; stroke-width: 1.5; stroke-linejoin: miter; stroke-linecap: square"/>
   </g>
   <g id="text_15">
    <!-- DMSO Wells: Individual Time Series with Labels -->
    <g style="fill: #262626" transform="translate(254.595491 13.285876) scale(0.14 -0.14)">
     <defs>
      <path id="CMSS17-44" d="M 570 4416 
L 570 0 
L 2144 0 
C 3194 0 4000 981 4000 2169 
C 4000 3396 3194 4416 2144 4416 
L 570 4416 
z
M 1094 358 
L 1094 4057 
L 2003 4057 
C 2861 4057 3475 3275 3475 2169 
C 3475 1108 2867 358 2003 358 
L 1094 358 
z
" transform="scale(0.015625)"/>
      <path id="CMSS17-4d" d="M 3194 2373 
L 2886 1476 
C 2835 1311 2662 795 2624 592 
L 2618 592 
C 2598 719 2560 853 2458 1177 
C 2400 1368 2336 1565 2272 1743 
L 1325 4416 
L 576 4416 
L 576 0 
L 1075 0 
L 1075 3899 
L 1082 3899 
C 1082 3893 1139 3613 1530 2500 
L 2374 102 
L 2848 102 
L 3610 2233 
C 3661 2379 3821 2843 3891 3066 
C 3955 3257 4115 3728 4154 3912 
L 4160 3912 
L 4160 0 
L 4666 0 
L 4666 4416 
L 3923 4416 
L 3194 2373 
z
" transform="scale(0.015625)"/>
      <path id="CMSS17-53" d="M 2797 4230 
C 2515 4396 2208 4544 1690 4544 
C 864 4544 333 3934 333 3309 
C 333 3064 403 2787 653 2504 
C 902 2220 1184 2143 1542 2053 
C 1690 2014 1939 1943 1984 1924 
C 2342 1782 2515 1454 2515 1144 
C 2515 738 2202 307 1645 307 
C 1453 307 890 339 358 829 
L 269 320 
C 794 -64 1363 -128 1651 -128 
C 2438 -128 3002 494 3002 1202 
C 3002 1460 2925 1789 2656 2092 
C 2394 2381 2163 2446 1638 2588 
C 1338 2665 1146 2717 986 2916 
C 877 3058 819 3193 819 3367 
C 819 3728 1126 4121 1690 4121 
C 1971 4121 2336 4063 2707 3715 
L 2797 4230 
z
" transform="scale(0.015625)"/>
      <path id="CMSS17-4f" d="M 4096 2201 
C 4096 3541 3219 4544 2214 4544 
C 1210 4544 333 3535 333 2201 
C 333 855 1222 -128 2214 -128 
C 3206 -128 4096 855 4096 2201 
z
M 2214 275 
C 1510 275 870 1067 870 2285 
C 870 3470 1549 4140 2214 4140 
C 2880 4140 3558 3470 3558 2285 
C 3558 1061 2912 275 2214 275 
z
" transform="scale(0.015625)"/>
      <path id="CMSS17-73" d="M 2061 2623 
C 1683 2803 1389 2816 1197 2816 
C 742 2816 198 2655 198 2009 
C 198 1363 902 1222 1094 1183 
C 1389 1126 1715 1062 1715 742 
C 1715 339 1254 339 1171 339 
C 915 339 563 409 243 639 
L 166 211 
C 531 0 883 -64 1178 -64 
C 1965 -64 2163 416 2163 780 
C 2163 1094 1984 1305 1862 1401 
C 1651 1567 1574 1587 1050 1695 
C 960 1708 646 1779 646 2067 
C 646 2431 1050 2431 1139 2431 
C 1555 2431 1811 2303 1984 2207 
L 2061 2623 
z
" transform="scale(0.015625)"/>
      <path id="CMSS17-3a" d="M 1088 2752 
L 576 2752 
L 576 2239 
L 1088 2239 
L 1088 2752 
z
M 576 512 
L 576 0 
L 1088 0 
L 1088 512 
L 576 512 
z
" transform="scale(0.015625)"/>
      <path id="CMSS17-49" d="M 1094 4416 
L 557 4416 
L 557 0 
L 1094 0 
L 1094 4416 
z
" transform="scale(0.015625)"/>
      <path id="CMSS17-76" d="M 2675 2752 
L 2176 2752 
L 1747 1555 
C 1613 1164 1421 627 1389 352 
L 1382 352 
C 1370 467 1318 633 1286 748 
C 1248 889 1197 1056 1158 1171 
L 595 2752 
L 83 2752 
L 1094 0 
L 1664 0 
L 2675 2752 
z
" transform="scale(0.015625)"/>
      <path id="CMSS17-77" d="M 4013 2752 
L 3526 2752 
L 3187 1600 
C 3117 1356 2918 684 2893 371 
L 2886 371 
C 2874 563 2765 1024 2586 1632 
L 2259 2752 
L 1818 2752 
L 1498 1657 
C 1338 1100 1216 627 1203 371 
L 1197 371 
C 1171 748 909 1632 870 1772 
L 582 2752 
L 83 2752 
L 915 0 
L 1402 0 
C 1734 1100 1990 1952 2010 2380 
C 2022 2169 2131 1715 2195 1491 
L 2618 0 
L 3181 0 
L 4013 2752 
z
" transform="scale(0.015625)"/>
      <path id="CMSS17-74" d="M 1069 2380 
L 1901 2380 
L 1901 2752 
L 1069 2752 
L 1069 3520 
L 614 3520 
L 614 2752 
L 109 2752 
L 109 2380 
L 602 2380 
L 602 751 
C 602 384 685 -64 1107 -64 
C 1427 -64 1722 25 2003 172 
L 1901 551 
C 1747 416 1562 339 1363 339 
C 1082 339 1069 699 1069 860 
L 1069 2380 
z
" transform="scale(0.015625)"/>
      <path id="CMSS17-68" d="M 2618 1878 
C 2618 2283 2522 2816 1798 2816 
C 1395 2816 1133 2617 947 2399 
L 947 4416 
L 474 4416 
L 474 0 
L 960 0 
L 960 1556 
C 960 1962 1114 2425 1549 2425 
C 2112 2425 2131 2045 2131 1826 
L 2131 0 
L 2618 0 
L 2618 1878 
z
" transform="scale(0.015625)"/>
      <path id="CMSS17-4c" d="M 1670 416 
C 1594 416 1517 409 1440 409 
L 1101 409 
L 1101 4416 
L 563 4416 
L 563 0 
L 3002 0 
L 3002 416 
L 1670 416 
z
" transform="scale(0.015625)"/>
      <path id="CMSS17-62" d="M 954 4416 
L 480 4416 
L 480 -13 
L 966 -13 
L 966 275 
C 1210 38 1504 -64 1766 -64 
C 2381 -64 2880 559 2880 1382 
C 2880 2133 2496 2816 1926 2816 
C 1523 2816 1165 2649 954 2476 
L 954 4416 
z
M 966 2095 
C 1107 2276 1306 2425 1587 2425 
C 1965 2425 2394 2146 2394 1382 
C 2394 566 1882 326 1530 326 
C 1402 326 1267 358 1139 468 
C 966 624 966 721 966 812 
L 966 2095 
z
" transform="scale(0.015625)"/>
     </defs>
     <use xlink:href="#CMSS17-44" transform="scale(0.996264)"/>
     <use xlink:href="#CMSS17-4d" transform="translate(67.542842 0) scale(0.996264)"/>
     <use xlink:href="#CMSS17-53" transform="translate(149.218872 0) scale(0.996264)"/>
     <use xlink:href="#CMSS17-4f" transform="translate(201.267388 0) scale(0.996264)"/>
     <use xlink:href="#CMSS17-57" transform="translate(301.520756 0) scale(0.996264)"/>
     <use xlink:href="#CMSS17-65" transform="translate(387.160468 0) scale(0.996264)"/>
     <use xlink:href="#CMSS17-6c" transform="translate(428.79929 0) scale(0.996264)"/>
     <use xlink:href="#CMSS17-6c" transform="translate(450.980013 0) scale(0.996264)"/>
     <use xlink:href="#CMSS17-73" transform="translate(473.160736 0) scale(0.996264)"/>
     <use xlink:href="#CMSS17-3a" transform="translate(509.074278 0) scale(0.996264)"/>
     <use xlink:href="#CMSS17-49" transform="translate(576.73729 0) scale(0.996264)"/>
     <use xlink:href="#CMSS17-6e" transform="translate(602.521216 0) scale(0.996264)"/>
     <use xlink:href="#CMSS17-64" transform="translate(650.726159 0) scale(0.996264)"/>
     <use xlink:href="#CMSS17-69" transform="translate(698.931102 0) scale(0.996264)"/>
     <use xlink:href="#CMSS17-76" transform="translate(721.111825 0) scale(0.996264)"/>
     <use xlink:href="#CMSS17-69" transform="translate(764.111967 0) scale(0.996264)"/>
     <use xlink:href="#CMSS17-64" transform="translate(786.29269 0) scale(0.996264)"/>
     <use xlink:href="#CMSS17-75" transform="translate(834.497633 0) scale(0.996264)"/>
     <use xlink:href="#CMSS17-61" transform="translate(882.702576 0) scale(0.996264)"/>
     <use xlink:href="#CMSS17-6c" transform="translate(927.624497 0) scale(0.996264)"/>
     <use xlink:href="#CMSS17-54" transform="translate(981.034332 0) scale(0.996264)"/>
     <use xlink:href="#CMSS17-69" transform="translate(1044.853786 0) scale(0.996264)"/>
     <use xlink:href="#CMSS17-6d" transform="translate(1067.034509 0) scale(0.996264)"/>
     <use xlink:href="#CMSS17-65" transform="translate(1141.263764 0) scale(0.996264)"/>
     <use xlink:href="#CMSS17-53" transform="translate(1214.131699 0) scale(0.996264)"/>
     <use xlink:href="#CMSS17-65" transform="translate(1266.180215 0) scale(0.996264)"/>
     <use xlink:href="#CMSS17-72" transform="translate(1307.819037 0) scale(0.996264)"/>
     <use xlink:href="#CMSS17-69" transform="translate(1339.728809 0) scale(0.996264)"/>
     <use xlink:href="#CMSS17-65" transform="translate(1361.909532 0) scale(0.996264)"/>
     <use xlink:href="#CMSS17-73" transform="translate(1403.548354 0) scale(0.996264)"/>
     <use xlink:href="#CMSS17-77" transform="translate(1470.691009 0) scale(0.996264)"/>
     <use xlink:href="#CMSS17-69" transform="translate(1534.510554 0) scale(0.996264)"/>
     <use xlink:href="#CMSS17-74" transform="translate(1556.691277 0) scale(0.996264)"/>
     <use xlink:href="#CMSS17-68" transform="translate(1590.522844 0) scale(0.996264)"/>
     <use xlink:href="#CMSS17-4c" transform="translate(1669.9569 0) scale(0.996264)"/>
     <use xlink:href="#CMSS17-61" transform="translate(1720.644005 0) scale(0.996264)"/>
     <use xlink:href="#CMSS17-62" transform="translate(1765.565926 0) scale(0.996264)"/>
     <use xlink:href="#CMSS17-65" transform="translate(1816.373308 0) scale(0.996264)"/>
     <use xlink:href="#CMSS17-6c" transform="translate(1858.01213 0) scale(0.996264)"/>
     <use xlink:href="#CMSS17-73" transform="translate(1880.192853 0) scale(0.996264)"/>
    </g>
   </g>
   <g id="legend_1">
    <g id="text_16">
     <!-- Wells -->
     <g style="fill: #262626" transform="translate(800.415787 35.603365) scale(0.16 -0.16)">
      <use xlink:href="#CMSS17-57" transform="scale(0.996264)"/>
      <use xlink:href="#CMSS17-65" transform="translate(85.639712 0) scale(0.996264)"/>
      <use xlink:href="#CMSS17-6c" transform="translate(127.278534 0) scale(0.996264)"/>
      <use xlink:href="#CMSS17-6c" transform="translate(149.459257 0) scale(0.996264)"/>
      <use xlink:href="#CMSS17-73" transform="translate(171.63998 0) scale(0.996264)"/>
     </g>
    </g>
    <g id="line2d_69">
     <path d="M 783.689634 43.659191 
L 789.520634 43.659191 
L 795.351634 43.659191 
" style="fill: none; stroke: #0c5da5; stroke-opacity: 0.8; stroke-width: 2; stroke-linecap: round"/>
    </g>
    <g id="text_17">
     <!-- R7P15_AI_s007_A09 -->
     <g style="fill: #262626" transform="translate(800.016434 45.700041) scale(0.05831 -0.05831)">
      <defs>
       <path id="CMSS17-52" d="M 2522 2099 
L 2534 2105 
C 3533 2450 3539 3125 3539 3244 
C 3539 3838 2925 4416 2003 4416 
L 570 4416 
L 570 0 
L 1094 0 
L 1094 2041 
L 2035 2041 
L 3168 0 
L 3706 0 
L 2522 2099 
z
M 1094 2432 
L 1094 4057 
L 1933 4057 
C 2746 4057 3034 3607 3034 3244 
C 3034 2907 2778 2432 1933 2432 
L 1094 2432 
z
" transform="scale(0.015625)"/>
       <path id="CMSS17-37" d="M 1389 3788 
C 1466 3788 1542 3795 1619 3795 
L 2355 3795 
C 1440 2715 915 1350 915 -64 
L 1427 -64 
C 1427 1305 1875 2695 2752 3807 
L 2752 4224 
L 250 4224 
L 250 3788 
L 1389 3788 
z
" transform="scale(0.015625)"/>
       <path id="CMSS17-50" d="M 2106 1856 
C 2874 1856 3501 2447 3501 3139 
C 3501 3818 2899 4416 2067 4416 
L 570 4416 
L 570 0 
L 1107 0 
L 1107 1856 
L 2106 1856 
z
M 1926 4057 
C 2669 4057 2995 3598 2995 3139 
C 2995 2711 2694 2227 1926 2227 
L 1094 2227 
L 1094 4057 
L 1926 4057 
z
" transform="scale(0.015625)"/>
       <path id="CMSS17-39" d="M 435 172 
C 614 19 845 -128 1235 -128 
C 2010 -128 2752 738 2752 2136 
C 2752 3987 1952 4288 1523 4288 
C 1094 4288 819 4095 582 3789 
C 301 3438 250 3125 250 2761 
C 250 2327 326 2059 506 1753 
C 749 1356 973 1273 1222 1273 
C 1600 1273 1978 1459 2234 1778 
C 2189 908 1798 268 1235 268 
C 1005 268 819 340 634 516 
L 435 172 
z
M 2214 2774 
C 2221 2729 2221 2646 2221 2621 
C 2221 2085 1914 1664 1466 1664 
C 1171 1664 1018 1817 902 2015 
C 762 2263 755 2506 755 2761 
C 755 3010 755 3284 934 3559 
C 1069 3757 1235 3897 1523 3897 
C 2112 3897 2208 3036 2214 2774 
z
" transform="scale(0.015625)"/>
      </defs>
      <use xlink:href="#CMSS17-52" transform="scale(0.996264)"/>
      <use xlink:href="#CMSS17-37" transform="translate(60.416155 0) scale(0.996264)"/>
      <use xlink:href="#CMSS17-50" transform="translate(107.259778 0) scale(0.996264)"/>
      <use xlink:href="#CMSS17-31" transform="translate(166.995365 0) scale(0.996264)"/>
      <use xlink:href="#CMSS17-35" transform="translate(213.838988 0) scale(0.996264)"/>
      <use xlink:href="#CMSS17-41" transform="translate(294.410107 0) scale(0.996264)"/>
      <use xlink:href="#CMSS17-49" transform="translate(356.627962 0) scale(0.996264)"/>
      <use xlink:href="#CMSS17-73" transform="translate(416.139383 0) scale(0.996264)"/>
      <use xlink:href="#CMSS17-30" transform="translate(452.052925 0) scale(0.996264)"/>
      <use xlink:href="#CMSS17-30" transform="translate(498.896548 0) scale(0.996264)"/>
      <use xlink:href="#CMSS17-37" transform="translate(545.740172 0) scale(0.996264)"/>
      <use xlink:href="#CMSS17-41" transform="translate(626.311291 0) scale(0.996264)"/>
      <use xlink:href="#CMSS17-30" transform="translate(688.529145 0) scale(0.996264)"/>
      <use xlink:href="#CMSS17-39" transform="translate(735.372769 0) scale(0.996264)"/>
      <path d="M 266.303623 0 
L 294.410107 0 
L 294.410107 0.3985 
L 266.303623 0.3985 
L 266.303623 0 
z
"/>
      <path d="M 388.032898 0 
L 416.139383 0 
L 416.139383 0.3985 
L 388.032898 0.3985 
L 388.032898 0 
z
"/>
      <path d="M 598.204806 0 
L 626.311291 0 
L 626.311291 0.3985 
L 598.204806 0.3985 
L 598.204806 0 
z
"/>
     </g>
    </g>
    <g id="line2d_70">
     <path d="M 783.689634 51.785959 
L 789.520634 51.785959 
L 795.351634 51.785959 
" style="fill: none; stroke: #00b945; stroke-opacity: 0.8; stroke-width: 2; stroke-linecap: round"/>
    </g>
    <g id="text_18">
     <!-- R7P15_AI_s020_B01 -->
     <g style="fill: #262626" transform="translate(800.016434 53.826809) scale(0.05831 -0.05831)">
      <defs>
       <path id="CMSS17-42" d="M 570 4416 
L 570 0 
L 2163 0 
C 3034 0 3667 575 3667 1200 
C 3667 1684 3251 2175 2502 2316 
C 3334 2559 3501 3039 3501 3311 
C 3501 3880 2874 4416 1997 4416 
L 570 4416 
z
M 1088 2496 
L 1088 4057 
L 1824 4057 
C 2483 4057 3002 3722 3002 3305 
C 3002 2925 2592 2496 1766 2496 
L 1088 2496 
z
M 1088 358 
L 1088 2105 
L 1939 2105 
C 2630 2105 3162 1678 3162 1206 
C 3162 772 2694 358 1984 358 
L 1088 358 
z
" transform="scale(0.015625)"/>
      </defs>
      <use xlink:href="#CMSS17-52" transform="scale(0.996264)"/>
      <use xlink:href="#CMSS17-37" transform="translate(60.416155 0) scale(0.996264)"/>
      <use xlink:href="#CMSS17-50" transform="translate(107.259778 0) scale(0.996264)"/>
      <use xlink:href="#CMSS17-31" transform="translate(166.995365 0) scale(0.996264)"/>
      <use xlink:href="#CMSS17-35" transform="translate(213.838988 0) scale(0.996264)"/>
      <use xlink:href="#CMSS17-41" transform="translate(294.410107 0) scale(0.996264)"/>
      <use xlink:href="#CMSS17-49" transform="translate(356.627962 0) scale(0.996264)"/>
      <use xlink:href="#CMSS17-73" transform="translate(416.139383 0) scale(0.996264)"/>
      <use xlink:href="#CMSS17-30" transform="translate(452.052925 0) scale(0.996264)"/>
      <use xlink:href="#CMSS17-32" transform="translate(498.896548 0) scale(0.996264)"/>
      <use xlink:href="#CMSS17-30" transform="translate(545.740172 0) scale(0.996264)"/>
      <use xlink:href="#CMSS17-42" transform="translate(626.311291 0) scale(0.996264)"/>
      <use xlink:href="#CMSS17-30" transform="translate(688.649331 0) scale(0.996264)"/>
      <use xlink:href="#CMSS17-31" transform="translate(735.492954 0) scale(0.996264)"/>
      <path d="M 266.303623 0 
L 294.410107 0 
L 294.410107 0.3985 
L 266.303623 0.3985 
L 266.303623 0 
z
"/>
      <path d="M 388.032898 0 
L 416.139383 0 
L 416.139383 0.3985 
L 388.032898 0.3985 
L 388.032898 0 
z
"/>
      <path d="M 598.204806 0 
L 626.311291 0 
L 626.311291 0.3985 
L 598.204806 0.3985 
L 598.204806 0 
z
"/>
     </g>
    </g>
    <g id="line2d_71">
     <path d="M 783.689634 59.912728 
L 789.520634 59.912728 
L 795.351634 59.912728 
" style="fill: none; stroke: #ff9500; stroke-opacity: 0.8; stroke-width: 2; stroke-linecap: round"/>
    </g>
    <g id="text_19">
     <!-- R7P15_AI_s027_C09 -->
     <g style="fill: #262626" transform="translate(800.016434 61.953578) scale(0.05831 -0.05831)">
      <defs>
       <path id="CMSS17-43" d="M 3501 705 
C 3072 416 2874 332 2355 332 
C 1459 332 934 1304 934 2191 
C 934 3137 1472 4070 2381 4070 
C 2790 4070 3059 3954 3386 3748 
L 3475 4255 
C 3168 4409 2778 4480 2387 4480 
C 1158 4480 397 3343 397 2191 
C 397 924 1299 -77 2323 -77 
C 2874 -77 3066 -32 3539 268 
L 3501 705 
z
" transform="scale(0.015625)"/>
      </defs>
      <use xlink:href="#CMSS17-52" transform="scale(0.996264)"/>
      <use xlink:href="#CMSS17-37" transform="translate(60.416155 0) scale(0.996264)"/>
      <use xlink:href="#CMSS17-50" transform="translate(107.259778 0) scale(0.996264)"/>
      <use xlink:href="#CMSS17-31" transform="translate(166.995365 0) scale(0.996264)"/>
      <use xlink:href="#CMSS17-35" transform="translate(213.838988 0) scale(0.996264)"/>
      <use xlink:href="#CMSS17-41" transform="translate(294.410107 0) scale(0.996264)"/>
      <use xlink:href="#CMSS17-49" transform="translate(356.627962 0) scale(0.996264)"/>
      <use xlink:href="#CMSS17-73" transform="translate(416.139383 0) scale(0.996264)"/>
      <use xlink:href="#CMSS17-30" transform="translate(452.052925 0) scale(0.996264)"/>
      <use xlink:href="#CMSS17-32" transform="translate(498.896548 0) scale(0.996264)"/>
      <use xlink:href="#CMSS17-37" transform="translate(545.740172 0) scale(0.996264)"/>
      <use xlink:href="#CMSS17-43" transform="translate(626.311291 0) scale(0.996264)"/>
      <use xlink:href="#CMSS17-30" transform="translate(686.167062 0) scale(0.996264)"/>
      <use xlink:href="#CMSS17-39" transform="translate(733.010686 0) scale(0.996264)"/>
      <path d="M 266.303623 0 
L 294.410107 0 
L 294.410107 0.3985 
L 266.303623 0.3985 
L 266.303623 0 
z
"/>
      <path d="M 388.032898 0 
L 416.139383 0 
L 416.139383 0.3985 
L 388.032898 0.3985 
L 388.032898 0 
z
"/>
      <path d="M 598.204806 0 
L 626.311291 0 
L 626.311291 0.3985 
L 598.204806 0.3985 
L 598.204806 0 
z
"/>
     </g>
    </g>
    <g id="line2d_72">
     <path d="M 783.689634 68.039496 
L 789.520634 68.039496 
L 795.351634 68.039496 
" style="fill: none; stroke: #ff2c00; stroke-opacity: 0.8; stroke-width: 2; stroke-linecap: round"/>
    </g>
    <g id="text_20">
     <!-- R7P15_AI_s042_E03 -->
     <g style="fill: #262626" transform="translate(800.016434 70.080346) scale(0.05831 -0.05831)">
      <defs>
       <path id="CMSS17-45" d="M 1958 435 
C 1446 435 1216 435 1101 428 
L 1101 2105 
L 3085 2105 
L 3085 2496 
L 1101 2496 
L 1101 3993 
L 1926 3993 
C 2003 3993 2080 3987 2157 3987 
L 3251 3987 
L 3251 4403 
L 563 4403 
L 563 0 
L 3334 0 
L 3334 441 
L 1958 435 
z
" transform="scale(0.015625)"/>
      </defs>
      <use xlink:href="#CMSS17-52" transform="scale(0.996264)"/>
      <use xlink:href="#CMSS17-37" transform="translate(60.416155 0) scale(0.996264)"/>
      <use xlink:href="#CMSS17-50" transform="translate(107.259778 0) scale(0.996264)"/>
      <use xlink:href="#CMSS17-31" transform="translate(166.995365 0) scale(0.996264)"/>
      <use xlink:href="#CMSS17-35" transform="translate(213.838988 0) scale(0.996264)"/>
      <use xlink:href="#CMSS17-41" transform="translate(294.410107 0) scale(0.996264)"/>
      <use xlink:href="#CMSS17-49" transform="translate(356.627962 0) scale(0.996264)"/>
      <use xlink:href="#CMSS17-73" transform="translate(416.139383 0) scale(0.996264)"/>
      <use xlink:href="#CMSS17-30" transform="translate(452.052925 0) scale(0.996264)"/>
      <use xlink:href="#CMSS17-34" transform="translate(498.896548 0) scale(0.996264)"/>
      <use xlink:href="#CMSS17-32" transform="translate(545.740172 0) scale(0.996264)"/>
      <use xlink:href="#CMSS17-45" transform="translate(626.311291 0) scale(0.996264)"/>
      <use xlink:href="#CMSS17-30" transform="translate(682.203304 0) scale(0.996264)"/>
      <use xlink:href="#CMSS17-33" transform="translate(729.046927 0) scale(0.996264)"/>
      <path d="M 266.303623 0 
L 294.410107 0 
L 294.410107 0.3985 
L 266.303623 0.3985 
L 266.303623 0 
z
"/>
      <path d="M 388.032898 0 
L 416.139383 0 
L 416.139383 0.3985 
L 388.032898 0.3985 
L 388.032898 0 
z
"/>
      <path d="M 598.204806 0 
L 626.311291 0 
L 626.311291 0.3985 
L 598.204806 0.3985 
L 598.204806 0 
z
"/>
     </g>
    </g>
    <g id="line2d_73">
     <path d="M 783.689634 76.166265 
L 789.520634 76.166265 
L 795.351634 76.166265 
" style="fill: none; stroke: #845b97; stroke-opacity: 0.8; stroke-width: 2; stroke-linecap: round"/>
    </g>
    <g id="text_21">
     <!-- R7P15_AI_s062_G02 -->
     <g style="fill: #262626" transform="translate(800.016434 78.207115) scale(0.05831 -0.05831)">
      <defs>
       <path id="CMSS17-36" d="M 2496 4159 
C 2227 4268 2035 4288 1856 4288 
C 1024 4288 250 3408 250 2023 
C 250 268 986 -128 1510 -128 
C 1798 -128 2086 -39 2362 281 
C 2643 619 2752 900 2752 1392 
C 2752 2183 2362 2886 1779 2886 
C 1357 2886 992 2662 768 2381 
C 832 3290 1254 3897 1862 3897 
C 2029 3897 2246 3871 2496 3760 
L 2496 4159 
z
M 774 1372 
C 774 1423 774 1455 781 1551 
C 781 2049 1069 2496 1536 2496 
C 1837 2496 1990 2336 2106 2138 
C 2240 1889 2246 1653 2246 1392 
C 2246 1143 2246 894 2099 638 
C 1978 441 1818 268 1510 268 
C 902 268 800 1117 774 1372 
z
" transform="scale(0.015625)"/>
       <path id="CMSS17-47" d="M 3610 1868 
L 2336 1868 
L 2336 1472 
L 3123 1472 
L 3123 473 
C 2874 403 2618 352 2362 352 
C 1466 352 934 1311 934 2220 
C 934 3123 1491 4070 2362 4070 
C 2854 4070 3130 3916 3469 3660 
L 3552 4172 
C 3130 4390 2867 4480 2387 4480 
C 1146 4480 397 3353 397 2201 
C 397 1100 1152 -64 2349 -64 
C 2797 -64 3213 51 3610 249 
L 3610 1868 
z
" transform="scale(0.015625)"/>
      </defs>
      <use xlink:href="#CMSS17-52" transform="scale(0.996264)"/>
      <use xlink:href="#CMSS17-37" transform="translate(60.416155 0) scale(0.996264)"/>
      <use xlink:href="#CMSS17-50" transform="translate(107.259778 0) scale(0.996264)"/>
      <use xlink:href="#CMSS17-31" transform="translate(166.995365 0) scale(0.996264)"/>
      <use xlink:href="#CMSS17-35" transform="translate(213.838988 0) scale(0.996264)"/>
      <use xlink:href="#CMSS17-41" transform="translate(294.410107 0) scale(0.996264)"/>
      <use xlink:href="#CMSS17-49" transform="translate(356.627962 0) scale(0.996264)"/>
      <use xlink:href="#CMSS17-73" transform="translate(416.139383 0) scale(0.996264)"/>
      <use xlink:href="#CMSS17-30" transform="translate(452.052925 0) scale(0.996264)"/>
      <use xlink:href="#CMSS17-36" transform="translate(498.896548 0) scale(0.996264)"/>
      <use xlink:href="#CMSS17-32" transform="translate(545.740172 0) scale(0.996264)"/>
      <use xlink:href="#CMSS17-47" transform="translate(626.311291 0) scale(0.996264)"/>
      <use xlink:href="#CMSS17-30" transform="translate(688.769516 0) scale(0.996264)"/>
      <use xlink:href="#CMSS17-32" transform="translate(735.61314 0) scale(0.996264)"/>
      <path d="M 266.303623 0 
L 294.410107 0 
L 294.410107 0.3985 
L 266.303623 0.3985 
L 266.303623 0 
z
"/>
      <path d="M 388.032898 0 
L 416.139383 0 
L 416.139383 0.3985 
L 388.032898 0.3985 
L 388.032898 0 
z
"/>
      <path d="M 598.204806 0 
L 626.311291 0 
L 626.311291 0.3985 
L 598.204806 0.3985 
L 598.204806 0 
z
"/>
     </g>
    </g>
   </g>
  </g>
 </g>
 <defs>
  <clipPath id="pb8af01d1cf">
   <rect x="44.448487" y="19.285876" width="699.041188" height="509.398314"/>
  </clipPath>
 </defs>
</svg>
