<?xml version="1.0" encoding="utf-8" standalone="no"?>
<!DOCTYPE svg PUBLIC "-//W3C//DTD SVG 1.1//EN"
  "http://www.w3.org/Graphics/SVG/1.1/DTD/svg11.dtd">
<svg xmlns:xlink="http://www.w3.org/1999/xlink" width="854.955168pt" height="568.08pt" viewBox="0 0 854.955168 568.08" xmlns="http://www.w3.org/2000/svg" version="1.1">
 <metadata>
  <rdf:RDF xmlns:dc="http://purl.org/dc/elements/1.1/" xmlns:cc="http://creativecommons.org/ns#" xmlns:rdf="http://www.w3.org/1999/02/22-rdf-syntax-ns#">
   <cc:Work>
    <dc:type rdf:resource="http://purl.org/dc/dcmitype/StillImage"/>
    <dc:date>2025-08-13T23:40:37.641802</dc:date>
    <dc:format>image/svg+xml</dc:format>
    <dc:creator>
     <cc:Agent>
      <dc:title>Matplotlib v3.10.0, https://matplotlib.org/</dc:title>
     </cc:Agent>
    </dc:creator>
   </cc:Work>
  </rdf:RDF>
 </metadata>
 <defs>
  <style type="text/css">*{stroke-linejoin: round; stroke-linecap: butt}</style>
 </defs>
 <g id="figure_1">
  <g id="patch_1">
   <path d="M -0 568.08 
L 854.955168 568.08 
L 854.955168 0 
L -0 0 
z
" style="fill: #ffffff"/>
  </g>
  <g id="axes_1">
   <g id="patch_2">
    <path d="M 44.448487 528.68419 
L 691.551852 528.68419 
L 691.551852 19.285876 
L 44.448487 19.285876 
z
" style="fill: #ffffff"/>
   </g>
   <g id="matplotlib.axis_1">
    <g id="xtick_1">
     <g id="line2d_1">
      <defs>
       <path id="m190180e52d" d="M 0 0 
L 0 3.5 
" style="stroke: #262626; stroke-width: 1.5"/>
      </defs>
      <g>
       <use xlink:href="#m190180e52d" x="73.862276" y="528.68419" style="fill: #262626; stroke: #262626; stroke-width: 1.5"/>
      </g>
     </g>
     <g id="text_1">
      <!-- $\mathdefault{0}$ -->
      <g style="fill: #262626" transform="translate(70.448032 545.370067) scale(0.14 -0.14)">
       <defs>
        <path id="CMSS17-30" d="M 2758 2073 
C 2758 2439 2752 3120 2490 3647 
C 2227 4153 1805 4288 1504 4288 
C 1069 4288 698 4031 506 3621 
C 301 3191 243 2748 243 2073 
C 243 1611 262 1046 493 551 
C 755 6 1197 -128 1498 -128 
C 1894 -128 2278 83 2496 525 
C 2720 988 2758 1495 2758 2073 
z
M 1498 262 
C 1011 262 864 821 819 1007 
C 742 1328 730 1636 730 2144 
C 730 2542 730 2992 851 3345 
C 998 3756 1254 3897 1498 3897 
C 1971 3897 2125 3422 2176 3255 
C 2272 2915 2272 2516 2272 2144 
C 2272 1546 2272 262 1498 262 
z
" transform="scale(0.015625)"/>
       </defs>
       <use xlink:href="#CMSS17-30" transform="scale(0.996264)"/>
      </g>
     </g>
    </g>
    <g id="xtick_2">
     <g id="line2d_2">
      <g>
       <use xlink:href="#m190180e52d" x="200.373198" y="528.68419" style="fill: #262626; stroke: #262626; stroke-width: 1.5"/>
      </g>
     </g>
     <g id="text_2">
      <!-- $\mathdefault{10}$ -->
      <g style="fill: #262626" transform="translate(193.544709 545.370067) scale(0.14 -0.14)">
       <defs>
        <path id="CMSS17-31" d="M 1818 4288 
L 1696 4288 
C 1350 3949 947 3902 538 3891 
L 538 3520 
C 723 3526 1024 3539 1325 3673 
L 1325 371 
L 570 371 
L 570 0 
L 2573 0 
L 2573 371 
L 1818 371 
L 1818 4288 
z
" transform="scale(0.015625)"/>
       </defs>
       <use xlink:href="#CMSS17-31" transform="scale(0.996264)"/>
       <use xlink:href="#CMSS17-30" transform="translate(46.843624 0) scale(0.996264)"/>
      </g>
     </g>
    </g>
    <g id="xtick_3">
     <g id="line2d_3">
      <g>
       <use xlink:href="#m190180e52d" x="326.88412" y="528.68419" style="fill: #262626; stroke: #262626; stroke-width: 1.5"/>
      </g>
     </g>
     <g id="text_3">
      <!-- $\mathdefault{20}$ -->
      <g style="fill: #262626" transform="translate(320.055631 545.370067) scale(0.14 -0.14)">
       <defs>
        <path id="CMSS17-32" d="M 1651 1353 
C 1830 1538 2099 1761 2285 1984 
C 2464 2201 2701 2507 2701 2953 
C 2701 3655 2227 4288 1421 4288 
C 787 4288 422 3891 250 3272 
L 499 2928 
C 640 3508 838 3878 1338 3878 
C 1888 3878 2195 3431 2195 2940 
C 2195 2354 1747 1901 1408 1563 
C 1030 1187 659 805 301 409 
L 301 0 
L 2701 0 
L 2701 435 
L 1613 435 
C 1536 435 1459 428 1382 428 
L 742 428 
L 742 435 
L 1651 1353 
z
" transform="scale(0.015625)"/>
       </defs>
       <use xlink:href="#CMSS17-32" transform="scale(0.996264)"/>
       <use xlink:href="#CMSS17-30" transform="translate(46.843624 0) scale(0.996264)"/>
      </g>
     </g>
    </g>
    <g id="xtick_4">
     <g id="line2d_4">
      <g>
       <use xlink:href="#m190180e52d" x="453.395042" y="528.68419" style="fill: #262626; stroke: #262626; stroke-width: 1.5"/>
      </g>
     </g>
     <g id="text_4">
      <!-- $\mathdefault{30}$ -->
      <g style="fill: #262626" transform="translate(446.566553 545.370067) scale(0.14 -0.14)">
       <defs>
        <path id="CMSS17-33" d="M 1005 2060 
L 1440 2060 
C 2042 2060 2214 1532 2214 1164 
C 2214 662 1933 268 1472 268 
C 1114 268 608 449 320 926 
C 275 700 275 687 250 533 
C 550 89 1037 -128 1485 -128 
C 2214 -128 2752 481 2752 1158 
C 2752 1667 2400 2092 1920 2252 
C 2304 2463 2586 2860 2586 3321 
C 2586 3859 2093 4288 1491 4288 
C 941 4288 512 3948 333 3583 
C 378 3519 493 3334 550 3238 
C 691 3615 1056 3897 1485 3897 
C 1843 3897 2080 3660 2080 3321 
C 2080 2969 1856 2585 1478 2496 
C 1453 2496 1056 2457 1005 2451 
L 1005 2060 
z
" transform="scale(0.015625)"/>
       </defs>
       <use xlink:href="#CMSS17-33" transform="scale(0.996264)"/>
       <use xlink:href="#CMSS17-30" transform="translate(46.843624 0) scale(0.996264)"/>
      </g>
     </g>
    </g>
    <g id="xtick_5">
     <g id="line2d_5">
      <g>
       <use xlink:href="#m190180e52d" x="579.905964" y="528.68419" style="fill: #262626; stroke: #262626; stroke-width: 1.5"/>
      </g>
     </g>
     <g id="text_5">
      <!-- $\mathdefault{40}$ -->
      <g style="fill: #262626" transform="translate(573.077475 545.370067) scale(0.14 -0.14)">
       <defs>
        <path id="CMSS17-34" d="M 2253 1088 
L 2835 1088 
L 2835 1478 
L 2253 1478 
L 2253 4224 
L 1690 4224 
L 166 1478 
L 166 1088 
L 1747 1088 
L 1747 0 
L 2253 0 
L 2253 1088 
z
M 659 1478 
C 1030 2139 1766 3474 1766 3927 
L 1766 1478 
L 659 1478 
z
" transform="scale(0.015625)"/>
       </defs>
       <use xlink:href="#CMSS17-34" transform="scale(0.996264)"/>
       <use xlink:href="#CMSS17-30" transform="translate(46.843624 0) scale(0.996264)"/>
      </g>
     </g>
    </g>
    <g id="xtick_6">
     <g id="line2d_6">
      <defs>
       <path id="m7e1d8969f1" d="M 0 0 
L 0 2.5 
" style="stroke: #262626; stroke-width: 1.5"/>
      </defs>
      <g>
       <use xlink:href="#m7e1d8969f1" x="48.560092" y="528.68419" style="fill: #262626; stroke: #262626; stroke-width: 1.5"/>
      </g>
     </g>
    </g>
    <g id="xtick_7">
     <g id="line2d_7">
      <g>
       <use xlink:href="#m7e1d8969f1" x="99.164461" y="528.68419" style="fill: #262626; stroke: #262626; stroke-width: 1.5"/>
      </g>
     </g>
    </g>
    <g id="xtick_8">
     <g id="line2d_8">
      <g>
       <use xlink:href="#m7e1d8969f1" x="124.466645" y="528.68419" style="fill: #262626; stroke: #262626; stroke-width: 1.5"/>
      </g>
     </g>
    </g>
    <g id="xtick_9">
     <g id="line2d_9">
      <g>
       <use xlink:href="#m7e1d8969f1" x="149.768829" y="528.68419" style="fill: #262626; stroke: #262626; stroke-width: 1.5"/>
      </g>
     </g>
    </g>
    <g id="xtick_10">
     <g id="line2d_10">
      <g>
       <use xlink:href="#m7e1d8969f1" x="175.071014" y="528.68419" style="fill: #262626; stroke: #262626; stroke-width: 1.5"/>
      </g>
     </g>
    </g>
    <g id="xtick_11">
     <g id="line2d_11">
      <g>
       <use xlink:href="#m7e1d8969f1" x="225.675383" y="528.68419" style="fill: #262626; stroke: #262626; stroke-width: 1.5"/>
      </g>
     </g>
    </g>
    <g id="xtick_12">
     <g id="line2d_12">
      <g>
       <use xlink:href="#m7e1d8969f1" x="250.977567" y="528.68419" style="fill: #262626; stroke: #262626; stroke-width: 1.5"/>
      </g>
     </g>
    </g>
    <g id="xtick_13">
     <g id="line2d_13">
      <g>
       <use xlink:href="#m7e1d8969f1" x="276.279751" y="528.68419" style="fill: #262626; stroke: #262626; stroke-width: 1.5"/>
      </g>
     </g>
    </g>
    <g id="xtick_14">
     <g id="line2d_14">
      <g>
       <use xlink:href="#m7e1d8969f1" x="301.581936" y="528.68419" style="fill: #262626; stroke: #262626; stroke-width: 1.5"/>
      </g>
     </g>
    </g>
    <g id="xtick_15">
     <g id="line2d_15">
      <g>
       <use xlink:href="#m7e1d8969f1" x="352.186304" y="528.68419" style="fill: #262626; stroke: #262626; stroke-width: 1.5"/>
      </g>
     </g>
    </g>
    <g id="xtick_16">
     <g id="line2d_16">
      <g>
       <use xlink:href="#m7e1d8969f1" x="377.488489" y="528.68419" style="fill: #262626; stroke: #262626; stroke-width: 1.5"/>
      </g>
     </g>
    </g>
    <g id="xtick_17">
     <g id="line2d_17">
      <g>
       <use xlink:href="#m7e1d8969f1" x="402.790673" y="528.68419" style="fill: #262626; stroke: #262626; stroke-width: 1.5"/>
      </g>
     </g>
    </g>
    <g id="xtick_18">
     <g id="line2d_18">
      <g>
       <use xlink:href="#m7e1d8969f1" x="428.092858" y="528.68419" style="fill: #262626; stroke: #262626; stroke-width: 1.5"/>
      </g>
     </g>
    </g>
    <g id="xtick_19">
     <g id="line2d_19">
      <g>
       <use xlink:href="#m7e1d8969f1" x="478.697226" y="528.68419" style="fill: #262626; stroke: #262626; stroke-width: 1.5"/>
      </g>
     </g>
    </g>
    <g id="xtick_20">
     <g id="line2d_20">
      <g>
       <use xlink:href="#m7e1d8969f1" x="503.999411" y="528.68419" style="fill: #262626; stroke: #262626; stroke-width: 1.5"/>
      </g>
     </g>
    </g>
    <g id="xtick_21">
     <g id="line2d_21">
      <g>
       <use xlink:href="#m7e1d8969f1" x="529.301595" y="528.68419" style="fill: #262626; stroke: #262626; stroke-width: 1.5"/>
      </g>
     </g>
    </g>
    <g id="xtick_22">
     <g id="line2d_22">
      <g>
       <use xlink:href="#m7e1d8969f1" x="554.603779" y="528.68419" style="fill: #262626; stroke: #262626; stroke-width: 1.5"/>
      </g>
     </g>
    </g>
    <g id="xtick_23">
     <g id="line2d_23">
      <g>
       <use xlink:href="#m7e1d8969f1" x="605.208148" y="528.68419" style="fill: #262626; stroke: #262626; stroke-width: 1.5"/>
      </g>
     </g>
    </g>
    <g id="xtick_24">
     <g id="line2d_24">
      <g>
       <use xlink:href="#m7e1d8969f1" x="630.510333" y="528.68419" style="fill: #262626; stroke: #262626; stroke-width: 1.5"/>
      </g>
     </g>
    </g>
    <g id="xtick_25">
     <g id="line2d_25">
      <g>
       <use xlink:href="#m7e1d8969f1" x="655.812517" y="528.68419" style="fill: #262626; stroke: #262626; stroke-width: 1.5"/>
      </g>
     </g>
    </g>
    <g id="xtick_26">
     <g id="line2d_26">
      <g>
       <use xlink:href="#m7e1d8969f1" x="681.114701" y="528.68419" style="fill: #262626; stroke: #262626; stroke-width: 1.5"/>
      </g>
     </g>
    </g>
    <g id="text_6">
     <!-- Time -->
     <g style="fill: #262626" transform="translate(353.301992 561.767972) scale(0.14 -0.14)">
      <defs>
       <path id="CMSS17-54" d="M 2317 3987 
L 2848 3987 
C 2925 3987 3002 3980 3078 3980 
L 3878 3980 
L 3878 4396 
L 218 4396 
L 218 3980 
L 1018 3980 
C 1094 3980 1171 3987 1248 3987 
L 1779 3987 
L 1779 0 
L 2317 0 
L 2317 3987 
z
" transform="scale(0.015625)"/>
       <path id="CMSS17-69" d="M 979 4224 
L 442 4224 
L 442 3686 
L 979 3686 
L 979 4224 
z
M 947 2752 
L 474 2752 
L 474 0 
L 947 0 
L 947 2752 
z
" transform="scale(0.015625)"/>
       <path id="CMSS17-6d" d="M 4288 1878 
C 4288 2309 4179 2816 3462 2816 
C 2982 2816 2694 2515 2566 2328 
C 2451 2668 2182 2816 1798 2816 
C 1363 2816 1088 2566 941 2386 
L 941 2783 
L 474 2783 
L 474 0 
L 960 0 
L 960 1556 
C 960 1936 1101 2425 1555 2425 
C 2138 2425 2138 2013 2138 1826 
L 2138 0 
L 2624 0 
L 2624 1556 
C 2624 1936 2765 2425 3219 2425 
C 3802 2425 3802 2013 3802 1826 
L 3802 0 
L 4288 0 
L 4288 1878 
z
" transform="scale(0.015625)"/>
       <path id="CMSS17-65" d="M 2502 1375 
C 2502 1587 2490 2001 2285 2347 
C 2061 2713 1696 2816 1421 2816 
C 755 2816 192 2184 192 1363 
C 192 579 774 -64 1510 -64 
C 1798 -64 2150 19 2470 249 
C 2470 275 2458 414 2451 421 
C 2451 433 2432 629 2432 655 
C 2125 408 1773 326 1517 326 
C 1107 326 666 667 646 1375 
L 2502 1375 
z
M 698 1728 
C 781 2086 1062 2425 1421 2425 
C 1517 2425 1965 2412 2080 1728 
L 698 1728 
z
" transform="scale(0.015625)"/>
      </defs>
      <use xlink:href="#CMSS17-54" transform="scale(0.996264)"/>
      <use xlink:href="#CMSS17-69" transform="translate(63.819454 0) scale(0.996264)"/>
      <use xlink:href="#CMSS17-6d" transform="translate(86.000177 0) scale(0.996264)"/>
      <use xlink:href="#CMSS17-65" transform="translate(160.229431 0) scale(0.996264)"/>
     </g>
    </g>
   </g>
   <g id="matplotlib.axis_2">
    <g id="ytick_1">
     <g id="line2d_27">
      <defs>
       <path id="m2c84924396" d="M 0 0 
L -3.5 0 
" style="stroke: #262626; stroke-width: 1.5"/>
      </defs>
      <g>
       <use xlink:href="#m2c84924396" x="44.448487" y="505.529722" style="fill: #262626; stroke: #262626; stroke-width: 1.5"/>
      </g>
     </g>
     <g id="text_7">
      <!-- $\mathdefault{0.0}$ -->
      <g style="fill: #262626" transform="translate(19.997905 510.37266) scale(0.14 -0.14)">
       <defs>
        <path id="CMSS17-2e" d="M 1088 512 
L 576 512 
L 576 0 
L 1088 0 
L 1088 512 
z
" transform="scale(0.015625)"/>
       </defs>
       <use xlink:href="#CMSS17-30" transform="scale(0.996264)"/>
       <use xlink:href="#CMSS17-2e" transform="translate(46.843624 0) scale(0.996264)"/>
       <use xlink:href="#CMSS17-30" transform="translate(72.867828 0) scale(0.996264)"/>
      </g>
     </g>
    </g>
    <g id="ytick_2">
     <g id="line2d_28">
      <g>
       <use xlink:href="#m2c84924396" x="44.448487" y="403.338326" style="fill: #262626; stroke: #262626; stroke-width: 1.5"/>
      </g>
     </g>
     <g id="text_8">
      <!-- $\mathdefault{0.5}$ -->
      <g style="fill: #262626" transform="translate(19.997905 408.181264) scale(0.14 -0.14)">
       <defs>
        <path id="CMSS17-35" d="M 934 3814 
L 2502 3814 
L 2502 4224 
L 467 4224 
L 467 1830 
L 896 1830 
C 1011 2103 1248 2304 1555 2304 
C 1843 2304 2163 2044 2163 1299 
C 2163 502 1709 268 1376 268 
C 966 268 589 521 422 871 
L 218 508 
C 512 51 992 -128 1376 -128 
C 2118 -128 2701 508 2701 1286 
C 2701 2083 2182 2694 1562 2694 
C 1338 2694 1120 2617 934 2464 
L 934 3814 
z
" transform="scale(0.015625)"/>
       </defs>
       <use xlink:href="#CMSS17-30" transform="scale(0.996264)"/>
       <use xlink:href="#CMSS17-2e" transform="translate(46.843624 0) scale(0.996264)"/>
       <use xlink:href="#CMSS17-35" transform="translate(72.867828 0) scale(0.996264)"/>
      </g>
     </g>
    </g>
    <g id="ytick_3">
     <g id="line2d_29">
      <g>
       <use xlink:href="#m2c84924396" x="44.448487" y="301.14693" style="fill: #262626; stroke: #262626; stroke-width: 1.5"/>
      </g>
     </g>
     <g id="text_9">
      <!-- $\mathdefault{1.0}$ -->
      <g style="fill: #262626" transform="translate(19.997905 305.989868) scale(0.14 -0.14)">
       <use xlink:href="#CMSS17-31" transform="scale(0.996264)"/>
       <use xlink:href="#CMSS17-2e" transform="translate(46.843624 0) scale(0.996264)"/>
       <use xlink:href="#CMSS17-30" transform="translate(72.867828 0) scale(0.996264)"/>
      </g>
     </g>
    </g>
    <g id="ytick_4">
     <g id="line2d_30">
      <g>
       <use xlink:href="#m2c84924396" x="44.448487" y="198.955534" style="fill: #262626; stroke: #262626; stroke-width: 1.5"/>
      </g>
     </g>
     <g id="text_10">
      <!-- $\mathdefault{1.5}$ -->
      <g style="fill: #262626" transform="translate(19.997905 203.798473) scale(0.14 -0.14)">
       <use xlink:href="#CMSS17-31" transform="scale(0.996264)"/>
       <use xlink:href="#CMSS17-2e" transform="translate(46.843624 0) scale(0.996264)"/>
       <use xlink:href="#CMSS17-35" transform="translate(72.867828 0) scale(0.996264)"/>
      </g>
     </g>
    </g>
    <g id="ytick_5">
     <g id="line2d_31">
      <g>
       <use xlink:href="#m2c84924396" x="44.448487" y="96.764139" style="fill: #262626; stroke: #262626; stroke-width: 1.5"/>
      </g>
     </g>
     <g id="text_11">
      <!-- $\mathdefault{2.0}$ -->
      <g style="fill: #262626" transform="translate(19.997905 101.607077) scale(0.14 -0.14)">
       <use xlink:href="#CMSS17-32" transform="scale(0.996264)"/>
       <use xlink:href="#CMSS17-2e" transform="translate(46.843624 0) scale(0.996264)"/>
       <use xlink:href="#CMSS17-30" transform="translate(72.867828 0) scale(0.996264)"/>
      </g>
     </g>
    </g>
    <g id="ytick_6">
     <g id="line2d_32">
      <defs>
       <path id="me97a5649c1" d="M 0 0 
L -2.5 0 
" style="stroke: #262626; stroke-width: 1.5"/>
      </defs>
      <g>
       <use xlink:href="#me97a5649c1" x="44.448487" y="525.968001" style="fill: #262626; stroke: #262626; stroke-width: 1.5"/>
      </g>
     </g>
    </g>
    <g id="ytick_7">
     <g id="line2d_33">
      <g>
       <use xlink:href="#me97a5649c1" x="44.448487" y="485.091442" style="fill: #262626; stroke: #262626; stroke-width: 1.5"/>
      </g>
     </g>
    </g>
    <g id="ytick_8">
     <g id="line2d_34">
      <g>
       <use xlink:href="#me97a5649c1" x="44.448487" y="464.653163" style="fill: #262626; stroke: #262626; stroke-width: 1.5"/>
      </g>
     </g>
    </g>
    <g id="ytick_9">
     <g id="line2d_35">
      <g>
       <use xlink:href="#me97a5649c1" x="44.448487" y="444.214884" style="fill: #262626; stroke: #262626; stroke-width: 1.5"/>
      </g>
     </g>
    </g>
    <g id="ytick_10">
     <g id="line2d_36">
      <g>
       <use xlink:href="#me97a5649c1" x="44.448487" y="423.776605" style="fill: #262626; stroke: #262626; stroke-width: 1.5"/>
      </g>
     </g>
    </g>
    <g id="ytick_11">
     <g id="line2d_37">
      <g>
       <use xlink:href="#me97a5649c1" x="44.448487" y="382.900047" style="fill: #262626; stroke: #262626; stroke-width: 1.5"/>
      </g>
     </g>
    </g>
    <g id="ytick_12">
     <g id="line2d_38">
      <g>
       <use xlink:href="#me97a5649c1" x="44.448487" y="362.461768" style="fill: #262626; stroke: #262626; stroke-width: 1.5"/>
      </g>
     </g>
    </g>
    <g id="ytick_13">
     <g id="line2d_39">
      <g>
       <use xlink:href="#me97a5649c1" x="44.448487" y="342.023488" style="fill: #262626; stroke: #262626; stroke-width: 1.5"/>
      </g>
     </g>
    </g>
    <g id="ytick_14">
     <g id="line2d_40">
      <g>
       <use xlink:href="#me97a5649c1" x="44.448487" y="321.585209" style="fill: #262626; stroke: #262626; stroke-width: 1.5"/>
      </g>
     </g>
    </g>
    <g id="ytick_15">
     <g id="line2d_41">
      <g>
       <use xlink:href="#me97a5649c1" x="44.448487" y="280.708651" style="fill: #262626; stroke: #262626; stroke-width: 1.5"/>
      </g>
     </g>
    </g>
    <g id="ytick_16">
     <g id="line2d_42">
      <g>
       <use xlink:href="#me97a5649c1" x="44.448487" y="260.270372" style="fill: #262626; stroke: #262626; stroke-width: 1.5"/>
      </g>
     </g>
    </g>
    <g id="ytick_17">
     <g id="line2d_43">
      <g>
       <use xlink:href="#me97a5649c1" x="44.448487" y="239.832093" style="fill: #262626; stroke: #262626; stroke-width: 1.5"/>
      </g>
     </g>
    </g>
    <g id="ytick_18">
     <g id="line2d_44">
      <g>
       <use xlink:href="#me97a5649c1" x="44.448487" y="219.393814" style="fill: #262626; stroke: #262626; stroke-width: 1.5"/>
      </g>
     </g>
    </g>
    <g id="ytick_19">
     <g id="line2d_45">
      <g>
       <use xlink:href="#me97a5649c1" x="44.448487" y="178.517255" style="fill: #262626; stroke: #262626; stroke-width: 1.5"/>
      </g>
     </g>
    </g>
    <g id="ytick_20">
     <g id="line2d_46">
      <g>
       <use xlink:href="#me97a5649c1" x="44.448487" y="158.078976" style="fill: #262626; stroke: #262626; stroke-width: 1.5"/>
      </g>
     </g>
    </g>
    <g id="ytick_21">
     <g id="line2d_47">
      <g>
       <use xlink:href="#me97a5649c1" x="44.448487" y="137.640697" style="fill: #262626; stroke: #262626; stroke-width: 1.5"/>
      </g>
     </g>
    </g>
    <g id="ytick_22">
     <g id="line2d_48">
      <g>
       <use xlink:href="#me97a5649c1" x="44.448487" y="117.202418" style="fill: #262626; stroke: #262626; stroke-width: 1.5"/>
      </g>
     </g>
    </g>
    <g id="ytick_23">
     <g id="line2d_49">
      <g>
       <use xlink:href="#me97a5649c1" x="44.448487" y="76.32586" style="fill: #262626; stroke: #262626; stroke-width: 1.5"/>
      </g>
     </g>
    </g>
    <g id="ytick_24">
     <g id="line2d_50">
      <g>
       <use xlink:href="#me97a5649c1" x="44.448487" y="55.88758" style="fill: #262626; stroke: #262626; stroke-width: 1.5"/>
      </g>
     </g>
    </g>
    <g id="ytick_25">
     <g id="line2d_51">
      <g>
       <use xlink:href="#me97a5649c1" x="44.448487" y="35.449301" style="fill: #262626; stroke: #262626; stroke-width: 1.5"/>
      </g>
     </g>
    </g>
    <g id="text_12">
     <!-- Normalized Wound Area -->
     <g style="fill: #262626" transform="translate(13.285876 343.528969) rotate(-90) scale(0.14 -0.14)">
      <defs>
       <path id="CMSS17-4e" d="M 1466 4179 
L 1350 4416 
L 563 4416 
L 563 0 
L 1062 0 
L 1062 3925 
L 1069 3931 
C 1114 3817 1139 3759 1402 3193 
L 2771 236 
L 2886 0 
L 3674 0 
L 3674 4416 
L 3174 4416 
L 3174 490 
L 3168 484 
C 3123 598 3098 655 2835 1222 
L 1466 4179 
z
" transform="scale(0.015625)"/>
       <path id="CMSS17-6f" d="M 2829 1356 
C 2829 2175 2221 2816 1504 2816 
C 768 2816 173 2156 173 1356 
C 173 544 787 -64 1498 -64 
C 2227 -64 2829 563 2829 1356 
z
M 1504 339 
C 1050 339 659 710 659 1407 
C 659 2150 1114 2425 1498 2425 
C 1914 2425 2342 2124 2342 1407 
C 2342 684 1926 339 1504 339 
z
" transform="scale(0.015625)"/>
       <path id="CMSS17-72" d="M 954 1369 
C 954 1974 1395 2379 1958 2392 
L 1958 2816 
C 1549 2809 1165 2604 934 2270 
L 934 2783 
L 480 2783 
L 480 0 
L 954 0 
L 954 1369 
z
" transform="scale(0.015625)"/>
       <path id="CMSS17-61" d="M 2406 1789 
C 2406 2399 1978 2816 1402 2816 
C 1120 2816 813 2764 461 2559 
L 499 2133 
C 659 2250 934 2438 1395 2438 
C 1722 2438 1920 2185 1920 1782 
L 1920 1536 
C 896 1504 256 1209 256 711 
C 256 452 416 -64 947 -64 
C 1043 -64 1562 -52 1933 224 
L 1933 -13 
L 2406 -13 
L 2406 1789 
z
M 1920 824 
C 1920 711 1920 559 1728 446 
C 1562 339 1350 326 1261 326 
C 941 326 723 503 723 723 
C 723 1165 1722 1209 1920 1216 
L 1920 824 
z
" transform="scale(0.015625)"/>
       <path id="CMSS17-6c" d="M 947 4416 
L 474 4416 
L 474 0 
L 947 0 
L 947 4416 
z
" transform="scale(0.015625)"/>
       <path id="CMSS17-7a" d="M 2400 2502 
L 2400 2752 
L 250 2752 
L 250 2367 
L 1069 2367 
C 1146 2367 1222 2374 1299 2374 
L 1747 2374 
L 166 262 
L 166 0 
L 2419 0 
L 2419 396 
L 1549 396 
C 1472 396 1395 390 1318 390 
L 826 390 
L 2400 2502 
z
" transform="scale(0.015625)"/>
       <path id="CMSS17-64" d="M 2611 4416 
L 2138 4416 
L 2138 2495 
C 1939 2662 1613 2816 1254 2816 
C 672 2816 211 2179 211 1375 
C 211 572 666 -64 1235 -64 
C 1677 -64 1971 172 2125 307 
L 2125 -13 
L 2611 -13 
L 2611 4416 
z
M 2125 851 
C 2125 760 2125 663 1926 488 
C 1798 378 1645 326 1498 326 
C 1152 326 698 585 698 1369 
C 698 2185 1210 2425 1562 2425 
C 1798 2425 1990 2308 2125 2114 
L 2125 851 
z
" transform="scale(0.015625)"/>
       <path id="CMSS17-57" d="M 5581 4416 
L 5094 4416 
L 4557 2436 
C 4474 2118 4397 1800 4320 1482 
C 4205 1012 4122 681 4109 516 
L 4102 516 
C 4090 687 4006 1050 3904 1457 
C 3827 1794 3744 2131 3654 2462 
L 3123 4416 
L 2586 4416 
L 2080 2564 
L 1824 1552 
C 1632 751 1626 636 1613 509 
L 1606 509 
C 1606 547 1581 757 1402 1501 
C 1312 1870 1222 2246 1126 2602 
L 634 4416 
L 83 4416 
L 1299 0 
L 1830 0 
L 2336 1838 
L 2592 2850 
C 2765 3562 2803 3740 2816 3899 
L 2822 3899 
C 2822 3874 2880 3473 3130 2544 
L 3808 0 
L 4365 0 
L 5581 4416 
z
" transform="scale(0.015625)"/>
       <path id="CMSS17-75" d="M 2618 2752 
L 2131 2752 
L 2131 976 
C 2131 500 1786 307 1421 307 
C 998 307 960 448 960 712 
L 960 2752 
L 474 2752 
L 474 680 
C 474 179 646 -64 1088 -64 
C 1306 -64 1798 -13 2144 307 
L 2144 -13 
L 2618 -13 
L 2618 2752 
z
" transform="scale(0.015625)"/>
       <path id="CMSS17-6e" d="M 2618 1878 
C 2618 2283 2522 2816 1798 2816 
C 1389 2816 1120 2604 941 2386 
L 941 2783 
L 474 2783 
L 474 0 
L 960 0 
L 960 1556 
C 960 1962 1114 2425 1549 2425 
C 2112 2425 2131 2045 2131 1826 
L 2131 0 
L 2618 0 
L 2618 1878 
z
" transform="scale(0.015625)"/>
       <path id="CMSS17-41" d="M 2272 4416 
L 1722 4416 
L 166 0 
L 653 0 
L 1101 1280 
L 2816 1280 
L 3270 0 
L 3827 0 
L 2272 4416 
z
M 2694 1638 
L 1222 1638 
C 1530 2530 1914 3638 1958 3924 
L 1965 3924 
C 2010 3663 2138 3281 2246 2956 
L 2694 1638 
z
" transform="scale(0.015625)"/>
      </defs>
      <use xlink:href="#CMSS17-4e" transform="scale(0.996264)"/>
      <use xlink:href="#CMSS17-6f" transform="translate(66.061519 0) scale(0.996264)"/>
      <use xlink:href="#CMSS17-72" transform="translate(110.302689 0) scale(0.996264)"/>
      <use xlink:href="#CMSS17-6d" transform="translate(142.212461 0) scale(0.996264)"/>
      <use xlink:href="#CMSS17-61" transform="translate(216.441716 0) scale(0.996264)"/>
      <use xlink:href="#CMSS17-6c" transform="translate(261.363636 0) scale(0.996264)"/>
      <use xlink:href="#CMSS17-69" transform="translate(283.544359 0) scale(0.996264)"/>
      <use xlink:href="#CMSS17-7a" transform="translate(305.725082 0) scale(0.996264)"/>
      <use xlink:href="#CMSS17-65" transform="translate(346.402954 0) scale(0.996264)"/>
      <use xlink:href="#CMSS17-64" transform="translate(388.041776 0) scale(0.996264)"/>
      <use xlink:href="#CMSS17-57" transform="translate(467.475832 0) scale(0.996264)"/>
      <use xlink:href="#CMSS17-6f" transform="translate(553.115544 0) scale(0.996264)"/>
      <use xlink:href="#CMSS17-75" transform="translate(599.959168 0) scale(0.996264)"/>
      <use xlink:href="#CMSS17-6e" transform="translate(648.164111 0) scale(0.996264)"/>
      <use xlink:href="#CMSS17-64" transform="translate(696.369054 0) scale(0.996264)"/>
      <use xlink:href="#CMSS17-41" transform="translate(775.80311 0) scale(0.996264)"/>
      <use xlink:href="#CMSS17-72" transform="translate(838.020965 0) scale(0.996264)"/>
      <use xlink:href="#CMSS17-65" transform="translate(869.930738 0) scale(0.996264)"/>
      <use xlink:href="#CMSS17-61" transform="translate(911.56956 0) scale(0.996264)"/>
     </g>
    </g>
   </g>
   <g id="FillBetweenPolyCollection_1"/>
   <g id="FillBetweenPolyCollection_2"/>
   <g id="FillBetweenPolyCollection_3"/>
   <g id="FillBetweenPolyCollection_4"/>
   <g id="FillBetweenPolyCollection_5"/>
   <g id="FillBetweenPolyCollection_6"/>
   <g id="FillBetweenPolyCollection_7"/>
   <g id="FillBetweenPolyCollection_8"/>
   <g id="FillBetweenPolyCollection_9"/>
   <g id="FillBetweenPolyCollection_10"/>
   <g id="FillBetweenPolyCollection_11"/>
   <g id="FillBetweenPolyCollection_12"/>
   <g id="FillBetweenPolyCollection_13"/>
   <g id="FillBetweenPolyCollection_14"/>
   <g id="FillBetweenPolyCollection_15"/>
   <g id="line2d_52">
    <path d="M 73.862276 301.14693 
L 77.025049 304.322855 
L 80.187822 306.72119 
L 83.350595 308.329387 
L 86.513368 309.163831 
L 89.676141 309.268346 
L 92.838915 308.711527 
L 96.001688 307.583021 
L 99.164461 305.988935 
L 102.327234 304.046612 
L 108.65278 299.609184 
L 114.978326 295.221997 
L 118.141099 293.30398 
L 121.303872 291.674789 
L 124.466645 290.388631 
L 127.629418 289.478601 
L 130.792191 288.956927 
L 133.954964 288.816375 
L 137.117737 289.032693 
L 140.28051 289.567916 
L 143.443283 290.374302 
L 146.606056 291.398623 
L 152.931602 293.886786 
L 165.582695 299.478881 
L 175.071014 303.807978 
L 181.39656 307.041091 
L 184.559333 308.872645 
L 187.722106 310.897966 
L 190.884879 313.148783 
L 194.047652 315.648488 
L 197.210425 318.410005 
L 200.373198 321.434483 
L 203.535971 324.710889 
L 206.698744 328.216553 
L 213.02429 335.776092 
L 222.512609 347.813465 
L 228.838156 355.779563 
L 235.163702 363.404029 
L 241.489248 370.621375 
L 260.465886 391.49852 
L 266.791432 399.021904 
L 273.116978 407.04076 
L 292.093617 431.930638 
L 295.25639 435.699801 
L 298.419163 439.230935 
L 301.581936 442.49184 
L 304.744709 445.463462 
L 307.907482 448.141492 
L 311.070255 450.536947 
L 314.233028 452.675691 
L 317.395801 454.596905 
L 323.721347 457.994254 
L 333.209666 462.869007 
L 336.372439 464.656322 
L 339.535212 466.591286 
L 342.697985 468.692287 
L 345.860758 470.960197 
L 352.186304 475.907899 
L 361.674624 483.57563 
L 364.837397 485.893642 
L 368.00017 487.942797 
L 371.162943 489.631035 
L 374.325716 490.870974 
L 377.488489 491.583992 
L 383.814035 494.619967 
L 390.139581 496.234091 
L 396.465127 499.295437 
L 402.790673 505.529722 
L 662.138063 505.529722 
L 662.138063 505.529722 
" clip-path="url(#pa54c32bef1)" style="fill: none; stroke: #f77189; stroke-opacity: 0.8; stroke-width: 2; stroke-linecap: round"/>
   </g>
   <g id="line2d_53">
    <path d="M 73.862276 301.14693 
L 77.025049 311.993557 
L 80.187822 321.367456 
L 83.350595 327.037813 
L 86.513368 328.981947 
L 89.676141 328.722891 
L 92.838915 328.011995 
L 96.001688 327.839703 
L 99.164461 328.385579 
L 102.327234 329.677612 
L 105.490007 332.124141 
L 108.65278 336.261429 
L 114.978326 347.772295 
L 118.141099 352.092844 
L 121.303872 354.373348 
L 124.466645 356.333506 
L 127.629418 360.91653 
L 130.792191 369.530409 
L 133.954964 379.70664 
L 137.117737 385.604867 
L 140.28051 381.699516 
L 143.443283 367.110101 
L 146.606056 347.030186 
L 149.768829 329.789744 
L 152.931602 321.635438 
L 156.094375 323.204213 
L 162.419922 337.223182 
L 165.582695 341.612754 
L 168.745468 344.233589 
L 171.908241 347.569327 
L 175.071014 353.117488 
L 181.39656 367.475613 
L 184.559333 373.244671 
L 187.722106 377.572873 
L 190.884879 381.33302 
L 194.047652 385.446364 
L 197.210425 390.269331 
L 206.698744 406.278746 
L 219.349836 426.6242 
L 225.675383 437.463061 
L 228.838156 442.289423 
L 232.000929 446.027006 
L 235.163702 448.414933 
L 238.326475 449.663834 
L 241.489248 450.393379 
L 244.652021 451.33486 
L 247.814794 453.001311 
L 250.977567 455.52724 
L 254.14034 458.72642 
L 260.465886 465.793764 
L 263.628659 469.054924 
L 266.791432 471.887629 
L 269.954205 474.273648 
L 276.279751 478.266698 
L 285.76807 484.114367 
L 292.093617 487.583057 
L 301.581936 492.559069 
L 304.744709 493.815227 
L 307.907482 494.538692 
L 311.070255 494.77229 
L 314.233028 494.802527 
L 317.395801 494.988935 
L 320.558574 495.535032 
L 330.046893 498.046624 
L 336.372439 499.102729 
L 342.697985 500.166911 
L 345.860758 500.79027 
L 349.023531 505.529722 
L 352.186304 502.408473 
L 355.349077 505.529722 
L 662.138063 505.529722 
L 662.138063 505.529722 
" clip-path="url(#pa54c32bef1)" style="fill: none; stroke: #ef7d32; stroke-opacity: 0.8; stroke-width: 2; stroke-linecap: round"/>
   </g>
   <g id="line2d_54">
    <path d="M 73.862276 301.14693 
L 77.025049 304.180034 
L 80.187822 304.617104 
L 83.350595 303.34242 
L 86.513368 301.300215 
L 92.838915 296.768707 
L 96.001688 294.074781 
L 99.164461 290.666615 
L 102.327234 286.465229 
L 108.65278 277.08177 
L 111.815553 272.95732 
L 114.978326 269.659168 
L 118.141099 267.131071 
L 121.303872 265.08888 
L 127.629418 261.423608 
L 130.792191 259.789619 
L 133.954964 258.634306 
L 137.117737 258.299274 
L 140.28051 258.999727 
L 143.443283 260.725047 
L 146.606056 263.237447 
L 156.094375 272.011303 
L 159.257149 274.794528 
L 162.419922 277.760984 
L 165.582695 281.217776 
L 168.745468 285.319477 
L 178.233787 299.053472 
L 181.39656 302.822399 
L 190.884879 312.579045 
L 194.047652 316.608622 
L 203.535971 330.098889 
L 206.698744 333.968733 
L 213.02429 341.174037 
L 216.187063 345.084629 
L 219.349836 349.189155 
L 222.512609 353.107149 
L 225.675383 356.42986 
L 228.838156 359.05378 
L 232.000929 361.360938 
L 235.163702 364.110514 
L 238.326475 368.082783 
L 241.489248 373.669451 
L 244.652021 380.640239 
L 247.814794 388.21574 
L 250.977567 395.404921 
L 254.14034 401.424202 
L 257.303113 405.982214 
L 260.465886 409.301401 
L 263.628659 411.89795 
L 273.116978 419.030699 
L 276.279751 421.223883 
L 279.442524 423.140268 
L 285.76807 426.634304 
L 288.930843 428.605981 
L 292.093617 430.725365 
L 295.25639 432.655514 
L 298.419163 433.924649 
L 301.581936 434.190065 
L 304.744709 433.471919 
L 307.907482 432.212148 
L 311.070255 431.109535 
L 314.233028 430.810841 
L 317.395801 431.623052 
L 320.558574 433.402305 
L 326.88412 437.928722 
L 330.046893 439.883182 
L 333.209666 441.638893 
L 336.372439 443.58696 
L 339.535212 446.165834 
L 342.697985 449.592896 
L 345.860758 453.715406 
L 349.023531 458.053973 
L 352.186304 462.009939 
L 355.349077 465.128859 
L 358.511851 467.292078 
L 361.674624 468.749951 
L 364.837397 469.986622 
L 368.00017 471.479176 
L 371.162943 473.45301 
L 374.325716 475.729627 
L 377.488489 477.721592 
L 383.814035 476.619371 
L 390.139581 477.91215 
L 402.790673 481.308805 
L 409.116219 482.801104 
L 415.441765 483.899915 
L 421.767311 484.617769 
L 434.418404 485.767575 
L 440.74395 486.819289 
L 447.069496 488.52206 
L 453.395042 490.927792 
L 459.720588 493.885204 
L 466.046134 497.07773 
L 472.37168 505.529722 
L 478.697226 502.643273 
L 485.022772 505.529722 
L 662.138063 505.529722 
L 662.138063 505.529722 
" clip-path="url(#pa54c32bef1)" style="fill: none; stroke: #c69432; stroke-opacity: 0.8; stroke-width: 2; stroke-linecap: round"/>
   </g>
   <g id="line2d_55">
    <path d="M 73.862276 301.14693 
L 77.025049 301.774605 
L 80.187822 301.582639 
L 83.350595 300.574497 
L 86.513368 298.784803 
L 89.676141 296.278365 
L 92.838915 293.14794 
L 96.001688 289.51079 
L 99.164461 285.504193 
L 108.65278 272.824148 
L 111.815553 268.914235 
L 114.978326 265.418106 
L 118.141099 262.46872 
L 121.303872 260.178372 
L 124.466645 258.634824 
L 127.629418 257.898584 
L 130.792191 258.001431 
L 133.954964 258.946232 
L 137.117737 260.708016 
L 140.28051 263.236216 
L 143.443283 266.457937 
L 146.606056 270.282053 
L 149.768829 274.60391 
L 152.931602 279.310381 
L 159.257149 289.413149 
L 165.582695 299.706733 
L 171.908241 309.468651 
L 175.071014 313.992376 
L 178.233787 318.22992 
L 181.39656 322.168304 
L 184.559333 325.811929 
L 187.722106 329.180852 
L 190.884879 332.308491 
L 197.210425 338.023729 
L 209.861517 348.835193 
L 213.02429 351.72133 
L 216.187063 354.766575 
L 219.349836 357.998579 
L 222.512609 361.434508 
L 225.675383 365.080663 
L 228.838156 368.93258 
L 235.163702 377.185572 
L 241.489248 385.971578 
L 254.14034 403.786894 
L 260.465886 412.068689 
L 263.628659 415.90543 
L 266.791432 419.496266 
L 269.954205 422.817398 
L 273.116978 425.852605 
L 276.279751 428.593525 
L 279.442524 431.039629 
L 282.605297 433.197922 
L 285.76807 435.08239 
L 288.930843 436.713216 
L 292.093617 438.115822 
L 295.25639 439.319772 
L 298.419163 440.357595 
L 304.744709 442.072545 
L 323.721347 446.652863 
L 330.046893 448.643908 
L 336.372439 451.033772 
L 342.697985 453.821197 
L 349.023531 456.945636 
L 358.511851 462.010478 
L 368.00017 467.034437 
L 374.325716 470.024049 
L 383.814035 473.908726 
L 390.139581 480.350161 
L 396.465127 487.25302 
L 402.790673 492.394455 
L 409.116219 495.041352 
L 415.441765 496.196285 
L 421.767311 497.522135 
L 428.092858 499.818389 
L 434.418404 505.529722 
L 447.069496 505.529722 
L 453.395042 502.549423 
L 459.720588 501.90842 
L 466.046134 505.529722 
L 662.138063 505.529722 
L 662.138063 505.529722 
" clip-path="url(#pa54c32bef1)" style="fill: none; stroke: #a79f31; stroke-opacity: 0.8; stroke-width: 2; stroke-linecap: round"/>
   </g>
   <g id="line2d_56">
    <path d="M 73.862276 301.14693 
L 77.025049 301.747426 
L 80.187822 301.900441 
L 83.350595 301.609474 
L 86.513368 300.944534 
L 92.838915 299.00718 
L 96.001688 298.037285 
L 99.164461 297.246168 
L 102.327234 296.718615 
L 105.490007 296.483981 
L 108.65278 296.515933 
L 114.978326 297.070858 
L 121.303872 297.671521 
L 133.954964 298.459724 
L 137.117737 299.082834 
L 140.28051 300.138704 
L 143.443283 301.716419 
L 146.606056 303.844116 
L 149.768829 306.480858 
L 152.931602 309.522827 
L 165.582695 322.769264 
L 168.745468 325.784171 
L 175.071014 331.396565 
L 181.39656 336.989752 
L 194.047652 348.594488 
L 197.210425 350.85936 
L 200.373198 352.465338 
L 203.535971 353.25522 
L 206.698744 353.162168 
L 209.861517 352.233757 
L 213.02429 350.635864 
L 219.349836 346.56216 
L 222.512609 344.764888 
L 225.675383 343.556669 
L 228.838156 343.172796 
L 232.000929 343.740434 
L 235.163702 345.267414 
L 238.326475 347.650487 
L 241.489248 350.700128 
L 244.652021 354.176152 
L 250.977567 361.425874 
L 254.14034 364.797633 
L 257.303113 367.834155 
L 260.465886 370.496641 
L 263.628659 372.807149 
L 266.791432 374.832511 
L 273.116978 378.401676 
L 279.442524 381.92028 
L 285.76807 385.813004 
L 292.093617 390.105817 
L 301.581936 396.689997 
L 304.744709 398.737897 
L 307.907482 400.642848 
L 311.070255 402.376538 
L 314.233028 403.924629 
L 317.395801 405.289989 
L 323.721347 407.583373 
L 330.046893 409.675668 
L 333.209666 410.845854 
L 336.372439 412.215683 
L 339.535212 413.862523 
L 342.697985 415.842662 
L 345.860758 418.181906 
L 349.023531 420.868878 
L 352.186304 423.852111 
L 364.837397 436.502824 
L 368.00017 439.098489 
L 371.162943 441.157316 
L 374.325716 442.549638 
L 377.488489 443.174096 
L 383.814035 446.882968 
L 390.139581 447.630607 
L 396.465127 449.352862 
L 402.790673 451.735364 
L 409.116219 453.802106 
L 415.441765 454.570605 
L 428.092858 454.082896 
L 434.418404 454.450039 
L 440.74395 454.542576 
L 447.069496 453.566038 
L 453.395042 451.997665 
L 459.720588 451.239984 
L 466.046134 452.187837 
L 472.37168 454.219927 
L 478.697226 455.794274 
L 485.022772 456.145146 
L 491.348319 456.016698 
L 497.673865 456.436256 
L 503.999411 457.227078 
L 510.324957 457.325725 
L 522.976049 455.374177 
L 529.301595 455.394423 
L 535.627141 456.205207 
L 541.952687 456.454479 
L 548.278233 455.305665 
L 554.603779 453.368029 
L 560.929326 451.799536 
L 567.254872 450.980559 
L 579.905964 449.859478 
L 586.23151 449.312203 
L 592.557056 449.213909 
L 598.882602 449.682434 
L 605.208148 450.378994 
L 611.533694 450.804525 
L 617.85924 450.709846 
L 630.510333 449.730658 
L 636.835879 449.582906 
L 643.161425 449.691027 
L 649.486971 449.490112 
L 655.812517 448.652411 
L 662.138063 447.701569 
L 662.138063 447.701569 
" clip-path="url(#pa54c32bef1)" style="fill: none; stroke: #82a931; stroke-opacity: 0.8; stroke-width: 2; stroke-linecap: round"/>
   </g>
   <g id="line2d_57">
    <path d="M 73.862276 301.14693 
L 77.025049 302.35479 
L 80.187822 302.215766 
L 83.350595 300.635273 
L 86.513368 297.584158 
L 89.676141 293.100265 
L 92.838915 287.285927 
L 96.001688 280.301538 
L 99.164461 272.355635 
L 102.327234 263.69221 
L 114.978326 227.161767 
L 118.141099 218.789249 
L 121.303872 211.109358 
L 124.466645 204.244813 
L 127.629418 198.274682 
L 130.792191 193.238097 
L 133.954964 189.140926 
L 137.117737 185.964565 
L 140.28051 183.675822 
L 143.443283 182.236813 
L 146.606056 181.613818 
L 149.768829 181.784196 
L 152.931602 182.740736 
L 156.094375 184.493072 
L 159.257149 187.066182 
L 162.419922 190.496291 
L 165.582695 194.824801 
L 168.745468 200.091067 
L 171.908241 206.324964 
L 175.071014 213.540169 
L 178.233787 221.728992 
L 181.39656 230.85935 
L 184.559333 240.87423 
L 187.722106 251.693637 
L 190.884879 263.218743 
L 194.047652 275.337655 
L 200.373198 300.883814 
L 209.861517 340.8156 
L 219.349836 380.601105 
L 225.675383 406.178657 
L 232.000929 430.38378 
L 235.163702 441.761366 
L 238.326475 452.521444 
L 241.489248 462.554508 
L 244.652021 471.751032 
L 247.814794 480.009318 
L 250.977567 487.244111 
L 254.14034 505.529722 
L 662.138063 505.529722 
L 662.138063 505.529722 
" clip-path="url(#pa54c32bef1)" style="fill: none; stroke: #32b24e; stroke-opacity: 0.8; stroke-width: 2; stroke-linecap: round"/>
   </g>
   <g id="line2d_58">
    <path d="M 73.862276 301.14693 
L 77.025049 301.033205 
L 80.187822 300.316338 
L 83.350595 298.451384 
L 86.513368 295.202217 
L 89.676141 290.783061 
L 92.838915 285.833202 
L 96.001688 281.1855 
L 99.164461 277.506348 
L 102.327234 274.989545 
L 105.490007 273.295208 
L 108.65278 271.803014 
L 111.815553 270.053914 
L 114.978326 268.111686 
L 118.141099 266.59546 
L 121.303872 266.325777 
L 124.466645 267.777239 
L 127.629418 270.675736 
L 130.792191 274.012959 
L 133.954964 276.506636 
L 137.117737 277.261391 
L 140.28051 276.254114 
L 143.443283 274.362429 
L 146.606056 272.918841 
L 149.768829 273.046886 
L 152.931602 275.153975 
L 156.094375 278.848285 
L 162.419922 287.66598 
L 165.582695 291.623346 
L 168.745468 295.182246 
L 171.908241 298.488387 
L 175.071014 301.509066 
L 178.233787 303.992006 
L 181.39656 305.720784 
L 187.722106 308.005398 
L 190.884879 310.010822 
L 194.047652 313.367397 
L 197.210425 317.867212 
L 200.373198 322.637669 
L 203.535971 326.639373 
L 206.698744 329.308626 
L 209.861517 330.915253 
L 213.02429 332.386793 
L 216.187063 334.709175 
L 219.349836 338.299601 
L 225.675383 347.1587 
L 228.838156 350.621393 
L 232.000929 352.843103 
L 235.163702 354.186829 
L 238.326475 355.358755 
L 241.489248 356.924568 
L 244.652021 359.013344 
L 250.977567 363.726181 
L 257.303113 368.253353 
L 266.791432 375.608182 
L 269.954205 377.100509 
L 273.116978 377.662181 
L 276.279751 377.647312 
L 279.442524 377.75809 
L 282.605297 378.628197 
L 285.76807 380.430536 
L 292.093617 385.029677 
L 295.25639 386.678647 
L 301.581936 388.725368 
L 304.744709 390.264286 
L 307.907482 392.701264 
L 314.233028 398.891258 
L 317.395801 401.158599 
L 320.558574 402.215077 
L 323.721347 402.308748 
L 326.88412 402.226009 
L 330.046893 402.876721 
L 333.209666 404.821035 
L 336.372439 408.023404 
L 352.186304 427.765448 
L 358.511851 436.039749 
L 361.674624 439.340339 
L 364.837397 441.204567 
L 368.00017 441.346418 
L 371.162943 439.980891 
L 374.325716 437.641081 
L 377.488489 434.809199 
L 383.814035 438.724522 
L 390.139581 439.315966 
L 396.465127 440.76146 
L 402.790673 442.821106 
L 409.116219 445.257212 
L 421.767311 450.622321 
L 434.418404 456.351229 
L 447.069496 462.350122 
L 453.395042 465.180753 
L 459.720588 467.628672 
L 466.046134 469.515458 
L 472.37168 470.784927 
L 478.697226 471.556433 
L 485.022772 472.112077 
L 491.348319 472.811705 
L 497.673865 473.962793 
L 503.999411 475.6973 
L 510.324957 477.910784 
L 516.650503 480.296511 
L 522.976049 482.466879 
L 529.301595 484.114312 
L 535.627141 485.142885 
L 554.603779 486.90656 
L 560.929326 488.186046 
L 567.254872 490.033128 
L 579.905964 494.354247 
L 586.23151 496.030451 
L 592.557056 496.975553 
L 598.882602 497.136872 
L 605.208148 496.682415 
L 617.85924 495.210469 
L 624.184787 494.807625 
L 630.510333 494.845593 
L 636.835879 495.297637 
L 649.486971 496.757781 
L 655.812517 497.297894 
L 662.138063 497.423727 
L 662.138063 497.423727 
" clip-path="url(#pa54c32bef1)" style="fill: none; stroke: #34af8a; stroke-opacity: 0.8; stroke-width: 2; stroke-linecap: round"/>
   </g>
   <g id="line2d_59">
    <path d="M 73.862276 301.14693 
L 77.025049 301.277942 
L 80.187822 300.644498 
L 83.350595 299.221669 
L 86.513368 297.077648 
L 89.676141 294.364468 
L 99.164461 285.093553 
L 102.327234 282.416777 
L 105.490007 280.243085 
L 108.65278 278.640575 
L 111.815553 277.592862 
L 114.978326 277.01028 
L 118.141099 276.754222 
L 137.117737 276.298148 
L 140.28051 276.661077 
L 143.443283 277.539818 
L 146.606056 279.082101 
L 149.768829 281.366998 
L 152.931602 284.38431 
L 156.094375 288.031741 
L 159.257149 292.130847 
L 168.745468 304.926788 
L 171.908241 308.753038 
L 175.071014 312.227054 
L 178.233787 315.390688 
L 190.884879 327.199571 
L 197.210425 333.712005 
L 203.535971 340.302306 
L 206.698744 343.374541 
L 209.861517 346.202955 
L 213.02429 348.777211 
L 219.349836 353.373134 
L 225.675383 357.825323 
L 232.000929 362.626409 
L 238.326475 367.600558 
L 241.489248 369.958061 
L 244.652021 372.131347 
L 247.814794 374.091347 
L 254.14034 377.501843 
L 260.465886 380.814548 
L 263.628659 382.676988 
L 266.791432 384.753702 
L 269.954205 387.042914 
L 285.76807 399.17512 
L 288.930843 401.215792 
L 295.25639 404.816614 
L 304.744709 409.912253 
L 311.070255 413.696746 
L 317.395801 417.88138 
L 326.88412 424.573678 
L 336.372439 431.303277 
L 342.697985 435.543323 
L 349.023531 439.415016 
L 361.674624 446.742128 
L 364.837397 448.841341 
L 368.00017 451.15705 
L 374.325716 456.34764 
L 377.488489 459.017864 
L 383.814035 470.094052 
L 390.139581 472.467959 
L 396.465127 475.115069 
L 409.116219 480.862911 
L 428.092858 489.744207 
L 434.418404 492.46545 
L 440.74395 494.85741 
L 447.069496 496.779993 
L 453.395042 498.129843 
L 459.720588 498.876546 
L 466.046134 499.084887 
L 472.37168 498.913427 
L 485.022772 498.347207 
L 491.348319 498.399155 
L 497.673865 498.86147 
L 503.999411 499.742316 
L 510.324957 500.943255 
L 516.650503 505.529722 
L 662.138063 505.529722 
L 662.138063 505.529722 
" clip-path="url(#pa54c32bef1)" style="fill: none; stroke: #36ada4; stroke-opacity: 0.8; stroke-width: 2; stroke-linecap: round"/>
   </g>
   <g id="line2d_60">
    <path d="M 73.862276 301.14693 
L 77.025049 299.432187 
L 80.187822 295.946972 
L 83.350595 291.082889 
L 86.513368 285.288446 
L 89.676141 278.904708 
L 92.838915 272.021271 
L 96.001688 264.399616 
L 99.164461 255.496753 
L 102.327234 244.596077 
L 105.490007 231.020904 
L 108.65278 214.377753 
L 111.815553 194.760147 
L 114.978326 172.846053 
L 121.303872 127.293495 
L 124.466645 106.735971 
L 127.629418 89.385276 
L 130.792191 75.853344 
L 133.954964 66.046013 
L 137.117737 59.262155 
L 140.28051 54.474403 
L 143.443283 50.704451 
L 146.606056 47.367091 
L 149.768829 44.461241 
L 152.931602 42.536001 
L 156.094375 42.440345 
L 159.257149 44.94742 
L 162.419922 50.396174 
L 165.582695 58.491599 
L 168.745468 68.347627 
L 171.908241 78.763859 
L 175.071014 88.63449 
L 178.233787 97.332524 
L 181.39656 104.918036 
L 184.559333 112.085203 
L 187.722106 119.863875 
L 190.884879 129.187773 
L 194.047652 140.494774 
L 197.210425 153.513852 
L 203.535971 180.657233 
L 206.698744 192.360504 
L 209.861517 201.805976 
L 213.02429 209.143205 
L 219.349836 221.601197 
L 222.512609 229.547973 
L 225.675383 240.160346 
L 228.838156 253.771125 
L 232.000929 269.916159 
L 238.326475 305.030876 
L 241.489248 321.177823 
L 244.652021 334.924137 
L 247.814794 345.837644 
L 250.977567 354.0617 
L 254.14034 360.173963 
L 257.303113 364.961661 
L 263.628659 373.44658 
L 266.791432 378.04256 
L 269.954205 383.056235 
L 276.279751 393.929599 
L 292.093617 421.987433 
L 298.419163 433.328499 
L 301.581936 438.734791 
L 304.744709 443.731556 
L 307.907482 448.156701 
L 311.070255 451.909796 
L 314.233028 454.980286 
L 317.395801 457.452999 
L 320.558574 459.488862 
L 330.046893 464.854588 
L 336.372439 468.85682 
L 342.697985 472.824415 
L 345.860758 474.516898 
L 349.023531 475.929153 
L 352.186304 477.079727 
L 364.837397 481.064114 
L 371.162943 483.534864 
L 374.325716 484.490838 
L 377.488489 484.78996 
L 383.814035 483.50337 
L 390.139581 487.163567 
L 396.465127 505.529722 
L 662.138063 505.529722 
L 662.138063 505.529722 
" clip-path="url(#pa54c32bef1)" style="fill: none; stroke: #37aabb; stroke-opacity: 0.8; stroke-width: 2; stroke-linecap: round"/>
   </g>
   <g id="line2d_61">
    <path d="M 73.862276 301.14693 
L 77.025049 301.51789 
L 80.187822 300.804581 
L 83.350595 299.072471 
L 86.513368 296.424755 
L 89.676141 292.992185 
L 92.838915 288.921036 
L 96.001688 284.36041 
L 99.164461 279.450183 
L 105.490007 269.036269 
L 118.141099 247.44338 
L 127.629418 230.701987 
L 140.28051 208.042246 
L 143.443283 202.765709 
L 146.606056 197.868441 
L 149.768829 193.470478 
L 152.931602 189.678784 
L 156.094375 186.576625 
L 159.257149 184.215141 
L 162.419922 182.608148 
L 165.582695 181.730798 
L 168.745468 181.522257 
L 171.908241 181.892053 
L 175.071014 182.72933 
L 178.233787 183.913882 
L 181.39656 185.327696 
L 206.698744 197.589318 
L 209.861517 199.331429 
L 213.02429 201.267546 
L 216.187063 203.431739 
L 219.349836 205.838872 
L 222.512609 208.48228 
L 225.675383 211.334008 
L 232.000929 217.461632 
L 238.326475 223.713348 
L 241.489248 226.712317 
L 244.652021 229.546869 
L 247.814794 232.173692 
L 250.977567 234.566533 
L 254.14034 236.717565 
L 257.303113 238.637242 
L 260.465886 240.352805 
L 266.791432 243.348344 
L 276.279751 247.620658 
L 279.442524 249.228544 
L 282.605297 251.016966 
L 285.76807 253.025211 
L 288.930843 255.280086 
L 292.093617 257.794551 
L 295.25639 260.567139 
L 298.419163 263.582256 
L 301.581936 266.811392 
L 307.907482 273.746762 
L 323.721347 291.626962 
L 330.046893 298.295959 
L 342.697985 311.213589 
L 349.023531 318.154357 
L 352.186304 321.876341 
L 358.511851 329.825283 
L 368.00017 342.221947 
L 371.162943 346.086869 
L 374.325716 349.597167 
L 377.488489 352.608029 
L 383.814035 362.326172 
L 409.116219 386.57304 
L 415.441765 392.392373 
L 421.767311 397.98013 
L 428.092858 403.280936 
L 434.418404 408.248545 
L 440.74395 412.846949 
L 447.069496 417.051229 
L 453.395042 420.848082 
L 459.720588 424.236026 
L 466.046134 427.225244 
L 472.37168 429.837077 
L 478.697226 432.103176 
L 485.022772 434.064319 
L 491.348319 435.768936 
L 497.673865 437.271386 
L 510.324957 439.905176 
L 522.976049 442.443101 
L 529.301595 443.817099 
L 535.627141 445.326068 
L 541.952687 447.009168 
L 548.278233 448.896158 
L 554.603779 451.006295 
L 560.929326 453.347596 
L 567.254872 455.916492 
L 573.580418 458.697881 
L 579.905964 461.665578 
L 592.557056 468.005098 
L 611.533694 477.739085 
L 617.85924 480.799031 
L 624.184787 483.659274 
L 630.510333 486.257562 
L 636.835879 488.535859 
L 643.161425 490.442134 
L 649.486971 491.931918 
L 655.812517 492.969604 
L 662.138063 493.529423 
L 662.138063 493.529423 
" clip-path="url(#pa54c32bef1)" style="fill: none; stroke: #3aa6da; stroke-opacity: 0.8; stroke-width: 2; stroke-linecap: round"/>
   </g>
   <g id="line2d_62">
    <path d="M 73.862276 301.14693 
L 77.025049 297.58875 
L 80.187822 292.253508 
L 83.350595 285.302514 
L 86.513368 276.957669 
L 89.676141 267.490905 
L 92.838915 257.211276 
L 102.327234 224.83291 
L 105.490007 214.616216 
L 108.65278 205.171634 
L 111.815553 196.729138 
L 114.978326 189.467287 
L 118.141099 183.509539 
L 121.303872 178.92392 
L 124.466645 175.725909 
L 127.629418 173.884171 
L 130.792191 173.328617 
L 133.954964 173.960113 
L 137.117737 175.661084 
L 140.28051 178.306227 
L 143.443283 181.772588 
L 146.606056 185.948324 
L 149.768829 190.739616 
L 152.931602 196.075347 
L 156.094375 201.909367 
L 159.257149 208.220316 
L 162.419922 215.009195 
L 165.582695 222.295019 
L 168.745468 230.10899 
L 171.908241 238.487759 
L 175.071014 247.466332 
L 178.233787 257.071204 
L 181.39656 267.314262 
L 184.559333 278.187861 
L 187.722106 289.661449 
L 190.884879 301.679902 
L 197.210425 327.010533 
L 213.02429 392.053007 
L 216.187063 404.220957 
L 219.349836 415.799045 
L 222.512609 426.683885 
L 225.675383 436.793699 
L 228.838156 446.070259 
L 232.000929 454.479573 
L 235.163702 462.011368 
L 238.326475 468.67748 
L 241.489248 474.509339 
L 244.652021 479.554766 
L 247.814794 483.874314 
L 250.977567 487.537407 
L 254.14034 505.529722 
L 263.628659 505.529722 
L 266.791432 498.599258 
L 269.954205 505.529722 
L 662.138063 505.529722 
L 662.138063 505.529722 
" clip-path="url(#pa54c32bef1)" style="fill: none; stroke: #8197f4; stroke-opacity: 0.8; stroke-width: 2; stroke-linecap: round"/>
   </g>
   <g id="line2d_63">
    <path d="M 73.862276 301.14693 
L 77.025049 297.651591 
L 80.187822 294.502656 
L 83.350595 291.652695 
L 92.838915 283.655198 
L 96.001688 280.565256 
L 99.164461 276.916717 
L 102.327234 272.520821 
L 105.490007 267.235443 
L 108.65278 260.988197 
L 111.815553 253.794958 
L 114.978326 245.770691 
L 121.303872 228.17536 
L 124.466645 219.273885 
L 127.629418 210.82248 
L 130.792191 203.206628 
L 133.954964 196.756887 
L 137.117737 191.709514 
L 140.28051 188.177361 
L 143.443283 186.13616 
L 146.606056 185.42932 
L 149.768829 185.791527 
L 152.931602 186.888332 
L 162.419922 191.262022 
L 165.582695 192.311445 
L 168.745468 193.050632 
L 175.071014 194.156181 
L 178.233787 194.986737 
L 181.39656 196.344234 
L 184.559333 198.43791 
L 187.722106 201.393871 
L 190.884879 205.235921 
L 194.047652 209.886232 
L 197.210425 215.184829 
L 203.535971 226.885234 
L 209.861517 238.801409 
L 225.675383 267.706743 
L 228.838156 274.01442 
L 232.000929 280.669228 
L 238.326475 294.882402 
L 254.14034 331.534772 
L 260.465886 346.034267 
L 263.628659 353.569594 
L 266.791432 361.44811 
L 269.954205 369.732868 
L 276.279751 387.401047 
L 282.605297 405.517088 
L 285.76807 414.130864 
L 288.930843 422.084076 
L 292.093617 429.146502 
L 295.25639 435.164344 
L 298.419163 440.083135 
L 301.581936 443.955464 
L 304.744709 446.932088 
L 307.907482 449.237944 
L 311.070255 451.137268 
L 317.395801 454.734011 
L 320.558574 456.81709 
L 323.721347 459.221204 
L 326.88412 461.943599 
L 333.209666 468.03389 
L 339.535212 474.277362 
L 345.860758 480.174095 
L 352.186304 485.934465 
L 358.511851 492.011682 
L 361.674624 495.124327 
L 364.837397 498.080183 
L 368.00017 505.529722 
L 374.325716 505.529722 
L 377.488489 501.360318 
L 383.814035 505.529722 
L 662.138063 505.529722 
L 662.138063 505.529722 
" clip-path="url(#pa54c32bef1)" style="fill: none; stroke: #c180f4; stroke-opacity: 0.8; stroke-width: 2; stroke-linecap: round"/>
   </g>
   <g id="line2d_64">
    <path d="M 73.862276 301.14693 
L 77.025049 301.769879 
L 80.187822 302.118527 
L 83.350595 302.197194 
L 86.513368 302.01364 
L 89.676141 301.578988 
L 92.838915 300.907594 
L 96.001688 300.01687 
L 99.164461 298.927076 
L 102.327234 297.661071 
L 105.490007 296.244021 
L 111.815553 293.067108 
L 130.792191 282.984656 
L 133.954964 281.55128 
L 137.117737 280.268135 
L 140.28051 279.162127 
L 143.443283 278.258214 
L 146.606056 277.579135 
L 149.768829 277.145179 
L 152.931602 276.973991 
L 156.094375 277.080416 
L 159.257149 277.476382 
L 162.419922 278.170832 
L 165.582695 279.169682 
L 168.745468 280.475835 
L 171.908241 282.089221 
L 175.071014 284.006886 
L 178.233787 286.223106 
L 181.39656 288.729533 
L 184.559333 291.51538 
L 187.722106 294.567614 
L 190.884879 297.871184 
L 194.047652 301.409257 
L 197.210425 305.163471 
L 203.535971 313.240779 
L 209.861517 321.935515 
L 216.187063 331.072264 
L 228.838156 349.97728 
L 238.326475 364.078762 
L 244.652021 373.185509 
L 250.977567 381.930112 
L 257.303113 390.229845 
L 263.628659 398.025215 
L 269.954205 405.279059 
L 276.279751 411.974851 
L 282.605297 418.114435 
L 288.930843 423.715385 
L 295.25639 428.808147 
L 301.581936 433.433123 
L 307.907482 437.637779 
L 314.233028 441.473861 
L 320.558574 444.994757 
L 326.88412 448.253038 
L 333.209666 451.298193 
L 342.697985 455.561488 
L 352.186304 459.562193 
L 364.837397 464.606269 
L 374.325716 468.185026 
L 377.488489 469.330951 
L 383.814035 464.531511 
L 390.139581 466.874626 
L 396.465127 469.586846 
L 402.790673 472.129776 
L 409.116219 474.028098 
L 415.441765 474.990497 
L 421.767311 474.979903 
L 428.092858 474.208465 
L 440.74395 471.953344 
L 447.069496 471.231969 
L 453.395042 471.055389 
L 459.720588 471.389434 
L 472.37168 472.831143 
L 485.022772 474.191477 
L 491.348319 474.870111 
L 497.673865 475.81509 
L 503.999411 477.270498 
L 510.324957 479.400948 
L 516.650503 482.220067 
L 522.976049 485.568842 
L 535.627141 492.608449 
L 541.952687 495.621619 
L 548.278233 497.982249 
L 554.603779 505.529722 
L 560.929326 500.657677 
L 567.254872 505.529722 
L 573.580418 505.529722 
L 579.905964 501.626894 
L 586.23151 501.670871 
L 592.557056 505.529722 
L 598.882602 505.529722 
L 605.208148 501.351233 
L 611.533694 505.529722 
L 624.184787 505.529722 
L 630.510333 501.785953 
L 636.835879 505.529722 
L 662.138063 505.529722 
L 662.138063 505.529722 
" clip-path="url(#pa54c32bef1)" style="fill: none; stroke: #f45deb; stroke-opacity: 0.8; stroke-width: 2; stroke-linecap: round"/>
   </g>
   <g id="line2d_65">
    <path d="M 73.862276 301.14693 
L 80.187822 287.751874 
L 83.350595 281.452204 
L 86.513368 275.48335 
L 89.676141 269.847545 
L 92.838915 264.509837 
L 99.164461 254.431896 
L 105.490007 244.463299 
L 108.65278 239.24875 
L 111.815553 233.762088 
L 114.978326 227.94912 
L 118.141099 221.792301 
L 121.303872 215.314049 
L 127.629418 201.675241 
L 133.954964 187.896565 
L 137.117737 181.305511 
L 140.28051 175.101922 
L 143.443283 169.409455 
L 146.606056 164.327804 
L 149.768829 159.928285 
L 152.931602 156.253115 
L 156.094375 153.318292 
L 159.257149 151.119584 
L 162.419922 149.640676 
L 165.582695 148.862298 
L 168.745468 148.770992 
L 171.908241 149.366263 
L 175.071014 150.665044 
L 178.233787 152.702791 
L 181.39656 155.530944 
L 184.559333 159.211017 
L 187.722106 163.80602 
L 190.884879 169.370301 
L 194.047652 175.939127 
L 197.210425 183.519422 
L 200.373198 192.082941 
L 203.535971 201.562906 
L 206.698744 211.854716 
L 209.861517 222.820854 
L 216.187063 246.116728 
L 225.675383 281.949257 
L 232.000929 304.95643 
L 238.326475 326.87007 
L 257.303113 390.911021 
L 273.116978 446.560546 
L 276.279751 456.965494 
L 279.442524 466.713839 
L 282.605297 475.627796 
L 285.76807 483.555755 
L 288.930843 505.529722 
L 662.138063 505.529722 
L 662.138063 505.529722 
" clip-path="url(#pa54c32bef1)" style="fill: none; stroke: #f669ba; stroke-opacity: 0.8; stroke-width: 2; stroke-linecap: round"/>
   </g>
   <g id="line2d_66"/>
   <g id="line2d_67"/>
   <g id="line2d_68"/>
   <g id="line2d_69"/>
   <g id="line2d_70"/>
   <g id="line2d_71"/>
   <g id="line2d_72"/>
   <g id="line2d_73"/>
   <g id="line2d_74"/>
   <g id="line2d_75"/>
   <g id="line2d_76"/>
   <g id="line2d_77"/>
   <g id="line2d_78"/>
   <g id="line2d_79"/>
   <g id="line2d_80">
    <path d="M 73.862276 301.14693 
L 77.025049 299.756411 
L 80.187822 298.146243 
L 83.350595 296.160546 
L 86.513368 293.661177 
L 89.676141 290.540749 
L 92.838915 286.732705 
L 96.001688 282.224423 
L 99.164461 277.073024 
L 102.327234 271.414038 
L 111.815553 253.52744 
L 114.978326 247.961804 
L 118.141099 242.846097 
L 121.303872 238.292033 
L 124.466645 234.419969 
L 127.629418 231.350161 
L 130.792191 229.156252 
L 133.954964 227.814243 
L 137.117737 227.193864 
L 140.28051 227.112858 
L 143.443283 227.426318 
L 146.606056 228.093034 
L 149.768829 229.175845 
L 152.931602 230.781434 
L 156.094375 232.986233 
L 159.257149 235.796661 
L 162.419922 239.157911 
L 165.582695 242.98911 
L 168.745468 247.213149 
L 171.908241 251.767157 
L 175.071014 256.601549 
L 178.233787 261.681029 
L 181.39656 266.990026 
L 184.559333 272.533444 
L 187.722106 278.324342 
L 194.047652 290.612131 
L 225.675383 354.321207 
L 232.000929 366.880079 
L 241.489248 385.242283 
L 247.814794 397.078209 
L 254.14034 408.071062 
L 257.303113 413.146396 
L 260.465886 417.71196 
L 263.628659 421.851382 
L 266.791432 425.784628 
L 269.954205 429.539514 
L 276.279751 436.27143 
L 282.605297 442.120183 
L 285.76807 445.075463 
L 288.930843 448.416883 
L 295.25639 453.690425 
L 304.744709 460.652288 
L 307.907482 462.630434 
L 311.070255 464.767479 
L 314.233028 466.69964 
L 317.395801 468.468335 
L 323.721347 471.289203 
L 326.88412 472.815377 
L 330.046893 474.143581 
L 345.860758 479.923592 
L 355.349077 483.028539 
L 358.511851 483.646861 
L 361.674624 484.4288 
L 364.837397 485.059789 
L 368.00017 485.987326 
L 371.162943 486.424271 
L 377.488489 487.545236 
L 383.814035 489.644867 
L 390.139581 490.316232 
L 402.790673 492.579564 
L 415.441765 493.999927 
L 421.767311 495.131185 
L 428.092858 495.882667 
L 440.74395 496.849307 
L 447.069496 497.231929 
L 453.395042 497.206107 
L 459.720588 497.309063 
L 466.046134 497.736967 
L 472.37168 498.613766 
L 478.697226 499.724695 
L 485.022772 502.549902 
L 491.348319 502.209662 
L 497.673865 502.966353 
L 503.999411 502.969215 
L 529.301595 503.513689 
L 535.627141 503.825897 
L 541.952687 503.743074 
L 573.580418 504.131243 
L 586.23151 503.968151 
L 598.882602 504.092154 
L 611.533694 504.122815 
L 662.138063 504.333503 
L 662.138063 504.333503 
" clip-path="url(#pa54c32bef1)" style="fill: none; stroke: #000000; stroke-opacity: 0.8; stroke-width: 2; stroke-linecap: round"/>
   </g>
   <g id="patch_3">
    <path d="M 44.448487 528.68419 
L 44.448487 19.285876 
" style="fill: none; stroke: #262626; stroke-width: 1.5; stroke-linejoin: miter; stroke-linecap: square"/>
   </g>
   <g id="patch_4">
    <path d="M 691.551852 528.68419 
L 691.551852 19.285876 
" style="fill: none; stroke: #262626; stroke-width: 1.5; stroke-linejoin: miter; stroke-linecap: square"/>
   </g>
   <g id="patch_5">
    <path d="M 44.448487 528.68419 
L 691.551852 528.68419 
" style="fill: none; stroke: #262626; stroke-width: 1.5; stroke-linejoin: miter; stroke-linecap: square"/>
   </g>
   <g id="patch_6">
    <path d="M 44.448487 19.285876 
L 691.551852 19.285876 
" style="fill: none; stroke: #262626; stroke-width: 1.5; stroke-linejoin: miter; stroke-linecap: square"/>
   </g>
   <g id="text_13">
    <!-- Time Series of Outlier Wells - Normalized Wound Area -->
    <g style="fill: #262626" transform="translate(211.259114 13.285876) scale(0.14 -0.14)">
     <defs>
      <path id="CMSS17-53" d="M 2797 4230 
C 2515 4396 2208 4544 1690 4544 
C 864 4544 333 3934 333 3309 
C 333 3064 403 2787 653 2504 
C 902 2220 1184 2143 1542 2053 
C 1690 2014 1939 1943 1984 1924 
C 2342 1782 2515 1454 2515 1144 
C 2515 738 2202 307 1645 307 
C 1453 307 890 339 358 829 
L 269 320 
C 794 -64 1363 -128 1651 -128 
C 2438 -128 3002 494 3002 1202 
C 3002 1460 2925 1789 2656 2092 
C 2394 2381 2163 2446 1638 2588 
C 1338 2665 1146 2717 986 2916 
C 877 3058 819 3193 819 3367 
C 819 3728 1126 4121 1690 4121 
C 1971 4121 2336 4063 2707 3715 
L 2797 4230 
z
" transform="scale(0.015625)"/>
      <path id="CMSS17-73" d="M 2061 2623 
C 1683 2803 1389 2816 1197 2816 
C 742 2816 198 2655 198 2009 
C 198 1363 902 1222 1094 1183 
C 1389 1126 1715 1062 1715 742 
C 1715 339 1254 339 1171 339 
C 915 339 563 409 243 639 
L 166 211 
C 531 0 883 -64 1178 -64 
C 1965 -64 2163 416 2163 780 
C 2163 1094 1984 1305 1862 1401 
C 1651 1567 1574 1587 1050 1695 
C 960 1708 646 1779 646 2067 
C 646 2431 1050 2431 1139 2431 
C 1555 2431 1811 2303 1984 2207 
L 2061 2623 
z
" transform="scale(0.015625)"/>
      <path id="CMSS17-66" d="M 1075 2380 
L 1722 2380 
L 1722 2752 
L 1062 2752 
L 1062 3563 
C 1062 4013 1408 4089 1606 4089 
C 1670 4089 1850 4089 2080 4007 
L 2080 4428 
C 1933 4460 1754 4480 1613 4480 
C 1018 4480 602 3994 602 3366 
L 602 2752 
L 160 2752 
L 160 2380 
L 602 2380 
L 602 0 
L 1075 0 
L 1075 2380 
z
" transform="scale(0.015625)"/>
      <path id="CMSS17-4f" d="M 4096 2201 
C 4096 3541 3219 4544 2214 4544 
C 1210 4544 333 3535 333 2201 
C 333 855 1222 -128 2214 -128 
C 3206 -128 4096 855 4096 2201 
z
M 2214 275 
C 1510 275 870 1067 870 2285 
C 870 3470 1549 4140 2214 4140 
C 2880 4140 3558 3470 3558 2285 
C 3558 1061 2912 275 2214 275 
z
" transform="scale(0.015625)"/>
      <path id="CMSS17-74" d="M 1069 2380 
L 1901 2380 
L 1901 2752 
L 1069 2752 
L 1069 3520 
L 614 3520 
L 614 2752 
L 109 2752 
L 109 2380 
L 602 2380 
L 602 751 
C 602 384 685 -64 1107 -64 
C 1427 -64 1722 25 2003 172 
L 1901 551 
C 1747 416 1562 339 1363 339 
C 1082 339 1069 699 1069 860 
L 1069 2380 
z
" transform="scale(0.015625)"/>
      <path id="CMSS17-2d" d="M 1664 1216 
L 1664 1587 
L 64 1587 
L 64 1216 
L 1664 1216 
z
" transform="scale(0.015625)"/>
     </defs>
     <use xlink:href="#CMSS17-54" transform="scale(0.996264)"/>
     <use xlink:href="#CMSS17-69" transform="translate(63.819454 0) scale(0.996264)"/>
     <use xlink:href="#CMSS17-6d" transform="translate(86.000177 0) scale(0.996264)"/>
     <use xlink:href="#CMSS17-65" transform="translate(160.229431 0) scale(0.996264)"/>
     <use xlink:href="#CMSS17-53" transform="translate(233.097366 0) scale(0.996264)"/>
     <use xlink:href="#CMSS17-65" transform="translate(285.145882 0) scale(0.996264)"/>
     <use xlink:href="#CMSS17-72" transform="translate(326.784704 0) scale(0.996264)"/>
     <use xlink:href="#CMSS17-69" transform="translate(358.694477 0) scale(0.996264)"/>
     <use xlink:href="#CMSS17-65" transform="translate(380.8752 0) scale(0.996264)"/>
     <use xlink:href="#CMSS17-73" transform="translate(422.514022 0) scale(0.996264)"/>
     <use xlink:href="#CMSS17-6f" transform="translate(489.656677 0) scale(0.996264)"/>
     <use xlink:href="#CMSS17-66" transform="translate(536.5003 0) scale(0.996264)"/>
     <use xlink:href="#CMSS17-4f" transform="translate(596.356072 0) scale(0.996264)"/>
     <use xlink:href="#CMSS17-75" transform="translate(665.380327 0) scale(0.996264)"/>
     <use xlink:href="#CMSS17-74" transform="translate(713.58527 0) scale(0.996264)"/>
     <use xlink:href="#CMSS17-6c" transform="translate(747.416837 0) scale(0.996264)"/>
     <use xlink:href="#CMSS17-69" transform="translate(769.59756 0) scale(0.996264)"/>
     <use xlink:href="#CMSS17-65" transform="translate(791.778283 0) scale(0.996264)"/>
     <use xlink:href="#CMSS17-72" transform="translate(833.417105 0) scale(0.996264)"/>
     <use xlink:href="#CMSS17-57" transform="translate(896.555991 0) scale(0.996264)"/>
     <use xlink:href="#CMSS17-65" transform="translate(982.195703 0) scale(0.996264)"/>
     <use xlink:href="#CMSS17-6c" transform="translate(1023.834525 0) scale(0.996264)"/>
     <use xlink:href="#CMSS17-6c" transform="translate(1046.015248 0) scale(0.996264)"/>
     <use xlink:href="#CMSS17-73" transform="translate(1068.195971 0) scale(0.996264)"/>
     <use xlink:href="#CMSS17-2d" transform="translate(1135.338626 0) scale(0.996264)"/>
     <use xlink:href="#CMSS17-4e" transform="translate(1197.796851 0) scale(0.996264)"/>
     <use xlink:href="#CMSS17-6f" transform="translate(1263.85837 0) scale(0.996264)"/>
     <use xlink:href="#CMSS17-72" transform="translate(1308.09954 0) scale(0.996264)"/>
     <use xlink:href="#CMSS17-6d" transform="translate(1340.009313 0) scale(0.996264)"/>
     <use xlink:href="#CMSS17-61" transform="translate(1414.238567 0) scale(0.996264)"/>
     <use xlink:href="#CMSS17-6c" transform="translate(1459.160488 0) scale(0.996264)"/>
     <use xlink:href="#CMSS17-69" transform="translate(1481.341211 0) scale(0.996264)"/>
     <use xlink:href="#CMSS17-7a" transform="translate(1503.521934 0) scale(0.996264)"/>
     <use xlink:href="#CMSS17-65" transform="translate(1544.199806 0) scale(0.996264)"/>
     <use xlink:href="#CMSS17-64" transform="translate(1585.838628 0) scale(0.996264)"/>
     <use xlink:href="#CMSS17-57" transform="translate(1665.272683 0) scale(0.996264)"/>
     <use xlink:href="#CMSS17-6f" transform="translate(1750.912396 0) scale(0.996264)"/>
     <use xlink:href="#CMSS17-75" transform="translate(1797.756019 0) scale(0.996264)"/>
     <use xlink:href="#CMSS17-6e" transform="translate(1845.960962 0) scale(0.996264)"/>
     <use xlink:href="#CMSS17-64" transform="translate(1894.165906 0) scale(0.996264)"/>
     <use xlink:href="#CMSS17-41" transform="translate(1973.599961 0) scale(0.996264)"/>
     <use xlink:href="#CMSS17-72" transform="translate(2035.817816 0) scale(0.996264)"/>
     <use xlink:href="#CMSS17-65" transform="translate(2067.727589 0) scale(0.996264)"/>
     <use xlink:href="#CMSS17-61" transform="translate(2109.366411 0) scale(0.996264)"/>
    </g>
   </g>
   <g id="legend_1">
    <g id="line2d_81">
     <path d="M 738.307021 39.285876 
L 754.307021 39.285876 
L 770.307021 39.285876 
" style="fill: none; stroke: #f77189; stroke-opacity: 0.8; stroke-width: 2; stroke-linecap: round"/>
    </g>
    <g id="text_14">
     <!-- s005_A05 -->
     <g style="fill: #262626" transform="translate(783.107021 44.885876) scale(0.16 -0.16)">
      <use xlink:href="#CMSS17-73" transform="scale(0.996264)"/>
      <use xlink:href="#CMSS17-30" transform="translate(35.913542 0) scale(0.996264)"/>
      <use xlink:href="#CMSS17-30" transform="translate(82.757166 0) scale(0.996264)"/>
      <use xlink:href="#CMSS17-35" transform="translate(129.600789 0) scale(0.996264)"/>
      <use xlink:href="#CMSS17-41" transform="translate(210.171908 0) scale(0.996264)"/>
      <use xlink:href="#CMSS17-30" transform="translate(272.389763 0) scale(0.996264)"/>
      <use xlink:href="#CMSS17-35" transform="translate(319.233386 0) scale(0.996264)"/>
      <path d="M 182.065424 0 
L 210.171908 0 
L 210.171908 0.3985 
L 182.065424 0.3985 
L 182.065424 0 
z
"/>
     </g>
    </g>
    <g id="line2d_82">
     <path d="M 738.307021 61.585353 
L 754.307021 61.585353 
L 770.307021 61.585353 
" style="fill: none; stroke: #ef7d32; stroke-opacity: 0.8; stroke-width: 2; stroke-linecap: round"/>
    </g>
    <g id="text_15">
     <!-- s006_A06 -->
     <g style="fill: #262626" transform="translate(783.107021 67.185353) scale(0.16 -0.16)">
      <defs>
       <path id="CMSS17-36" d="M 2496 4159 
C 2227 4268 2035 4288 1856 4288 
C 1024 4288 250 3408 250 2023 
C 250 268 986 -128 1510 -128 
C 1798 -128 2086 -39 2362 281 
C 2643 619 2752 900 2752 1392 
C 2752 2183 2362 2886 1779 2886 
C 1357 2886 992 2662 768 2381 
C 832 3290 1254 3897 1862 3897 
C 2029 3897 2246 3871 2496 3760 
L 2496 4159 
z
M 774 1372 
C 774 1423 774 1455 781 1551 
C 781 2049 1069 2496 1536 2496 
C 1837 2496 1990 2336 2106 2138 
C 2240 1889 2246 1653 2246 1392 
C 2246 1143 2246 894 2099 638 
C 1978 441 1818 268 1510 268 
C 902 268 800 1117 774 1372 
z
" transform="scale(0.015625)"/>
      </defs>
      <use xlink:href="#CMSS17-73" transform="scale(0.996264)"/>
      <use xlink:href="#CMSS17-30" transform="translate(35.913542 0) scale(0.996264)"/>
      <use xlink:href="#CMSS17-30" transform="translate(82.757166 0) scale(0.996264)"/>
      <use xlink:href="#CMSS17-36" transform="translate(129.600789 0) scale(0.996264)"/>
      <use xlink:href="#CMSS17-41" transform="translate(210.171908 0) scale(0.996264)"/>
      <use xlink:href="#CMSS17-30" transform="translate(272.389763 0) scale(0.996264)"/>
      <use xlink:href="#CMSS17-36" transform="translate(319.233386 0) scale(0.996264)"/>
      <path d="M 182.065424 0 
L 210.171908 0 
L 210.171908 0.3985 
L 182.065424 0.3985 
L 182.065424 0 
z
"/>
     </g>
    </g>
    <g id="line2d_83">
     <path d="M 738.307021 83.884829 
L 754.307021 83.884829 
L 770.307021 83.884829 
" style="fill: none; stroke: #c69432; stroke-opacity: 0.8; stroke-width: 2; stroke-linecap: round"/>
    </g>
    <g id="text_16">
     <!-- s010_A10 -->
     <g style="fill: #262626" transform="translate(783.107021 89.484829) scale(0.16 -0.16)">
      <use xlink:href="#CMSS17-73" transform="scale(0.996264)"/>
      <use xlink:href="#CMSS17-30" transform="translate(35.913542 0) scale(0.996264)"/>
      <use xlink:href="#CMSS17-31" transform="translate(82.757166 0) scale(0.996264)"/>
      <use xlink:href="#CMSS17-30" transform="translate(129.600789 0) scale(0.996264)"/>
      <use xlink:href="#CMSS17-41" transform="translate(210.171908 0) scale(0.996264)"/>
      <use xlink:href="#CMSS17-31" transform="translate(272.389763 0) scale(0.996264)"/>
      <use xlink:href="#CMSS17-30" transform="translate(319.233386 0) scale(0.996264)"/>
      <path d="M 182.065424 0 
L 210.171908 0 
L 210.171908 0.3985 
L 182.065424 0.3985 
L 182.065424 0 
z
"/>
     </g>
    </g>
    <g id="line2d_84">
     <path d="M 738.307021 106.184305 
L 754.307021 106.184305 
L 770.307021 106.184305 
" style="fill: none; stroke: #a79f31; stroke-opacity: 0.8; stroke-width: 2; stroke-linecap: round"/>
    </g>
    <g id="text_17">
     <!-- s014_B10 -->
     <g style="fill: #262626" transform="translate(783.107021 111.784305) scale(0.16 -0.16)">
      <defs>
       <path id="CMSS17-42" d="M 570 4416 
L 570 0 
L 2163 0 
C 3034 0 3667 575 3667 1200 
C 3667 1684 3251 2175 2502 2316 
C 3334 2559 3501 3039 3501 3311 
C 3501 3880 2874 4416 1997 4416 
L 570 4416 
z
M 1088 2496 
L 1088 4057 
L 1824 4057 
C 2483 4057 3002 3722 3002 3305 
C 3002 2925 2592 2496 1766 2496 
L 1088 2496 
z
M 1088 358 
L 1088 2105 
L 1939 2105 
C 2630 2105 3162 1678 3162 1206 
C 3162 772 2694 358 1984 358 
L 1088 358 
z
" transform="scale(0.015625)"/>
      </defs>
      <use xlink:href="#CMSS17-73" transform="scale(0.996264)"/>
      <use xlink:href="#CMSS17-30" transform="translate(35.913542 0) scale(0.996264)"/>
      <use xlink:href="#CMSS17-31" transform="translate(82.757166 0) scale(0.996264)"/>
      <use xlink:href="#CMSS17-34" transform="translate(129.600789 0) scale(0.996264)"/>
      <use xlink:href="#CMSS17-42" transform="translate(210.171908 0) scale(0.996264)"/>
      <use xlink:href="#CMSS17-31" transform="translate(272.509948 0) scale(0.996264)"/>
      <use xlink:href="#CMSS17-30" transform="translate(319.353572 0) scale(0.996264)"/>
      <path d="M 182.065424 0 
L 210.171908 0 
L 210.171908 0.3985 
L 182.065424 0.3985 
L 182.065424 0 
z
"/>
     </g>
    </g>
    <g id="line2d_85">
     <path d="M 738.307021 128.483781 
L 754.307021 128.483781 
L 770.307021 128.483781 
" style="fill: none; stroke: #82a931; stroke-opacity: 0.8; stroke-width: 2; stroke-linecap: round"/>
    </g>
    <g id="text_18">
     <!-- s029_C06 -->
     <g style="fill: #262626" transform="translate(783.107021 134.083781) scale(0.16 -0.16)">
      <defs>
       <path id="CMSS17-39" d="M 435 172 
C 614 19 845 -128 1235 -128 
C 2010 -128 2752 738 2752 2136 
C 2752 3987 1952 4288 1523 4288 
C 1094 4288 819 4095 582 3789 
C 301 3438 250 3125 250 2761 
C 250 2327 326 2059 506 1753 
C 749 1356 973 1273 1222 1273 
C 1600 1273 1978 1459 2234 1778 
C 2189 908 1798 268 1235 268 
C 1005 268 819 340 634 516 
L 435 172 
z
M 2214 2774 
C 2221 2729 2221 2646 2221 2621 
C 2221 2085 1914 1664 1466 1664 
C 1171 1664 1018 1817 902 2015 
C 762 2263 755 2506 755 2761 
C 755 3010 755 3284 934 3559 
C 1069 3757 1235 3897 1523 3897 
C 2112 3897 2208 3036 2214 2774 
z
" transform="scale(0.015625)"/>
       <path id="CMSS17-43" d="M 3501 705 
C 3072 416 2874 332 2355 332 
C 1459 332 934 1304 934 2191 
C 934 3137 1472 4070 2381 4070 
C 2790 4070 3059 3954 3386 3748 
L 3475 4255 
C 3168 4409 2778 4480 2387 4480 
C 1158 4480 397 3343 397 2191 
C 397 924 1299 -77 2323 -77 
C 2874 -77 3066 -32 3539 268 
L 3501 705 
z
" transform="scale(0.015625)"/>
      </defs>
      <use xlink:href="#CMSS17-73" transform="scale(0.996264)"/>
      <use xlink:href="#CMSS17-30" transform="translate(35.913542 0) scale(0.996264)"/>
      <use xlink:href="#CMSS17-32" transform="translate(82.757166 0) scale(0.996264)"/>
      <use xlink:href="#CMSS17-39" transform="translate(129.600789 0) scale(0.996264)"/>
      <use xlink:href="#CMSS17-43" transform="translate(210.171908 0) scale(0.996264)"/>
      <use xlink:href="#CMSS17-30" transform="translate(270.027679 0) scale(0.996264)"/>
      <use xlink:href="#CMSS17-36" transform="translate(316.871303 0) scale(0.996264)"/>
      <path d="M 182.065424 0 
L 210.171908 0 
L 210.171908 0.3985 
L 182.065424 0.3985 
L 182.065424 0 
z
"/>
     </g>
    </g>
    <g id="line2d_86">
     <path d="M 738.307021 150.783257 
L 754.307021 150.783257 
L 770.307021 150.783257 
" style="fill: none; stroke: #32b24e; stroke-opacity: 0.8; stroke-width: 2; stroke-linecap: round"/>
    </g>
    <g id="text_19">
     <!-- s044_D03 -->
     <g style="fill: #262626" transform="translate(783.107021 156.383257) scale(0.16 -0.16)">
      <defs>
       <path id="CMSS17-44" d="M 570 4416 
L 570 0 
L 2144 0 
C 3194 0 4000 981 4000 2169 
C 4000 3396 3194 4416 2144 4416 
L 570 4416 
z
M 1094 358 
L 1094 4057 
L 2003 4057 
C 2861 4057 3475 3275 3475 2169 
C 3475 1108 2867 358 2003 358 
L 1094 358 
z
" transform="scale(0.015625)"/>
      </defs>
      <use xlink:href="#CMSS17-73" transform="scale(0.996264)"/>
      <use xlink:href="#CMSS17-30" transform="translate(35.913542 0) scale(0.996264)"/>
      <use xlink:href="#CMSS17-34" transform="translate(82.757166 0) scale(0.996264)"/>
      <use xlink:href="#CMSS17-34" transform="translate(129.600789 0) scale(0.996264)"/>
      <use xlink:href="#CMSS17-44" transform="translate(210.171908 0) scale(0.996264)"/>
      <use xlink:href="#CMSS17-30" transform="translate(277.714749 0) scale(0.996264)"/>
      <use xlink:href="#CMSS17-33" transform="translate(324.558373 0) scale(0.996264)"/>
      <path d="M 182.065424 0 
L 210.171908 0 
L 210.171908 0.3985 
L 182.065424 0.3985 
L 182.065424 0 
z
"/>
     </g>
    </g>
    <g id="line2d_87">
     <path d="M 738.307021 173.082734 
L 754.307021 173.082734 
L 770.307021 173.082734 
" style="fill: none; stroke: #34af8a; stroke-opacity: 0.8; stroke-width: 2; stroke-linecap: round"/>
    </g>
    <g id="text_20">
     <!-- s053_E07 -->
     <g style="fill: #262626" transform="translate(783.107021 178.682734) scale(0.16 -0.16)">
      <defs>
       <path id="CMSS17-45" d="M 1958 435 
C 1446 435 1216 435 1101 428 
L 1101 2105 
L 3085 2105 
L 3085 2496 
L 1101 2496 
L 1101 3993 
L 1926 3993 
C 2003 3993 2080 3987 2157 3987 
L 3251 3987 
L 3251 4403 
L 563 4403 
L 563 0 
L 3334 0 
L 3334 441 
L 1958 435 
z
" transform="scale(0.015625)"/>
       <path id="CMSS17-37" d="M 1389 3788 
C 1466 3788 1542 3795 1619 3795 
L 2355 3795 
C 1440 2715 915 1350 915 -64 
L 1427 -64 
C 1427 1305 1875 2695 2752 3807 
L 2752 4224 
L 250 4224 
L 250 3788 
L 1389 3788 
z
" transform="scale(0.015625)"/>
      </defs>
      <use xlink:href="#CMSS17-73" transform="scale(0.996264)"/>
      <use xlink:href="#CMSS17-30" transform="translate(35.913542 0) scale(0.996264)"/>
      <use xlink:href="#CMSS17-35" transform="translate(82.757166 0) scale(0.996264)"/>
      <use xlink:href="#CMSS17-33" transform="translate(129.600789 0) scale(0.996264)"/>
      <use xlink:href="#CMSS17-45" transform="translate(210.171908 0) scale(0.996264)"/>
      <use xlink:href="#CMSS17-30" transform="translate(266.063921 0) scale(0.996264)"/>
      <use xlink:href="#CMSS17-37" transform="translate(312.907545 0) scale(0.996264)"/>
      <path d="M 182.065424 0 
L 210.171908 0 
L 210.171908 0.3985 
L 182.065424 0.3985 
L 182.065424 0 
z
"/>
     </g>
    </g>
    <g id="line2d_88">
     <path d="M 738.307021 195.38221 
L 754.307021 195.38221 
L 770.307021 195.38221 
" style="fill: none; stroke: #36ada4; stroke-opacity: 0.8; stroke-width: 2; stroke-linecap: round"/>
    </g>
    <g id="text_21">
     <!-- s055_E09 -->
     <g style="fill: #262626" transform="translate(783.107021 200.98221) scale(0.16 -0.16)">
      <use xlink:href="#CMSS17-73" transform="scale(0.996264)"/>
      <use xlink:href="#CMSS17-30" transform="translate(35.913542 0) scale(0.996264)"/>
      <use xlink:href="#CMSS17-35" transform="translate(82.757166 0) scale(0.996264)"/>
      <use xlink:href="#CMSS17-35" transform="translate(129.600789 0) scale(0.996264)"/>
      <use xlink:href="#CMSS17-45" transform="translate(210.171908 0) scale(0.996264)"/>
      <use xlink:href="#CMSS17-30" transform="translate(266.063921 0) scale(0.996264)"/>
      <use xlink:href="#CMSS17-39" transform="translate(312.907545 0) scale(0.996264)"/>
      <path d="M 182.065424 0 
L 210.171908 0 
L 210.171908 0.3985 
L 182.065424 0.3985 
L 182.065424 0 
z
"/>
     </g>
    </g>
    <g id="line2d_89">
     <path d="M 738.307021 217.681686 
L 754.307021 217.681686 
L 770.307021 217.681686 
" style="fill: none; stroke: #37aabb; stroke-opacity: 0.8; stroke-width: 2; stroke-linecap: round"/>
    </g>
    <g id="text_22">
     <!-- s064_F07 -->
     <g style="fill: #262626" transform="translate(783.107021 223.281686) scale(0.16 -0.16)">
      <defs>
       <path id="CMSS17-46" d="M 2918 1984 
L 2918 2374 
L 1101 2374 
L 1101 3993 
L 1882 3993 
C 1958 3993 2035 3987 2112 3987 
L 3168 3987 
L 3168 4403 
L 563 4403 
L 563 0 
L 1101 0 
L 1101 1984 
L 2918 1984 
z
" transform="scale(0.015625)"/>
      </defs>
      <use xlink:href="#CMSS17-73" transform="scale(0.996264)"/>
      <use xlink:href="#CMSS17-30" transform="translate(35.913542 0) scale(0.996264)"/>
      <use xlink:href="#CMSS17-36" transform="translate(82.757166 0) scale(0.996264)"/>
      <use xlink:href="#CMSS17-34" transform="translate(129.600789 0) scale(0.996264)"/>
      <use xlink:href="#CMSS17-46" transform="translate(210.171908 0) scale(0.996264)"/>
      <use xlink:href="#CMSS17-30" transform="translate(263.461467 0) scale(0.996264)"/>
      <use xlink:href="#CMSS17-37" transform="translate(310.305091 0) scale(0.996264)"/>
      <path d="M 182.065424 0 
L 210.171908 0 
L 210.171908 0.3985 
L 182.065424 0.3985 
L 182.065424 0 
z
"/>
     </g>
    </g>
    <g id="line2d_90">
     <path d="M 738.307021 239.981162 
L 754.307021 239.981162 
L 770.307021 239.981162 
" style="fill: none; stroke: #3aa6da; stroke-opacity: 0.8; stroke-width: 2; stroke-linecap: round"/>
    </g>
    <g id="text_23">
     <!-- s065_F06 -->
     <g style="fill: #262626" transform="translate(783.107021 245.581162) scale(0.16 -0.16)">
      <use xlink:href="#CMSS17-73" transform="scale(0.996264)"/>
      <use xlink:href="#CMSS17-30" transform="translate(35.913542 0) scale(0.996264)"/>
      <use xlink:href="#CMSS17-36" transform="translate(82.757166 0) scale(0.996264)"/>
      <use xlink:href="#CMSS17-35" transform="translate(129.600789 0) scale(0.996264)"/>
      <use xlink:href="#CMSS17-46" transform="translate(210.171908 0) scale(0.996264)"/>
      <use xlink:href="#CMSS17-30" transform="translate(263.461467 0) scale(0.996264)"/>
      <use xlink:href="#CMSS17-36" transform="translate(310.305091 0) scale(0.996264)"/>
      <path d="M 182.065424 0 
L 210.171908 0 
L 210.171908 0.3985 
L 182.065424 0.3985 
L 182.065424 0 
z
"/>
     </g>
    </g>
    <g id="line2d_91">
     <path d="M 738.307021 262.280639 
L 754.307021 262.280639 
L 770.307021 262.280639 
" style="fill: none; stroke: #8197f4; stroke-opacity: 0.8; stroke-width: 2; stroke-linecap: round"/>
    </g>
    <g id="text_24">
     <!-- s077_G08 -->
     <g style="fill: #262626" transform="translate(783.107021 267.880639) scale(0.16 -0.16)">
      <defs>
       <path id="CMSS17-47" d="M 3610 1868 
L 2336 1868 
L 2336 1472 
L 3123 1472 
L 3123 473 
C 2874 403 2618 352 2362 352 
C 1466 352 934 1311 934 2220 
C 934 3123 1491 4070 2362 4070 
C 2854 4070 3130 3916 3469 3660 
L 3552 4172 
C 3130 4390 2867 4480 2387 4480 
C 1146 4480 397 3353 397 2201 
C 397 1100 1152 -64 2349 -64 
C 2797 -64 3213 51 3610 249 
L 3610 1868 
z
" transform="scale(0.015625)"/>
       <path id="CMSS17-38" d="M 1933 2246 
C 2419 2406 2669 2793 2669 3174 
C 2669 3774 2157 4288 1504 4288 
C 826 4288 333 3755 333 3174 
C 333 2799 576 2412 1069 2246 
C 442 2003 250 1516 250 1152 
C 250 448 819 -128 1498 -128 
C 2202 -128 2752 460 2752 1152 
C 2752 1574 2502 2022 1933 2246 
z
M 1504 2438 
C 1075 2438 787 2728 787 3167 
C 787 3613 1075 3897 1504 3897 
C 1901 3897 2214 3639 2214 3167 
C 2214 2703 1907 2438 1504 2438 
z
M 1504 268 
C 1139 268 749 518 749 1158 
C 749 1817 1184 2048 1498 2048 
C 1843 2048 2253 1804 2253 1158 
C 2253 492 1830 268 1504 268 
z
" transform="scale(0.015625)"/>
      </defs>
      <use xlink:href="#CMSS17-73" transform="scale(0.996264)"/>
      <use xlink:href="#CMSS17-30" transform="translate(35.913542 0) scale(0.996264)"/>
      <use xlink:href="#CMSS17-37" transform="translate(82.757166 0) scale(0.996264)"/>
      <use xlink:href="#CMSS17-37" transform="translate(129.600789 0) scale(0.996264)"/>
      <use xlink:href="#CMSS17-47" transform="translate(210.171908 0) scale(0.996264)"/>
      <use xlink:href="#CMSS17-30" transform="translate(272.630133 0) scale(0.996264)"/>
      <use xlink:href="#CMSS17-38" transform="translate(319.473757 0) scale(0.996264)"/>
      <path d="M 182.065424 0 
L 210.171908 0 
L 210.171908 0.3985 
L 182.065424 0.3985 
L 182.065424 0 
z
"/>
     </g>
    </g>
    <g id="line2d_92">
     <path d="M 738.307021 284.580115 
L 754.307021 284.580115 
L 770.307021 284.580115 
" style="fill: none; stroke: #c180f4; stroke-opacity: 0.8; stroke-width: 2; stroke-linecap: round"/>
    </g>
    <g id="text_25">
     <!-- s080_G11 -->
     <g style="fill: #262626" transform="translate(783.107021 290.180115) scale(0.16 -0.16)">
      <use xlink:href="#CMSS17-73" transform="scale(0.996264)"/>
      <use xlink:href="#CMSS17-30" transform="translate(35.913542 0) scale(0.996264)"/>
      <use xlink:href="#CMSS17-38" transform="translate(82.757166 0) scale(0.996264)"/>
      <use xlink:href="#CMSS17-30" transform="translate(129.600789 0) scale(0.996264)"/>
      <use xlink:href="#CMSS17-47" transform="translate(210.171908 0) scale(0.996264)"/>
      <use xlink:href="#CMSS17-31" transform="translate(272.630133 0) scale(0.996264)"/>
      <use xlink:href="#CMSS17-31" transform="translate(319.473757 0) scale(0.996264)"/>
      <path d="M 182.065424 0 
L 210.171908 0 
L 210.171908 0.3985 
L 182.065424 0.3985 
L 182.065424 0 
z
"/>
     </g>
    </g>
    <g id="line2d_93">
     <path d="M 738.307021 306.879591 
L 754.307021 306.879591 
L 770.307021 306.879591 
" style="fill: none; stroke: #f45deb; stroke-opacity: 0.8; stroke-width: 2; stroke-linecap: round"/>
    </g>
    <g id="text_26">
     <!-- s081_G12 -->
     <g style="fill: #262626" transform="translate(783.107021 312.479591) scale(0.16 -0.16)">
      <use xlink:href="#CMSS17-73" transform="scale(0.996264)"/>
      <use xlink:href="#CMSS17-30" transform="translate(35.913542 0) scale(0.996264)"/>
      <use xlink:href="#CMSS17-38" transform="translate(82.757166 0) scale(0.996264)"/>
      <use xlink:href="#CMSS17-31" transform="translate(129.600789 0) scale(0.996264)"/>
      <use xlink:href="#CMSS17-47" transform="translate(210.171908 0) scale(0.996264)"/>
      <use xlink:href="#CMSS17-31" transform="translate(272.630133 0) scale(0.996264)"/>
      <use xlink:href="#CMSS17-32" transform="translate(319.473757 0) scale(0.996264)"/>
      <path d="M 182.065424 0 
L 210.171908 0 
L 210.171908 0.3985 
L 182.065424 0.3985 
L 182.065424 0 
z
"/>
     </g>
    </g>
    <g id="line2d_94">
     <path d="M 738.307021 329.179067 
L 754.307021 329.179067 
L 770.307021 329.179067 
" style="fill: none; stroke: #f669ba; stroke-opacity: 0.8; stroke-width: 2; stroke-linecap: round"/>
    </g>
    <g id="text_27">
     <!-- s091_H03 -->
     <g style="fill: #262626" transform="translate(783.107021 334.779067) scale(0.16 -0.16)">
      <defs>
       <path id="CMSS17-48" d="M 3674 4416 
L 3136 4416 
L 3136 2496 
L 1101 2496 
L 1101 4416 
L 563 4416 
L 563 0 
L 1101 0 
L 1101 2105 
L 3136 2105 
L 3136 0 
L 3674 0 
L 3674 4416 
z
" transform="scale(0.015625)"/>
      </defs>
      <use xlink:href="#CMSS17-73" transform="scale(0.996264)"/>
      <use xlink:href="#CMSS17-30" transform="translate(35.913542 0) scale(0.996264)"/>
      <use xlink:href="#CMSS17-39" transform="translate(82.757166 0) scale(0.996264)"/>
      <use xlink:href="#CMSS17-31" transform="translate(129.600789 0) scale(0.996264)"/>
      <use xlink:href="#CMSS17-48" transform="translate(210.171908 0) scale(0.996264)"/>
      <use xlink:href="#CMSS17-30" transform="translate(276.233427 0) scale(0.996264)"/>
      <use xlink:href="#CMSS17-33" transform="translate(323.077051 0) scale(0.996264)"/>
      <path d="M 182.065424 0 
L 210.171908 0 
L 210.171908 0.3985 
L 182.065424 0.3985 
L 182.065424 0 
z
"/>
     </g>
    </g>
    <g id="line2d_95">
     <path d="M 738.307021 351.478543 
L 754.307021 351.478543 
L 770.307021 351.478543 
" style="fill: none; stroke: #000000; stroke-opacity: 0.8; stroke-width: 2; stroke-linecap: round"/>
    </g>
    <g id="text_28">
     <!-- Mean -->
     <g style="fill: #262626" transform="translate(783.107021 357.078543) scale(0.16 -0.16)">
      <defs>
       <path id="CMSS17-4d" d="M 3194 2373 
L 2886 1476 
C 2835 1311 2662 795 2624 592 
L 2618 592 
C 2598 719 2560 853 2458 1177 
C 2400 1368 2336 1565 2272 1743 
L 1325 4416 
L 576 4416 
L 576 0 
L 1075 0 
L 1075 3899 
L 1082 3899 
C 1082 3893 1139 3613 1530 2500 
L 2374 102 
L 2848 102 
L 3610 2233 
C 3661 2379 3821 2843 3891 3066 
C 3955 3257 4115 3728 4154 3912 
L 4160 3912 
L 4160 0 
L 4666 0 
L 4666 4416 
L 3923 4416 
L 3194 2373 
z
" transform="scale(0.015625)"/>
      </defs>
      <use xlink:href="#CMSS17-4d" transform="scale(0.996264)"/>
      <use xlink:href="#CMSS17-65" transform="translate(81.67603 0) scale(0.996264)"/>
      <use xlink:href="#CMSS17-61" transform="translate(123.314852 0) scale(0.996264)"/>
      <use xlink:href="#CMSS17-6e" transform="translate(168.236773 0) scale(0.996264)"/>
     </g>
    </g>
   </g>
  </g>
 </g>
 <defs>
  <clipPath id="pa54c32bef1">
   <rect x="44.448487" y="19.285876" width="647.103366" height="509.398314"/>
  </clipPath>
 </defs>
</svg>
