<?xml version="1.0" encoding="utf-8" standalone="no"?>
<!DOCTYPE svg PUBLIC "-//W3C//DTD SVG 1.1//EN"
  "http://www.w3.org/Graphics/SVG/1.1/DTD/svg11.dtd">
<svg xmlns:xlink="http://www.w3.org/1999/xlink" width="855.223833pt" height="568.08pt" viewBox="0 0 855.223833 568.08" xmlns="http://www.w3.org/2000/svg" version="1.1">
 <metadata>
  <rdf:RDF xmlns:dc="http://purl.org/dc/elements/1.1/" xmlns:cc="http://creativecommons.org/ns#" xmlns:rdf="http://www.w3.org/1999/02/22-rdf-syntax-ns#">
   <cc:Work>
    <dc:type rdf:resource="http://purl.org/dc/dcmitype/StillImage"/>
    <dc:date>2025-08-21T11:06:57.809278</dc:date>
    <dc:format>image/svg+xml</dc:format>
    <dc:creator>
     <cc:Agent>
      <dc:title>Matplotlib v3.10.0, https://matplotlib.org/</dc:title>
     </cc:Agent>
    </dc:creator>
   </cc:Work>
  </rdf:RDF>
 </metadata>
 <defs>
  <style type="text/css">*{stroke-linejoin: round; stroke-linecap: butt}</style>
 </defs>
 <g id="figure_1">
  <g id="patch_1">
   <path d="M 0 568.08 
L 855.223833 568.08 
L 855.223833 0 
L 0 0 
z
" style="fill: #ffffff"/>
  </g>
  <g id="axes_1">
   <g id="patch_2">
    <path d="M 33.826393 528.68419 
L 686.303057 528.68419 
L 686.303057 19.285876 
L 33.826393 19.285876 
z
" style="fill: #ffffff"/>
   </g>
   <g id="matplotlib.axis_1">
    <g id="xtick_1">
     <g id="line2d_1">
      <defs>
       <path id="ma1b40f55b3" d="M 0 0 
L 0 3.5 
" style="stroke: #262626; stroke-width: 1.5"/>
      </defs>
      <g>
       <use xlink:href="#ma1b40f55b3" x="63.484424" y="528.68419" style="fill: #262626; stroke: #262626; stroke-width: 1.5"/>
      </g>
     </g>
     <g id="text_1">
      <!-- $\mathdefault{0}$ -->
      <g style="fill: #262626" transform="translate(60.070179 545.370067) scale(0.14 -0.14)">
       <defs>
        <path id="CMSS17-30" d="M 2758 2073 
C 2758 2439 2752 3120 2490 3647 
C 2227 4153 1805 4288 1504 4288 
C 1069 4288 698 4031 506 3621 
C 301 3191 243 2748 243 2073 
C 243 1611 262 1046 493 551 
C 755 6 1197 -128 1498 -128 
C 1894 -128 2278 83 2496 525 
C 2720 988 2758 1495 2758 2073 
z
M 1498 262 
C 1011 262 864 821 819 1007 
C 742 1328 730 1636 730 2144 
C 730 2542 730 2992 851 3345 
C 998 3756 1254 3897 1498 3897 
C 1971 3897 2125 3422 2176 3255 
C 2272 2915 2272 2516 2272 2144 
C 2272 1546 2272 262 1498 262 
z
" transform="scale(0.015625)"/>
       </defs>
       <use xlink:href="#CMSS17-30" transform="scale(0.996264)"/>
      </g>
     </g>
    </g>
    <g id="xtick_2">
     <g id="line2d_2">
      <g>
       <use xlink:href="#ma1b40f55b3" x="187.059549" y="528.68419" style="fill: #262626; stroke: #262626; stroke-width: 1.5"/>
      </g>
     </g>
     <g id="text_2">
      <!-- $\mathdefault{10}$ -->
      <g style="fill: #262626" transform="translate(180.231061 545.370067) scale(0.14 -0.14)">
       <defs>
        <path id="CMSS17-31" d="M 1818 4288 
L 1696 4288 
C 1350 3949 947 3902 538 3891 
L 538 3520 
C 723 3526 1024 3539 1325 3673 
L 1325 371 
L 570 371 
L 570 0 
L 2573 0 
L 2573 371 
L 1818 371 
L 1818 4288 
z
" transform="scale(0.015625)"/>
       </defs>
       <use xlink:href="#CMSS17-31" transform="scale(0.996264)"/>
       <use xlink:href="#CMSS17-30" transform="translate(46.843624 0) scale(0.996264)"/>
      </g>
     </g>
    </g>
    <g id="xtick_3">
     <g id="line2d_3">
      <g>
       <use xlink:href="#ma1b40f55b3" x="310.634675" y="528.68419" style="fill: #262626; stroke: #262626; stroke-width: 1.5"/>
      </g>
     </g>
     <g id="text_3">
      <!-- $\mathdefault{20}$ -->
      <g style="fill: #262626" transform="translate(303.806186 545.370067) scale(0.14 -0.14)">
       <defs>
        <path id="CMSS17-32" d="M 1651 1353 
C 1830 1538 2099 1761 2285 1984 
C 2464 2201 2701 2507 2701 2953 
C 2701 3655 2227 4288 1421 4288 
C 787 4288 422 3891 250 3272 
L 499 2928 
C 640 3508 838 3878 1338 3878 
C 1888 3878 2195 3431 2195 2940 
C 2195 2354 1747 1901 1408 1563 
C 1030 1187 659 805 301 409 
L 301 0 
L 2701 0 
L 2701 435 
L 1613 435 
C 1536 435 1459 428 1382 428 
L 742 428 
L 742 435 
L 1651 1353 
z
" transform="scale(0.015625)"/>
       </defs>
       <use xlink:href="#CMSS17-32" transform="scale(0.996264)"/>
       <use xlink:href="#CMSS17-30" transform="translate(46.843624 0) scale(0.996264)"/>
      </g>
     </g>
    </g>
    <g id="xtick_4">
     <g id="line2d_4">
      <g>
       <use xlink:href="#ma1b40f55b3" x="434.209801" y="528.68419" style="fill: #262626; stroke: #262626; stroke-width: 1.5"/>
      </g>
     </g>
     <g id="text_4">
      <!-- $\mathdefault{30}$ -->
      <g style="fill: #262626" transform="translate(427.381312 545.370067) scale(0.14 -0.14)">
       <defs>
        <path id="CMSS17-33" d="M 1005 2060 
L 1440 2060 
C 2042 2060 2214 1532 2214 1164 
C 2214 662 1933 268 1472 268 
C 1114 268 608 449 320 926 
C 275 700 275 687 250 533 
C 550 89 1037 -128 1485 -128 
C 2214 -128 2752 481 2752 1158 
C 2752 1667 2400 2092 1920 2252 
C 2304 2463 2586 2860 2586 3321 
C 2586 3859 2093 4288 1491 4288 
C 941 4288 512 3948 333 3583 
C 378 3519 493 3334 550 3238 
C 691 3615 1056 3897 1485 3897 
C 1843 3897 2080 3660 2080 3321 
C 2080 2969 1856 2585 1478 2496 
C 1453 2496 1056 2457 1005 2451 
L 1005 2060 
z
" transform="scale(0.015625)"/>
       </defs>
       <use xlink:href="#CMSS17-33" transform="scale(0.996264)"/>
       <use xlink:href="#CMSS17-30" transform="translate(46.843624 0) scale(0.996264)"/>
      </g>
     </g>
    </g>
    <g id="xtick_5">
     <g id="line2d_5">
      <g>
       <use xlink:href="#ma1b40f55b3" x="557.784926" y="528.68419" style="fill: #262626; stroke: #262626; stroke-width: 1.5"/>
      </g>
     </g>
     <g id="text_5">
      <!-- $\mathdefault{40}$ -->
      <g style="fill: #262626" transform="translate(550.956438 545.370067) scale(0.14 -0.14)">
       <defs>
        <path id="CMSS17-34" d="M 2253 1088 
L 2835 1088 
L 2835 1478 
L 2253 1478 
L 2253 4224 
L 1690 4224 
L 166 1478 
L 166 1088 
L 1747 1088 
L 1747 0 
L 2253 0 
L 2253 1088 
z
M 659 1478 
C 1030 2139 1766 3474 1766 3927 
L 1766 1478 
L 659 1478 
z
" transform="scale(0.015625)"/>
       </defs>
       <use xlink:href="#CMSS17-34" transform="scale(0.996264)"/>
       <use xlink:href="#CMSS17-30" transform="translate(46.843624 0) scale(0.996264)"/>
      </g>
     </g>
    </g>
    <g id="xtick_6">
     <g id="line2d_6">
      <g>
       <use xlink:href="#ma1b40f55b3" x="681.360052" y="528.68419" style="fill: #262626; stroke: #262626; stroke-width: 1.5"/>
      </g>
     </g>
     <g id="text_6">
      <!-- $\mathdefault{50}$ -->
      <g style="fill: #262626" transform="translate(674.531563 545.370067) scale(0.14 -0.14)">
       <defs>
        <path id="CMSS17-35" d="M 934 3814 
L 2502 3814 
L 2502 4224 
L 467 4224 
L 467 1830 
L 896 1830 
C 1011 2103 1248 2304 1555 2304 
C 1843 2304 2163 2044 2163 1299 
C 2163 502 1709 268 1376 268 
C 966 268 589 521 422 871 
L 218 508 
C 512 51 992 -128 1376 -128 
C 2118 -128 2701 508 2701 1286 
C 2701 2083 2182 2694 1562 2694 
C 1338 2694 1120 2617 934 2464 
L 934 3814 
z
" transform="scale(0.015625)"/>
       </defs>
       <use xlink:href="#CMSS17-35" transform="scale(0.996264)"/>
       <use xlink:href="#CMSS17-30" transform="translate(46.843624 0) scale(0.996264)"/>
      </g>
     </g>
    </g>
    <g id="xtick_7">
     <g id="line2d_7">
      <defs>
       <path id="m5c72f2dc6c" d="M 0 0 
L 0 2.5 
" style="stroke: #262626; stroke-width: 1.5"/>
      </defs>
      <g>
       <use xlink:href="#m5c72f2dc6c" x="38.769398" y="528.68419" style="fill: #262626; stroke: #262626; stroke-width: 1.5"/>
      </g>
     </g>
    </g>
    <g id="xtick_8">
     <g id="line2d_8">
      <g>
       <use xlink:href="#m5c72f2dc6c" x="88.199449" y="528.68419" style="fill: #262626; stroke: #262626; stroke-width: 1.5"/>
      </g>
     </g>
    </g>
    <g id="xtick_9">
     <g id="line2d_9">
      <g>
       <use xlink:href="#m5c72f2dc6c" x="112.914474" y="528.68419" style="fill: #262626; stroke: #262626; stroke-width: 1.5"/>
      </g>
     </g>
    </g>
    <g id="xtick_10">
     <g id="line2d_10">
      <g>
       <use xlink:href="#m5c72f2dc6c" x="137.629499" y="528.68419" style="fill: #262626; stroke: #262626; stroke-width: 1.5"/>
      </g>
     </g>
    </g>
    <g id="xtick_11">
     <g id="line2d_11">
      <g>
       <use xlink:href="#m5c72f2dc6c" x="162.344524" y="528.68419" style="fill: #262626; stroke: #262626; stroke-width: 1.5"/>
      </g>
     </g>
    </g>
    <g id="xtick_12">
     <g id="line2d_12">
      <g>
       <use xlink:href="#m5c72f2dc6c" x="211.774574" y="528.68419" style="fill: #262626; stroke: #262626; stroke-width: 1.5"/>
      </g>
     </g>
    </g>
    <g id="xtick_13">
     <g id="line2d_13">
      <g>
       <use xlink:href="#m5c72f2dc6c" x="236.4896" y="528.68419" style="fill: #262626; stroke: #262626; stroke-width: 1.5"/>
      </g>
     </g>
    </g>
    <g id="xtick_14">
     <g id="line2d_14">
      <g>
       <use xlink:href="#m5c72f2dc6c" x="261.204625" y="528.68419" style="fill: #262626; stroke: #262626; stroke-width: 1.5"/>
      </g>
     </g>
    </g>
    <g id="xtick_15">
     <g id="line2d_15">
      <g>
       <use xlink:href="#m5c72f2dc6c" x="285.91965" y="528.68419" style="fill: #262626; stroke: #262626; stroke-width: 1.5"/>
      </g>
     </g>
    </g>
    <g id="xtick_16">
     <g id="line2d_16">
      <g>
       <use xlink:href="#m5c72f2dc6c" x="335.3497" y="528.68419" style="fill: #262626; stroke: #262626; stroke-width: 1.5"/>
      </g>
     </g>
    </g>
    <g id="xtick_17">
     <g id="line2d_17">
      <g>
       <use xlink:href="#m5c72f2dc6c" x="360.064725" y="528.68419" style="fill: #262626; stroke: #262626; stroke-width: 1.5"/>
      </g>
     </g>
    </g>
    <g id="xtick_18">
     <g id="line2d_18">
      <g>
       <use xlink:href="#m5c72f2dc6c" x="384.77975" y="528.68419" style="fill: #262626; stroke: #262626; stroke-width: 1.5"/>
      </g>
     </g>
    </g>
    <g id="xtick_19">
     <g id="line2d_19">
      <g>
       <use xlink:href="#m5c72f2dc6c" x="409.494776" y="528.68419" style="fill: #262626; stroke: #262626; stroke-width: 1.5"/>
      </g>
     </g>
    </g>
    <g id="xtick_20">
     <g id="line2d_20">
      <g>
       <use xlink:href="#m5c72f2dc6c" x="458.924826" y="528.68419" style="fill: #262626; stroke: #262626; stroke-width: 1.5"/>
      </g>
     </g>
    </g>
    <g id="xtick_21">
     <g id="line2d_21">
      <g>
       <use xlink:href="#m5c72f2dc6c" x="483.639851" y="528.68419" style="fill: #262626; stroke: #262626; stroke-width: 1.5"/>
      </g>
     </g>
    </g>
    <g id="xtick_22">
     <g id="line2d_22">
      <g>
       <use xlink:href="#m5c72f2dc6c" x="508.354876" y="528.68419" style="fill: #262626; stroke: #262626; stroke-width: 1.5"/>
      </g>
     </g>
    </g>
    <g id="xtick_23">
     <g id="line2d_23">
      <g>
       <use xlink:href="#m5c72f2dc6c" x="533.069901" y="528.68419" style="fill: #262626; stroke: #262626; stroke-width: 1.5"/>
      </g>
     </g>
    </g>
    <g id="xtick_24">
     <g id="line2d_24">
      <g>
       <use xlink:href="#m5c72f2dc6c" x="582.499951" y="528.68419" style="fill: #262626; stroke: #262626; stroke-width: 1.5"/>
      </g>
     </g>
    </g>
    <g id="xtick_25">
     <g id="line2d_25">
      <g>
       <use xlink:href="#m5c72f2dc6c" x="607.214977" y="528.68419" style="fill: #262626; stroke: #262626; stroke-width: 1.5"/>
      </g>
     </g>
    </g>
    <g id="xtick_26">
     <g id="line2d_26">
      <g>
       <use xlink:href="#m5c72f2dc6c" x="631.930002" y="528.68419" style="fill: #262626; stroke: #262626; stroke-width: 1.5"/>
      </g>
     </g>
    </g>
    <g id="xtick_27">
     <g id="line2d_27">
      <g>
       <use xlink:href="#m5c72f2dc6c" x="656.645027" y="528.68419" style="fill: #262626; stroke: #262626; stroke-width: 1.5"/>
      </g>
     </g>
    </g>
    <g id="text_7">
     <!-- Time -->
     <g style="fill: #262626" transform="translate(345.366548 561.767972) scale(0.14 -0.14)">
      <defs>
       <path id="CMSS17-54" d="M 2317 3987 
L 2848 3987 
C 2925 3987 3002 3980 3078 3980 
L 3878 3980 
L 3878 4396 
L 218 4396 
L 218 3980 
L 1018 3980 
C 1094 3980 1171 3987 1248 3987 
L 1779 3987 
L 1779 0 
L 2317 0 
L 2317 3987 
z
" transform="scale(0.015625)"/>
       <path id="CMSS17-69" d="M 979 4224 
L 442 4224 
L 442 3686 
L 979 3686 
L 979 4224 
z
M 947 2752 
L 474 2752 
L 474 0 
L 947 0 
L 947 2752 
z
" transform="scale(0.015625)"/>
       <path id="CMSS17-6d" d="M 4288 1878 
C 4288 2309 4179 2816 3462 2816 
C 2982 2816 2694 2515 2566 2328 
C 2451 2668 2182 2816 1798 2816 
C 1363 2816 1088 2566 941 2386 
L 941 2783 
L 474 2783 
L 474 0 
L 960 0 
L 960 1556 
C 960 1936 1101 2425 1555 2425 
C 2138 2425 2138 2013 2138 1826 
L 2138 0 
L 2624 0 
L 2624 1556 
C 2624 1936 2765 2425 3219 2425 
C 3802 2425 3802 2013 3802 1826 
L 3802 0 
L 4288 0 
L 4288 1878 
z
" transform="scale(0.015625)"/>
       <path id="CMSS17-65" d="M 2502 1375 
C 2502 1587 2490 2001 2285 2347 
C 2061 2713 1696 2816 1421 2816 
C 755 2816 192 2184 192 1363 
C 192 579 774 -64 1510 -64 
C 1798 -64 2150 19 2470 249 
C 2470 275 2458 414 2451 421 
C 2451 433 2432 629 2432 655 
C 2125 408 1773 326 1517 326 
C 1107 326 666 667 646 1375 
L 2502 1375 
z
M 698 1728 
C 781 2086 1062 2425 1421 2425 
C 1517 2425 1965 2412 2080 1728 
L 698 1728 
z
" transform="scale(0.015625)"/>
      </defs>
      <use xlink:href="#CMSS17-54" transform="scale(0.996264)"/>
      <use xlink:href="#CMSS17-69" transform="translate(63.819454 0) scale(0.996264)"/>
      <use xlink:href="#CMSS17-6d" transform="translate(86.000177 0) scale(0.996264)"/>
      <use xlink:href="#CMSS17-65" transform="translate(160.229431 0) scale(0.996264)"/>
     </g>
    </g>
   </g>
   <g id="matplotlib.axis_2">
    <g id="ytick_1">
     <g id="line2d_28">
      <defs>
       <path id="m9d733f4388" d="M 0 0 
L -3.5 0 
" style="stroke: #262626; stroke-width: 1.5"/>
      </defs>
      <g>
       <use xlink:href="#m9d733f4388" x="33.826393" y="505.529722" style="fill: #262626; stroke: #262626; stroke-width: 1.5"/>
      </g>
     </g>
     <g id="text_8">
      <!-- $\mathdefault{0}$ -->
      <g style="fill: #262626" transform="translate(19.997905 510.37266) scale(0.14 -0.14)">
       <use xlink:href="#CMSS17-30" transform="scale(0.996264)"/>
      </g>
     </g>
    </g>
    <g id="ytick_2">
     <g id="line2d_29">
      <g>
       <use xlink:href="#m9d733f4388" x="33.826393" y="412.138898" style="fill: #262626; stroke: #262626; stroke-width: 1.5"/>
      </g>
     </g>
     <g id="text_9">
      <!-- $\mathdefault{1}$ -->
      <g style="fill: #262626" transform="translate(19.997905 416.981836) scale(0.14 -0.14)">
       <use xlink:href="#CMSS17-31" transform="scale(0.996264)"/>
      </g>
     </g>
    </g>
    <g id="ytick_3">
     <g id="line2d_30">
      <g>
       <use xlink:href="#m9d733f4388" x="33.826393" y="318.748074" style="fill: #262626; stroke: #262626; stroke-width: 1.5"/>
      </g>
     </g>
     <g id="text_10">
      <!-- $\mathdefault{2}$ -->
      <g style="fill: #262626" transform="translate(19.997905 323.591012) scale(0.14 -0.14)">
       <use xlink:href="#CMSS17-32" transform="scale(0.996264)"/>
      </g>
     </g>
    </g>
    <g id="ytick_4">
     <g id="line2d_31">
      <g>
       <use xlink:href="#m9d733f4388" x="33.826393" y="225.35725" style="fill: #262626; stroke: #262626; stroke-width: 1.5"/>
      </g>
     </g>
     <g id="text_11">
      <!-- $\mathdefault{3}$ -->
      <g style="fill: #262626" transform="translate(19.997905 230.200188) scale(0.14 -0.14)">
       <use xlink:href="#CMSS17-33" transform="scale(0.996264)"/>
      </g>
     </g>
    </g>
    <g id="ytick_5">
     <g id="line2d_32">
      <g>
       <use xlink:href="#m9d733f4388" x="33.826393" y="131.966426" style="fill: #262626; stroke: #262626; stroke-width: 1.5"/>
      </g>
     </g>
     <g id="text_12">
      <!-- $\mathdefault{4}$ -->
      <g style="fill: #262626" transform="translate(19.997905 136.809364) scale(0.14 -0.14)">
       <use xlink:href="#CMSS17-34" transform="scale(0.996264)"/>
      </g>
     </g>
    </g>
    <g id="ytick_6">
     <g id="line2d_33">
      <g>
       <use xlink:href="#m9d733f4388" x="33.826393" y="38.575602" style="fill: #262626; stroke: #262626; stroke-width: 1.5"/>
      </g>
     </g>
     <g id="text_13">
      <!-- $\mathdefault{5}$ -->
      <g style="fill: #262626" transform="translate(19.997905 43.41854) scale(0.14 -0.14)">
       <use xlink:href="#CMSS17-35" transform="scale(0.996264)"/>
      </g>
     </g>
    </g>
    <g id="ytick_7">
     <g id="line2d_34">
      <defs>
       <path id="m3926631170" d="M 0 0 
L -2.5 0 
" style="stroke: #262626; stroke-width: 1.5"/>
      </defs>
      <g>
       <use xlink:href="#m3926631170" x="33.826393" y="524.207886" style="fill: #262626; stroke: #262626; stroke-width: 1.5"/>
      </g>
     </g>
    </g>
    <g id="ytick_8">
     <g id="line2d_35">
      <g>
       <use xlink:href="#m3926631170" x="33.826393" y="486.851557" style="fill: #262626; stroke: #262626; stroke-width: 1.5"/>
      </g>
     </g>
    </g>
    <g id="ytick_9">
     <g id="line2d_36">
      <g>
       <use xlink:href="#m3926631170" x="33.826393" y="468.173392" style="fill: #262626; stroke: #262626; stroke-width: 1.5"/>
      </g>
     </g>
    </g>
    <g id="ytick_10">
     <g id="line2d_37">
      <g>
       <use xlink:href="#m3926631170" x="33.826393" y="449.495227" style="fill: #262626; stroke: #262626; stroke-width: 1.5"/>
      </g>
     </g>
    </g>
    <g id="ytick_11">
     <g id="line2d_38">
      <g>
       <use xlink:href="#m3926631170" x="33.826393" y="430.817062" style="fill: #262626; stroke: #262626; stroke-width: 1.5"/>
      </g>
     </g>
    </g>
    <g id="ytick_12">
     <g id="line2d_39">
      <g>
       <use xlink:href="#m3926631170" x="33.826393" y="393.460733" style="fill: #262626; stroke: #262626; stroke-width: 1.5"/>
      </g>
     </g>
    </g>
    <g id="ytick_13">
     <g id="line2d_40">
      <g>
       <use xlink:href="#m3926631170" x="33.826393" y="374.782568" style="fill: #262626; stroke: #262626; stroke-width: 1.5"/>
      </g>
     </g>
    </g>
    <g id="ytick_14">
     <g id="line2d_41">
      <g>
       <use xlink:href="#m3926631170" x="33.826393" y="356.104403" style="fill: #262626; stroke: #262626; stroke-width: 1.5"/>
      </g>
     </g>
    </g>
    <g id="ytick_15">
     <g id="line2d_42">
      <g>
       <use xlink:href="#m3926631170" x="33.826393" y="337.426239" style="fill: #262626; stroke: #262626; stroke-width: 1.5"/>
      </g>
     </g>
    </g>
    <g id="ytick_16">
     <g id="line2d_43">
      <g>
       <use xlink:href="#m3926631170" x="33.826393" y="300.069909" style="fill: #262626; stroke: #262626; stroke-width: 1.5"/>
      </g>
     </g>
    </g>
    <g id="ytick_17">
     <g id="line2d_44">
      <g>
       <use xlink:href="#m3926631170" x="33.826393" y="281.391744" style="fill: #262626; stroke: #262626; stroke-width: 1.5"/>
      </g>
     </g>
    </g>
    <g id="ytick_18">
     <g id="line2d_45">
      <g>
       <use xlink:href="#m3926631170" x="33.826393" y="262.713579" style="fill: #262626; stroke: #262626; stroke-width: 1.5"/>
      </g>
     </g>
    </g>
    <g id="ytick_19">
     <g id="line2d_46">
      <g>
       <use xlink:href="#m3926631170" x="33.826393" y="244.035415" style="fill: #262626; stroke: #262626; stroke-width: 1.5"/>
      </g>
     </g>
    </g>
    <g id="ytick_20">
     <g id="line2d_47">
      <g>
       <use xlink:href="#m3926631170" x="33.826393" y="206.679085" style="fill: #262626; stroke: #262626; stroke-width: 1.5"/>
      </g>
     </g>
    </g>
    <g id="ytick_21">
     <g id="line2d_48">
      <g>
       <use xlink:href="#m3926631170" x="33.826393" y="188.00092" style="fill: #262626; stroke: #262626; stroke-width: 1.5"/>
      </g>
     </g>
    </g>
    <g id="ytick_22">
     <g id="line2d_49">
      <g>
       <use xlink:href="#m3926631170" x="33.826393" y="169.322756" style="fill: #262626; stroke: #262626; stroke-width: 1.5"/>
      </g>
     </g>
    </g>
    <g id="ytick_23">
     <g id="line2d_50">
      <g>
       <use xlink:href="#m3926631170" x="33.826393" y="150.644591" style="fill: #262626; stroke: #262626; stroke-width: 1.5"/>
      </g>
     </g>
    </g>
    <g id="ytick_24">
     <g id="line2d_51">
      <g>
       <use xlink:href="#m3926631170" x="33.826393" y="113.288261" style="fill: #262626; stroke: #262626; stroke-width: 1.5"/>
      </g>
     </g>
    </g>
    <g id="ytick_25">
     <g id="line2d_52">
      <g>
       <use xlink:href="#m3926631170" x="33.826393" y="94.610096" style="fill: #262626; stroke: #262626; stroke-width: 1.5"/>
      </g>
     </g>
    </g>
    <g id="ytick_26">
     <g id="line2d_53">
      <g>
       <use xlink:href="#m3926631170" x="33.826393" y="75.931932" style="fill: #262626; stroke: #262626; stroke-width: 1.5"/>
      </g>
     </g>
    </g>
    <g id="ytick_27">
     <g id="line2d_54">
      <g>
       <use xlink:href="#m3926631170" x="33.826393" y="57.253767" style="fill: #262626; stroke: #262626; stroke-width: 1.5"/>
      </g>
     </g>
    </g>
    <g id="ytick_28">
     <g id="line2d_55">
      <g>
       <use xlink:href="#m3926631170" x="33.826393" y="19.897437" style="fill: #262626; stroke: #262626; stroke-width: 1.5"/>
      </g>
     </g>
    </g>
    <g id="text_14">
     <!-- Normalized Wound Area -->
     <g style="fill: #262626" transform="translate(13.285876 343.528969) rotate(-90) scale(0.14 -0.14)">
      <defs>
       <path id="CMSS17-4e" d="M 1466 4179 
L 1350 4416 
L 563 4416 
L 563 0 
L 1062 0 
L 1062 3925 
L 1069 3931 
C 1114 3817 1139 3759 1402 3193 
L 2771 236 
L 2886 0 
L 3674 0 
L 3674 4416 
L 3174 4416 
L 3174 490 
L 3168 484 
C 3123 598 3098 655 2835 1222 
L 1466 4179 
z
" transform="scale(0.015625)"/>
       <path id="CMSS17-6f" d="M 2829 1356 
C 2829 2175 2221 2816 1504 2816 
C 768 2816 173 2156 173 1356 
C 173 544 787 -64 1498 -64 
C 2227 -64 2829 563 2829 1356 
z
M 1504 339 
C 1050 339 659 710 659 1407 
C 659 2150 1114 2425 1498 2425 
C 1914 2425 2342 2124 2342 1407 
C 2342 684 1926 339 1504 339 
z
" transform="scale(0.015625)"/>
       <path id="CMSS17-72" d="M 954 1369 
C 954 1974 1395 2379 1958 2392 
L 1958 2816 
C 1549 2809 1165 2604 934 2270 
L 934 2783 
L 480 2783 
L 480 0 
L 954 0 
L 954 1369 
z
" transform="scale(0.015625)"/>
       <path id="CMSS17-61" d="M 2406 1789 
C 2406 2399 1978 2816 1402 2816 
C 1120 2816 813 2764 461 2559 
L 499 2133 
C 659 2250 934 2438 1395 2438 
C 1722 2438 1920 2185 1920 1782 
L 1920 1536 
C 896 1504 256 1209 256 711 
C 256 452 416 -64 947 -64 
C 1043 -64 1562 -52 1933 224 
L 1933 -13 
L 2406 -13 
L 2406 1789 
z
M 1920 824 
C 1920 711 1920 559 1728 446 
C 1562 339 1350 326 1261 326 
C 941 326 723 503 723 723 
C 723 1165 1722 1209 1920 1216 
L 1920 824 
z
" transform="scale(0.015625)"/>
       <path id="CMSS17-6c" d="M 947 4416 
L 474 4416 
L 474 0 
L 947 0 
L 947 4416 
z
" transform="scale(0.015625)"/>
       <path id="CMSS17-7a" d="M 2400 2502 
L 2400 2752 
L 250 2752 
L 250 2367 
L 1069 2367 
C 1146 2367 1222 2374 1299 2374 
L 1747 2374 
L 166 262 
L 166 0 
L 2419 0 
L 2419 396 
L 1549 396 
C 1472 396 1395 390 1318 390 
L 826 390 
L 2400 2502 
z
" transform="scale(0.015625)"/>
       <path id="CMSS17-64" d="M 2611 4416 
L 2138 4416 
L 2138 2495 
C 1939 2662 1613 2816 1254 2816 
C 672 2816 211 2179 211 1375 
C 211 572 666 -64 1235 -64 
C 1677 -64 1971 172 2125 307 
L 2125 -13 
L 2611 -13 
L 2611 4416 
z
M 2125 851 
C 2125 760 2125 663 1926 488 
C 1798 378 1645 326 1498 326 
C 1152 326 698 585 698 1369 
C 698 2185 1210 2425 1562 2425 
C 1798 2425 1990 2308 2125 2114 
L 2125 851 
z
" transform="scale(0.015625)"/>
       <path id="CMSS17-57" d="M 5581 4416 
L 5094 4416 
L 4557 2436 
C 4474 2118 4397 1800 4320 1482 
C 4205 1012 4122 681 4109 516 
L 4102 516 
C 4090 687 4006 1050 3904 1457 
C 3827 1794 3744 2131 3654 2462 
L 3123 4416 
L 2586 4416 
L 2080 2564 
L 1824 1552 
C 1632 751 1626 636 1613 509 
L 1606 509 
C 1606 547 1581 757 1402 1501 
C 1312 1870 1222 2246 1126 2602 
L 634 4416 
L 83 4416 
L 1299 0 
L 1830 0 
L 2336 1838 
L 2592 2850 
C 2765 3562 2803 3740 2816 3899 
L 2822 3899 
C 2822 3874 2880 3473 3130 2544 
L 3808 0 
L 4365 0 
L 5581 4416 
z
" transform="scale(0.015625)"/>
       <path id="CMSS17-75" d="M 2618 2752 
L 2131 2752 
L 2131 976 
C 2131 500 1786 307 1421 307 
C 998 307 960 448 960 712 
L 960 2752 
L 474 2752 
L 474 680 
C 474 179 646 -64 1088 -64 
C 1306 -64 1798 -13 2144 307 
L 2144 -13 
L 2618 -13 
L 2618 2752 
z
" transform="scale(0.015625)"/>
       <path id="CMSS17-6e" d="M 2618 1878 
C 2618 2283 2522 2816 1798 2816 
C 1389 2816 1120 2604 941 2386 
L 941 2783 
L 474 2783 
L 474 0 
L 960 0 
L 960 1556 
C 960 1962 1114 2425 1549 2425 
C 2112 2425 2131 2045 2131 1826 
L 2131 0 
L 2618 0 
L 2618 1878 
z
" transform="scale(0.015625)"/>
       <path id="CMSS17-41" d="M 2272 4416 
L 1722 4416 
L 166 0 
L 653 0 
L 1101 1280 
L 2816 1280 
L 3270 0 
L 3827 0 
L 2272 4416 
z
M 2694 1638 
L 1222 1638 
C 1530 2530 1914 3638 1958 3924 
L 1965 3924 
C 2010 3663 2138 3281 2246 2956 
L 2694 1638 
z
" transform="scale(0.015625)"/>
      </defs>
      <use xlink:href="#CMSS17-4e" transform="scale(0.996264)"/>
      <use xlink:href="#CMSS17-6f" transform="translate(66.061519 0) scale(0.996264)"/>
      <use xlink:href="#CMSS17-72" transform="translate(110.302689 0) scale(0.996264)"/>
      <use xlink:href="#CMSS17-6d" transform="translate(142.212461 0) scale(0.996264)"/>
      <use xlink:href="#CMSS17-61" transform="translate(216.441716 0) scale(0.996264)"/>
      <use xlink:href="#CMSS17-6c" transform="translate(261.363636 0) scale(0.996264)"/>
      <use xlink:href="#CMSS17-69" transform="translate(283.544359 0) scale(0.996264)"/>
      <use xlink:href="#CMSS17-7a" transform="translate(305.725082 0) scale(0.996264)"/>
      <use xlink:href="#CMSS17-65" transform="translate(346.402954 0) scale(0.996264)"/>
      <use xlink:href="#CMSS17-64" transform="translate(388.041776 0) scale(0.996264)"/>
      <use xlink:href="#CMSS17-57" transform="translate(467.475832 0) scale(0.996264)"/>
      <use xlink:href="#CMSS17-6f" transform="translate(553.115544 0) scale(0.996264)"/>
      <use xlink:href="#CMSS17-75" transform="translate(599.959168 0) scale(0.996264)"/>
      <use xlink:href="#CMSS17-6e" transform="translate(648.164111 0) scale(0.996264)"/>
      <use xlink:href="#CMSS17-64" transform="translate(696.369054 0) scale(0.996264)"/>
      <use xlink:href="#CMSS17-41" transform="translate(775.80311 0) scale(0.996264)"/>
      <use xlink:href="#CMSS17-72" transform="translate(838.020965 0) scale(0.996264)"/>
      <use xlink:href="#CMSS17-65" transform="translate(869.930738 0) scale(0.996264)"/>
      <use xlink:href="#CMSS17-61" transform="translate(911.56956 0) scale(0.996264)"/>
     </g>
    </g>
   </g>
   <g id="line2d_56">
    <path d="M 63.484424 412.138898 
L 69.66318 394.943202 
L 75.841936 382.727787 
L 82.020692 374.835262 
L 88.199449 369.483439 
L 94.378205 364.785498 
L 100.556961 359.619826 
L 106.735718 353.860201 
L 112.914474 347.981292 
L 119.09323 342.478805 
L 125.271986 337.555416 
L 131.450743 333.187377 
L 137.629499 329.354908 
L 143.808255 326.164809 
L 149.987012 323.783962 
L 156.165768 322.303984 
L 162.344524 321.69255 
L 168.52328 321.870416 
L 174.702037 322.826338 
L 180.880793 324.661308 
L 187.059549 327.53751 
L 193.238306 331.598606 
L 199.417062 336.934104 
L 205.595818 343.586761 
L 211.774574 351.543713 
L 217.953331 360.684866 
L 224.132087 370.746046 
L 230.310843 381.37435 
L 236.4896 392.404764 
L 242.668356 403.28761 
L 248.847112 416.894559 
L 255.025868 425.22057 
L 261.204625 435.612399 
L 267.383381 445.147397 
L 273.562137 453.820465 
L 279.740894 461.251665 
L 285.91965 467.90604 
L 292.098406 473.611194 
L 298.277162 479.245244 
L 304.455919 483.817801 
L 310.634675 487.494646 
L 316.813431 490.874841 
L 322.992188 493.225215 
L 329.170944 495.371836 
L 335.3497 498.009987 
L 341.528456 499.758427 
L 347.707213 501.493698 
L 353.885969 502.606021 
L 360.064725 503.224545 
L 366.243482 503.811309 
L 372.422238 504.460731 
L 378.600994 504.610605 
L 384.77975 504.844487 
L 390.958507 504.996557 
L 397.137263 505.193278 
L 403.316019 505.273118 
L 409.494776 505.421182 
L 415.673532 505.445797 
L 421.852288 505.467895 
L 428.031044 505.529722 
L 434.209801 505.529722 
L 440.388557 505.529722 
L 446.567313 505.529722 
L 452.746069 505.529722 
L 458.924826 505.529722 
L 465.103582 505.529722 
L 471.282338 505.529722 
L 477.461095 505.529722 
L 483.639851 505.529722 
L 489.818607 505.529722 
L 495.997363 505.529722 
L 502.17612 505.529722 
L 508.354876 505.529722 
L 514.533632 505.529722 
L 520.712389 505.529722 
L 526.891145 505.529722 
L 533.069901 505.529722 
L 539.248657 505.529722 
L 545.427414 505.529722 
L 551.60617 505.529722 
L 557.784926 505.529722 
L 563.963683 505.529722 
L 570.142439 505.529722 
L 576.321195 505.529722 
L 582.499951 505.529722 
L 588.678708 505.529722 
L 594.857464 505.529722 
L 601.03622 505.529722 
L 607.214977 505.529722 
L 613.393733 505.529722 
L 619.572489 505.529722 
L 625.751245 505.529722 
L 631.930002 505.529722 
L 638.108758 505.529722 
L 644.287514 505.529722 
L 650.466271 505.529722 
L 656.645027 505.529722 
" clip-path="url(#p92c0f4343c)" style="fill: none; stroke: #000000; stroke-opacity: 0.8; stroke-width: 2; stroke-linecap: round"/>
   </g>
   <g id="line2d_57">
    <path d="M 63.484424 412.138898 
L 69.66318 372.282775 
L 75.841936 337.694892 
L 82.020692 307.771498 
L 88.199449 281.298877 
L 94.378205 256.78346 
L 100.556961 232.811235 
L 106.735718 208.363422 
L 112.914474 183.025954 
L 119.09323 157.054563 
L 125.271986 131.289668 
L 131.450743 106.948284 
L 137.629499 85.346273 
L 143.808255 67.617507 
L 149.987012 54.494091 
L 156.165768 46.194675 
L 162.344524 42.440345 
L 168.52328 42.586483 
L 174.702037 45.831563 
L 180.880793 51.446688 
L 187.059549 58.966544 
L 193.238306 68.293905 
L 199.417062 79.692896 
L 205.595818 93.675087 
L 211.774574 110.810013 
L 217.953331 131.510987 
L 224.132087 155.853104 
L 230.310843 183.471711 
L 236.4896 213.56822 
L 242.668356 245.021843 
L 248.847112 276.577856 
L 255.025868 307.063132 
L 261.204625 335.573335 
L 267.383381 361.585157 
L 273.562137 384.968772 
L 279.740894 405.904073 
L 285.91965 424.730968 
L 292.098406 441.78129 
L 298.277162 457.242768 
L 304.455919 471.093383 
L 310.634675 483.121296 
L 316.813431 505.529722 
L 322.992188 505.529722 
L 329.170944 505.529722 
L 335.3497 505.529722 
L 341.528456 505.529722 
L 347.707213 505.529722 
L 353.885969 505.529722 
L 360.064725 505.529722 
L 366.243482 505.529722 
L 372.422238 505.529722 
L 378.600994 505.529722 
L 384.77975 505.529722 
L 390.958507 505.529722 
L 397.137263 505.529722 
L 403.316019 505.529722 
L 409.494776 505.529722 
L 415.673532 505.529722 
L 421.852288 505.529722 
L 428.031044 505.529722 
L 434.209801 505.529722 
L 440.388557 505.529722 
L 446.567313 505.529722 
L 452.746069 505.529722 
L 458.924826 505.529722 
L 465.103582 505.529722 
L 471.282338 505.529722 
L 477.461095 505.529722 
L 483.639851 505.529722 
L 489.818607 505.529722 
L 495.997363 505.529722 
L 502.17612 505.529722 
L 508.354876 505.529722 
L 514.533632 505.529722 
L 520.712389 505.529722 
L 526.891145 505.529722 
L 533.069901 505.529722 
L 539.248657 505.529722 
L 545.427414 505.529722 
L 551.60617 505.529722 
L 557.784926 505.529722 
L 563.963683 505.529722 
L 570.142439 505.529722 
L 576.321195 505.529722 
L 582.499951 505.529722 
L 588.678708 505.529722 
L 594.857464 505.529722 
L 601.03622 505.529722 
L 607.214977 505.529722 
L 613.393733 505.529722 
L 619.572489 505.529722 
L 625.751245 505.529722 
L 631.930002 505.529722 
L 638.108758 505.529722 
L 644.287514 505.529722 
L 650.466271 505.529722 
L 656.645027 505.529722 
" clip-path="url(#p92c0f4343c)" style="fill: none; stroke: #0c5da5; stroke-opacity: 0.8; stroke-width: 2; stroke-linecap: round"/>
   </g>
   <g id="line2d_58">
    <path d="M 63.484424 412.138898 
L 69.66318 400.953294 
L 75.841936 388.305165 
L 82.020692 374.348084 
L 88.199449 359.333853 
L 94.378205 343.608672 
L 100.556961 327.599696 
L 106.735718 311.79226 
L 112.914474 296.699245 
L 119.09323 282.825159 
L 125.271986 270.628383 
L 131.450743 260.485564 
L 137.629499 252.662165 
L 143.808255 247.292699 
L 149.987012 244.373243 
L 156.165768 243.767438 
L 162.344524 245.225638 
L 168.52328 248.415272 
L 174.702037 252.95904 
L 180.880793 258.476596 
L 187.059549 264.624837 
L 193.238306 271.132073 
L 199.417062 277.822092 
L 205.595818 284.625374 
L 211.774574 291.57635 
L 217.953331 298.797322 
L 224.132087 306.471354 
L 230.310843 314.807786 
L 236.4896 324.004855 
L 242.668356 334.21421 
L 248.847112 345.511709 
L 255.025868 357.877999 
L 261.204625 371.191015 
L 267.383381 385.23099 
L 273.562137 399.69697 
L 279.740894 414.232452 
L 285.91965 428.456761 
L 292.098406 441.998233 
L 298.277162 454.525318 
L 304.455919 465.772165 
L 310.634675 475.556209 
L 316.813431 483.786395 
L 322.992188 490.461925 
L 329.170944 495.662556 
L 335.3497 505.529722 
L 341.528456 505.529722 
L 347.707213 505.529722 
L 353.885969 505.529722 
L 360.064725 505.529722 
L 366.243482 505.529722 
L 372.422238 505.529722 
L 378.600994 505.529722 
L 384.77975 505.529722 
L 390.958507 505.529722 
L 397.137263 505.529722 
L 403.316019 505.529722 
L 409.494776 505.529722 
L 415.673532 505.529722 
L 421.852288 505.529722 
L 428.031044 505.529722 
L 434.209801 505.529722 
L 440.388557 505.529722 
L 446.567313 505.529722 
L 452.746069 505.529722 
L 458.924826 505.529722 
L 465.103582 505.529722 
L 471.282338 505.529722 
L 477.461095 505.529722 
L 483.639851 505.529722 
L 489.818607 505.529722 
L 495.997363 505.529722 
L 502.17612 505.529722 
L 508.354876 505.529722 
L 514.533632 505.529722 
L 520.712389 505.529722 
L 526.891145 505.529722 
L 533.069901 505.529722 
L 539.248657 505.529722 
L 545.427414 505.529722 
L 551.60617 505.529722 
L 557.784926 505.529722 
L 563.963683 505.529722 
L 570.142439 505.529722 
L 576.321195 505.529722 
L 582.499951 505.529722 
L 588.678708 505.529722 
L 594.857464 505.529722 
L 601.03622 505.529722 
L 607.214977 505.529722 
L 613.393733 505.529722 
L 619.572489 505.529722 
L 625.751245 505.529722 
L 631.930002 505.529722 
L 638.108758 505.529722 
L 644.287514 505.529722 
L 650.466271 505.529722 
L 656.645027 505.529722 
" clip-path="url(#p92c0f4343c)" style="fill: none; stroke: #00b945; stroke-opacity: 0.8; stroke-width: 2; stroke-linecap: round"/>
   </g>
   <g id="line2d_59">
    <path d="M 63.484424 412.138898 
L 69.66318 405.166402 
L 75.841936 399.120997 
L 82.020692 393.983015 
L 88.199449 389.697811 
L 94.378205 386.182516 
L 100.556961 383.334317 
L 106.735718 381.039633 
L 112.914474 379.183508 
L 119.09323 377.658524 
L 125.271986 376.372596 
L 131.450743 375.255102 
L 137.629499 374.260955 
L 143.808255 373.372406 
L 149.987012 372.598544 
L 156.165768 371.972657 
L 162.344524 371.547793 
L 168.52328 371.390985 
L 174.702037 371.576688 
L 180.880793 372.180038 
L 187.059549 373.270467 
L 193.238306 374.906204 
L 199.417062 377.130007 
L 205.595818 379.966389 
L 211.774574 383.420387 
L 217.953331 387.47781 
L 224.132087 392.106755 
L 230.310843 397.260069 
L 236.4896 402.878398 
L 242.668356 408.893435 
L 248.847112 415.231034 
L 255.025868 421.813908 
L 261.204625 428.56375 
L 267.383381 435.402709 
L 273.562137 442.254289 
L 279.740894 449.043792 
L 285.91965 455.69854 
L 292.098406 462.148074 
L 298.277162 468.324585 
L 304.455919 474.16371 
L 310.634675 479.605801 
L 316.813431 484.597655 
L 322.992188 489.094585 
L 329.170944 493.062654 
L 335.3497 496.480798 
L 341.528456 499.342569 
L 347.707213 501.657208 
L 353.885969 505.529722 
L 360.064725 505.529722 
L 366.243482 505.529722 
L 372.422238 505.529722 
L 378.600994 505.529722 
L 384.77975 505.529722 
L 390.958507 505.529722 
L 397.137263 505.529722 
L 403.316019 505.529722 
L 409.494776 505.529722 
L 415.673532 505.529722 
L 421.852288 505.529722 
L 428.031044 505.529722 
L 434.209801 505.529722 
L 440.388557 505.529722 
L 446.567313 505.529722 
L 452.746069 505.529722 
L 458.924826 505.529722 
L 465.103582 505.529722 
L 471.282338 505.529722 
L 477.461095 505.529722 
L 483.639851 505.529722 
L 489.818607 505.529722 
L 495.997363 505.529722 
L 502.17612 505.529722 
L 508.354876 505.529722 
L 514.533632 505.529722 
L 520.712389 505.529722 
L 526.891145 505.529722 
L 533.069901 505.529722 
L 539.248657 505.529722 
L 545.427414 505.529722 
L 551.60617 505.529722 
L 557.784926 505.529722 
L 563.963683 505.529722 
L 570.142439 505.529722 
L 576.321195 505.529722 
L 582.499951 505.529722 
L 588.678708 505.529722 
L 594.857464 505.529722 
L 601.03622 505.529722 
L 607.214977 505.529722 
L 613.393733 505.529722 
L 619.572489 505.529722 
L 625.751245 505.529722 
L 631.930002 505.529722 
L 638.108758 505.529722 
L 644.287514 505.529722 
L 650.466271 505.529722 
L 656.645027 505.529722 
" clip-path="url(#p92c0f4343c)" style="fill: none; stroke: #ff9500; stroke-opacity: 0.8; stroke-width: 2; stroke-linecap: round"/>
   </g>
   <g id="patch_3">
    <path d="M 33.826393 528.68419 
L 33.826393 19.285876 
" style="fill: none; stroke: #262626; stroke-width: 1.5; stroke-linejoin: miter; stroke-linecap: square"/>
   </g>
   <g id="patch_4">
    <path d="M 686.303057 528.68419 
L 686.303057 19.285876 
" style="fill: none; stroke: #262626; stroke-width: 1.5; stroke-linejoin: miter; stroke-linecap: square"/>
   </g>
   <g id="patch_5">
    <path d="M 33.826393 528.68419 
L 686.303057 528.68419 
" style="fill: none; stroke: #262626; stroke-width: 1.5; stroke-linejoin: miter; stroke-linecap: square"/>
   </g>
   <g id="patch_6">
    <path d="M 33.826393 19.285876 
L 686.303057 19.285876 
" style="fill: none; stroke: #262626; stroke-width: 1.5; stroke-linejoin: miter; stroke-linecap: square"/>
   </g>
   <g id="text_15">
    <!-- Time Series of Outlier Wells - Normalized Wound Area -->
    <g style="fill: #262626" transform="translate(203.32367 13.285876) scale(0.14 -0.14)">
     <defs>
      <path id="CMSS17-53" d="M 2797 4230 
C 2515 4396 2208 4544 1690 4544 
C 864 4544 333 3934 333 3309 
C 333 3064 403 2787 653 2504 
C 902 2220 1184 2143 1542 2053 
C 1690 2014 1939 1943 1984 1924 
C 2342 1782 2515 1454 2515 1144 
C 2515 738 2202 307 1645 307 
C 1453 307 890 339 358 829 
L 269 320 
C 794 -64 1363 -128 1651 -128 
C 2438 -128 3002 494 3002 1202 
C 3002 1460 2925 1789 2656 2092 
C 2394 2381 2163 2446 1638 2588 
C 1338 2665 1146 2717 986 2916 
C 877 3058 819 3193 819 3367 
C 819 3728 1126 4121 1690 4121 
C 1971 4121 2336 4063 2707 3715 
L 2797 4230 
z
" transform="scale(0.015625)"/>
      <path id="CMSS17-73" d="M 2061 2623 
C 1683 2803 1389 2816 1197 2816 
C 742 2816 198 2655 198 2009 
C 198 1363 902 1222 1094 1183 
C 1389 1126 1715 1062 1715 742 
C 1715 339 1254 339 1171 339 
C 915 339 563 409 243 639 
L 166 211 
C 531 0 883 -64 1178 -64 
C 1965 -64 2163 416 2163 780 
C 2163 1094 1984 1305 1862 1401 
C 1651 1567 1574 1587 1050 1695 
C 960 1708 646 1779 646 2067 
C 646 2431 1050 2431 1139 2431 
C 1555 2431 1811 2303 1984 2207 
L 2061 2623 
z
" transform="scale(0.015625)"/>
      <path id="CMSS17-66" d="M 1075 2380 
L 1722 2380 
L 1722 2752 
L 1062 2752 
L 1062 3563 
C 1062 4013 1408 4089 1606 4089 
C 1670 4089 1850 4089 2080 4007 
L 2080 4428 
C 1933 4460 1754 4480 1613 4480 
C 1018 4480 602 3994 602 3366 
L 602 2752 
L 160 2752 
L 160 2380 
L 602 2380 
L 602 0 
L 1075 0 
L 1075 2380 
z
" transform="scale(0.015625)"/>
      <path id="CMSS17-4f" d="M 4096 2201 
C 4096 3541 3219 4544 2214 4544 
C 1210 4544 333 3535 333 2201 
C 333 855 1222 -128 2214 -128 
C 3206 -128 4096 855 4096 2201 
z
M 2214 275 
C 1510 275 870 1067 870 2285 
C 870 3470 1549 4140 2214 4140 
C 2880 4140 3558 3470 3558 2285 
C 3558 1061 2912 275 2214 275 
z
" transform="scale(0.015625)"/>
      <path id="CMSS17-74" d="M 1069 2380 
L 1901 2380 
L 1901 2752 
L 1069 2752 
L 1069 3520 
L 614 3520 
L 614 2752 
L 109 2752 
L 109 2380 
L 602 2380 
L 602 751 
C 602 384 685 -64 1107 -64 
C 1427 -64 1722 25 2003 172 
L 1901 551 
C 1747 416 1562 339 1363 339 
C 1082 339 1069 699 1069 860 
L 1069 2380 
z
" transform="scale(0.015625)"/>
      <path id="CMSS17-2d" d="M 1664 1216 
L 1664 1587 
L 64 1587 
L 64 1216 
L 1664 1216 
z
" transform="scale(0.015625)"/>
     </defs>
     <use xlink:href="#CMSS17-54" transform="scale(0.996264)"/>
     <use xlink:href="#CMSS17-69" transform="translate(63.819454 0) scale(0.996264)"/>
     <use xlink:href="#CMSS17-6d" transform="translate(86.000177 0) scale(0.996264)"/>
     <use xlink:href="#CMSS17-65" transform="translate(160.229431 0) scale(0.996264)"/>
     <use xlink:href="#CMSS17-53" transform="translate(233.097366 0) scale(0.996264)"/>
     <use xlink:href="#CMSS17-65" transform="translate(285.145882 0) scale(0.996264)"/>
     <use xlink:href="#CMSS17-72" transform="translate(326.784704 0) scale(0.996264)"/>
     <use xlink:href="#CMSS17-69" transform="translate(358.694477 0) scale(0.996264)"/>
     <use xlink:href="#CMSS17-65" transform="translate(380.8752 0) scale(0.996264)"/>
     <use xlink:href="#CMSS17-73" transform="translate(422.514022 0) scale(0.996264)"/>
     <use xlink:href="#CMSS17-6f" transform="translate(489.656677 0) scale(0.996264)"/>
     <use xlink:href="#CMSS17-66" transform="translate(536.5003 0) scale(0.996264)"/>
     <use xlink:href="#CMSS17-4f" transform="translate(596.356072 0) scale(0.996264)"/>
     <use xlink:href="#CMSS17-75" transform="translate(665.380327 0) scale(0.996264)"/>
     <use xlink:href="#CMSS17-74" transform="translate(713.58527 0) scale(0.996264)"/>
     <use xlink:href="#CMSS17-6c" transform="translate(747.416837 0) scale(0.996264)"/>
     <use xlink:href="#CMSS17-69" transform="translate(769.59756 0) scale(0.996264)"/>
     <use xlink:href="#CMSS17-65" transform="translate(791.778283 0) scale(0.996264)"/>
     <use xlink:href="#CMSS17-72" transform="translate(833.417105 0) scale(0.996264)"/>
     <use xlink:href="#CMSS17-57" transform="translate(896.555991 0) scale(0.996264)"/>
     <use xlink:href="#CMSS17-65" transform="translate(982.195703 0) scale(0.996264)"/>
     <use xlink:href="#CMSS17-6c" transform="translate(1023.834525 0) scale(0.996264)"/>
     <use xlink:href="#CMSS17-6c" transform="translate(1046.015248 0) scale(0.996264)"/>
     <use xlink:href="#CMSS17-73" transform="translate(1068.195971 0) scale(0.996264)"/>
     <use xlink:href="#CMSS17-2d" transform="translate(1135.338626 0) scale(0.996264)"/>
     <use xlink:href="#CMSS17-4e" transform="translate(1197.796851 0) scale(0.996264)"/>
     <use xlink:href="#CMSS17-6f" transform="translate(1263.85837 0) scale(0.996264)"/>
     <use xlink:href="#CMSS17-72" transform="translate(1308.09954 0) scale(0.996264)"/>
     <use xlink:href="#CMSS17-6d" transform="translate(1340.009313 0) scale(0.996264)"/>
     <use xlink:href="#CMSS17-61" transform="translate(1414.238567 0) scale(0.996264)"/>
     <use xlink:href="#CMSS17-6c" transform="translate(1459.160488 0) scale(0.996264)"/>
     <use xlink:href="#CMSS17-69" transform="translate(1481.341211 0) scale(0.996264)"/>
     <use xlink:href="#CMSS17-7a" transform="translate(1503.521934 0) scale(0.996264)"/>
     <use xlink:href="#CMSS17-65" transform="translate(1544.199806 0) scale(0.996264)"/>
     <use xlink:href="#CMSS17-64" transform="translate(1585.838628 0) scale(0.996264)"/>
     <use xlink:href="#CMSS17-57" transform="translate(1665.272683 0) scale(0.996264)"/>
     <use xlink:href="#CMSS17-6f" transform="translate(1750.912396 0) scale(0.996264)"/>
     <use xlink:href="#CMSS17-75" transform="translate(1797.756019 0) scale(0.996264)"/>
     <use xlink:href="#CMSS17-6e" transform="translate(1845.960962 0) scale(0.996264)"/>
     <use xlink:href="#CMSS17-64" transform="translate(1894.165906 0) scale(0.996264)"/>
     <use xlink:href="#CMSS17-41" transform="translate(1973.599961 0) scale(0.996264)"/>
     <use xlink:href="#CMSS17-72" transform="translate(2035.817816 0) scale(0.996264)"/>
     <use xlink:href="#CMSS17-65" transform="translate(2067.727589 0) scale(0.996264)"/>
     <use xlink:href="#CMSS17-61" transform="translate(2109.366411 0) scale(0.996264)"/>
    </g>
   </g>
   <g id="legend_1">
    <g id="line2d_60">
     <path d="M 733.32689 39.285876 
L 749.32689 39.285876 
L 765.32689 39.285876 
" style="fill: none; stroke: #000000; stroke-opacity: 0.8; stroke-width: 2; stroke-linecap: round"/>
    </g>
    <g id="text_16">
     <!-- mean -->
     <g style="fill: #262626" transform="translate(778.12689 44.885876) scale(0.16 -0.16)">
      <use xlink:href="#CMSS17-6d" transform="scale(0.996264)"/>
      <use xlink:href="#CMSS17-65" transform="translate(74.229254 0) scale(0.996264)"/>
      <use xlink:href="#CMSS17-61" transform="translate(115.868077 0) scale(0.996264)"/>
      <use xlink:href="#CMSS17-6e" transform="translate(160.789997 0) scale(0.996264)"/>
     </g>
    </g>
    <g id="line2d_61">
     <path d="M 733.32689 61.585353 
L 749.32689 61.585353 
L 765.32689 61.585353 
" style="fill: none; stroke: #0c5da5; stroke-opacity: 0.8; stroke-width: 2; stroke-linecap: round"/>
    </g>
    <g id="text_17">
     <!-- s025_10S7 -->
     <g style="fill: #262626" transform="translate(778.12689 67.185353) scale(0.16 -0.16)">
      <defs>
       <path id="CMSS17-37" d="M 1389 3788 
C 1466 3788 1542 3795 1619 3795 
L 2355 3795 
C 1440 2715 915 1350 915 -64 
L 1427 -64 
C 1427 1305 1875 2695 2752 3807 
L 2752 4224 
L 250 4224 
L 250 3788 
L 1389 3788 
z
" transform="scale(0.015625)"/>
      </defs>
      <use xlink:href="#CMSS17-73" transform="scale(0.996264)"/>
      <use xlink:href="#CMSS17-30" transform="translate(35.913542 0) scale(0.996264)"/>
      <use xlink:href="#CMSS17-32" transform="translate(82.757166 0) scale(0.996264)"/>
      <use xlink:href="#CMSS17-35" transform="translate(129.600789 0) scale(0.996264)"/>
      <use xlink:href="#CMSS17-31" transform="translate(210.171908 0) scale(0.996264)"/>
      <use xlink:href="#CMSS17-30" transform="translate(257.015531 0) scale(0.996264)"/>
      <use xlink:href="#CMSS17-53" transform="translate(303.859155 0) scale(0.996264)"/>
      <use xlink:href="#CMSS17-37" transform="translate(355.907671 0) scale(0.996264)"/>
      <path d="M 182.065424 0 
L 210.171908 0 
L 210.171908 0.3985 
L 182.065424 0.3985 
L 182.065424 0 
z
"/>
     </g>
    </g>
    <g id="line2d_62">
     <path d="M 733.32689 83.884829 
L 749.32689 83.884829 
L 765.32689 83.884829 
" style="fill: none; stroke: #00b945; stroke-opacity: 0.8; stroke-width: 2; stroke-linecap: round"/>
    </g>
    <g id="text_18">
     <!-- s026_1S1 -->
     <g style="fill: #262626" transform="translate(778.12689 89.484829) scale(0.16 -0.16)">
      <defs>
       <path id="CMSS17-36" d="M 2496 4159 
C 2227 4268 2035 4288 1856 4288 
C 1024 4288 250 3408 250 2023 
C 250 268 986 -128 1510 -128 
C 1798 -128 2086 -39 2362 281 
C 2643 619 2752 900 2752 1392 
C 2752 2183 2362 2886 1779 2886 
C 1357 2886 992 2662 768 2381 
C 832 3290 1254 3897 1862 3897 
C 2029 3897 2246 3871 2496 3760 
L 2496 4159 
z
M 774 1372 
C 774 1423 774 1455 781 1551 
C 781 2049 1069 2496 1536 2496 
C 1837 2496 1990 2336 2106 2138 
C 2240 1889 2246 1653 2246 1392 
C 2246 1143 2246 894 2099 638 
C 1978 441 1818 268 1510 268 
C 902 268 800 1117 774 1372 
z
" transform="scale(0.015625)"/>
      </defs>
      <use xlink:href="#CMSS17-73" transform="scale(0.996264)"/>
      <use xlink:href="#CMSS17-30" transform="translate(35.913542 0) scale(0.996264)"/>
      <use xlink:href="#CMSS17-32" transform="translate(82.757166 0) scale(0.996264)"/>
      <use xlink:href="#CMSS17-36" transform="translate(129.600789 0) scale(0.996264)"/>
      <use xlink:href="#CMSS17-31" transform="translate(210.171908 0) scale(0.996264)"/>
      <use xlink:href="#CMSS17-53" transform="translate(257.015531 0) scale(0.996264)"/>
      <use xlink:href="#CMSS17-31" transform="translate(309.064048 0) scale(0.996264)"/>
      <path d="M 182.065424 0 
L 210.171908 0 
L 210.171908 0.3985 
L 182.065424 0.3985 
L 182.065424 0 
z
"/>
     </g>
    </g>
    <g id="line2d_63">
     <path d="M 733.32689 106.184305 
L 749.32689 106.184305 
L 765.32689 106.184305 
" style="fill: none; stroke: #ff9500; stroke-opacity: 0.8; stroke-width: 2; stroke-linecap: round"/>
    </g>
    <g id="text_19">
     <!-- s035_10L4 -->
     <g style="fill: #262626" transform="translate(778.12689 111.784305) scale(0.16 -0.16)">
      <defs>
       <path id="CMSS17-4c" d="M 1670 416 
C 1594 416 1517 409 1440 409 
L 1101 409 
L 1101 4416 
L 563 4416 
L 563 0 
L 3002 0 
L 3002 416 
L 1670 416 
z
" transform="scale(0.015625)"/>
      </defs>
      <use xlink:href="#CMSS17-73" transform="scale(0.996264)"/>
      <use xlink:href="#CMSS17-30" transform="translate(35.913542 0) scale(0.996264)"/>
      <use xlink:href="#CMSS17-33" transform="translate(82.757166 0) scale(0.996264)"/>
      <use xlink:href="#CMSS17-35" transform="translate(129.600789 0) scale(0.996264)"/>
      <use xlink:href="#CMSS17-31" transform="translate(210.171908 0) scale(0.996264)"/>
      <use xlink:href="#CMSS17-30" transform="translate(257.015531 0) scale(0.996264)"/>
      <use xlink:href="#CMSS17-4c" transform="translate(303.859155 0) scale(0.996264)"/>
      <use xlink:href="#CMSS17-34" transform="translate(354.54626 0) scale(0.996264)"/>
      <path d="M 182.065424 0 
L 210.171908 0 
L 210.171908 0.3985 
L 182.065424 0.3985 
L 182.065424 0 
z
"/>
     </g>
    </g>
   </g>
  </g>
 </g>
 <defs>
  <clipPath id="p92c0f4343c">
   <rect x="33.826393" y="19.285876" width="652.476664" height="509.398314"/>
  </clipPath>
 </defs>
</svg>
