<?xml version="1.0" encoding="utf-8" standalone="no"?>
<!DOCTYPE svg PUBLIC "-//W3C//DTD SVG 1.1//EN"
  "http://www.w3.org/Graphics/SVG/1.1/DTD/svg11.dtd">
<svg xmlns:xlink="http://www.w3.org/1999/xlink" width="712.08pt" height="424.08pt" viewBox="0 0 712.08 424.08" xmlns="http://www.w3.org/2000/svg" version="1.1">
 <metadata>
  <rdf:RDF xmlns:dc="http://purl.org/dc/elements/1.1/" xmlns:cc="http://creativecommons.org/ns#" xmlns:rdf="http://www.w3.org/1999/02/22-rdf-syntax-ns#">
   <cc:Work>
    <dc:type rdf:resource="http://purl.org/dc/dcmitype/StillImage"/>
    <dc:date>2025-08-15T09:57:40.801409</dc:date>
    <dc:format>image/svg+xml</dc:format>
    <dc:creator>
     <cc:Agent>
      <dc:title>Matplotlib v3.10.0, https://matplotlib.org/</dc:title>
     </cc:Agent>
    </dc:creator>
   </cc:Work>
  </rdf:RDF>
 </metadata>
 <defs>
  <style type="text/css">*{stroke-linejoin: round; stroke-linecap: butt}</style>
 </defs>
 <g id="figure_1">
  <g id="patch_1">
   <path d="M 0 424.08 
L 712.08 424.08 
L 712.08 0 
L 0 0 
z
" style="fill: #ffffff"/>
  </g>
  <g id="axes_1">
   <g id="patch_2">
    <path d="M 40.654882 397.082095 
L 708.48 397.082095 
L 708.48 20.060772 
L 40.654882 20.060772 
z
" style="fill: #ffffff"/>
   </g>
   <g id="matplotlib.axis_1">
    <g id="xtick_1">
     <g id="line2d_1">
      <defs>
       <path id="m4c0d42eb29" d="M 0 0 
L 0 3.5 
" style="stroke: #262626; stroke-width: 1.5"/>
      </defs>
      <g>
       <use xlink:href="#m4c0d42eb29" x="374.567441" y="397.082095" style="fill: #262626; stroke: #262626; stroke-width: 1.5"/>
      </g>
     </g>
    </g>
    <g id="text_1">
     <!-- Condition -->
     <g style="fill: #262626" transform="translate(347.188955 417.767972) scale(0.14 -0.14)">
      <defs>
       <path id="CMSS17-43" d="M 3501 705 
C 3072 416 2874 332 2355 332 
C 1459 332 934 1304 934 2191 
C 934 3137 1472 4070 2381 4070 
C 2790 4070 3059 3954 3386 3748 
L 3475 4255 
C 3168 4409 2778 4480 2387 4480 
C 1158 4480 397 3343 397 2191 
C 397 924 1299 -77 2323 -77 
C 2874 -77 3066 -32 3539 268 
L 3501 705 
z
" transform="scale(0.015625)"/>
       <path id="CMSS17-6f" d="M 2829 1356 
C 2829 2175 2221 2816 1504 2816 
C 768 2816 173 2156 173 1356 
C 173 544 787 -64 1498 -64 
C 2227 -64 2829 563 2829 1356 
z
M 1504 339 
C 1050 339 659 710 659 1407 
C 659 2150 1114 2425 1498 2425 
C 1914 2425 2342 2124 2342 1407 
C 2342 684 1926 339 1504 339 
z
" transform="scale(0.015625)"/>
       <path id="CMSS17-6e" d="M 2618 1878 
C 2618 2283 2522 2816 1798 2816 
C 1389 2816 1120 2604 941 2386 
L 941 2783 
L 474 2783 
L 474 0 
L 960 0 
L 960 1556 
C 960 1962 1114 2425 1549 2425 
C 2112 2425 2131 2045 2131 1826 
L 2131 0 
L 2618 0 
L 2618 1878 
z
" transform="scale(0.015625)"/>
       <path id="CMSS17-64" d="M 2611 4416 
L 2138 4416 
L 2138 2495 
C 1939 2662 1613 2816 1254 2816 
C 672 2816 211 2179 211 1375 
C 211 572 666 -64 1235 -64 
C 1677 -64 1971 172 2125 307 
L 2125 -13 
L 2611 -13 
L 2611 4416 
z
M 2125 851 
C 2125 760 2125 663 1926 488 
C 1798 378 1645 326 1498 326 
C 1152 326 698 585 698 1369 
C 698 2185 1210 2425 1562 2425 
C 1798 2425 1990 2308 2125 2114 
L 2125 851 
z
" transform="scale(0.015625)"/>
       <path id="CMSS17-69" d="M 979 4224 
L 442 4224 
L 442 3686 
L 979 3686 
L 979 4224 
z
M 947 2752 
L 474 2752 
L 474 0 
L 947 0 
L 947 2752 
z
" transform="scale(0.015625)"/>
       <path id="CMSS17-74" d="M 1069 2380 
L 1901 2380 
L 1901 2752 
L 1069 2752 
L 1069 3520 
L 614 3520 
L 614 2752 
L 109 2752 
L 109 2380 
L 602 2380 
L 602 751 
C 602 384 685 -64 1107 -64 
C 1427 -64 1722 25 2003 172 
L 1901 551 
C 1747 416 1562 339 1363 339 
C 1082 339 1069 699 1069 860 
L 1069 2380 
z
" transform="scale(0.015625)"/>
      </defs>
      <use xlink:href="#CMSS17-43" transform="scale(0.996264)"/>
      <use xlink:href="#CMSS17-6f" transform="translate(59.855772 0) scale(0.996264)"/>
      <use xlink:href="#CMSS17-6e" transform="translate(106.699395 0) scale(0.996264)"/>
      <use xlink:href="#CMSS17-64" transform="translate(154.904338 0) scale(0.996264)"/>
      <use xlink:href="#CMSS17-69" transform="translate(203.109281 0) scale(0.996264)"/>
      <use xlink:href="#CMSS17-74" transform="translate(225.290004 0) scale(0.996264)"/>
      <use xlink:href="#CMSS17-69" transform="translate(259.121571 0) scale(0.996264)"/>
      <use xlink:href="#CMSS17-6f" transform="translate(281.302294 0) scale(0.996264)"/>
      <use xlink:href="#CMSS17-6e" transform="translate(328.145918 0) scale(0.996264)"/>
     </g>
    </g>
   </g>
   <g id="matplotlib.axis_2">
    <g id="ytick_1">
     <g id="line2d_2">
      <defs>
       <path id="me41c9570da" d="M 0 0 
L -3.5 0 
" style="stroke: #262626; stroke-width: 1.5"/>
      </defs>
      <g>
       <use xlink:href="#me41c9570da" x="40.654882" y="345.82483" style="fill: #262626; stroke: #262626; stroke-width: 1.5"/>
      </g>
     </g>
     <g id="text_2">
      <!-- $\mathdefault{20}$ -->
      <g style="fill: #262626" transform="translate(19.997905 350.667768) scale(0.14 -0.14)">
       <defs>
        <path id="CMSS17-32" d="M 1651 1353 
C 1830 1538 2099 1761 2285 1984 
C 2464 2201 2701 2507 2701 2953 
C 2701 3655 2227 4288 1421 4288 
C 787 4288 422 3891 250 3272 
L 499 2928 
C 640 3508 838 3878 1338 3878 
C 1888 3878 2195 3431 2195 2940 
C 2195 2354 1747 1901 1408 1563 
C 1030 1187 659 805 301 409 
L 301 0 
L 2701 0 
L 2701 435 
L 1613 435 
C 1536 435 1459 428 1382 428 
L 742 428 
L 742 435 
L 1651 1353 
z
" transform="scale(0.015625)"/>
        <path id="CMSS17-30" d="M 2758 2073 
C 2758 2439 2752 3120 2490 3647 
C 2227 4153 1805 4288 1504 4288 
C 1069 4288 698 4031 506 3621 
C 301 3191 243 2748 243 2073 
C 243 1611 262 1046 493 551 
C 755 6 1197 -128 1498 -128 
C 1894 -128 2278 83 2496 525 
C 2720 988 2758 1495 2758 2073 
z
M 1498 262 
C 1011 262 864 821 819 1007 
C 742 1328 730 1636 730 2144 
C 730 2542 730 2992 851 3345 
C 998 3756 1254 3897 1498 3897 
C 1971 3897 2125 3422 2176 3255 
C 2272 2915 2272 2516 2272 2144 
C 2272 1546 2272 262 1498 262 
z
" transform="scale(0.015625)"/>
       </defs>
       <use xlink:href="#CMSS17-32" transform="scale(0.996264)"/>
       <use xlink:href="#CMSS17-30" transform="translate(46.843624 0) scale(0.996264)"/>
      </g>
     </g>
    </g>
    <g id="ytick_2">
     <g id="line2d_3">
      <g>
       <use xlink:href="#me41c9570da" x="40.654882" y="263.882504" style="fill: #262626; stroke: #262626; stroke-width: 1.5"/>
      </g>
     </g>
     <g id="text_3">
      <!-- $\mathdefault{40}$ -->
      <g style="fill: #262626" transform="translate(19.997905 268.725442) scale(0.14 -0.14)">
       <defs>
        <path id="CMSS17-34" d="M 2253 1088 
L 2835 1088 
L 2835 1478 
L 2253 1478 
L 2253 4224 
L 1690 4224 
L 166 1478 
L 166 1088 
L 1747 1088 
L 1747 0 
L 2253 0 
L 2253 1088 
z
M 659 1478 
C 1030 2139 1766 3474 1766 3927 
L 1766 1478 
L 659 1478 
z
" transform="scale(0.015625)"/>
       </defs>
       <use xlink:href="#CMSS17-34" transform="scale(0.996264)"/>
       <use xlink:href="#CMSS17-30" transform="translate(46.843624 0) scale(0.996264)"/>
      </g>
     </g>
    </g>
    <g id="ytick_3">
     <g id="line2d_4">
      <g>
       <use xlink:href="#me41c9570da" x="40.654882" y="181.940178" style="fill: #262626; stroke: #262626; stroke-width: 1.5"/>
      </g>
     </g>
     <g id="text_4">
      <!-- $\mathdefault{60}$ -->
      <g style="fill: #262626" transform="translate(19.997905 186.783116) scale(0.14 -0.14)">
       <defs>
        <path id="CMSS17-36" d="M 2496 4159 
C 2227 4268 2035 4288 1856 4288 
C 1024 4288 250 3408 250 2023 
C 250 268 986 -128 1510 -128 
C 1798 -128 2086 -39 2362 281 
C 2643 619 2752 900 2752 1392 
C 2752 2183 2362 2886 1779 2886 
C 1357 2886 992 2662 768 2381 
C 832 3290 1254 3897 1862 3897 
C 2029 3897 2246 3871 2496 3760 
L 2496 4159 
z
M 774 1372 
C 774 1423 774 1455 781 1551 
C 781 2049 1069 2496 1536 2496 
C 1837 2496 1990 2336 2106 2138 
C 2240 1889 2246 1653 2246 1392 
C 2246 1143 2246 894 2099 638 
C 1978 441 1818 268 1510 268 
C 902 268 800 1117 774 1372 
z
" transform="scale(0.015625)"/>
       </defs>
       <use xlink:href="#CMSS17-36" transform="scale(0.996264)"/>
       <use xlink:href="#CMSS17-30" transform="translate(46.843624 0) scale(0.996264)"/>
      </g>
     </g>
    </g>
    <g id="ytick_4">
     <g id="line2d_5">
      <g>
       <use xlink:href="#me41c9570da" x="40.654882" y="99.997851" style="fill: #262626; stroke: #262626; stroke-width: 1.5"/>
      </g>
     </g>
     <g id="text_5">
      <!-- $\mathdefault{80}$ -->
      <g style="fill: #262626" transform="translate(19.997905 104.84079) scale(0.14 -0.14)">
       <defs>
        <path id="CMSS17-38" d="M 1933 2246 
C 2419 2406 2669 2793 2669 3174 
C 2669 3774 2157 4288 1504 4288 
C 826 4288 333 3755 333 3174 
C 333 2799 576 2412 1069 2246 
C 442 2003 250 1516 250 1152 
C 250 448 819 -128 1498 -128 
C 2202 -128 2752 460 2752 1152 
C 2752 1574 2502 2022 1933 2246 
z
M 1504 2438 
C 1075 2438 787 2728 787 3167 
C 787 3613 1075 3897 1504 3897 
C 1901 3897 2214 3639 2214 3167 
C 2214 2703 1907 2438 1504 2438 
z
M 1504 268 
C 1139 268 749 518 749 1158 
C 749 1817 1184 2048 1498 2048 
C 1843 2048 2253 1804 2253 1158 
C 2253 492 1830 268 1504 268 
z
" transform="scale(0.015625)"/>
       </defs>
       <use xlink:href="#CMSS17-38" transform="scale(0.996264)"/>
       <use xlink:href="#CMSS17-30" transform="translate(46.843624 0) scale(0.996264)"/>
      </g>
     </g>
    </g>
    <g id="ytick_5">
     <g id="line2d_6">
      <defs>
       <path id="m2ab069fbac" d="M 0 0 
L -2.5 0 
" style="stroke: #262626; stroke-width: 1.5"/>
      </defs>
      <g>
       <use xlink:href="#m2ab069fbac" x="40.654882" y="386.795993" style="fill: #262626; stroke: #262626; stroke-width: 1.5"/>
      </g>
     </g>
    </g>
    <g id="ytick_6">
     <g id="line2d_7">
      <g>
       <use xlink:href="#m2ab069fbac" x="40.654882" y="366.310411" style="fill: #262626; stroke: #262626; stroke-width: 1.5"/>
      </g>
     </g>
    </g>
    <g id="ytick_7">
     <g id="line2d_8">
      <g>
       <use xlink:href="#m2ab069fbac" x="40.654882" y="325.339248" style="fill: #262626; stroke: #262626; stroke-width: 1.5"/>
      </g>
     </g>
    </g>
    <g id="ytick_8">
     <g id="line2d_9">
      <g>
       <use xlink:href="#m2ab069fbac" x="40.654882" y="304.853667" style="fill: #262626; stroke: #262626; stroke-width: 1.5"/>
      </g>
     </g>
    </g>
    <g id="ytick_9">
     <g id="line2d_10">
      <g>
       <use xlink:href="#m2ab069fbac" x="40.654882" y="284.368085" style="fill: #262626; stroke: #262626; stroke-width: 1.5"/>
      </g>
     </g>
    </g>
    <g id="ytick_10">
     <g id="line2d_11">
      <g>
       <use xlink:href="#m2ab069fbac" x="40.654882" y="243.396922" style="fill: #262626; stroke: #262626; stroke-width: 1.5"/>
      </g>
     </g>
    </g>
    <g id="ytick_11">
     <g id="line2d_12">
      <g>
       <use xlink:href="#m2ab069fbac" x="40.654882" y="222.911341" style="fill: #262626; stroke: #262626; stroke-width: 1.5"/>
      </g>
     </g>
    </g>
    <g id="ytick_12">
     <g id="line2d_13">
      <g>
       <use xlink:href="#m2ab069fbac" x="40.654882" y="202.425759" style="fill: #262626; stroke: #262626; stroke-width: 1.5"/>
      </g>
     </g>
    </g>
    <g id="ytick_13">
     <g id="line2d_14">
      <g>
       <use xlink:href="#m2ab069fbac" x="40.654882" y="161.454596" style="fill: #262626; stroke: #262626; stroke-width: 1.5"/>
      </g>
     </g>
    </g>
    <g id="ytick_14">
     <g id="line2d_15">
      <g>
       <use xlink:href="#m2ab069fbac" x="40.654882" y="140.969015" style="fill: #262626; stroke: #262626; stroke-width: 1.5"/>
      </g>
     </g>
    </g>
    <g id="ytick_15">
     <g id="line2d_16">
      <g>
       <use xlink:href="#m2ab069fbac" x="40.654882" y="120.483433" style="fill: #262626; stroke: #262626; stroke-width: 1.5"/>
      </g>
     </g>
    </g>
    <g id="ytick_16">
     <g id="line2d_17">
      <g>
       <use xlink:href="#m2ab069fbac" x="40.654882" y="79.51227" style="fill: #262626; stroke: #262626; stroke-width: 1.5"/>
      </g>
     </g>
    </g>
    <g id="ytick_17">
     <g id="line2d_18">
      <g>
       <use xlink:href="#m2ab069fbac" x="40.654882" y="59.026688" style="fill: #262626; stroke: #262626; stroke-width: 1.5"/>
      </g>
     </g>
    </g>
    <g id="ytick_18">
     <g id="line2d_19">
      <g>
       <use xlink:href="#m2ab069fbac" x="40.654882" y="38.541107" style="fill: #262626; stroke: #262626; stroke-width: 1.5"/>
      </g>
     </g>
    </g>
    <g id="text_6">
     <!-- FWHM -->
     <g style="fill: #262626" transform="translate(13.285876 229.569405) rotate(-90) scale(0.14 -0.14)">
      <defs>
       <path id="CMSS17-46" d="M 2918 1984 
L 2918 2374 
L 1101 2374 
L 1101 3993 
L 1882 3993 
C 1958 3993 2035 3987 2112 3987 
L 3168 3987 
L 3168 4403 
L 563 4403 
L 563 0 
L 1101 0 
L 1101 1984 
L 2918 1984 
z
" transform="scale(0.015625)"/>
       <path id="CMSS17-57" d="M 5581 4416 
L 5094 4416 
L 4557 2436 
C 4474 2118 4397 1800 4320 1482 
C 4205 1012 4122 681 4109 516 
L 4102 516 
C 4090 687 4006 1050 3904 1457 
C 3827 1794 3744 2131 3654 2462 
L 3123 4416 
L 2586 4416 
L 2080 2564 
L 1824 1552 
C 1632 751 1626 636 1613 509 
L 1606 509 
C 1606 547 1581 757 1402 1501 
C 1312 1870 1222 2246 1126 2602 
L 634 4416 
L 83 4416 
L 1299 0 
L 1830 0 
L 2336 1838 
L 2592 2850 
C 2765 3562 2803 3740 2816 3899 
L 2822 3899 
C 2822 3874 2880 3473 3130 2544 
L 3808 0 
L 4365 0 
L 5581 4416 
z
" transform="scale(0.015625)"/>
       <path id="CMSS17-48" d="M 3674 4416 
L 3136 4416 
L 3136 2496 
L 1101 2496 
L 1101 4416 
L 563 4416 
L 563 0 
L 1101 0 
L 1101 2105 
L 3136 2105 
L 3136 0 
L 3674 0 
L 3674 4416 
z
" transform="scale(0.015625)"/>
       <path id="CMSS17-4d" d="M 3194 2373 
L 2886 1476 
C 2835 1311 2662 795 2624 592 
L 2618 592 
C 2598 719 2560 853 2458 1177 
C 2400 1368 2336 1565 2272 1743 
L 1325 4416 
L 576 4416 
L 576 0 
L 1075 0 
L 1075 3899 
L 1082 3899 
C 1082 3893 1139 3613 1530 2500 
L 2374 102 
L 2848 102 
L 3610 2233 
C 3661 2379 3821 2843 3891 3066 
C 3955 3257 4115 3728 4154 3912 
L 4160 3912 
L 4160 0 
L 4666 0 
L 4666 4416 
L 3923 4416 
L 3194 2373 
z
" transform="scale(0.015625)"/>
      </defs>
      <use xlink:href="#CMSS17-46" transform="scale(0.996264)"/>
      <use xlink:href="#CMSS17-57" transform="translate(53.289559 0) scale(0.996264)"/>
      <use xlink:href="#CMSS17-48" transform="translate(141.531726 0) scale(0.996264)"/>
      <use xlink:href="#CMSS17-4d" transform="translate(207.593245 0) scale(0.996264)"/>
     </g>
    </g>
   </g>
   <g id="FillBetweenPolyCollection_1">
    <defs>
     <path id="m7a6235daeb" d="M 376.282889 -44.135238 
L 372.851993 -44.135238 
L 371.598421 -47.597325 
L 369.637863 -51.059413 
L 366.707058 -54.5215 
L 362.5151 -57.983587 
L 356.770443 -61.445675 
L 349.21411 -64.907762 
L 339.651941 -68.36985 
L 327.978161 -71.831937 
L 314.185696 -75.294025 
L 298.364746 -78.756112 
L 280.697312 -82.2182 
L 261.457507 -85.680287 
L 241.023001 -89.142375 
L 219.892956 -92.604462 
L 198.697477 -96.066549 
L 178.180118 -99.528637 
L 159.142443 -102.990724 
L 142.356176 -106.452812 
L 128.465981 -109.914899 
L 117.914287 -113.376987 
L 110.913006 -116.839074 
L 107.467698 -120.301162 
L 107.437394 -123.763249 
L 110.599553 -127.225336 
L 116.691489 -130.687424 
L 125.415481 -134.149511 
L 136.415678 -137.611599 
L 149.249729 -141.073686 
L 163.38018 -144.535774 
L 178.200593 -147.997861 
L 193.095679 -151.459949 
L 207.521159 -154.922036 
L 221.082125 -158.384123 
L 233.588789 -161.846211 
L 245.073467 -165.308298 
L 255.760894 -168.770386 
L 265.994629 -172.232473 
L 276.134307 -175.694561 
L 286.448834 -179.156648 
L 297.034698 -182.618736 
L 307.783071 -186.080823 
L 318.404913 -189.542911 
L 328.504891 -193.004998 
L 337.680051 -196.467085 
L 345.613277 -199.929173 
L 352.13628 -203.39126 
L 357.249079 -206.853348 
L 361.097272 -210.315435 
L 363.919904 -213.777523 
L 365.986289 -217.23961 
L 367.539391 -220.701698 
L 368.757915 -224.163785 
L 369.741654 -227.625872 
L 370.517721 -231.08796 
L 371.060967 -234.550047 
L 371.320852 -238.012135 
L 371.248487 -241.474222 
L 370.819965 -244.93631 
L 370.053706 -248.398397 
L 369.019961 -251.860485 
L 367.840208 -255.322572 
L 366.674623 -258.784659 
L 365.697864 -262.246747 
L 365.067164 -265.708834 
L 364.890392 -269.170922 
L 365.203347 -272.633009 
L 365.963561 -276.095097 
L 367.062772 -279.557184 
L 368.354001 -283.019272 
L 369.684561 -286.481359 
L 370.925257 -289.943446 
L 371.988599 -293.405534 
L 372.833535 -296.867621 
L 373.458773 -300.329709 
L 373.889512 -303.791796 
L 374.162729 -307.253884 
L 374.314845 -310.715971 
L 374.373494 -314.178059 
L 374.353552 -317.640146 
L 374.256752 -321.102234 
L 374.074224 -324.564321 
L 373.791548 -328.026408 
L 373.395963 -331.488496 
L 372.8849 -334.950583 
L 372.274117 -338.412671 
L 371.60287 -341.874758 
L 370.933454 -345.336846 
L 370.343563 -348.798933 
L 369.912215 -352.261021 
L 369.702581 -355.723108 
L 369.746856 -359.185195 
L 370.038164 -362.647283 
L 370.532309 -366.10937 
L 371.15876 -369.571458 
L 371.837114 -373.033545 
L 372.493757 -376.495633 
L 373.074061 -379.95772 
L 373.547682 -383.419808 
L 373.907166 -386.881895 
L 375.227716 -386.881895 
L 375.227716 -386.881895 
L 375.5872 -383.419808 
L 376.060821 -379.95772 
L 376.641125 -376.495633 
L 377.297768 -373.033545 
L 377.976122 -369.571458 
L 378.602574 -366.10937 
L 379.096719 -362.647283 
L 379.388026 -359.185195 
L 379.432301 -355.723108 
L 379.222667 -352.261021 
L 378.791319 -348.798933 
L 378.201428 -345.336846 
L 377.532012 -341.874758 
L 376.860765 -338.412671 
L 376.249982 -334.950583 
L 375.738919 -331.488496 
L 375.343334 -328.026408 
L 375.060659 -324.564321 
L 374.87813 -321.102234 
L 374.78133 -317.640146 
L 374.761388 -314.178059 
L 374.820037 -310.715971 
L 374.972153 -307.253884 
L 375.245371 -303.791796 
L 375.676109 -300.329709 
L 376.301347 -296.867621 
L 377.146283 -293.405534 
L 378.209625 -289.943446 
L 379.450321 -286.481359 
L 380.780881 -283.019272 
L 382.07211 -279.557184 
L 383.171321 -276.095097 
L 383.931535 -272.633009 
L 384.244491 -269.170922 
L 384.067718 -265.708834 
L 383.437018 -262.246747 
L 382.460259 -258.784659 
L 381.294674 -255.322572 
L 380.114921 -251.860485 
L 379.081176 -248.398397 
L 378.314918 -244.93631 
L 377.886395 -241.474222 
L 377.81403 -238.012135 
L 378.073915 -234.550047 
L 378.617161 -231.08796 
L 379.393228 -227.625872 
L 380.376967 -224.163785 
L 381.595491 -220.701698 
L 383.148593 -217.23961 
L 385.214978 -213.777523 
L 388.03761 -210.315435 
L 391.885803 -206.853348 
L 396.998602 -203.39126 
L 403.521605 -199.929173 
L 411.454831 -196.467085 
L 420.629991 -193.004998 
L 430.729969 -189.542911 
L 441.351811 -186.080823 
L 452.100184 -182.618736 
L 462.686048 -179.156648 
L 473.000575 -175.694561 
L 483.140253 -172.232473 
L 493.373988 -168.770386 
L 504.061416 -165.308298 
L 515.546093 -161.846211 
L 528.052757 -158.384123 
L 541.613724 -154.922036 
L 556.039203 -151.459949 
L 570.934289 -147.997861 
L 585.754702 -144.535774 
L 599.885153 -141.073686 
L 612.719204 -137.611599 
L 623.719401 -134.149511 
L 632.443394 -130.687424 
L 638.535329 -127.225336 
L 641.697488 -123.763249 
L 641.667184 -120.301162 
L 638.221876 -116.839074 
L 631.220595 -113.376987 
L 620.668901 -109.914899 
L 606.778706 -106.452812 
L 589.992439 -102.990724 
L 570.954764 -99.528637 
L 550.437405 -96.066549 
L 529.241926 -92.604462 
L 508.111881 -89.142375 
L 487.677375 -85.680287 
L 468.43757 -82.2182 
L 450.770136 -78.756112 
L 434.949187 -75.294025 
L 421.156721 -71.831937 
L 409.482941 -68.36985 
L 399.920772 -64.907762 
L 392.364439 -61.445675 
L 386.619782 -57.983587 
L 382.427824 -54.5215 
L 379.497019 -51.059413 
L 377.536461 -47.597325 
L 376.282889 -44.135238 
z
" style="stroke: #797979; stroke-width: 1.25"/>
    </defs>
    <g clip-path="url(#pb057ca3475)">
     <use xlink:href="#m7a6235daeb" x="0" y="424.08" style="fill: #b4d4df; stroke: #797979; stroke-width: 1.25"/>
    </g>
   </g>
   <g id="patch_3">
    <path d="M 40.654882 397.082095 
L 40.654882 20.060772 
" style="fill: none; stroke: #262626; stroke-width: 1.5; stroke-linejoin: miter; stroke-linecap: square"/>
   </g>
   <g id="patch_4">
    <path d="M 708.48 397.082095 
L 708.48 20.060772 
" style="fill: none; stroke: #262626; stroke-width: 1.5; stroke-linejoin: miter; stroke-linecap: square"/>
   </g>
   <g id="patch_5">
    <path d="M 40.654882 397.082095 
L 708.48 397.082095 
" style="fill: none; stroke: #262626; stroke-width: 1.5; stroke-linejoin: miter; stroke-linecap: square"/>
   </g>
   <g id="patch_6">
    <path d="M 40.654882 20.060772 
L 708.48 20.060772 
" style="fill: none; stroke: #262626; stroke-width: 1.5; stroke-linejoin: miter; stroke-linecap: square"/>
   </g>
   <g id="PathCollection_1">
    <defs>
     <path id="m56578f2caf" d="M 0 1.25 
C 0.331504 1.25 0.649475 1.118292 0.883883 0.883883 
C 1.118292 0.649475 1.25 0.331504 1.25 0 
C 1.25 -0.331504 1.118292 -0.649475 0.883883 -0.883883 
C 0.649475 -1.118292 0.331504 -1.25 0 -1.25 
C -0.331504 -1.25 -0.649475 -1.118292 -0.883883 -0.883883 
C -1.118292 -0.649475 -1.25 -0.331504 -1.25 0 
C -1.25 0.331504 -1.118292 0.649475 -0.883883 0.883883 
C -0.649475 1.118292 -0.331504 1.25 0 1.25 
z
" style="stroke: #797979"/>
    </defs>
    <g clip-path="url(#pb057ca3475)">
     <use xlink:href="#m56578f2caf" x="374.567441" y="313.047899" style="fill: #797979; stroke: #797979"/>
     <use xlink:href="#m56578f2caf" x="374.567441" y="292.562318" style="fill: #797979; stroke: #797979"/>
     <use xlink:href="#m56578f2caf" x="374.567441" y="313.047899" style="fill: #797979; stroke: #797979"/>
     <use xlink:href="#m56578f2caf" x="374.567441" y="337.630597" style="fill: #797979; stroke: #797979"/>
     <use xlink:href="#m56578f2caf" x="374.567441" y="317.145016" style="fill: #797979; stroke: #797979"/>
     <use xlink:href="#m56578f2caf" x="374.567441" y="317.145016" style="fill: #797979; stroke: #797979"/>
     <use xlink:href="#m56578f2caf" x="374.567441" y="296.659434" style="fill: #797979; stroke: #797979"/>
     <use xlink:href="#m56578f2caf" x="374.567441" y="288.465202" style="fill: #797979; stroke: #797979"/>
     <use xlink:href="#m56578f2caf" x="374.567441" y="284.368085" style="fill: #797979; stroke: #797979"/>
     <use xlink:href="#m56578f2caf" x="374.567441" y="341.727714" style="fill: #797979; stroke: #797979"/>
     <use xlink:href="#m56578f2caf" x="374.567441" y="276.173853" style="fill: #797979; stroke: #797979"/>
     <use xlink:href="#m56578f2caf" x="374.567441" y="243.396922" style="fill: #797979; stroke: #797979"/>
     <use xlink:href="#m56578f2caf" x="374.567441" y="321.242132" style="fill: #797979; stroke: #797979"/>
     <use xlink:href="#m56578f2caf" x="374.567441" y="300.756551" style="fill: #797979; stroke: #797979"/>
     <use xlink:href="#m56578f2caf" x="374.567441" y="300.756551" style="fill: #797979; stroke: #797979"/>
     <use xlink:href="#m56578f2caf" x="374.567441" y="288.465202" style="fill: #797979; stroke: #797979"/>
     <use xlink:href="#m56578f2caf" x="374.567441" y="251.591155" style="fill: #797979; stroke: #797979"/>
     <use xlink:href="#m56578f2caf" x="374.567441" y="267.97962" style="fill: #797979; stroke: #797979"/>
     <use xlink:href="#m56578f2caf" x="374.567441" y="325.339248" style="fill: #797979; stroke: #797979"/>
     <use xlink:href="#m56578f2caf" x="374.567441" y="317.145016" style="fill: #797979; stroke: #797979"/>
     <use xlink:href="#m56578f2caf" x="374.567441" y="317.145016" style="fill: #797979; stroke: #797979"/>
     <use xlink:href="#m56578f2caf" x="374.567441" y="313.047899" style="fill: #797979; stroke: #797979"/>
     <use xlink:href="#m56578f2caf" x="374.567441" y="313.047899" style="fill: #797979; stroke: #797979"/>
     <use xlink:href="#m56578f2caf" x="374.567441" y="292.562318" style="fill: #797979; stroke: #797979"/>
     <use xlink:href="#m56578f2caf" x="374.567441" y="284.368085" style="fill: #797979; stroke: #797979"/>
     <use xlink:href="#m56578f2caf" x="374.567441" y="296.659434" style="fill: #797979; stroke: #797979"/>
     <use xlink:href="#m56578f2caf" x="374.567441" y="329.436365" style="fill: #797979; stroke: #797979"/>
     <use xlink:href="#m56578f2caf" x="374.567441" y="304.853667" style="fill: #797979; stroke: #797979"/>
     <use xlink:href="#m56578f2caf" x="374.567441" y="304.853667" style="fill: #797979; stroke: #797979"/>
     <use xlink:href="#m56578f2caf" x="374.567441" y="329.436365" style="fill: #797979; stroke: #797979"/>
     <use xlink:href="#m56578f2caf" x="374.567441" y="300.756551" style="fill: #797979; stroke: #797979"/>
     <use xlink:href="#m56578f2caf" x="374.567441" y="349.921946" style="fill: #797979; stroke: #797979"/>
     <use xlink:href="#m56578f2caf" x="374.567441" y="313.047899" style="fill: #797979; stroke: #797979"/>
     <use xlink:href="#m56578f2caf" x="374.567441" y="333.533481" style="fill: #797979; stroke: #797979"/>
     <use xlink:href="#m56578f2caf" x="374.567441" y="284.368085" style="fill: #797979; stroke: #797979"/>
     <use xlink:href="#m56578f2caf" x="374.567441" y="292.562318" style="fill: #797979; stroke: #797979"/>
     <use xlink:href="#m56578f2caf" x="374.567441" y="267.97962" style="fill: #797979; stroke: #797979"/>
     <use xlink:href="#m56578f2caf" x="374.567441" y="263.882504" style="fill: #797979; stroke: #797979"/>
     <use xlink:href="#m56578f2caf" x="374.567441" y="272.076736" style="fill: #797979; stroke: #797979"/>
     <use xlink:href="#m56578f2caf" x="374.567441" y="292.562318" style="fill: #797979; stroke: #797979"/>
     <use xlink:href="#m56578f2caf" x="374.567441" y="292.562318" style="fill: #797979; stroke: #797979"/>
     <use xlink:href="#m56578f2caf" x="374.567441" y="313.047899" style="fill: #797979; stroke: #797979"/>
     <use xlink:href="#m56578f2caf" x="374.567441" y="313.047899" style="fill: #797979; stroke: #797979"/>
     <use xlink:href="#m56578f2caf" x="374.567441" y="308.950783" style="fill: #797979; stroke: #797979"/>
     <use xlink:href="#m56578f2caf" x="374.567441" y="341.727714" style="fill: #797979; stroke: #797979"/>
     <use xlink:href="#m56578f2caf" x="374.567441" y="304.853667" style="fill: #797979; stroke: #797979"/>
     <use xlink:href="#m56578f2caf" x="374.567441" y="321.242132" style="fill: #797979; stroke: #797979"/>
     <use xlink:href="#m56578f2caf" x="374.567441" y="288.465202" style="fill: #797979; stroke: #797979"/>
     <use xlink:href="#m56578f2caf" x="374.567441" y="288.465202" style="fill: #797979; stroke: #797979"/>
     <use xlink:href="#m56578f2caf" x="374.567441" y="284.368085" style="fill: #797979; stroke: #797979"/>
     <use xlink:href="#m56578f2caf" x="374.567441" y="153.260363" style="fill: #797979; stroke: #797979"/>
     <use xlink:href="#m56578f2caf" x="374.567441" y="276.173853" style="fill: #797979; stroke: #797979"/>
     <use xlink:href="#m56578f2caf" x="374.567441" y="308.950783" style="fill: #797979; stroke: #797979"/>
     <use xlink:href="#m56578f2caf" x="374.567441" y="288.465202" style="fill: #797979; stroke: #797979"/>
     <use xlink:href="#m56578f2caf" x="374.567441" y="313.047899" style="fill: #797979; stroke: #797979"/>
     <use xlink:href="#m56578f2caf" x="374.567441" y="272.076736" style="fill: #797979; stroke: #797979"/>
     <use xlink:href="#m56578f2caf" x="374.567441" y="231.105573" style="fill: #797979; stroke: #797979"/>
     <use xlink:href="#m56578f2caf" x="374.567441" y="333.533481" style="fill: #797979; stroke: #797979"/>
     <use xlink:href="#m56578f2caf" x="374.567441" y="276.173853" style="fill: #797979; stroke: #797979"/>
     <use xlink:href="#m56578f2caf" x="374.567441" y="329.436365" style="fill: #797979; stroke: #797979"/>
     <use xlink:href="#m56578f2caf" x="374.567441" y="263.882504" style="fill: #797979; stroke: #797979"/>
     <use xlink:href="#m56578f2caf" x="374.567441" y="288.465202" style="fill: #797979; stroke: #797979"/>
     <use xlink:href="#m56578f2caf" x="374.567441" y="304.853667" style="fill: #797979; stroke: #797979"/>
     <use xlink:href="#m56578f2caf" x="374.567441" y="259.785387" style="fill: #797979; stroke: #797979"/>
     <use xlink:href="#m56578f2caf" x="374.567441" y="251.591155" style="fill: #797979; stroke: #797979"/>
     <use xlink:href="#m56578f2caf" x="374.567441" y="300.756551" style="fill: #797979; stroke: #797979"/>
     <use xlink:href="#m56578f2caf" x="374.567441" y="321.242132" style="fill: #797979; stroke: #797979"/>
     <use xlink:href="#m56578f2caf" x="374.567441" y="296.659434" style="fill: #797979; stroke: #797979"/>
     <use xlink:href="#m56578f2caf" x="374.567441" y="247.494039" style="fill: #797979; stroke: #797979"/>
     <use xlink:href="#m56578f2caf" x="374.567441" y="304.853667" style="fill: #797979; stroke: #797979"/>
     <use xlink:href="#m56578f2caf" x="374.567441" y="288.465202" style="fill: #797979; stroke: #797979"/>
     <use xlink:href="#m56578f2caf" x="374.567441" y="288.465202" style="fill: #797979; stroke: #797979"/>
     <use xlink:href="#m56578f2caf" x="374.567441" y="284.368085" style="fill: #797979; stroke: #797979"/>
     <use xlink:href="#m56578f2caf" x="374.567441" y="300.756551" style="fill: #797979; stroke: #797979"/>
     <use xlink:href="#m56578f2caf" x="374.567441" y="333.533481" style="fill: #797979; stroke: #797979"/>
     <use xlink:href="#m56578f2caf" x="374.567441" y="321.242132" style="fill: #797979; stroke: #797979"/>
     <use xlink:href="#m56578f2caf" x="374.567441" y="317.145016" style="fill: #797979; stroke: #797979"/>
     <use xlink:href="#m56578f2caf" x="374.567441" y="308.950783" style="fill: #797979; stroke: #797979"/>
     <use xlink:href="#m56578f2caf" x="374.567441" y="317.145016" style="fill: #797979; stroke: #797979"/>
     <use xlink:href="#m56578f2caf" x="374.567441" y="276.173853" style="fill: #797979; stroke: #797979"/>
     <use xlink:href="#m56578f2caf" x="374.567441" y="304.853667" style="fill: #797979; stroke: #797979"/>
     <use xlink:href="#m56578f2caf" x="374.567441" y="284.368085" style="fill: #797979; stroke: #797979"/>
     <use xlink:href="#m56578f2caf" x="374.567441" y="284.368085" style="fill: #797979; stroke: #797979"/>
     <use xlink:href="#m56578f2caf" x="374.567441" y="276.173853" style="fill: #797979; stroke: #797979"/>
     <use xlink:href="#m56578f2caf" x="374.567441" y="308.950783" style="fill: #797979; stroke: #797979"/>
     <use xlink:href="#m56578f2caf" x="374.567441" y="243.396922" style="fill: #797979; stroke: #797979"/>
     <use xlink:href="#m56578f2caf" x="374.567441" y="239.299806" style="fill: #797979; stroke: #797979"/>
     <use xlink:href="#m56578f2caf" x="374.567441" y="157.35748" style="fill: #797979; stroke: #797979"/>
     <use xlink:href="#m56578f2caf" x="374.567441" y="251.591155" style="fill: #797979; stroke: #797979"/>
     <use xlink:href="#m56578f2caf" x="374.567441" y="247.494039" style="fill: #797979; stroke: #797979"/>
     <use xlink:href="#m56578f2caf" x="374.567441" y="251.591155" style="fill: #797979; stroke: #797979"/>
     <use xlink:href="#m56578f2caf" x="374.567441" y="337.630597" style="fill: #797979; stroke: #797979"/>
     <use xlink:href="#m56578f2caf" x="374.567441" y="292.562318" style="fill: #797979; stroke: #797979"/>
     <use xlink:href="#m56578f2caf" x="374.567441" y="321.242132" style="fill: #797979; stroke: #797979"/>
     <use xlink:href="#m56578f2caf" x="374.567441" y="255.688271" style="fill: #797979; stroke: #797979"/>
     <use xlink:href="#m56578f2caf" x="374.567441" y="267.97962" style="fill: #797979; stroke: #797979"/>
     <use xlink:href="#m56578f2caf" x="374.567441" y="341.727714" style="fill: #797979; stroke: #797979"/>
     <use xlink:href="#m56578f2caf" x="374.567441" y="300.756551" style="fill: #797979; stroke: #797979"/>
     <use xlink:href="#m56578f2caf" x="374.567441" y="321.242132" style="fill: #797979; stroke: #797979"/>
     <use xlink:href="#m56578f2caf" x="374.567441" y="308.950783" style="fill: #797979; stroke: #797979"/>
     <use xlink:href="#m56578f2caf" x="374.567441" y="280.270969" style="fill: #797979; stroke: #797979"/>
     <use xlink:href="#m56578f2caf" x="374.567441" y="267.97962" style="fill: #797979; stroke: #797979"/>
     <use xlink:href="#m56578f2caf" x="374.567441" y="300.756551" style="fill: #797979; stroke: #797979"/>
     <use xlink:href="#m56578f2caf" x="374.567441" y="239.299806" style="fill: #797979; stroke: #797979"/>
     <use xlink:href="#m56578f2caf" x="374.567441" y="247.494039" style="fill: #797979; stroke: #797979"/>
     <use xlink:href="#m56578f2caf" x="374.567441" y="321.242132" style="fill: #797979; stroke: #797979"/>
     <use xlink:href="#m56578f2caf" x="374.567441" y="321.242132" style="fill: #797979; stroke: #797979"/>
     <use xlink:href="#m56578f2caf" x="374.567441" y="267.97962" style="fill: #797979; stroke: #797979"/>
     <use xlink:href="#m56578f2caf" x="374.567441" y="300.756551" style="fill: #797979; stroke: #797979"/>
     <use xlink:href="#m56578f2caf" x="374.567441" y="304.853667" style="fill: #797979; stroke: #797979"/>
     <use xlink:href="#m56578f2caf" x="374.567441" y="317.145016" style="fill: #797979; stroke: #797979"/>
     <use xlink:href="#m56578f2caf" x="374.567441" y="337.630597" style="fill: #797979; stroke: #797979"/>
     <use xlink:href="#m56578f2caf" x="374.567441" y="284.368085" style="fill: #797979; stroke: #797979"/>
     <use xlink:href="#m56578f2caf" x="374.567441" y="263.882504" style="fill: #797979; stroke: #797979"/>
     <use xlink:href="#m56578f2caf" x="374.567441" y="206.522875" style="fill: #797979; stroke: #797979"/>
     <use xlink:href="#m56578f2caf" x="374.567441" y="243.396922" style="fill: #797979; stroke: #797979"/>
     <use xlink:href="#m56578f2caf" x="374.567441" y="272.076736" style="fill: #797979; stroke: #797979"/>
     <use xlink:href="#m56578f2caf" x="374.567441" y="288.465202" style="fill: #797979; stroke: #797979"/>
     <use xlink:href="#m56578f2caf" x="374.567441" y="67.220921" style="fill: #797979; stroke: #797979"/>
    </g>
   </g>
   <g id="PathCollection_2">
    <defs>
     <path id="m1c8cae3e5e" d="M 0 2.5 
C 0.663008 2.5 1.29895 2.236584 1.767767 1.767767 
C 2.236584 1.29895 2.5 0.663008 2.5 0 
C 2.5 -0.663008 2.236584 -1.29895 1.767767 -1.767767 
C 1.29895 -2.236584 0.663008 -2.5 0 -2.5 
C -0.663008 -2.5 -1.29895 -2.236584 -1.767767 -1.767767 
C -2.236584 -1.29895 -2.5 -0.663008 -2.5 0 
C -2.5 0.663008 -2.236584 1.29895 -1.767767 1.767767 
C -1.29895 2.236584 -0.663008 2.5 0 2.5 
z
"/>
    </defs>
    <g clip-path="url(#pb057ca3475)">
     <use xlink:href="#m1c8cae3e5e" x="382.826683" y="313.047899" style="fill-opacity: 0.5"/>
     <use xlink:href="#m1c8cae3e5e" x="391.085925" y="292.562318" style="fill-opacity: 0.5"/>
     <use xlink:href="#m1c8cae3e5e" x="393.326683" y="313.047899" style="fill-opacity: 0.5"/>
     <use xlink:href="#m1c8cae3e5e" x="382.826683" y="337.630597" style="fill-opacity: 0.5"/>
     <use xlink:href="#m1c8cae3e5e" x="401.585925" y="317.145016" style="fill-opacity: 0.5"/>
     <use xlink:href="#m1c8cae3e5e" x="347.548958" y="317.145016" style="fill-opacity: 0.5"/>
     <use xlink:href="#m1c8cae3e5e" x="371.558199" y="296.659434" style="fill-opacity: 0.5"/>
     <use xlink:href="#m1c8cae3e5e" x="377.576683" y="288.465202" style="fill-opacity: 0.5"/>
     <use xlink:href="#m1c8cae3e5e" x="385.835925" y="284.368085" style="fill-opacity: 0.5"/>
     <use xlink:href="#m1c8cae3e5e" x="369.317441" y="341.727714" style="fill-opacity: 0.5"/>
     <use xlink:href="#m1c8cae3e5e" x="385.067441" y="276.173853" style="fill-opacity: 0.5"/>
     <use xlink:href="#m1c8cae3e5e" x="368.548958" y="243.396922" style="fill-opacity: 0.5"/>
     <use xlink:href="#m1c8cae3e5e" x="366.308199" y="321.242132" style="fill-opacity: 0.5"/>
     <use xlink:href="#m1c8cae3e5e" x="396.335925" y="300.756551" style="fill-opacity: 0.5"/>
     <use xlink:href="#m1c8cae3e5e" x="374.567441" y="300.756551" style="fill-opacity: 0.5"/>
     <use xlink:href="#m1c8cae3e5e" x="394.095166" y="288.465202" style="fill-opacity: 0.5"/>
     <use xlink:href="#m1c8cae3e5e" x="374.567441" y="251.591155" style="fill-opacity: 0.5"/>
     <use xlink:href="#m1c8cae3e5e" x="374.567441" y="267.97962" style="fill-opacity: 0.5"/>
     <use xlink:href="#m1c8cae3e5e" x="374.567441" y="325.339248" style="fill-opacity: 0.5"/>
     <use xlink:href="#m1c8cae3e5e" x="374.567441" y="317.145016" style="fill-opacity: 0.5"/>
     <use xlink:href="#m1c8cae3e5e" x="352.798958" y="317.145016" style="fill-opacity: 0.5"/>
     <use xlink:href="#m1c8cae3e5e" x="388.076683" y="313.047899" style="fill-opacity: 0.5"/>
     <use xlink:href="#m1c8cae3e5e" x="361.058199" y="313.047899" style="fill-opacity: 0.5"/>
     <use xlink:href="#m1c8cae3e5e" x="358.048958" y="292.562318" style="fill-opacity: 0.5"/>
     <use xlink:href="#m1c8cae3e5e" x="363.298958" y="284.368085" style="fill-opacity: 0.5"/>
     <use xlink:href="#m1c8cae3e5e" x="366.308199" y="296.659434" style="fill-opacity: 0.5"/>
     <use xlink:href="#m1c8cae3e5e" x="382.826683" y="329.436365" style="fill-opacity: 0.5"/>
     <use xlink:href="#m1c8cae3e5e" x="355.808199" y="304.853667" style="fill-opacity: 0.5"/>
     <use xlink:href="#m1c8cae3e5e" x="361.058199" y="304.853667" style="fill-opacity: 0.5"/>
     <use xlink:href="#m1c8cae3e5e" x="366.308199" y="329.436365" style="fill-opacity: 0.5"/>
     <use xlink:href="#m1c8cae3e5e" x="406.835925" y="300.756551" style="fill-opacity: 0.5"/>
     <use xlink:href="#m1c8cae3e5e" x="374.567441" y="349.921946" style="fill-opacity: 0.5"/>
     <use xlink:href="#m1c8cae3e5e" x="355.808199" y="313.047899" style="fill-opacity: 0.5"/>
     <use xlink:href="#m1c8cae3e5e" x="379.817441" y="333.533481" style="fill-opacity: 0.5"/>
     <use xlink:href="#m1c8cae3e5e" x="380.585925" y="284.368085" style="fill-opacity: 0.5"/>
     <use xlink:href="#m1c8cae3e5e" x="374.567441" y="292.562318" style="fill-opacity: 0.5"/>
     <use xlink:href="#m1c8cae3e5e" x="385.067441" y="267.97962" style="fill-opacity: 0.5"/>
     <use xlink:href="#m1c8cae3e5e" x="360.289716" y="263.882504" style="fill-opacity: 0.5"/>
     <use xlink:href="#m1c8cae3e5e" x="388.076683" y="272.076736" style="fill-opacity: 0.5"/>
     <use xlink:href="#m1c8cae3e5e" x="363.298958" y="292.562318" style="fill-opacity: 0.5"/>
     <use xlink:href="#m1c8cae3e5e" x="385.835925" y="292.562318" style="fill-opacity: 0.5"/>
     <use xlink:href="#m1c8cae3e5e" x="366.308199" y="313.047899" style="fill-opacity: 0.5"/>
     <use xlink:href="#m1c8cae3e5e" x="377.576683" y="313.047899" style="fill-opacity: 0.5"/>
     <use xlink:href="#m1c8cae3e5e" x="401.585925" y="308.950783" style="fill-opacity: 0.5"/>
     <use xlink:href="#m1c8cae3e5e" x="374.567441" y="341.727714" style="fill-opacity: 0.5"/>
     <use xlink:href="#m1c8cae3e5e" x="382.826683" y="304.853667" style="fill-opacity: 0.5"/>
     <use xlink:href="#m1c8cae3e5e" x="377.576683" y="321.242132" style="fill-opacity: 0.5"/>
     <use xlink:href="#m1c8cae3e5e" x="399.345166" y="288.465202" style="fill-opacity: 0.5"/>
     <use xlink:href="#m1c8cae3e5e" x="366.308199" y="288.465202" style="fill-opacity: 0.5"/>
     <use xlink:href="#m1c8cae3e5e" x="407.604408" y="284.368085" style="fill-opacity: 0.5"/>
     <use xlink:href="#m1c8cae3e5e" x="371.558199" y="153.260363" style="fill-opacity: 0.5"/>
     <use xlink:href="#m1c8cae3e5e" x="368.548958" y="276.173853" style="fill-opacity: 0.5"/>
     <use xlink:href="#m1c8cae3e5e" x="352.798958" y="308.950783" style="fill-opacity: 0.5"/>
     <use xlink:href="#m1c8cae3e5e" x="344.539716" y="288.465202" style="fill-opacity: 0.5"/>
     <use xlink:href="#m1c8cae3e5e" x="371.558199" y="313.047899" style="fill-opacity: 0.5"/>
     <use xlink:href="#m1c8cae3e5e" x="371.558199" y="272.076736" style="fill-opacity: 0.5"/>
     <use xlink:href="#m1c8cae3e5e" x="374.567441" y="231.105573" style="fill-opacity: 0.5"/>
     <use xlink:href="#m1c8cae3e5e" x="374.567441" y="333.533481" style="fill-opacity: 0.5"/>
     <use xlink:href="#m1c8cae3e5e" x="363.298958" y="276.173853" style="fill-opacity: 0.5"/>
     <use xlink:href="#m1c8cae3e5e" x="361.058199" y="329.436365" style="fill-opacity: 0.5"/>
     <use xlink:href="#m1c8cae3e5e" x="388.076683" y="263.882504" style="fill-opacity: 0.5"/>
     <use xlink:href="#m1c8cae3e5e" x="349.789716" y="288.465202" style="fill-opacity: 0.5"/>
     <use xlink:href="#m1c8cae3e5e" x="366.308199" y="304.853667" style="fill-opacity: 0.5"/>
     <use xlink:href="#m1c8cae3e5e" x="374.567441" y="259.785387" style="fill-opacity: 0.5"/>
     <use xlink:href="#m1c8cae3e5e" x="385.067441" y="251.591155" style="fill-opacity: 0.5"/>
     <use xlink:href="#m1c8cae3e5e" x="342.298958" y="300.756551" style="fill-opacity: 0.5"/>
     <use xlink:href="#m1c8cae3e5e" x="382.826683" y="321.242132" style="fill-opacity: 0.5"/>
     <use xlink:href="#m1c8cae3e5e" x="377.576683" y="296.659434" style="fill-opacity: 0.5"/>
     <use xlink:href="#m1c8cae3e5e" x="388.076683" y="247.494039" style="fill-opacity: 0.5"/>
     <use xlink:href="#m1c8cae3e5e" x="371.558199" y="304.853667" style="fill-opacity: 0.5"/>
     <use xlink:href="#m1c8cae3e5e" x="404.595166" y="288.465202" style="fill-opacity: 0.5"/>
     <use xlink:href="#m1c8cae3e5e" x="355.039716" y="288.465202" style="fill-opacity: 0.5"/>
     <use xlink:href="#m1c8cae3e5e" x="374.567441" y="284.368085" style="fill-opacity: 0.5"/>
     <use xlink:href="#m1c8cae3e5e" x="352.798958" y="300.756551" style="fill-opacity: 0.5"/>
     <use xlink:href="#m1c8cae3e5e" x="369.317441" y="333.533481" style="fill-opacity: 0.5"/>
     <use xlink:href="#m1c8cae3e5e" x="388.076683" y="321.242132" style="fill-opacity: 0.5"/>
     <use xlink:href="#m1c8cae3e5e" x="406.835925" y="317.145016" style="fill-opacity: 0.5"/>
     <use xlink:href="#m1c8cae3e5e" x="396.335925" y="308.950783" style="fill-opacity: 0.5"/>
     <use xlink:href="#m1c8cae3e5e" x="396.335925" y="317.145016" style="fill-opacity: 0.5"/>
     <use xlink:href="#m1c8cae3e5e" x="374.567441" y="276.173853" style="fill-opacity: 0.5"/>
     <use xlink:href="#m1c8cae3e5e" x="377.576683" y="304.853667" style="fill-opacity: 0.5"/>
     <use xlink:href="#m1c8cae3e5e" x="391.085925" y="284.368085" style="fill-opacity: 0.5"/>
     <use xlink:href="#m1c8cae3e5e" x="358.048958" y="284.368085" style="fill-opacity: 0.5"/>
     <use xlink:href="#m1c8cae3e5e" x="379.817441" y="276.173853" style="fill-opacity: 0.5"/>
     <use xlink:href="#m1c8cae3e5e" x="347.548958" y="308.950783" style="fill-opacity: 0.5"/>
     <use xlink:href="#m1c8cae3e5e" x="374.567441" y="243.396922" style="fill-opacity: 0.5"/>
     <use xlink:href="#m1c8cae3e5e" x="382.826683" y="239.299806" style="fill-opacity: 0.5"/>
     <use xlink:href="#m1c8cae3e5e" x="374.567441" y="157.35748" style="fill-opacity: 0.5"/>
     <use xlink:href="#m1c8cae3e5e" x="368.548958" y="251.591155" style="fill-opacity: 0.5"/>
     <use xlink:href="#m1c8cae3e5e" x="365.539716" y="247.494039" style="fill-opacity: 0.5"/>
     <use xlink:href="#m1c8cae3e5e" x="379.817441" y="251.591155" style="fill-opacity: 0.5"/>
     <use xlink:href="#m1c8cae3e5e" x="361.058199" y="337.630597" style="fill-opacity: 0.5"/>
     <use xlink:href="#m1c8cae3e5e" x="380.585925" y="292.562318" style="fill-opacity: 0.5"/>
     <use xlink:href="#m1c8cae3e5e" x="371.558199" y="321.242132" style="fill-opacity: 0.5"/>
     <use xlink:href="#m1c8cae3e5e" x="371.558199" y="255.688271" style="fill-opacity: 0.5"/>
     <use xlink:href="#m1c8cae3e5e" x="379.817441" y="267.97962" style="fill-opacity: 0.5"/>
     <use xlink:href="#m1c8cae3e5e" x="379.817441" y="341.727714" style="fill-opacity: 0.5"/>
     <use xlink:href="#m1c8cae3e5e" x="401.585925" y="300.756551" style="fill-opacity: 0.5"/>
     <use xlink:href="#m1c8cae3e5e" x="355.808199" y="321.242132" style="fill-opacity: 0.5"/>
     <use xlink:href="#m1c8cae3e5e" x="374.567441" y="308.950783" style="fill-opacity: 0.5"/>
     <use xlink:href="#m1c8cae3e5e" x="371.558199" y="280.270969" style="fill-opacity: 0.5"/>
     <use xlink:href="#m1c8cae3e5e" x="368.548958" y="267.97962" style="fill-opacity: 0.5"/>
     <use xlink:href="#m1c8cae3e5e" x="347.548958" y="300.756551" style="fill-opacity: 0.5"/>
     <use xlink:href="#m1c8cae3e5e" x="371.558199" y="239.299806" style="fill-opacity: 0.5"/>
     <use xlink:href="#m1c8cae3e5e" x="371.558199" y="247.494039" style="fill-opacity: 0.5"/>
     <use xlink:href="#m1c8cae3e5e" x="393.326683" y="321.242132" style="fill-opacity: 0.5"/>
     <use xlink:href="#m1c8cae3e5e" x="361.058199" y="321.242132" style="fill-opacity: 0.5"/>
     <use xlink:href="#m1c8cae3e5e" x="363.298958" y="267.97962" style="fill-opacity: 0.5"/>
     <use xlink:href="#m1c8cae3e5e" x="391.085925" y="300.756551" style="fill-opacity: 0.5"/>
     <use xlink:href="#m1c8cae3e5e" x="388.076683" y="304.853667" style="fill-opacity: 0.5"/>
     <use xlink:href="#m1c8cae3e5e" x="342.298958" y="317.145016" style="fill-opacity: 0.5"/>
     <use xlink:href="#m1c8cae3e5e" x="366.308199" y="337.630597" style="fill-opacity: 0.5"/>
     <use xlink:href="#m1c8cae3e5e" x="341.530474" y="284.368085" style="fill-opacity: 0.5"/>
     <use xlink:href="#m1c8cae3e5e" x="371.558199" y="263.882504" style="fill-opacity: 0.5"/>
     <use xlink:href="#m1c8cae3e5e" x="374.567441" y="206.522875" style="fill-opacity: 0.5"/>
     <use xlink:href="#m1c8cae3e5e" x="379.817441" y="243.396922" style="fill-opacity: 0.5"/>
     <use xlink:href="#m1c8cae3e5e" x="360.289716" y="272.076736" style="fill-opacity: 0.5"/>
     <use xlink:href="#m1c8cae3e5e" x="371.558199" y="288.465202" style="fill-opacity: 0.5"/>
     <use xlink:href="#m1c8cae3e5e" x="374.567441" y="67.220921" style="fill-opacity: 0.5"/>
    </g>
   </g>
   <g id="text_7">
    <!-- Full Width Half Maximum (FWHM) Distribution for Each Condition -->
    <g style="fill: #262626" transform="translate(179.77583 14.060772) scale(0.14 -0.14)">
     <defs>
      <path id="CMSS17-75" d="M 2618 2752 
L 2131 2752 
L 2131 976 
C 2131 500 1786 307 1421 307 
C 998 307 960 448 960 712 
L 960 2752 
L 474 2752 
L 474 680 
C 474 179 646 -64 1088 -64 
C 1306 -64 1798 -13 2144 307 
L 2144 -13 
L 2618 -13 
L 2618 2752 
z
" transform="scale(0.015625)"/>
      <path id="CMSS17-6c" d="M 947 4416 
L 474 4416 
L 474 0 
L 947 0 
L 947 4416 
z
" transform="scale(0.015625)"/>
      <path id="CMSS17-68" d="M 2618 1878 
C 2618 2283 2522 2816 1798 2816 
C 1395 2816 1133 2617 947 2399 
L 947 4416 
L 474 4416 
L 474 0 
L 960 0 
L 960 1556 
C 960 1962 1114 2425 1549 2425 
C 2112 2425 2131 2045 2131 1826 
L 2131 0 
L 2618 0 
L 2618 1878 
z
" transform="scale(0.015625)"/>
      <path id="CMSS17-61" d="M 2406 1789 
C 2406 2399 1978 2816 1402 2816 
C 1120 2816 813 2764 461 2559 
L 499 2133 
C 659 2250 934 2438 1395 2438 
C 1722 2438 1920 2185 1920 1782 
L 1920 1536 
C 896 1504 256 1209 256 711 
C 256 452 416 -64 947 -64 
C 1043 -64 1562 -52 1933 224 
L 1933 -13 
L 2406 -13 
L 2406 1789 
z
M 1920 824 
C 1920 711 1920 559 1728 446 
C 1562 339 1350 326 1261 326 
C 941 326 723 503 723 723 
C 723 1165 1722 1209 1920 1216 
L 1920 824 
z
" transform="scale(0.015625)"/>
      <path id="CMSS17-66" d="M 1075 2380 
L 1722 2380 
L 1722 2752 
L 1062 2752 
L 1062 3563 
C 1062 4013 1408 4089 1606 4089 
C 1670 4089 1850 4089 2080 4007 
L 2080 4428 
C 1933 4460 1754 4480 1613 4480 
C 1018 4480 602 3994 602 3366 
L 602 2752 
L 160 2752 
L 160 2380 
L 602 2380 
L 602 0 
L 1075 0 
L 1075 2380 
z
" transform="scale(0.015625)"/>
      <path id="CMSS17-78" d="M 1587 1420 
L 2656 2752 
L 2099 2752 
L 1363 1785 
L 602 2752 
L 32 2752 
L 1139 1420 
L 0 0 
L 563 0 
L 1363 1126 
L 2195 0 
L 2758 0 
L 1587 1420 
z
" transform="scale(0.015625)"/>
      <path id="CMSS17-6d" d="M 4288 1878 
C 4288 2309 4179 2816 3462 2816 
C 2982 2816 2694 2515 2566 2328 
C 2451 2668 2182 2816 1798 2816 
C 1363 2816 1088 2566 941 2386 
L 941 2783 
L 474 2783 
L 474 0 
L 960 0 
L 960 1556 
C 960 1936 1101 2425 1555 2425 
C 2138 2425 2138 2013 2138 1826 
L 2138 0 
L 2624 0 
L 2624 1556 
C 2624 1936 2765 2425 3219 2425 
C 3802 2425 3802 2013 3802 1826 
L 3802 0 
L 4288 0 
L 4288 1878 
z
" transform="scale(0.015625)"/>
      <path id="CMSS17-28" d="M 1613 4800 
C 1267 4447 474 3627 474 1603 
C 474 -428 1267 -1242 1613 -1600 
L 2003 -1600 
C 1216 -781 960 366 960 1596 
C 960 2820 1203 3973 2003 4800 
L 1613 4800 
z
" transform="scale(0.015625)"/>
      <path id="CMSS17-29" d="M 723 -1600 
C 1069 -1248 1862 -428 1862 1596 
C 1862 3627 1069 4440 723 4800 
L 333 4800 
C 1120 3979 1376 2833 1376 1603 
C 1376 379 1133 -774 333 -1600 
L 723 -1600 
z
" transform="scale(0.015625)"/>
      <path id="CMSS17-44" d="M 570 4416 
L 570 0 
L 2144 0 
C 3194 0 4000 981 4000 2169 
C 4000 3396 3194 4416 2144 4416 
L 570 4416 
z
M 1094 358 
L 1094 4057 
L 2003 4057 
C 2861 4057 3475 3275 3475 2169 
C 3475 1108 2867 358 2003 358 
L 1094 358 
z
" transform="scale(0.015625)"/>
      <path id="CMSS17-73" d="M 2061 2623 
C 1683 2803 1389 2816 1197 2816 
C 742 2816 198 2655 198 2009 
C 198 1363 902 1222 1094 1183 
C 1389 1126 1715 1062 1715 742 
C 1715 339 1254 339 1171 339 
C 915 339 563 409 243 639 
L 166 211 
C 531 0 883 -64 1178 -64 
C 1965 -64 2163 416 2163 780 
C 2163 1094 1984 1305 1862 1401 
C 1651 1567 1574 1587 1050 1695 
C 960 1708 646 1779 646 2067 
C 646 2431 1050 2431 1139 2431 
C 1555 2431 1811 2303 1984 2207 
L 2061 2623 
z
" transform="scale(0.015625)"/>
      <path id="CMSS17-72" d="M 954 1369 
C 954 1974 1395 2379 1958 2392 
L 1958 2816 
C 1549 2809 1165 2604 934 2270 
L 934 2783 
L 480 2783 
L 480 0 
L 954 0 
L 954 1369 
z
" transform="scale(0.015625)"/>
      <path id="CMSS17-62" d="M 954 4416 
L 480 4416 
L 480 -13 
L 966 -13 
L 966 275 
C 1210 38 1504 -64 1766 -64 
C 2381 -64 2880 559 2880 1382 
C 2880 2133 2496 2816 1926 2816 
C 1523 2816 1165 2649 954 2476 
L 954 4416 
z
M 966 2095 
C 1107 2276 1306 2425 1587 2425 
C 1965 2425 2394 2146 2394 1382 
C 2394 566 1882 326 1530 326 
C 1402 326 1267 358 1139 468 
C 966 624 966 721 966 812 
L 966 2095 
z
" transform="scale(0.015625)"/>
      <path id="CMSS17-45" d="M 1958 435 
C 1446 435 1216 435 1101 428 
L 1101 2105 
L 3085 2105 
L 3085 2496 
L 1101 2496 
L 1101 3993 
L 1926 3993 
C 2003 3993 2080 3987 2157 3987 
L 3251 3987 
L 3251 4403 
L 563 4403 
L 563 0 
L 3334 0 
L 3334 441 
L 1958 435 
z
" transform="scale(0.015625)"/>
      <path id="CMSS17-63" d="M 2464 2540 
C 2464 2585 2170 2713 2093 2739 
C 1882 2816 1613 2816 1542 2816 
C 710 2816 211 2092 211 1363 
C 211 595 768 -64 1517 -64 
C 1946 -64 2253 76 2502 243 
L 2464 665 
C 2189 454 1869 339 1523 339 
C 1024 339 698 774 698 1369 
C 698 1830 909 2412 1549 2412 
C 1901 2412 2099 2342 2394 2143 
L 2464 2540 
z
" transform="scale(0.015625)"/>
     </defs>
     <use xlink:href="#CMSS17-46" transform="scale(0.996264)"/>
     <use xlink:href="#CMSS17-75" transform="translate(50.687105 0) scale(0.996264)"/>
     <use xlink:href="#CMSS17-6c" transform="translate(98.892048 0) scale(0.996264)"/>
     <use xlink:href="#CMSS17-6c" transform="translate(121.072772 0) scale(0.996264)"/>
     <use xlink:href="#CMSS17-57" transform="translate(174.482607 0) scale(0.996264)"/>
     <use xlink:href="#CMSS17-69" transform="translate(262.724774 0) scale(0.996264)"/>
     <use xlink:href="#CMSS17-64" transform="translate(284.905497 0) scale(0.996264)"/>
     <use xlink:href="#CMSS17-74" transform="translate(333.11044 0) scale(0.996264)"/>
     <use xlink:href="#CMSS17-68" transform="translate(366.942006 0) scale(0.996264)"/>
     <use xlink:href="#CMSS17-48" transform="translate(446.376062 0) scale(0.996264)"/>
     <use xlink:href="#CMSS17-61" transform="translate(512.437581 0) scale(0.996264)"/>
     <use xlink:href="#CMSS17-6c" transform="translate(557.359502 0) scale(0.996264)"/>
     <use xlink:href="#CMSS17-66" transform="translate(579.540225 0) scale(0.996264)"/>
     <use xlink:href="#CMSS17-4d" transform="translate(639.395997 0) scale(0.996264)"/>
     <use xlink:href="#CMSS17-61" transform="translate(721.072027 0) scale(0.996264)"/>
     <use xlink:href="#CMSS17-78" transform="translate(765.993947 0) scale(0.996264)"/>
     <use xlink:href="#CMSS17-69" transform="translate(808.994089 0) scale(0.996264)"/>
     <use xlink:href="#CMSS17-6d" transform="translate(831.174812 0) scale(0.996264)"/>
     <use xlink:href="#CMSS17-75" transform="translate(905.404066 0) scale(0.996264)"/>
     <use xlink:href="#CMSS17-6d" transform="translate(953.60901 0) scale(0.996264)"/>
     <use xlink:href="#CMSS17-28" transform="translate(1059.067377 0) scale(0.996264)"/>
     <use xlink:href="#CMSS17-46" transform="translate(1095.501291 0) scale(0.996264)"/>
     <use xlink:href="#CMSS17-57" transform="translate(1148.79085 0) scale(0.996264)"/>
     <use xlink:href="#CMSS17-48" transform="translate(1237.033016 0) scale(0.996264)"/>
     <use xlink:href="#CMSS17-4d" transform="translate(1303.094536 0) scale(0.996264)"/>
     <use xlink:href="#CMSS17-29" transform="translate(1384.770566 0) scale(0.996264)"/>
     <use xlink:href="#CMSS17-44" transform="translate(1452.433593 0) scale(0.996264)"/>
     <use xlink:href="#CMSS17-69" transform="translate(1519.976434 0) scale(0.996264)"/>
     <use xlink:href="#CMSS17-73" transform="translate(1542.157157 0) scale(0.996264)"/>
     <use xlink:href="#CMSS17-74" transform="translate(1578.070699 0) scale(0.996264)"/>
     <use xlink:href="#CMSS17-72" transform="translate(1611.902266 0) scale(0.996264)"/>
     <use xlink:href="#CMSS17-69" transform="translate(1643.812038 0) scale(0.996264)"/>
     <use xlink:href="#CMSS17-62" transform="translate(1665.992762 0) scale(0.996264)"/>
     <use xlink:href="#CMSS17-75" transform="translate(1714.197705 0) scale(0.996264)"/>
     <use xlink:href="#CMSS17-74" transform="translate(1762.402648 0) scale(0.996264)"/>
     <use xlink:href="#CMSS17-69" transform="translate(1796.234214 0) scale(0.996264)"/>
     <use xlink:href="#CMSS17-6f" transform="translate(1818.414938 0) scale(0.996264)"/>
     <use xlink:href="#CMSS17-6e" transform="translate(1865.258561 0) scale(0.996264)"/>
     <use xlink:href="#CMSS17-66" transform="translate(1944.692617 0) scale(0.996264)"/>
     <use xlink:href="#CMSS17-6f" transform="translate(1973.319276 0) scale(0.996264)"/>
     <use xlink:href="#CMSS17-72" transform="translate(2017.560445 0) scale(0.996264)"/>
     <use xlink:href="#CMSS17-45" transform="translate(2080.699331 0) scale(0.996264)"/>
     <use xlink:href="#CMSS17-61" transform="translate(2136.591344 0) scale(0.996264)"/>
     <use xlink:href="#CMSS17-63" transform="translate(2181.513264 0) scale(0.996264)"/>
     <use xlink:href="#CMSS17-68" transform="translate(2223.152087 0) scale(0.996264)"/>
     <use xlink:href="#CMSS17-43" transform="translate(2302.586142 0) scale(0.996264)"/>
     <use xlink:href="#CMSS17-6f" transform="translate(2362.441914 0) scale(0.996264)"/>
     <use xlink:href="#CMSS17-6e" transform="translate(2409.285538 0) scale(0.996264)"/>
     <use xlink:href="#CMSS17-64" transform="translate(2457.490481 0) scale(0.996264)"/>
     <use xlink:href="#CMSS17-69" transform="translate(2505.695424 0) scale(0.996264)"/>
     <use xlink:href="#CMSS17-74" transform="translate(2527.876147 0) scale(0.996264)"/>
     <use xlink:href="#CMSS17-69" transform="translate(2561.707714 0) scale(0.996264)"/>
     <use xlink:href="#CMSS17-6f" transform="translate(2583.888437 0) scale(0.996264)"/>
     <use xlink:href="#CMSS17-6e" transform="translate(2630.73206 0) scale(0.996264)"/>
    </g>
   </g>
  </g>
 </g>
 <defs>
  <clipPath id="pb057ca3475">
   <rect x="40.654882" y="20.060772" width="667.825118" height="377.021323"/>
  </clipPath>
 </defs>
</svg>
