<?xml version="1.0" encoding="utf-8" standalone="no"?>
<!DOCTYPE svg PUBLIC "-//W3C//DTD SVG 1.1//EN"
  "http://www.w3.org/Graphics/SVG/1.1/DTD/svg11.dtd">
<svg xmlns:xlink="http://www.w3.org/1999/xlink" width="855.529628pt" height="568.08pt" viewBox="0 0 855.529628 568.08" xmlns="http://www.w3.org/2000/svg" version="1.1">
 <metadata>
  <rdf:RDF xmlns:dc="http://purl.org/dc/elements/1.1/" xmlns:cc="http://creativecommons.org/ns#" xmlns:rdf="http://www.w3.org/1999/02/22-rdf-syntax-ns#">
   <cc:Work>
    <dc:type rdf:resource="http://purl.org/dc/dcmitype/StillImage"/>
    <dc:date>2025-08-17T01:51:17.380628</dc:date>
    <dc:format>image/svg+xml</dc:format>
    <dc:creator>
     <cc:Agent>
      <dc:title>Matplotlib v3.10.0, https://matplotlib.org/</dc:title>
     </cc:Agent>
    </dc:creator>
   </cc:Work>
  </rdf:RDF>
 </metadata>
 <defs>
  <style type="text/css">*{stroke-linejoin: round; stroke-linecap: butt}</style>
 </defs>
 <g id="figure_1">
  <g id="patch_1">
   <path d="M 0 568.08 
L 855.529628 568.08 
L 855.529628 0 
L 0 0 
z
" style="fill: #ffffff"/>
  </g>
  <g id="axes_1">
   <g id="patch_2">
    <path d="M 33.826393 528.68419 
L 692.418962 528.68419 
L 692.418962 19.285876 
L 33.826393 19.285876 
z
" style="fill: #ffffff"/>
   </g>
   <g id="matplotlib.axis_1">
    <g id="xtick_1">
     <g id="line2d_1">
      <defs>
       <path id="m28e84fc2ea" d="M 0 0 
L 0 3.5 
" style="stroke: #262626; stroke-width: 1.5"/>
      </defs>
      <g>
       <use xlink:href="#m28e84fc2ea" x="63.762419" y="528.68419" style="fill: #262626; stroke: #262626; stroke-width: 1.5"/>
      </g>
     </g>
     <g id="text_1">
      <!-- $\mathdefault{0}$ -->
      <g style="fill: #262626" transform="translate(60.348175 545.370067) scale(0.14 -0.14)">
       <defs>
        <path id="CMSS17-30" d="M 2758 2073 
C 2758 2439 2752 3120 2490 3647 
C 2227 4153 1805 4288 1504 4288 
C 1069 4288 698 4031 506 3621 
C 301 3191 243 2748 243 2073 
C 243 1611 262 1046 493 551 
C 755 6 1197 -128 1498 -128 
C 1894 -128 2278 83 2496 525 
C 2720 988 2758 1495 2758 2073 
z
M 1498 262 
C 1011 262 864 821 819 1007 
C 742 1328 730 1636 730 2144 
C 730 2542 730 2992 851 3345 
C 998 3756 1254 3897 1498 3897 
C 1971 3897 2125 3422 2176 3255 
C 2272 2915 2272 2516 2272 2144 
C 2272 1546 2272 262 1498 262 
z
" transform="scale(0.015625)"/>
       </defs>
       <use xlink:href="#CMSS17-30" transform="scale(0.996264)"/>
      </g>
     </g>
    </g>
    <g id="xtick_2">
     <g id="line2d_2">
      <g>
       <use xlink:href="#m28e84fc2ea" x="199.835264" y="528.68419" style="fill: #262626; stroke: #262626; stroke-width: 1.5"/>
      </g>
     </g>
     <g id="text_2">
      <!-- $\mathdefault{10}$ -->
      <g style="fill: #262626" transform="translate(193.006775 545.370067) scale(0.14 -0.14)">
       <defs>
        <path id="CMSS17-31" d="M 1818 4288 
L 1696 4288 
C 1350 3949 947 3902 538 3891 
L 538 3520 
C 723 3526 1024 3539 1325 3673 
L 1325 371 
L 570 371 
L 570 0 
L 2573 0 
L 2573 371 
L 1818 371 
L 1818 4288 
z
" transform="scale(0.015625)"/>
       </defs>
       <use xlink:href="#CMSS17-31" transform="scale(0.996264)"/>
       <use xlink:href="#CMSS17-30" transform="translate(46.843624 0) scale(0.996264)"/>
      </g>
     </g>
    </g>
    <g id="xtick_3">
     <g id="line2d_3">
      <g>
       <use xlink:href="#m28e84fc2ea" x="335.908109" y="528.68419" style="fill: #262626; stroke: #262626; stroke-width: 1.5"/>
      </g>
     </g>
     <g id="text_3">
      <!-- $\mathdefault{20}$ -->
      <g style="fill: #262626" transform="translate(329.07962 545.370067) scale(0.14 -0.14)">
       <defs>
        <path id="CMSS17-32" d="M 1651 1353 
C 1830 1538 2099 1761 2285 1984 
C 2464 2201 2701 2507 2701 2953 
C 2701 3655 2227 4288 1421 4288 
C 787 4288 422 3891 250 3272 
L 499 2928 
C 640 3508 838 3878 1338 3878 
C 1888 3878 2195 3431 2195 2940 
C 2195 2354 1747 1901 1408 1563 
C 1030 1187 659 805 301 409 
L 301 0 
L 2701 0 
L 2701 435 
L 1613 435 
C 1536 435 1459 428 1382 428 
L 742 428 
L 742 435 
L 1651 1353 
z
" transform="scale(0.015625)"/>
       </defs>
       <use xlink:href="#CMSS17-32" transform="scale(0.996264)"/>
       <use xlink:href="#CMSS17-30" transform="translate(46.843624 0) scale(0.996264)"/>
      </g>
     </g>
    </g>
    <g id="xtick_4">
     <g id="line2d_4">
      <g>
       <use xlink:href="#m28e84fc2ea" x="471.980954" y="528.68419" style="fill: #262626; stroke: #262626; stroke-width: 1.5"/>
      </g>
     </g>
     <g id="text_4">
      <!-- $\mathdefault{30}$ -->
      <g style="fill: #262626" transform="translate(465.152465 545.370067) scale(0.14 -0.14)">
       <defs>
        <path id="CMSS17-33" d="M 1005 2060 
L 1440 2060 
C 2042 2060 2214 1532 2214 1164 
C 2214 662 1933 268 1472 268 
C 1114 268 608 449 320 926 
C 275 700 275 687 250 533 
C 550 89 1037 -128 1485 -128 
C 2214 -128 2752 481 2752 1158 
C 2752 1667 2400 2092 1920 2252 
C 2304 2463 2586 2860 2586 3321 
C 2586 3859 2093 4288 1491 4288 
C 941 4288 512 3948 333 3583 
C 378 3519 493 3334 550 3238 
C 691 3615 1056 3897 1485 3897 
C 1843 3897 2080 3660 2080 3321 
C 2080 2969 1856 2585 1478 2496 
C 1453 2496 1056 2457 1005 2451 
L 1005 2060 
z
" transform="scale(0.015625)"/>
       </defs>
       <use xlink:href="#CMSS17-33" transform="scale(0.996264)"/>
       <use xlink:href="#CMSS17-30" transform="translate(46.843624 0) scale(0.996264)"/>
      </g>
     </g>
    </g>
    <g id="xtick_5">
     <g id="line2d_5">
      <g>
       <use xlink:href="#m28e84fc2ea" x="608.053798" y="528.68419" style="fill: #262626; stroke: #262626; stroke-width: 1.5"/>
      </g>
     </g>
     <g id="text_5">
      <!-- $\mathdefault{40}$ -->
      <g style="fill: #262626" transform="translate(601.22531 545.370067) scale(0.14 -0.14)">
       <defs>
        <path id="CMSS17-34" d="M 2253 1088 
L 2835 1088 
L 2835 1478 
L 2253 1478 
L 2253 4224 
L 1690 4224 
L 166 1478 
L 166 1088 
L 1747 1088 
L 1747 0 
L 2253 0 
L 2253 1088 
z
M 659 1478 
C 1030 2139 1766 3474 1766 3927 
L 1766 1478 
L 659 1478 
z
" transform="scale(0.015625)"/>
       </defs>
       <use xlink:href="#CMSS17-34" transform="scale(0.996264)"/>
       <use xlink:href="#CMSS17-30" transform="translate(46.843624 0) scale(0.996264)"/>
      </g>
     </g>
    </g>
    <g id="xtick_6">
     <g id="line2d_6">
      <defs>
       <path id="m2601c8737a" d="M 0 0 
L 0 2.5 
" style="stroke: #262626; stroke-width: 1.5"/>
      </defs>
      <g>
       <use xlink:href="#m2601c8737a" x="36.54785" y="528.68419" style="fill: #262626; stroke: #262626; stroke-width: 1.5"/>
      </g>
     </g>
    </g>
    <g id="xtick_7">
     <g id="line2d_7">
      <g>
       <use xlink:href="#m2601c8737a" x="90.976988" y="528.68419" style="fill: #262626; stroke: #262626; stroke-width: 1.5"/>
      </g>
     </g>
    </g>
    <g id="xtick_8">
     <g id="line2d_8">
      <g>
       <use xlink:href="#m2601c8737a" x="118.191557" y="528.68419" style="fill: #262626; stroke: #262626; stroke-width: 1.5"/>
      </g>
     </g>
    </g>
    <g id="xtick_9">
     <g id="line2d_9">
      <g>
       <use xlink:href="#m2601c8737a" x="145.406126" y="528.68419" style="fill: #262626; stroke: #262626; stroke-width: 1.5"/>
      </g>
     </g>
    </g>
    <g id="xtick_10">
     <g id="line2d_10">
      <g>
       <use xlink:href="#m2601c8737a" x="172.620695" y="528.68419" style="fill: #262626; stroke: #262626; stroke-width: 1.5"/>
      </g>
     </g>
    </g>
    <g id="xtick_11">
     <g id="line2d_11">
      <g>
       <use xlink:href="#m2601c8737a" x="227.049833" y="528.68419" style="fill: #262626; stroke: #262626; stroke-width: 1.5"/>
      </g>
     </g>
    </g>
    <g id="xtick_12">
     <g id="line2d_12">
      <g>
       <use xlink:href="#m2601c8737a" x="254.264402" y="528.68419" style="fill: #262626; stroke: #262626; stroke-width: 1.5"/>
      </g>
     </g>
    </g>
    <g id="xtick_13">
     <g id="line2d_13">
      <g>
       <use xlink:href="#m2601c8737a" x="281.478971" y="528.68419" style="fill: #262626; stroke: #262626; stroke-width: 1.5"/>
      </g>
     </g>
    </g>
    <g id="xtick_14">
     <g id="line2d_14">
      <g>
       <use xlink:href="#m2601c8737a" x="308.69354" y="528.68419" style="fill: #262626; stroke: #262626; stroke-width: 1.5"/>
      </g>
     </g>
    </g>
    <g id="xtick_15">
     <g id="line2d_15">
      <g>
       <use xlink:href="#m2601c8737a" x="363.122678" y="528.68419" style="fill: #262626; stroke: #262626; stroke-width: 1.5"/>
      </g>
     </g>
    </g>
    <g id="xtick_16">
     <g id="line2d_16">
      <g>
       <use xlink:href="#m2601c8737a" x="390.337247" y="528.68419" style="fill: #262626; stroke: #262626; stroke-width: 1.5"/>
      </g>
     </g>
    </g>
    <g id="xtick_17">
     <g id="line2d_17">
      <g>
       <use xlink:href="#m2601c8737a" x="417.551816" y="528.68419" style="fill: #262626; stroke: #262626; stroke-width: 1.5"/>
      </g>
     </g>
    </g>
    <g id="xtick_18">
     <g id="line2d_18">
      <g>
       <use xlink:href="#m2601c8737a" x="444.766385" y="528.68419" style="fill: #262626; stroke: #262626; stroke-width: 1.5"/>
      </g>
     </g>
    </g>
    <g id="xtick_19">
     <g id="line2d_19">
      <g>
       <use xlink:href="#m2601c8737a" x="499.195523" y="528.68419" style="fill: #262626; stroke: #262626; stroke-width: 1.5"/>
      </g>
     </g>
    </g>
    <g id="xtick_20">
     <g id="line2d_20">
      <g>
       <use xlink:href="#m2601c8737a" x="526.410091" y="528.68419" style="fill: #262626; stroke: #262626; stroke-width: 1.5"/>
      </g>
     </g>
    </g>
    <g id="xtick_21">
     <g id="line2d_21">
      <g>
       <use xlink:href="#m2601c8737a" x="553.62466" y="528.68419" style="fill: #262626; stroke: #262626; stroke-width: 1.5"/>
      </g>
     </g>
    </g>
    <g id="xtick_22">
     <g id="line2d_22">
      <g>
       <use xlink:href="#m2601c8737a" x="580.839229" y="528.68419" style="fill: #262626; stroke: #262626; stroke-width: 1.5"/>
      </g>
     </g>
    </g>
    <g id="xtick_23">
     <g id="line2d_23">
      <g>
       <use xlink:href="#m2601c8737a" x="635.268367" y="528.68419" style="fill: #262626; stroke: #262626; stroke-width: 1.5"/>
      </g>
     </g>
    </g>
    <g id="xtick_24">
     <g id="line2d_24">
      <g>
       <use xlink:href="#m2601c8737a" x="662.482936" y="528.68419" style="fill: #262626; stroke: #262626; stroke-width: 1.5"/>
      </g>
     </g>
    </g>
    <g id="xtick_25">
     <g id="line2d_25">
      <g>
       <use xlink:href="#m2601c8737a" x="689.697505" y="528.68419" style="fill: #262626; stroke: #262626; stroke-width: 1.5"/>
      </g>
     </g>
    </g>
    <g id="text_6">
     <!-- Time -->
     <g style="fill: #262626" transform="translate(348.4245 561.767972) scale(0.14 -0.14)">
      <defs>
       <path id="CMSS17-54" d="M 2317 3987 
L 2848 3987 
C 2925 3987 3002 3980 3078 3980 
L 3878 3980 
L 3878 4396 
L 218 4396 
L 218 3980 
L 1018 3980 
C 1094 3980 1171 3987 1248 3987 
L 1779 3987 
L 1779 0 
L 2317 0 
L 2317 3987 
z
" transform="scale(0.015625)"/>
       <path id="CMSS17-69" d="M 979 4224 
L 442 4224 
L 442 3686 
L 979 3686 
L 979 4224 
z
M 947 2752 
L 474 2752 
L 474 0 
L 947 0 
L 947 2752 
z
" transform="scale(0.015625)"/>
       <path id="CMSS17-6d" d="M 4288 1878 
C 4288 2309 4179 2816 3462 2816 
C 2982 2816 2694 2515 2566 2328 
C 2451 2668 2182 2816 1798 2816 
C 1363 2816 1088 2566 941 2386 
L 941 2783 
L 474 2783 
L 474 0 
L 960 0 
L 960 1556 
C 960 1936 1101 2425 1555 2425 
C 2138 2425 2138 2013 2138 1826 
L 2138 0 
L 2624 0 
L 2624 1556 
C 2624 1936 2765 2425 3219 2425 
C 3802 2425 3802 2013 3802 1826 
L 3802 0 
L 4288 0 
L 4288 1878 
z
" transform="scale(0.015625)"/>
       <path id="CMSS17-65" d="M 2502 1375 
C 2502 1587 2490 2001 2285 2347 
C 2061 2713 1696 2816 1421 2816 
C 755 2816 192 2184 192 1363 
C 192 579 774 -64 1510 -64 
C 1798 -64 2150 19 2470 249 
C 2470 275 2458 414 2451 421 
C 2451 433 2432 629 2432 655 
C 2125 408 1773 326 1517 326 
C 1107 326 666 667 646 1375 
L 2502 1375 
z
M 698 1728 
C 781 2086 1062 2425 1421 2425 
C 1517 2425 1965 2412 2080 1728 
L 698 1728 
z
" transform="scale(0.015625)"/>
      </defs>
      <use xlink:href="#CMSS17-54" transform="scale(0.996264)"/>
      <use xlink:href="#CMSS17-69" transform="translate(63.819454 0) scale(0.996264)"/>
      <use xlink:href="#CMSS17-6d" transform="translate(86.000177 0) scale(0.996264)"/>
      <use xlink:href="#CMSS17-65" transform="translate(160.229431 0) scale(0.996264)"/>
     </g>
    </g>
   </g>
   <g id="matplotlib.axis_2">
    <g id="ytick_1">
     <g id="line2d_26">
      <defs>
       <path id="mf701b5ebea" d="M 0 0 
L -3.5 0 
" style="stroke: #262626; stroke-width: 1.5"/>
      </defs>
      <g>
       <use xlink:href="#mf701b5ebea" x="33.826393" y="505.529722" style="fill: #262626; stroke: #262626; stroke-width: 1.5"/>
      </g>
     </g>
     <g id="text_7">
      <!-- $\mathdefault{0}$ -->
      <g style="fill: #262626" transform="translate(19.997905 510.37266) scale(0.14 -0.14)">
       <use xlink:href="#CMSS17-30" transform="scale(0.996264)"/>
      </g>
     </g>
    </g>
    <g id="ytick_2">
     <g id="line2d_27">
      <g>
       <use xlink:href="#mf701b5ebea" x="33.826393" y="404.930799" style="fill: #262626; stroke: #262626; stroke-width: 1.5"/>
      </g>
     </g>
     <g id="text_8">
      <!-- $\mathdefault{1}$ -->
      <g style="fill: #262626" transform="translate(19.997905 409.773737) scale(0.14 -0.14)">
       <use xlink:href="#CMSS17-31" transform="scale(0.996264)"/>
      </g>
     </g>
    </g>
    <g id="ytick_3">
     <g id="line2d_28">
      <g>
       <use xlink:href="#mf701b5ebea" x="33.826393" y="304.331876" style="fill: #262626; stroke: #262626; stroke-width: 1.5"/>
      </g>
     </g>
     <g id="text_9">
      <!-- $\mathdefault{2}$ -->
      <g style="fill: #262626" transform="translate(19.997905 309.174814) scale(0.14 -0.14)">
       <use xlink:href="#CMSS17-32" transform="scale(0.996264)"/>
      </g>
     </g>
    </g>
    <g id="ytick_4">
     <g id="line2d_29">
      <g>
       <use xlink:href="#mf701b5ebea" x="33.826393" y="203.732953" style="fill: #262626; stroke: #262626; stroke-width: 1.5"/>
      </g>
     </g>
     <g id="text_10">
      <!-- $\mathdefault{3}$ -->
      <g style="fill: #262626" transform="translate(19.997905 208.575892) scale(0.14 -0.14)">
       <use xlink:href="#CMSS17-33" transform="scale(0.996264)"/>
      </g>
     </g>
    </g>
    <g id="ytick_5">
     <g id="line2d_30">
      <g>
       <use xlink:href="#mf701b5ebea" x="33.826393" y="103.134031" style="fill: #262626; stroke: #262626; stroke-width: 1.5"/>
      </g>
     </g>
     <g id="text_11">
      <!-- $\mathdefault{4}$ -->
      <g style="fill: #262626" transform="translate(19.997905 107.976969) scale(0.14 -0.14)">
       <use xlink:href="#CMSS17-34" transform="scale(0.996264)"/>
      </g>
     </g>
    </g>
    <g id="ytick_6">
     <g id="line2d_31">
      <defs>
       <path id="m370d01e0fd" d="M 0 0 
L -2.5 0 
" style="stroke: #262626; stroke-width: 1.5"/>
      </defs>
      <g>
       <use xlink:href="#m370d01e0fd" x="33.826393" y="525.649506" style="fill: #262626; stroke: #262626; stroke-width: 1.5"/>
      </g>
     </g>
    </g>
    <g id="ytick_7">
     <g id="line2d_32">
      <g>
       <use xlink:href="#m370d01e0fd" x="33.826393" y="485.409937" style="fill: #262626; stroke: #262626; stroke-width: 1.5"/>
      </g>
     </g>
    </g>
    <g id="ytick_8">
     <g id="line2d_33">
      <g>
       <use xlink:href="#m370d01e0fd" x="33.826393" y="465.290152" style="fill: #262626; stroke: #262626; stroke-width: 1.5"/>
      </g>
     </g>
    </g>
    <g id="ytick_9">
     <g id="line2d_34">
      <g>
       <use xlink:href="#m370d01e0fd" x="33.826393" y="445.170368" style="fill: #262626; stroke: #262626; stroke-width: 1.5"/>
      </g>
     </g>
    </g>
    <g id="ytick_10">
     <g id="line2d_35">
      <g>
       <use xlink:href="#m370d01e0fd" x="33.826393" y="425.050583" style="fill: #262626; stroke: #262626; stroke-width: 1.5"/>
      </g>
     </g>
    </g>
    <g id="ytick_11">
     <g id="line2d_36">
      <g>
       <use xlink:href="#m370d01e0fd" x="33.826393" y="384.811014" style="fill: #262626; stroke: #262626; stroke-width: 1.5"/>
      </g>
     </g>
    </g>
    <g id="ytick_12">
     <g id="line2d_37">
      <g>
       <use xlink:href="#m370d01e0fd" x="33.826393" y="364.69123" style="fill: #262626; stroke: #262626; stroke-width: 1.5"/>
      </g>
     </g>
    </g>
    <g id="ytick_13">
     <g id="line2d_38">
      <g>
       <use xlink:href="#m370d01e0fd" x="33.826393" y="344.571445" style="fill: #262626; stroke: #262626; stroke-width: 1.5"/>
      </g>
     </g>
    </g>
    <g id="ytick_14">
     <g id="line2d_39">
      <g>
       <use xlink:href="#m370d01e0fd" x="33.826393" y="324.451661" style="fill: #262626; stroke: #262626; stroke-width: 1.5"/>
      </g>
     </g>
    </g>
    <g id="ytick_15">
     <g id="line2d_40">
      <g>
       <use xlink:href="#m370d01e0fd" x="33.826393" y="284.212092" style="fill: #262626; stroke: #262626; stroke-width: 1.5"/>
      </g>
     </g>
    </g>
    <g id="ytick_16">
     <g id="line2d_41">
      <g>
       <use xlink:href="#m370d01e0fd" x="33.826393" y="264.092307" style="fill: #262626; stroke: #262626; stroke-width: 1.5"/>
      </g>
     </g>
    </g>
    <g id="ytick_17">
     <g id="line2d_42">
      <g>
       <use xlink:href="#m370d01e0fd" x="33.826393" y="243.972523" style="fill: #262626; stroke: #262626; stroke-width: 1.5"/>
      </g>
     </g>
    </g>
    <g id="ytick_18">
     <g id="line2d_43">
      <g>
       <use xlink:href="#m370d01e0fd" x="33.826393" y="223.852738" style="fill: #262626; stroke: #262626; stroke-width: 1.5"/>
      </g>
     </g>
    </g>
    <g id="ytick_19">
     <g id="line2d_44">
      <g>
       <use xlink:href="#m370d01e0fd" x="33.826393" y="183.613169" style="fill: #262626; stroke: #262626; stroke-width: 1.5"/>
      </g>
     </g>
    </g>
    <g id="ytick_20">
     <g id="line2d_45">
      <g>
       <use xlink:href="#m370d01e0fd" x="33.826393" y="163.493384" style="fill: #262626; stroke: #262626; stroke-width: 1.5"/>
      </g>
     </g>
    </g>
    <g id="ytick_21">
     <g id="line2d_46">
      <g>
       <use xlink:href="#m370d01e0fd" x="33.826393" y="143.3736" style="fill: #262626; stroke: #262626; stroke-width: 1.5"/>
      </g>
     </g>
    </g>
    <g id="ytick_22">
     <g id="line2d_47">
      <g>
       <use xlink:href="#m370d01e0fd" x="33.826393" y="123.253815" style="fill: #262626; stroke: #262626; stroke-width: 1.5"/>
      </g>
     </g>
    </g>
    <g id="ytick_23">
     <g id="line2d_48">
      <g>
       <use xlink:href="#m370d01e0fd" x="33.826393" y="83.014246" style="fill: #262626; stroke: #262626; stroke-width: 1.5"/>
      </g>
     </g>
    </g>
    <g id="ytick_24">
     <g id="line2d_49">
      <g>
       <use xlink:href="#m370d01e0fd" x="33.826393" y="62.894462" style="fill: #262626; stroke: #262626; stroke-width: 1.5"/>
      </g>
     </g>
    </g>
    <g id="ytick_25">
     <g id="line2d_50">
      <g>
       <use xlink:href="#m370d01e0fd" x="33.826393" y="42.774677" style="fill: #262626; stroke: #262626; stroke-width: 1.5"/>
      </g>
     </g>
    </g>
    <g id="ytick_26">
     <g id="line2d_51">
      <g>
       <use xlink:href="#m370d01e0fd" x="33.826393" y="22.654893" style="fill: #262626; stroke: #262626; stroke-width: 1.5"/>
      </g>
     </g>
    </g>
    <g id="text_12">
     <!-- Normalized Wound Area -->
     <g style="fill: #262626" transform="translate(13.285876 343.528969) rotate(-90) scale(0.14 -0.14)">
      <defs>
       <path id="CMSS17-4e" d="M 1466 4179 
L 1350 4416 
L 563 4416 
L 563 0 
L 1062 0 
L 1062 3925 
L 1069 3931 
C 1114 3817 1139 3759 1402 3193 
L 2771 236 
L 2886 0 
L 3674 0 
L 3674 4416 
L 3174 4416 
L 3174 490 
L 3168 484 
C 3123 598 3098 655 2835 1222 
L 1466 4179 
z
" transform="scale(0.015625)"/>
       <path id="CMSS17-6f" d="M 2829 1356 
C 2829 2175 2221 2816 1504 2816 
C 768 2816 173 2156 173 1356 
C 173 544 787 -64 1498 -64 
C 2227 -64 2829 563 2829 1356 
z
M 1504 339 
C 1050 339 659 710 659 1407 
C 659 2150 1114 2425 1498 2425 
C 1914 2425 2342 2124 2342 1407 
C 2342 684 1926 339 1504 339 
z
" transform="scale(0.015625)"/>
       <path id="CMSS17-72" d="M 954 1369 
C 954 1974 1395 2379 1958 2392 
L 1958 2816 
C 1549 2809 1165 2604 934 2270 
L 934 2783 
L 480 2783 
L 480 0 
L 954 0 
L 954 1369 
z
" transform="scale(0.015625)"/>
       <path id="CMSS17-61" d="M 2406 1789 
C 2406 2399 1978 2816 1402 2816 
C 1120 2816 813 2764 461 2559 
L 499 2133 
C 659 2250 934 2438 1395 2438 
C 1722 2438 1920 2185 1920 1782 
L 1920 1536 
C 896 1504 256 1209 256 711 
C 256 452 416 -64 947 -64 
C 1043 -64 1562 -52 1933 224 
L 1933 -13 
L 2406 -13 
L 2406 1789 
z
M 1920 824 
C 1920 711 1920 559 1728 446 
C 1562 339 1350 326 1261 326 
C 941 326 723 503 723 723 
C 723 1165 1722 1209 1920 1216 
L 1920 824 
z
" transform="scale(0.015625)"/>
       <path id="CMSS17-6c" d="M 947 4416 
L 474 4416 
L 474 0 
L 947 0 
L 947 4416 
z
" transform="scale(0.015625)"/>
       <path id="CMSS17-7a" d="M 2400 2502 
L 2400 2752 
L 250 2752 
L 250 2367 
L 1069 2367 
C 1146 2367 1222 2374 1299 2374 
L 1747 2374 
L 166 262 
L 166 0 
L 2419 0 
L 2419 396 
L 1549 396 
C 1472 396 1395 390 1318 390 
L 826 390 
L 2400 2502 
z
" transform="scale(0.015625)"/>
       <path id="CMSS17-64" d="M 2611 4416 
L 2138 4416 
L 2138 2495 
C 1939 2662 1613 2816 1254 2816 
C 672 2816 211 2179 211 1375 
C 211 572 666 -64 1235 -64 
C 1677 -64 1971 172 2125 307 
L 2125 -13 
L 2611 -13 
L 2611 4416 
z
M 2125 851 
C 2125 760 2125 663 1926 488 
C 1798 378 1645 326 1498 326 
C 1152 326 698 585 698 1369 
C 698 2185 1210 2425 1562 2425 
C 1798 2425 1990 2308 2125 2114 
L 2125 851 
z
" transform="scale(0.015625)"/>
       <path id="CMSS17-57" d="M 5581 4416 
L 5094 4416 
L 4557 2436 
C 4474 2118 4397 1800 4320 1482 
C 4205 1012 4122 681 4109 516 
L 4102 516 
C 4090 687 4006 1050 3904 1457 
C 3827 1794 3744 2131 3654 2462 
L 3123 4416 
L 2586 4416 
L 2080 2564 
L 1824 1552 
C 1632 751 1626 636 1613 509 
L 1606 509 
C 1606 547 1581 757 1402 1501 
C 1312 1870 1222 2246 1126 2602 
L 634 4416 
L 83 4416 
L 1299 0 
L 1830 0 
L 2336 1838 
L 2592 2850 
C 2765 3562 2803 3740 2816 3899 
L 2822 3899 
C 2822 3874 2880 3473 3130 2544 
L 3808 0 
L 4365 0 
L 5581 4416 
z
" transform="scale(0.015625)"/>
       <path id="CMSS17-75" d="M 2618 2752 
L 2131 2752 
L 2131 976 
C 2131 500 1786 307 1421 307 
C 998 307 960 448 960 712 
L 960 2752 
L 474 2752 
L 474 680 
C 474 179 646 -64 1088 -64 
C 1306 -64 1798 -13 2144 307 
L 2144 -13 
L 2618 -13 
L 2618 2752 
z
" transform="scale(0.015625)"/>
       <path id="CMSS17-6e" d="M 2618 1878 
C 2618 2283 2522 2816 1798 2816 
C 1389 2816 1120 2604 941 2386 
L 941 2783 
L 474 2783 
L 474 0 
L 960 0 
L 960 1556 
C 960 1962 1114 2425 1549 2425 
C 2112 2425 2131 2045 2131 1826 
L 2131 0 
L 2618 0 
L 2618 1878 
z
" transform="scale(0.015625)"/>
       <path id="CMSS17-41" d="M 2272 4416 
L 1722 4416 
L 166 0 
L 653 0 
L 1101 1280 
L 2816 1280 
L 3270 0 
L 3827 0 
L 2272 4416 
z
M 2694 1638 
L 1222 1638 
C 1530 2530 1914 3638 1958 3924 
L 1965 3924 
C 2010 3663 2138 3281 2246 2956 
L 2694 1638 
z
" transform="scale(0.015625)"/>
      </defs>
      <use xlink:href="#CMSS17-4e" transform="scale(0.996264)"/>
      <use xlink:href="#CMSS17-6f" transform="translate(66.061519 0) scale(0.996264)"/>
      <use xlink:href="#CMSS17-72" transform="translate(110.302689 0) scale(0.996264)"/>
      <use xlink:href="#CMSS17-6d" transform="translate(142.212461 0) scale(0.996264)"/>
      <use xlink:href="#CMSS17-61" transform="translate(216.441716 0) scale(0.996264)"/>
      <use xlink:href="#CMSS17-6c" transform="translate(261.363636 0) scale(0.996264)"/>
      <use xlink:href="#CMSS17-69" transform="translate(283.544359 0) scale(0.996264)"/>
      <use xlink:href="#CMSS17-7a" transform="translate(305.725082 0) scale(0.996264)"/>
      <use xlink:href="#CMSS17-65" transform="translate(346.402954 0) scale(0.996264)"/>
      <use xlink:href="#CMSS17-64" transform="translate(388.041776 0) scale(0.996264)"/>
      <use xlink:href="#CMSS17-57" transform="translate(467.475832 0) scale(0.996264)"/>
      <use xlink:href="#CMSS17-6f" transform="translate(553.115544 0) scale(0.996264)"/>
      <use xlink:href="#CMSS17-75" transform="translate(599.959168 0) scale(0.996264)"/>
      <use xlink:href="#CMSS17-6e" transform="translate(648.164111 0) scale(0.996264)"/>
      <use xlink:href="#CMSS17-64" transform="translate(696.369054 0) scale(0.996264)"/>
      <use xlink:href="#CMSS17-41" transform="translate(775.80311 0) scale(0.996264)"/>
      <use xlink:href="#CMSS17-72" transform="translate(838.020965 0) scale(0.996264)"/>
      <use xlink:href="#CMSS17-65" transform="translate(869.930738 0) scale(0.996264)"/>
      <use xlink:href="#CMSS17-61" transform="translate(911.56956 0) scale(0.996264)"/>
     </g>
    </g>
   </g>
   <g id="line2d_52">
    <path d="M 63.762419 404.930799 
L 70.566062 397.390265 
L 77.369704 390.297268 
L 84.173346 383.699712 
L 90.976988 377.627056 
L 97.78063 371.662718 
L 104.584273 365.33813 
L 111.387915 359.55222 
L 118.191557 353.511924 
L 124.995199 348.359785 
L 131.798842 344.17004 
L 138.602484 340.747842 
L 145.406126 337.949346 
L 152.209768 335.820195 
L 159.013411 334.471962 
L 165.817053 333.924335 
L 172.620695 334.103339 
L 179.424337 334.948041 
L 186.22798 336.468908 
L 193.031622 338.697557 
L 199.835264 341.598935 
L 206.638906 345.038545 
L 213.442549 348.826687 
L 220.246191 352.791475 
L 227.049833 356.818378 
L 233.853475 360.834437 
L 240.657117 364.773783 
L 247.46076 368.583231 
L 254.264402 372.279704 
L 261.068044 375.996194 
L 267.871686 379.94031 
L 274.675329 384.440443 
L 281.478971 388.990724 
L 288.282613 393.991621 
L 295.086255 398.932306 
L 301.889898 403.732759 
L 308.69354 408.292558 
L 315.497182 412.568326 
L 322.300824 416.542718 
L 329.104467 420.208702 
L 335.908109 423.573539 
L 342.711751 426.75699 
L 349.515393 429.716082 
L 356.319036 432.709627 
L 363.122678 436.125219 
L 369.92632 439.011176 
L 376.729962 441.981881 
L 383.533604 444.49774 
L 390.337247 446.588232 
L 397.140889 448.200474 
L 403.944531 449.719798 
L 410.748173 451.376347 
L 417.551816 453.263016 
L 424.355458 455.441469 
L 431.1591 457.870212 
L 437.962742 459.573893 
L 444.766385 461.341642 
L 451.570027 463.438533 
L 458.373669 464.534471 
L 465.177311 465.77932 
L 471.980954 467.093706 
L 478.784596 468.417 
L 485.588238 469.571758 
L 492.39188 471.001144 
L 499.195523 472.480722 
L 505.999165 473.891555 
L 512.802807 475.058726 
L 519.606449 476.343596 
L 526.410091 477.317388 
L 533.213734 478.521796 
L 540.017376 479.537194 
L 546.821018 480.453253 
L 553.62466 481.413726 
L 560.428303 482.6645 
L 567.231945 483.24171 
L 574.035587 483.498995 
L 580.839229 484.080415 
L 587.642872 484.154038 
L 594.446514 484.182483 
L 601.250156 484.632987 
L 608.053798 485.546823 
L 614.857441 486.268038 
L 621.661083 486.655808 
L 628.464725 487.192107 
L 635.268367 487.092893 
L 642.07201 487.479905 
L 648.875652 487.800199 
L 655.679294 487.643849 
L 662.482936 487.327424 
" clip-path="url(#pa9d89c3015)" style="fill: none; stroke: #000000; stroke-opacity: 0.8; stroke-width: 2; stroke-linecap: round"/>
   </g>
   <g id="line2d_53">
    <path d="M 63.762419 404.930799 
L 70.566062 403.844004 
L 77.369704 403.214724 
L 84.173346 402.497409 
L 90.976988 401.259564 
L 97.78063 399.325336 
L 104.584273 396.856481 
L 111.387915 394.341374 
L 118.191557 392.487413 
L 124.995199 392.038492 
L 131.798842 393.560455 
L 138.602484 397.249936 
L 145.406126 402.824057 
L 152.209768 409.537972 
L 159.013411 416.351091 
L 165.817053 422.219886 
L 172.620695 426.442626 
L 179.424337 428.937858 
L 186.22798 430.330544 
L 193.031622 431.767722 
L 199.835264 434.486903 
L 206.638906 439.280016 
L 213.442549 446.075165 
L 220.246191 453.844173 
L 227.049833 460.921537 
L 233.853475 465.634317 
L 240.657117 466.981839 
L 247.46076 465.058596 
L 254.264402 461.019793 
L 261.068044 456.60182 
L 267.871686 453.422076 
L 274.675329 452.382208 
L 281.478971 453.434437 
L 288.282613 455.780725 
L 295.086255 458.36416 
L 301.889898 460.390492 
L 308.69354 461.637768 
L 315.497182 462.446151 
L 322.300824 463.445522 
L 329.104467 465.189614 
L 335.908109 467.878808 
L 342.711751 471.281829 
L 349.515393 474.8596 
L 356.319036 478.007011 
L 363.122678 480.293472 
L 369.92632 481.604011 
L 376.729962 482.139467 
L 383.533604 482.297869 
L 390.337247 482.503073 
L 397.140889 483.05664 
L 403.944531 484.065653 
L 410.748173 485.457433 
L 417.551816 487.053411 
L 424.355458 488.656338 
L 431.1591 490.112382 
L 437.962742 491.333337 
L 444.766385 492.287906 
L 451.570027 492.98189 
L 458.373669 493.443093 
L 465.177311 493.715132 
L 471.980954 493.855319 
L 478.784596 493.930486 
L 485.588238 494.008953 
L 492.39188 494.151259 
L 499.195523 494.402853 
L 505.999165 494.789617 
L 512.802807 495.315282 
L 519.606449 495.96072 
L 526.410091 496.687448 
L 533.213734 497.44802 
L 540.017376 498.20252 
L 546.821018 498.934881 
L 553.62466 499.65978 
L 560.428303 500.413741 
L 567.231945 501.232118 
L 574.035587 502.122242 
L 580.839229 505.529722 
L 587.642872 505.529722 
L 594.446514 505.529722 
L 601.250156 505.529722 
L 608.053798 505.529722 
L 614.857441 505.529722 
L 621.661083 505.529722 
L 628.464725 505.529722 
L 635.268367 505.529722 
L 642.07201 505.529722 
L 648.875652 505.529722 
L 655.679294 505.529722 
L 662.482936 505.529722 
" clip-path="url(#pa9d89c3015)" style="fill: none; stroke: #0c5da5; stroke-opacity: 0.8; stroke-width: 2; stroke-linecap: round"/>
   </g>
   <g id="line2d_54">
    <path d="M 63.762419 404.930799 
L 70.566062 399.311008 
L 77.369704 394.39419 
L 84.173346 390.186882 
L 90.976988 386.651443 
L 97.78063 383.714043 
L 104.584273 381.275669 
L 111.387915 379.224994 
L 118.191557 377.451798 
L 124.995199 375.859586 
L 131.798842 374.376164 
L 138.602484 372.961172 
L 145.406126 371.609919 
L 152.209768 370.353254 
L 159.013411 369.25361 
L 165.817053 368.397738 
L 172.620695 367.886941 
L 179.424337 367.825816 
L 186.22798 368.310619 
L 193.031622 369.418354 
L 199.835264 371.197584 
L 206.638906 373.661778 
L 213.442549 376.785788 
L 220.246191 380.505745 
L 227.049833 384.72243 
L 233.853475 389.307843 
L 240.657117 394.114459 
L 247.46076 398.986403 
L 254.264402 403.771599 
L 261.068044 408.333801 
L 267.871686 412.563393 
L 274.675329 416.385852 
L 281.478971 419.766971 
L 288.282613 422.714166 
L 295.086255 425.273592 
L 301.889898 427.523196 
L 308.69354 429.562331 
L 315.497182 431.498971 
L 322.300824 433.435932 
L 329.104467 435.457695 
L 335.908109 437.619442 
L 342.711751 439.939752 
L 349.515393 442.397948 
L 356.319036 444.936597 
L 363.122678 447.468963 
L 369.92632 449.890575 
L 376.729962 452.093493 
L 383.533604 453.981469 
L 390.337247 455.484009 
L 397.140889 456.567469 
L 403.944531 457.241682 
L 410.748173 457.561181 
L 417.551816 457.620799 
L 424.355458 457.546174 
L 431.1591 457.480342 
L 437.962742 457.568118 
L 444.766385 457.9402 
L 451.570027 458.698956 
L 458.373669 459.907561 
L 465.177311 461.583678 
L 471.980954 463.698283 
L 478.784596 466.179533 
L 485.588238 468.921009 
L 492.39188 471.793161 
L 499.195523 474.65649 
L 505.999165 477.37493 
L 512.802807 479.827997 
L 519.606449 481.92057 
L 526.410091 483.589535 
L 533.213734 484.806986 
L 540.017376 485.580061 
L 546.821018 485.947844 
L 553.62466 485.97598 
L 560.428303 485.749781 
L 567.231945 485.366572 
L 574.035587 484.927974 
L 580.839229 484.532642 
L 587.642872 484.269846 
L 594.446514 484.214128 
L 601.250156 484.421137 
L 608.053798 484.924688 
L 614.857441 485.735041 
L 621.661083 486.838389 
L 628.464725 488.197541 
L 635.268367 489.753793 
L 642.07201 491.429942 
L 648.875652 493.134356 
L 655.679294 494.765961 
L 662.482936 496.219898 
" clip-path="url(#pa9d89c3015)" style="fill: none; stroke: #00b945; stroke-opacity: 0.8; stroke-width: 2; stroke-linecap: round"/>
   </g>
   <g id="line2d_55">
    <path d="M 63.762419 404.930799 
L 70.566062 402.637216 
L 77.369704 400.315177 
L 84.173346 395.187341 
L 90.976988 399.717594 
L 97.78063 397.697192 
L 104.584273 362.661722 
L 111.387915 361.40494 
L 118.191557 316.729718 
L 124.995199 298.435937 
L 131.798842 297.937305 
L 138.602484 294.96815 
L 145.406126 280.813453 
L 152.209768 263.984069 
L 159.013411 256.220846 
L 165.817053 258.876808 
L 172.620695 263.972528 
L 179.424337 264.501566 
L 186.22798 260.785938 
L 193.031622 258.088246 
L 199.835264 260.652961 
L 206.638906 268.4797 
L 213.442549 278.335266 
L 220.246191 286.774409 
L 227.049833 292.456117 
L 233.853475 296.334461 
L 240.657117 300.155457 
L 247.46076 305.087167 
L 254.264402 311.769987 
L 261.068044 320.939117 
L 267.871686 332.957724 
L 274.675329 346.568412 
L 281.478971 359.073933 
L 288.282613 368.674605 
L 295.086255 376.400518 
L 301.889898 384.905503 
L 308.69354 395.372149 
L 315.497182 406.515757 
L 322.300824 416.729092 
L 329.104467 425.805796 
L 335.908109 433.693652 
L 342.711751 439.036664 
L 349.515393 441.01544 
L 356.319036 442.246609 
L 363.122678 447.525711 
L 369.92632 458.739006 
L 376.729962 472.343848 
L 383.533604 482.851409 
L 390.337247 487.89567 
L 397.140889 489.096899 
L 403.944531 489.085902 
L 410.748173 489.147939 
L 417.551816 489.309024 
L 424.355458 489.088647 
L 431.1591 505.529722 
L 437.962742 484.532796 
L 444.766385 480.007728 
L 451.570027 475.845447 
L 458.373669 473.750631 
L 465.177311 473.889094 
L 471.980954 474.811025 
L 478.784596 475.02151 
L 485.588238 474.577932 
L 492.39188 474.925414 
L 499.195523 477.04525 
L 505.999165 480.020289 
L 512.802807 481.777808 
L 519.606449 481.192392 
L 526.410091 479.128184 
L 533.213734 477.415742 
L 540.017376 477.177567 
L 546.821018 478.257343 
L 553.62466 479.851288 
L 560.428303 481.268344 
L 567.231945 482.167437 
L 574.035587 482.470143 
L 580.839229 482.301547 
L 587.642872 481.999049 
L 594.446514 482.059388 
L 601.250156 482.964508 
L 608.053798 484.943575 
L 614.857441 487.758321 
L 621.661083 490.592002 
L 628.464725 492.266539 
L 635.268367 492.093613 
L 642.07201 505.529722 
L 648.875652 491.547327 
L 655.679294 505.529722 
L 662.482936 505.529722 
" clip-path="url(#pa9d89c3015)" style="fill: none; stroke: #ff9500; stroke-opacity: 0.8; stroke-width: 2; stroke-linecap: round"/>
   </g>
   <g id="line2d_56">
    <path d="M 63.762419 404.930799 
L 70.566062 389.937253 
L 77.369704 371.708216 
L 84.173346 350.431111 
L 90.976988 326.430005 
L 97.78063 300.162323 
L 104.584273 272.206381 
L 111.387915 243.239402 
L 118.191557 214.006637 
L 124.995199 185.283204 
L 131.798842 157.831328 
L 138.602484 132.356574 
L 145.406126 109.4672 
L 152.209768 89.640895 
L 159.013411 73.202679 
L 165.817053 60.31669 
L 172.620695 50.993 
L 179.424337 45.108675 
L 186.22798 42.440345 
L 193.031622 42.703781 
L 199.835264 45.594832 
L 206.638906 50.825726 
L 213.442549 58.151314 
L 220.246191 67.381415 
L 227.049833 78.377662 
L 233.853475 91.035935 
L 240.657117 105.258102 
L 247.46076 120.918879 
L 254.264402 137.834807 
L 261.068044 155.742333 
L 267.871686 174.290646 
L 274.675329 193.052555 
L 281.478971 211.553532 
L 288.282613 229.315686 
L 295.086255 245.910473 
L 301.889898 261.011898 
L 308.69354 274.441285 
L 315.497182 286.195492 
L 322.300824 296.452719 
L 329.104467 305.553431 
L 335.908109 313.957812 
L 342.711751 322.184986 
L 349.515393 330.742324 
L 356.319036 340.054951 
L 363.122678 350.405741 
L 369.92632 361.894706 
L 376.729962 374.423778 
L 383.533604 387.709236 
L 390.337247 401.319854 
L 397.140889 414.735062 
L 403.944531 427.414542 
L 410.748173 438.869127 
L 417.551816 448.72298 
L 424.355458 456.758536 
L 431.1591 462.938539 
L 437.962742 467.402977 
L 444.766385 470.442496 
L 451.570027 472.453126 
L 458.373669 473.8796 
L 465.177311 475.155794 
L 471.980954 476.650674 
L 478.784596 478.626851 
L 485.588238 481.216588 
L 492.39188 484.41726 
L 499.195523 505.529722 
L 505.999165 505.529722 
L 512.802807 505.529722 
L 519.606449 505.529722 
L 526.410091 505.529722 
L 533.213734 505.529722 
L 540.017376 505.529722 
L 546.821018 505.529722 
L 553.62466 505.529722 
L 560.428303 505.529722 
L 567.231945 505.529722 
L 574.035587 505.529722 
L 580.839229 505.529722 
L 587.642872 505.529722 
L 594.446514 505.529722 
L 601.250156 505.529722 
L 608.053798 505.529722 
L 614.857441 505.529722 
L 621.661083 505.529722 
L 628.464725 505.529722 
L 635.268367 505.529722 
L 642.07201 505.529722 
L 648.875652 505.529722 
L 655.679294 505.529722 
L 662.482936 505.529722 
" clip-path="url(#pa9d89c3015)" style="fill: none; stroke: #ff2c00; stroke-opacity: 0.8; stroke-width: 2; stroke-linecap: round"/>
   </g>
   <g id="line2d_57">
    <path d="M 63.762419 404.930799 
L 70.566062 393.604086 
L 77.369704 383.352451 
L 84.173346 376.28688 
L 90.976988 372.279078 
L 97.78063 369.389382 
L 104.584273 365.289146 
L 111.387915 358.765051 
L 118.191557 350.356271 
L 124.995199 341.782718 
L 131.798842 334.652887 
L 138.602484 329.39227 
L 145.406126 325.096183 
L 152.209768 320.313296 
L 159.013411 314.159566 
L 165.817053 307.035319 
L 172.620695 300.534886 
L 179.424337 296.609703 
L 186.22798 296.436988 
L 193.031622 299.63857 
L 199.835264 304.369346 
L 206.638906 308.285474 
L 213.442549 309.743675 
L 220.246191 308.324314 
L 227.049833 304.295332 
L 233.853475 297.617712 
L 240.657117 287.624558 
L 247.46076 273.9403 
L 254.264402 257.928709 
L 261.068044 243.168088 
L 267.871686 234.04381 
L 274.675329 233.157246 
L 281.478971 239.468597 
L 288.282613 248.741442 
L 295.086255 256.125087 
L 301.889898 259.034795 
L 308.69354 258.281885 
L 315.497182 256.809762 
L 322.300824 257.211083 
L 329.104467 259.983534 
L 335.908109 263.71499 
L 342.711751 266.796783 
L 349.515393 269.112209 
L 356.319036 272.262327 
L 363.122678 278.123334 
L 369.92632 286.920764 
L 376.729962 296.472003 
L 383.533604 303.374764 
L 390.337247 305.341397 
L 397.140889 302.876462 
L 403.944531 298.957648 
L 410.748173 296.977128 
L 417.551816 298.587133 
L 424.355458 303.083335 
L 431.1591 308.600578 
L 437.962742 313.909781 
L 444.766385 319.255421 
L 451.570027 325.656754 
L 458.373669 333.464473 
L 465.177311 341.540074 
L 471.980954 347.802324 
L 478.784596 350.678503 
L 485.588238 350.243702 
L 492.39188 348.125049 
L 499.195523 346.302572 
L 505.999165 345.855083 
L 512.802807 346.703503 
L 519.606449 348.48122 
L 526.410091 351.593456 
L 533.213734 357.272104 
L 540.017376 366.302967 
L 546.821018 377.424057 
L 553.62466 386.988466 
L 560.428303 390.677044 
L 567.231945 386.354098 
L 574.035587 375.986494 
L 580.839229 365.000857 
L 587.642872 359.304345 
L 594.446514 361.973422 
L 601.250156 371.858956 
L 608.053798 384.88317 
L 614.857441 396.847696 
L 621.661083 405.674484 
L 628.464725 411.722271 
L 635.268367 416.397506 
L 642.07201 420.412397 
L 648.875652 422.996955 
L 655.679294 422.425807 
L 662.482936 417.244441 
" clip-path="url(#pa9d89c3015)" style="fill: none; stroke: #845b97; stroke-opacity: 0.8; stroke-width: 2; stroke-linecap: round"/>
   </g>
   <g id="patch_3">
    <path d="M 33.826393 528.68419 
L 33.826393 19.285876 
" style="fill: none; stroke: #262626; stroke-width: 1.5; stroke-linejoin: miter; stroke-linecap: square"/>
   </g>
   <g id="patch_4">
    <path d="M 692.418962 528.68419 
L 692.418962 19.285876 
" style="fill: none; stroke: #262626; stroke-width: 1.5; stroke-linejoin: miter; stroke-linecap: square"/>
   </g>
   <g id="patch_5">
    <path d="M 33.826393 528.68419 
L 692.418962 528.68419 
" style="fill: none; stroke: #262626; stroke-width: 1.5; stroke-linejoin: miter; stroke-linecap: square"/>
   </g>
   <g id="patch_6">
    <path d="M 33.826393 19.285876 
L 692.418962 19.285876 
" style="fill: none; stroke: #262626; stroke-width: 1.5; stroke-linejoin: miter; stroke-linecap: square"/>
   </g>
   <g id="text_13">
    <!-- Time Series of Outlier Wells - Normalized Wound Area -->
    <g style="fill: #262626" transform="translate(206.381622 13.285876) scale(0.14 -0.14)">
     <defs>
      <path id="CMSS17-53" d="M 2797 4230 
C 2515 4396 2208 4544 1690 4544 
C 864 4544 333 3934 333 3309 
C 333 3064 403 2787 653 2504 
C 902 2220 1184 2143 1542 2053 
C 1690 2014 1939 1943 1984 1924 
C 2342 1782 2515 1454 2515 1144 
C 2515 738 2202 307 1645 307 
C 1453 307 890 339 358 829 
L 269 320 
C 794 -64 1363 -128 1651 -128 
C 2438 -128 3002 494 3002 1202 
C 3002 1460 2925 1789 2656 2092 
C 2394 2381 2163 2446 1638 2588 
C 1338 2665 1146 2717 986 2916 
C 877 3058 819 3193 819 3367 
C 819 3728 1126 4121 1690 4121 
C 1971 4121 2336 4063 2707 3715 
L 2797 4230 
z
" transform="scale(0.015625)"/>
      <path id="CMSS17-73" d="M 2061 2623 
C 1683 2803 1389 2816 1197 2816 
C 742 2816 198 2655 198 2009 
C 198 1363 902 1222 1094 1183 
C 1389 1126 1715 1062 1715 742 
C 1715 339 1254 339 1171 339 
C 915 339 563 409 243 639 
L 166 211 
C 531 0 883 -64 1178 -64 
C 1965 -64 2163 416 2163 780 
C 2163 1094 1984 1305 1862 1401 
C 1651 1567 1574 1587 1050 1695 
C 960 1708 646 1779 646 2067 
C 646 2431 1050 2431 1139 2431 
C 1555 2431 1811 2303 1984 2207 
L 2061 2623 
z
" transform="scale(0.015625)"/>
      <path id="CMSS17-66" d="M 1075 2380 
L 1722 2380 
L 1722 2752 
L 1062 2752 
L 1062 3563 
C 1062 4013 1408 4089 1606 4089 
C 1670 4089 1850 4089 2080 4007 
L 2080 4428 
C 1933 4460 1754 4480 1613 4480 
C 1018 4480 602 3994 602 3366 
L 602 2752 
L 160 2752 
L 160 2380 
L 602 2380 
L 602 0 
L 1075 0 
L 1075 2380 
z
" transform="scale(0.015625)"/>
      <path id="CMSS17-4f" d="M 4096 2201 
C 4096 3541 3219 4544 2214 4544 
C 1210 4544 333 3535 333 2201 
C 333 855 1222 -128 2214 -128 
C 3206 -128 4096 855 4096 2201 
z
M 2214 275 
C 1510 275 870 1067 870 2285 
C 870 3470 1549 4140 2214 4140 
C 2880 4140 3558 3470 3558 2285 
C 3558 1061 2912 275 2214 275 
z
" transform="scale(0.015625)"/>
      <path id="CMSS17-74" d="M 1069 2380 
L 1901 2380 
L 1901 2752 
L 1069 2752 
L 1069 3520 
L 614 3520 
L 614 2752 
L 109 2752 
L 109 2380 
L 602 2380 
L 602 751 
C 602 384 685 -64 1107 -64 
C 1427 -64 1722 25 2003 172 
L 1901 551 
C 1747 416 1562 339 1363 339 
C 1082 339 1069 699 1069 860 
L 1069 2380 
z
" transform="scale(0.015625)"/>
      <path id="CMSS17-2d" d="M 1664 1216 
L 1664 1587 
L 64 1587 
L 64 1216 
L 1664 1216 
z
" transform="scale(0.015625)"/>
     </defs>
     <use xlink:href="#CMSS17-54" transform="scale(0.996264)"/>
     <use xlink:href="#CMSS17-69" transform="translate(63.819454 0) scale(0.996264)"/>
     <use xlink:href="#CMSS17-6d" transform="translate(86.000177 0) scale(0.996264)"/>
     <use xlink:href="#CMSS17-65" transform="translate(160.229431 0) scale(0.996264)"/>
     <use xlink:href="#CMSS17-53" transform="translate(233.097366 0) scale(0.996264)"/>
     <use xlink:href="#CMSS17-65" transform="translate(285.145882 0) scale(0.996264)"/>
     <use xlink:href="#CMSS17-72" transform="translate(326.784704 0) scale(0.996264)"/>
     <use xlink:href="#CMSS17-69" transform="translate(358.694477 0) scale(0.996264)"/>
     <use xlink:href="#CMSS17-65" transform="translate(380.8752 0) scale(0.996264)"/>
     <use xlink:href="#CMSS17-73" transform="translate(422.514022 0) scale(0.996264)"/>
     <use xlink:href="#CMSS17-6f" transform="translate(489.656677 0) scale(0.996264)"/>
     <use xlink:href="#CMSS17-66" transform="translate(536.5003 0) scale(0.996264)"/>
     <use xlink:href="#CMSS17-4f" transform="translate(596.356072 0) scale(0.996264)"/>
     <use xlink:href="#CMSS17-75" transform="translate(665.380327 0) scale(0.996264)"/>
     <use xlink:href="#CMSS17-74" transform="translate(713.58527 0) scale(0.996264)"/>
     <use xlink:href="#CMSS17-6c" transform="translate(747.416837 0) scale(0.996264)"/>
     <use xlink:href="#CMSS17-69" transform="translate(769.59756 0) scale(0.996264)"/>
     <use xlink:href="#CMSS17-65" transform="translate(791.778283 0) scale(0.996264)"/>
     <use xlink:href="#CMSS17-72" transform="translate(833.417105 0) scale(0.996264)"/>
     <use xlink:href="#CMSS17-57" transform="translate(896.555991 0) scale(0.996264)"/>
     <use xlink:href="#CMSS17-65" transform="translate(982.195703 0) scale(0.996264)"/>
     <use xlink:href="#CMSS17-6c" transform="translate(1023.834525 0) scale(0.996264)"/>
     <use xlink:href="#CMSS17-6c" transform="translate(1046.015248 0) scale(0.996264)"/>
     <use xlink:href="#CMSS17-73" transform="translate(1068.195971 0) scale(0.996264)"/>
     <use xlink:href="#CMSS17-2d" transform="translate(1135.338626 0) scale(0.996264)"/>
     <use xlink:href="#CMSS17-4e" transform="translate(1197.796851 0) scale(0.996264)"/>
     <use xlink:href="#CMSS17-6f" transform="translate(1263.85837 0) scale(0.996264)"/>
     <use xlink:href="#CMSS17-72" transform="translate(1308.09954 0) scale(0.996264)"/>
     <use xlink:href="#CMSS17-6d" transform="translate(1340.009313 0) scale(0.996264)"/>
     <use xlink:href="#CMSS17-61" transform="translate(1414.238567 0) scale(0.996264)"/>
     <use xlink:href="#CMSS17-6c" transform="translate(1459.160488 0) scale(0.996264)"/>
     <use xlink:href="#CMSS17-69" transform="translate(1481.341211 0) scale(0.996264)"/>
     <use xlink:href="#CMSS17-7a" transform="translate(1503.521934 0) scale(0.996264)"/>
     <use xlink:href="#CMSS17-65" transform="translate(1544.199806 0) scale(0.996264)"/>
     <use xlink:href="#CMSS17-64" transform="translate(1585.838628 0) scale(0.996264)"/>
     <use xlink:href="#CMSS17-57" transform="translate(1665.272683 0) scale(0.996264)"/>
     <use xlink:href="#CMSS17-6f" transform="translate(1750.912396 0) scale(0.996264)"/>
     <use xlink:href="#CMSS17-75" transform="translate(1797.756019 0) scale(0.996264)"/>
     <use xlink:href="#CMSS17-6e" transform="translate(1845.960962 0) scale(0.996264)"/>
     <use xlink:href="#CMSS17-64" transform="translate(1894.165906 0) scale(0.996264)"/>
     <use xlink:href="#CMSS17-41" transform="translate(1973.599961 0) scale(0.996264)"/>
     <use xlink:href="#CMSS17-72" transform="translate(2035.817816 0) scale(0.996264)"/>
     <use xlink:href="#CMSS17-65" transform="translate(2067.727589 0) scale(0.996264)"/>
     <use xlink:href="#CMSS17-61" transform="translate(2109.366411 0) scale(0.996264)"/>
    </g>
   </g>
   <g id="legend_1">
    <g id="line2d_58">
     <path d="M 739.748591 39.285876 
L 755.748591 39.285876 
L 771.748591 39.285876 
" style="fill: none; stroke: #000000; stroke-opacity: 0.8; stroke-width: 2; stroke-linecap: round"/>
    </g>
    <g id="text_14">
     <!-- mean -->
     <g style="fill: #262626" transform="translate(784.548591 44.885876) scale(0.16 -0.16)">
      <use xlink:href="#CMSS17-6d" transform="scale(0.996264)"/>
      <use xlink:href="#CMSS17-65" transform="translate(74.229254 0) scale(0.996264)"/>
      <use xlink:href="#CMSS17-61" transform="translate(115.868077 0) scale(0.996264)"/>
      <use xlink:href="#CMSS17-6e" transform="translate(160.789997 0) scale(0.996264)"/>
     </g>
    </g>
    <g id="line2d_59">
     <path d="M 739.748591 61.585353 
L 755.748591 61.585353 
L 771.748591 61.585353 
" style="fill: none; stroke: #0c5da5; stroke-opacity: 0.8; stroke-width: 2; stroke-linecap: round"/>
    </g>
    <g id="text_15">
     <!-- s003_A03 -->
     <g style="fill: #262626" transform="translate(784.548591 67.185353) scale(0.16 -0.16)">
      <use xlink:href="#CMSS17-73" transform="scale(0.996264)"/>
      <use xlink:href="#CMSS17-30" transform="translate(35.913542 0) scale(0.996264)"/>
      <use xlink:href="#CMSS17-30" transform="translate(82.757166 0) scale(0.996264)"/>
      <use xlink:href="#CMSS17-33" transform="translate(129.600789 0) scale(0.996264)"/>
      <use xlink:href="#CMSS17-41" transform="translate(210.171908 0) scale(0.996264)"/>
      <use xlink:href="#CMSS17-30" transform="translate(272.389763 0) scale(0.996264)"/>
      <use xlink:href="#CMSS17-33" transform="translate(319.233386 0) scale(0.996264)"/>
      <path d="M 182.065424 0 
L 210.171908 0 
L 210.171908 0.3985 
L 182.065424 0.3985 
L 182.065424 0 
z
"/>
     </g>
    </g>
    <g id="line2d_60">
     <path d="M 739.748591 83.884829 
L 755.748591 83.884829 
L 771.748591 83.884829 
" style="fill: none; stroke: #00b945; stroke-opacity: 0.8; stroke-width: 2; stroke-linecap: round"/>
    </g>
    <g id="text_16">
     <!-- s015_B07 -->
     <g style="fill: #262626" transform="translate(784.548591 89.484829) scale(0.16 -0.16)">
      <defs>
       <path id="CMSS17-35" d="M 934 3814 
L 2502 3814 
L 2502 4224 
L 467 4224 
L 467 1830 
L 896 1830 
C 1011 2103 1248 2304 1555 2304 
C 1843 2304 2163 2044 2163 1299 
C 2163 502 1709 268 1376 268 
C 966 268 589 521 422 871 
L 218 508 
C 512 51 992 -128 1376 -128 
C 2118 -128 2701 508 2701 1286 
C 2701 2083 2182 2694 1562 2694 
C 1338 2694 1120 2617 934 2464 
L 934 3814 
z
" transform="scale(0.015625)"/>
       <path id="CMSS17-42" d="M 570 4416 
L 570 0 
L 2163 0 
C 3034 0 3667 575 3667 1200 
C 3667 1684 3251 2175 2502 2316 
C 3334 2559 3501 3039 3501 3311 
C 3501 3880 2874 4416 1997 4416 
L 570 4416 
z
M 1088 2496 
L 1088 4057 
L 1824 4057 
C 2483 4057 3002 3722 3002 3305 
C 3002 2925 2592 2496 1766 2496 
L 1088 2496 
z
M 1088 358 
L 1088 2105 
L 1939 2105 
C 2630 2105 3162 1678 3162 1206 
C 3162 772 2694 358 1984 358 
L 1088 358 
z
" transform="scale(0.015625)"/>
       <path id="CMSS17-37" d="M 1389 3788 
C 1466 3788 1542 3795 1619 3795 
L 2355 3795 
C 1440 2715 915 1350 915 -64 
L 1427 -64 
C 1427 1305 1875 2695 2752 3807 
L 2752 4224 
L 250 4224 
L 250 3788 
L 1389 3788 
z
" transform="scale(0.015625)"/>
      </defs>
      <use xlink:href="#CMSS17-73" transform="scale(0.996264)"/>
      <use xlink:href="#CMSS17-30" transform="translate(35.913542 0) scale(0.996264)"/>
      <use xlink:href="#CMSS17-31" transform="translate(82.757166 0) scale(0.996264)"/>
      <use xlink:href="#CMSS17-35" transform="translate(129.600789 0) scale(0.996264)"/>
      <use xlink:href="#CMSS17-42" transform="translate(210.171908 0) scale(0.996264)"/>
      <use xlink:href="#CMSS17-30" transform="translate(272.509948 0) scale(0.996264)"/>
      <use xlink:href="#CMSS17-37" transform="translate(319.353572 0) scale(0.996264)"/>
      <path d="M 182.065424 0 
L 210.171908 0 
L 210.171908 0.3985 
L 182.065424 0.3985 
L 182.065424 0 
z
"/>
     </g>
    </g>
    <g id="line2d_61">
     <path d="M 739.748591 106.184305 
L 755.748591 106.184305 
L 771.748591 106.184305 
" style="fill: none; stroke: #ff9500; stroke-opacity: 0.8; stroke-width: 2; stroke-linecap: round"/>
    </g>
    <g id="text_17">
     <!-- s028_C10 -->
     <g style="fill: #262626" transform="translate(784.548591 111.784305) scale(0.16 -0.16)">
      <defs>
       <path id="CMSS17-38" d="M 1933 2246 
C 2419 2406 2669 2793 2669 3174 
C 2669 3774 2157 4288 1504 4288 
C 826 4288 333 3755 333 3174 
C 333 2799 576 2412 1069 2246 
C 442 2003 250 1516 250 1152 
C 250 448 819 -128 1498 -128 
C 2202 -128 2752 460 2752 1152 
C 2752 1574 2502 2022 1933 2246 
z
M 1504 2438 
C 1075 2438 787 2728 787 3167 
C 787 3613 1075 3897 1504 3897 
C 1901 3897 2214 3639 2214 3167 
C 2214 2703 1907 2438 1504 2438 
z
M 1504 268 
C 1139 268 749 518 749 1158 
C 749 1817 1184 2048 1498 2048 
C 1843 2048 2253 1804 2253 1158 
C 2253 492 1830 268 1504 268 
z
" transform="scale(0.015625)"/>
       <path id="CMSS17-43" d="M 3501 705 
C 3072 416 2874 332 2355 332 
C 1459 332 934 1304 934 2191 
C 934 3137 1472 4070 2381 4070 
C 2790 4070 3059 3954 3386 3748 
L 3475 4255 
C 3168 4409 2778 4480 2387 4480 
C 1158 4480 397 3343 397 2191 
C 397 924 1299 -77 2323 -77 
C 2874 -77 3066 -32 3539 268 
L 3501 705 
z
" transform="scale(0.015625)"/>
      </defs>
      <use xlink:href="#CMSS17-73" transform="scale(0.996264)"/>
      <use xlink:href="#CMSS17-30" transform="translate(35.913542 0) scale(0.996264)"/>
      <use xlink:href="#CMSS17-32" transform="translate(82.757166 0) scale(0.996264)"/>
      <use xlink:href="#CMSS17-38" transform="translate(129.600789 0) scale(0.996264)"/>
      <use xlink:href="#CMSS17-43" transform="translate(210.171908 0) scale(0.996264)"/>
      <use xlink:href="#CMSS17-31" transform="translate(270.027679 0) scale(0.996264)"/>
      <use xlink:href="#CMSS17-30" transform="translate(316.871303 0) scale(0.996264)"/>
      <path d="M 182.065424 0 
L 210.171908 0 
L 210.171908 0.3985 
L 182.065424 0.3985 
L 182.065424 0 
z
"/>
     </g>
    </g>
    <g id="line2d_62">
     <path d="M 739.748591 128.483781 
L 755.748591 128.483781 
L 771.748591 128.483781 
" style="fill: none; stroke: #ff2c00; stroke-opacity: 0.8; stroke-width: 2; stroke-linecap: round"/>
    </g>
    <g id="text_18">
     <!-- s054_F08 -->
     <g style="fill: #262626" transform="translate(784.548591 134.083781) scale(0.16 -0.16)">
      <defs>
       <path id="CMSS17-46" d="M 2918 1984 
L 2918 2374 
L 1101 2374 
L 1101 3993 
L 1882 3993 
C 1958 3993 2035 3987 2112 3987 
L 3168 3987 
L 3168 4403 
L 563 4403 
L 563 0 
L 1101 0 
L 1101 1984 
L 2918 1984 
z
" transform="scale(0.015625)"/>
      </defs>
      <use xlink:href="#CMSS17-73" transform="scale(0.996264)"/>
      <use xlink:href="#CMSS17-30" transform="translate(35.913542 0) scale(0.996264)"/>
      <use xlink:href="#CMSS17-35" transform="translate(82.757166 0) scale(0.996264)"/>
      <use xlink:href="#CMSS17-34" transform="translate(129.600789 0) scale(0.996264)"/>
      <use xlink:href="#CMSS17-46" transform="translate(210.171908 0) scale(0.996264)"/>
      <use xlink:href="#CMSS17-30" transform="translate(263.461467 0) scale(0.996264)"/>
      <use xlink:href="#CMSS17-38" transform="translate(310.305091 0) scale(0.996264)"/>
      <path d="M 182.065424 0 
L 210.171908 0 
L 210.171908 0.3985 
L 182.065424 0.3985 
L 182.065424 0 
z
"/>
     </g>
    </g>
    <g id="line2d_63">
     <path d="M 739.748591 150.783257 
L 755.748591 150.783257 
L 771.748591 150.783257 
" style="fill: none; stroke: #845b97; stroke-opacity: 0.8; stroke-width: 2; stroke-linecap: round"/>
    </g>
    <g id="text_19">
     <!-- s059_F02 -->
     <g style="fill: #262626" transform="translate(784.548591 156.383257) scale(0.16 -0.16)">
      <defs>
       <path id="CMSS17-39" d="M 435 172 
C 614 19 845 -128 1235 -128 
C 2010 -128 2752 738 2752 2136 
C 2752 3987 1952 4288 1523 4288 
C 1094 4288 819 4095 582 3789 
C 301 3438 250 3125 250 2761 
C 250 2327 326 2059 506 1753 
C 749 1356 973 1273 1222 1273 
C 1600 1273 1978 1459 2234 1778 
C 2189 908 1798 268 1235 268 
C 1005 268 819 340 634 516 
L 435 172 
z
M 2214 2774 
C 2221 2729 2221 2646 2221 2621 
C 2221 2085 1914 1664 1466 1664 
C 1171 1664 1018 1817 902 2015 
C 762 2263 755 2506 755 2761 
C 755 3010 755 3284 934 3559 
C 1069 3757 1235 3897 1523 3897 
C 2112 3897 2208 3036 2214 2774 
z
" transform="scale(0.015625)"/>
      </defs>
      <use xlink:href="#CMSS17-73" transform="scale(0.996264)"/>
      <use xlink:href="#CMSS17-30" transform="translate(35.913542 0) scale(0.996264)"/>
      <use xlink:href="#CMSS17-35" transform="translate(82.757166 0) scale(0.996264)"/>
      <use xlink:href="#CMSS17-39" transform="translate(129.600789 0) scale(0.996264)"/>
      <use xlink:href="#CMSS17-46" transform="translate(210.171908 0) scale(0.996264)"/>
      <use xlink:href="#CMSS17-30" transform="translate(263.461467 0) scale(0.996264)"/>
      <use xlink:href="#CMSS17-32" transform="translate(310.305091 0) scale(0.996264)"/>
      <path d="M 182.065424 0 
L 210.171908 0 
L 210.171908 0.3985 
L 182.065424 0.3985 
L 182.065424 0 
z
"/>
     </g>
    </g>
   </g>
  </g>
 </g>
 <defs>
  <clipPath id="pa9d89c3015">
   <rect x="33.826393" y="19.285876" width="658.592569" height="509.398314"/>
  </clipPath>
 </defs>
</svg>
