<?xml version="1.0" encoding="utf-8" standalone="no"?>
<!DOCTYPE svg PUBLIC "-//W3C//DTD SVG 1.1//EN"
  "http://www.w3.org/Graphics/SVG/1.1/DTD/svg11.dtd">
<svg xmlns:xlink="http://www.w3.org/1999/xlink" width="855.529628pt" height="568.08pt" viewBox="0 0 855.529628 568.08" xmlns="http://www.w3.org/2000/svg" version="1.1">
 <metadata>
  <rdf:RDF xmlns:dc="http://purl.org/dc/elements/1.1/" xmlns:cc="http://creativecommons.org/ns#" xmlns:rdf="http://www.w3.org/1999/02/22-rdf-syntax-ns#">
   <cc:Work>
    <dc:type rdf:resource="http://purl.org/dc/dcmitype/StillImage"/>
    <dc:date>2025-08-13T23:57:43.116559</dc:date>
    <dc:format>image/svg+xml</dc:format>
    <dc:creator>
     <cc:Agent>
      <dc:title>Matplotlib v3.10.0, https://matplotlib.org/</dc:title>
     </cc:Agent>
    </dc:creator>
   </cc:Work>
  </rdf:RDF>
 </metadata>
 <defs>
  <style type="text/css">*{stroke-linejoin: round; stroke-linecap: butt}</style>
 </defs>
 <g id="figure_1">
  <g id="patch_1">
   <path d="M 0 568.08 
L 855.529628 568.08 
L 855.529628 0 
L 0 0 
z
" style="fill: #ffffff"/>
  </g>
  <g id="axes_1">
   <g id="patch_2">
    <path d="M 33.826393 528.68419 
L 692.418962 528.68419 
L 692.418962 19.285876 
L 33.826393 19.285876 
z
" style="fill: #ffffff"/>
   </g>
   <g id="matplotlib.axis_1">
    <g id="xtick_1">
     <g id="line2d_1">
      <defs>
       <path id="mf43f618b9a" d="M 0 0 
L 0 3.5 
" style="stroke: #262626; stroke-width: 1.5"/>
      </defs>
      <g>
       <use xlink:href="#mf43f618b9a" x="63.762419" y="528.68419" style="fill: #262626; stroke: #262626; stroke-width: 1.5"/>
      </g>
     </g>
     <g id="text_1">
      <!-- $\mathdefault{0}$ -->
      <g style="fill: #262626" transform="translate(60.348175 545.370067) scale(0.14 -0.14)">
       <defs>
        <path id="CMSS17-30" d="M 2758 2073 
C 2758 2439 2752 3120 2490 3647 
C 2227 4153 1805 4288 1504 4288 
C 1069 4288 698 4031 506 3621 
C 301 3191 243 2748 243 2073 
C 243 1611 262 1046 493 551 
C 755 6 1197 -128 1498 -128 
C 1894 -128 2278 83 2496 525 
C 2720 988 2758 1495 2758 2073 
z
M 1498 262 
C 1011 262 864 821 819 1007 
C 742 1328 730 1636 730 2144 
C 730 2542 730 2992 851 3345 
C 998 3756 1254 3897 1498 3897 
C 1971 3897 2125 3422 2176 3255 
C 2272 2915 2272 2516 2272 2144 
C 2272 1546 2272 262 1498 262 
z
" transform="scale(0.015625)"/>
       </defs>
       <use xlink:href="#CMSS17-30" transform="scale(0.996264)"/>
      </g>
     </g>
    </g>
    <g id="xtick_2">
     <g id="line2d_2">
      <g>
       <use xlink:href="#mf43f618b9a" x="199.835264" y="528.68419" style="fill: #262626; stroke: #262626; stroke-width: 1.5"/>
      </g>
     </g>
     <g id="text_2">
      <!-- $\mathdefault{10}$ -->
      <g style="fill: #262626" transform="translate(193.006775 545.370067) scale(0.14 -0.14)">
       <defs>
        <path id="CMSS17-31" d="M 1818 4288 
L 1696 4288 
C 1350 3949 947 3902 538 3891 
L 538 3520 
C 723 3526 1024 3539 1325 3673 
L 1325 371 
L 570 371 
L 570 0 
L 2573 0 
L 2573 371 
L 1818 371 
L 1818 4288 
z
" transform="scale(0.015625)"/>
       </defs>
       <use xlink:href="#CMSS17-31" transform="scale(0.996264)"/>
       <use xlink:href="#CMSS17-30" transform="translate(46.843624 0) scale(0.996264)"/>
      </g>
     </g>
    </g>
    <g id="xtick_3">
     <g id="line2d_3">
      <g>
       <use xlink:href="#mf43f618b9a" x="335.908109" y="528.68419" style="fill: #262626; stroke: #262626; stroke-width: 1.5"/>
      </g>
     </g>
     <g id="text_3">
      <!-- $\mathdefault{20}$ -->
      <g style="fill: #262626" transform="translate(329.07962 545.370067) scale(0.14 -0.14)">
       <defs>
        <path id="CMSS17-32" d="M 1651 1353 
C 1830 1538 2099 1761 2285 1984 
C 2464 2201 2701 2507 2701 2953 
C 2701 3655 2227 4288 1421 4288 
C 787 4288 422 3891 250 3272 
L 499 2928 
C 640 3508 838 3878 1338 3878 
C 1888 3878 2195 3431 2195 2940 
C 2195 2354 1747 1901 1408 1563 
C 1030 1187 659 805 301 409 
L 301 0 
L 2701 0 
L 2701 435 
L 1613 435 
C 1536 435 1459 428 1382 428 
L 742 428 
L 742 435 
L 1651 1353 
z
" transform="scale(0.015625)"/>
       </defs>
       <use xlink:href="#CMSS17-32" transform="scale(0.996264)"/>
       <use xlink:href="#CMSS17-30" transform="translate(46.843624 0) scale(0.996264)"/>
      </g>
     </g>
    </g>
    <g id="xtick_4">
     <g id="line2d_4">
      <g>
       <use xlink:href="#mf43f618b9a" x="471.980954" y="528.68419" style="fill: #262626; stroke: #262626; stroke-width: 1.5"/>
      </g>
     </g>
     <g id="text_4">
      <!-- $\mathdefault{30}$ -->
      <g style="fill: #262626" transform="translate(465.152465 545.370067) scale(0.14 -0.14)">
       <defs>
        <path id="CMSS17-33" d="M 1005 2060 
L 1440 2060 
C 2042 2060 2214 1532 2214 1164 
C 2214 662 1933 268 1472 268 
C 1114 268 608 449 320 926 
C 275 700 275 687 250 533 
C 550 89 1037 -128 1485 -128 
C 2214 -128 2752 481 2752 1158 
C 2752 1667 2400 2092 1920 2252 
C 2304 2463 2586 2860 2586 3321 
C 2586 3859 2093 4288 1491 4288 
C 941 4288 512 3948 333 3583 
C 378 3519 493 3334 550 3238 
C 691 3615 1056 3897 1485 3897 
C 1843 3897 2080 3660 2080 3321 
C 2080 2969 1856 2585 1478 2496 
C 1453 2496 1056 2457 1005 2451 
L 1005 2060 
z
" transform="scale(0.015625)"/>
       </defs>
       <use xlink:href="#CMSS17-33" transform="scale(0.996264)"/>
       <use xlink:href="#CMSS17-30" transform="translate(46.843624 0) scale(0.996264)"/>
      </g>
     </g>
    </g>
    <g id="xtick_5">
     <g id="line2d_5">
      <g>
       <use xlink:href="#mf43f618b9a" x="608.053798" y="528.68419" style="fill: #262626; stroke: #262626; stroke-width: 1.5"/>
      </g>
     </g>
     <g id="text_5">
      <!-- $\mathdefault{40}$ -->
      <g style="fill: #262626" transform="translate(601.22531 545.370067) scale(0.14 -0.14)">
       <defs>
        <path id="CMSS17-34" d="M 2253 1088 
L 2835 1088 
L 2835 1478 
L 2253 1478 
L 2253 4224 
L 1690 4224 
L 166 1478 
L 166 1088 
L 1747 1088 
L 1747 0 
L 2253 0 
L 2253 1088 
z
M 659 1478 
C 1030 2139 1766 3474 1766 3927 
L 1766 1478 
L 659 1478 
z
" transform="scale(0.015625)"/>
       </defs>
       <use xlink:href="#CMSS17-34" transform="scale(0.996264)"/>
       <use xlink:href="#CMSS17-30" transform="translate(46.843624 0) scale(0.996264)"/>
      </g>
     </g>
    </g>
    <g id="xtick_6">
     <g id="line2d_6">
      <defs>
       <path id="m47893f16eb" d="M 0 0 
L 0 2.5 
" style="stroke: #262626; stroke-width: 1.5"/>
      </defs>
      <g>
       <use xlink:href="#m47893f16eb" x="36.54785" y="528.68419" style="fill: #262626; stroke: #262626; stroke-width: 1.5"/>
      </g>
     </g>
    </g>
    <g id="xtick_7">
     <g id="line2d_7">
      <g>
       <use xlink:href="#m47893f16eb" x="90.976988" y="528.68419" style="fill: #262626; stroke: #262626; stroke-width: 1.5"/>
      </g>
     </g>
    </g>
    <g id="xtick_8">
     <g id="line2d_8">
      <g>
       <use xlink:href="#m47893f16eb" x="118.191557" y="528.68419" style="fill: #262626; stroke: #262626; stroke-width: 1.5"/>
      </g>
     </g>
    </g>
    <g id="xtick_9">
     <g id="line2d_9">
      <g>
       <use xlink:href="#m47893f16eb" x="145.406126" y="528.68419" style="fill: #262626; stroke: #262626; stroke-width: 1.5"/>
      </g>
     </g>
    </g>
    <g id="xtick_10">
     <g id="line2d_10">
      <g>
       <use xlink:href="#m47893f16eb" x="172.620695" y="528.68419" style="fill: #262626; stroke: #262626; stroke-width: 1.5"/>
      </g>
     </g>
    </g>
    <g id="xtick_11">
     <g id="line2d_11">
      <g>
       <use xlink:href="#m47893f16eb" x="227.049833" y="528.68419" style="fill: #262626; stroke: #262626; stroke-width: 1.5"/>
      </g>
     </g>
    </g>
    <g id="xtick_12">
     <g id="line2d_12">
      <g>
       <use xlink:href="#m47893f16eb" x="254.264402" y="528.68419" style="fill: #262626; stroke: #262626; stroke-width: 1.5"/>
      </g>
     </g>
    </g>
    <g id="xtick_13">
     <g id="line2d_13">
      <g>
       <use xlink:href="#m47893f16eb" x="281.478971" y="528.68419" style="fill: #262626; stroke: #262626; stroke-width: 1.5"/>
      </g>
     </g>
    </g>
    <g id="xtick_14">
     <g id="line2d_14">
      <g>
       <use xlink:href="#m47893f16eb" x="308.69354" y="528.68419" style="fill: #262626; stroke: #262626; stroke-width: 1.5"/>
      </g>
     </g>
    </g>
    <g id="xtick_15">
     <g id="line2d_15">
      <g>
       <use xlink:href="#m47893f16eb" x="363.122678" y="528.68419" style="fill: #262626; stroke: #262626; stroke-width: 1.5"/>
      </g>
     </g>
    </g>
    <g id="xtick_16">
     <g id="line2d_16">
      <g>
       <use xlink:href="#m47893f16eb" x="390.337247" y="528.68419" style="fill: #262626; stroke: #262626; stroke-width: 1.5"/>
      </g>
     </g>
    </g>
    <g id="xtick_17">
     <g id="line2d_17">
      <g>
       <use xlink:href="#m47893f16eb" x="417.551816" y="528.68419" style="fill: #262626; stroke: #262626; stroke-width: 1.5"/>
      </g>
     </g>
    </g>
    <g id="xtick_18">
     <g id="line2d_18">
      <g>
       <use xlink:href="#m47893f16eb" x="444.766385" y="528.68419" style="fill: #262626; stroke: #262626; stroke-width: 1.5"/>
      </g>
     </g>
    </g>
    <g id="xtick_19">
     <g id="line2d_19">
      <g>
       <use xlink:href="#m47893f16eb" x="499.195523" y="528.68419" style="fill: #262626; stroke: #262626; stroke-width: 1.5"/>
      </g>
     </g>
    </g>
    <g id="xtick_20">
     <g id="line2d_20">
      <g>
       <use xlink:href="#m47893f16eb" x="526.410091" y="528.68419" style="fill: #262626; stroke: #262626; stroke-width: 1.5"/>
      </g>
     </g>
    </g>
    <g id="xtick_21">
     <g id="line2d_21">
      <g>
       <use xlink:href="#m47893f16eb" x="553.62466" y="528.68419" style="fill: #262626; stroke: #262626; stroke-width: 1.5"/>
      </g>
     </g>
    </g>
    <g id="xtick_22">
     <g id="line2d_22">
      <g>
       <use xlink:href="#m47893f16eb" x="580.839229" y="528.68419" style="fill: #262626; stroke: #262626; stroke-width: 1.5"/>
      </g>
     </g>
    </g>
    <g id="xtick_23">
     <g id="line2d_23">
      <g>
       <use xlink:href="#m47893f16eb" x="635.268367" y="528.68419" style="fill: #262626; stroke: #262626; stroke-width: 1.5"/>
      </g>
     </g>
    </g>
    <g id="xtick_24">
     <g id="line2d_24">
      <g>
       <use xlink:href="#m47893f16eb" x="662.482936" y="528.68419" style="fill: #262626; stroke: #262626; stroke-width: 1.5"/>
      </g>
     </g>
    </g>
    <g id="xtick_25">
     <g id="line2d_25">
      <g>
       <use xlink:href="#m47893f16eb" x="689.697505" y="528.68419" style="fill: #262626; stroke: #262626; stroke-width: 1.5"/>
      </g>
     </g>
    </g>
    <g id="text_6">
     <!-- Time -->
     <g style="fill: #262626" transform="translate(348.4245 561.767972) scale(0.14 -0.14)">
      <defs>
       <path id="CMSS17-54" d="M 2317 3987 
L 2848 3987 
C 2925 3987 3002 3980 3078 3980 
L 3878 3980 
L 3878 4396 
L 218 4396 
L 218 3980 
L 1018 3980 
C 1094 3980 1171 3987 1248 3987 
L 1779 3987 
L 1779 0 
L 2317 0 
L 2317 3987 
z
" transform="scale(0.015625)"/>
       <path id="CMSS17-69" d="M 979 4224 
L 442 4224 
L 442 3686 
L 979 3686 
L 979 4224 
z
M 947 2752 
L 474 2752 
L 474 0 
L 947 0 
L 947 2752 
z
" transform="scale(0.015625)"/>
       <path id="CMSS17-6d" d="M 4288 1878 
C 4288 2309 4179 2816 3462 2816 
C 2982 2816 2694 2515 2566 2328 
C 2451 2668 2182 2816 1798 2816 
C 1363 2816 1088 2566 941 2386 
L 941 2783 
L 474 2783 
L 474 0 
L 960 0 
L 960 1556 
C 960 1936 1101 2425 1555 2425 
C 2138 2425 2138 2013 2138 1826 
L 2138 0 
L 2624 0 
L 2624 1556 
C 2624 1936 2765 2425 3219 2425 
C 3802 2425 3802 2013 3802 1826 
L 3802 0 
L 4288 0 
L 4288 1878 
z
" transform="scale(0.015625)"/>
       <path id="CMSS17-65" d="M 2502 1375 
C 2502 1587 2490 2001 2285 2347 
C 2061 2713 1696 2816 1421 2816 
C 755 2816 192 2184 192 1363 
C 192 579 774 -64 1510 -64 
C 1798 -64 2150 19 2470 249 
C 2470 275 2458 414 2451 421 
C 2451 433 2432 629 2432 655 
C 2125 408 1773 326 1517 326 
C 1107 326 666 667 646 1375 
L 2502 1375 
z
M 698 1728 
C 781 2086 1062 2425 1421 2425 
C 1517 2425 1965 2412 2080 1728 
L 698 1728 
z
" transform="scale(0.015625)"/>
      </defs>
      <use xlink:href="#CMSS17-54" transform="scale(0.996264)"/>
      <use xlink:href="#CMSS17-69" transform="translate(63.819454 0) scale(0.996264)"/>
      <use xlink:href="#CMSS17-6d" transform="translate(86.000177 0) scale(0.996264)"/>
      <use xlink:href="#CMSS17-65" transform="translate(160.229431 0) scale(0.996264)"/>
     </g>
    </g>
   </g>
   <g id="matplotlib.axis_2">
    <g id="ytick_1">
     <g id="line2d_26">
      <defs>
       <path id="m57d5dbc462" d="M 0 0 
L -3.5 0 
" style="stroke: #262626; stroke-width: 1.5"/>
      </defs>
      <g>
       <use xlink:href="#m57d5dbc462" x="33.826393" y="505.529722" style="fill: #262626; stroke: #262626; stroke-width: 1.5"/>
      </g>
     </g>
     <g id="text_7">
      <!-- $\mathdefault{0}$ -->
      <g style="fill: #262626" transform="translate(19.997905 510.37266) scale(0.14 -0.14)">
       <use xlink:href="#CMSS17-30" transform="scale(0.996264)"/>
      </g>
     </g>
    </g>
    <g id="ytick_2">
     <g id="line2d_27">
      <g>
       <use xlink:href="#m57d5dbc462" x="33.826393" y="429.550056" style="fill: #262626; stroke: #262626; stroke-width: 1.5"/>
      </g>
     </g>
     <g id="text_8">
      <!-- $\mathdefault{1}$ -->
      <g style="fill: #262626" transform="translate(19.997905 434.392995) scale(0.14 -0.14)">
       <use xlink:href="#CMSS17-31" transform="scale(0.996264)"/>
      </g>
     </g>
    </g>
    <g id="ytick_3">
     <g id="line2d_28">
      <g>
       <use xlink:href="#m57d5dbc462" x="33.826393" y="353.570391" style="fill: #262626; stroke: #262626; stroke-width: 1.5"/>
      </g>
     </g>
     <g id="text_9">
      <!-- $\mathdefault{2}$ -->
      <g style="fill: #262626" transform="translate(19.997905 358.413329) scale(0.14 -0.14)">
       <use xlink:href="#CMSS17-32" transform="scale(0.996264)"/>
      </g>
     </g>
    </g>
    <g id="ytick_4">
     <g id="line2d_29">
      <g>
       <use xlink:href="#m57d5dbc462" x="33.826393" y="277.590726" style="fill: #262626; stroke: #262626; stroke-width: 1.5"/>
      </g>
     </g>
     <g id="text_10">
      <!-- $\mathdefault{3}$ -->
      <g style="fill: #262626" transform="translate(19.997905 282.433664) scale(0.14 -0.14)">
       <use xlink:href="#CMSS17-33" transform="scale(0.996264)"/>
      </g>
     </g>
    </g>
    <g id="ytick_5">
     <g id="line2d_30">
      <g>
       <use xlink:href="#m57d5dbc462" x="33.826393" y="201.611061" style="fill: #262626; stroke: #262626; stroke-width: 1.5"/>
      </g>
     </g>
     <g id="text_11">
      <!-- $\mathdefault{4}$ -->
      <g style="fill: #262626" transform="translate(19.997905 206.453999) scale(0.14 -0.14)">
       <use xlink:href="#CMSS17-34" transform="scale(0.996264)"/>
      </g>
     </g>
    </g>
    <g id="ytick_6">
     <g id="line2d_31">
      <g>
       <use xlink:href="#m57d5dbc462" x="33.826393" y="125.631396" style="fill: #262626; stroke: #262626; stroke-width: 1.5"/>
      </g>
     </g>
     <g id="text_12">
      <!-- $\mathdefault{5}$ -->
      <g style="fill: #262626" transform="translate(19.997905 130.474334) scale(0.14 -0.14)">
       <defs>
        <path id="CMSS17-35" d="M 934 3814 
L 2502 3814 
L 2502 4224 
L 467 4224 
L 467 1830 
L 896 1830 
C 1011 2103 1248 2304 1555 2304 
C 1843 2304 2163 2044 2163 1299 
C 2163 502 1709 268 1376 268 
C 966 268 589 521 422 871 
L 218 508 
C 512 51 992 -128 1376 -128 
C 2118 -128 2701 508 2701 1286 
C 2701 2083 2182 2694 1562 2694 
C 1338 2694 1120 2617 934 2464 
L 934 3814 
z
" transform="scale(0.015625)"/>
       </defs>
       <use xlink:href="#CMSS17-35" transform="scale(0.996264)"/>
      </g>
     </g>
    </g>
    <g id="ytick_7">
     <g id="line2d_32">
      <g>
       <use xlink:href="#m57d5dbc462" x="33.826393" y="49.65173" style="fill: #262626; stroke: #262626; stroke-width: 1.5"/>
      </g>
     </g>
     <g id="text_13">
      <!-- $\mathdefault{6}$ -->
      <g style="fill: #262626" transform="translate(19.997905 54.494669) scale(0.14 -0.14)">
       <defs>
        <path id="CMSS17-36" d="M 2496 4159 
C 2227 4268 2035 4288 1856 4288 
C 1024 4288 250 3408 250 2023 
C 250 268 986 -128 1510 -128 
C 1798 -128 2086 -39 2362 281 
C 2643 619 2752 900 2752 1392 
C 2752 2183 2362 2886 1779 2886 
C 1357 2886 992 2662 768 2381 
C 832 3290 1254 3897 1862 3897 
C 2029 3897 2246 3871 2496 3760 
L 2496 4159 
z
M 774 1372 
C 774 1423 774 1455 781 1551 
C 781 2049 1069 2496 1536 2496 
C 1837 2496 1990 2336 2106 2138 
C 2240 1889 2246 1653 2246 1392 
C 2246 1143 2246 894 2099 638 
C 1978 441 1818 268 1510 268 
C 902 268 800 1117 774 1372 
z
" transform="scale(0.015625)"/>
       </defs>
       <use xlink:href="#CMSS17-36" transform="scale(0.996264)"/>
      </g>
     </g>
    </g>
    <g id="ytick_8">
     <g id="line2d_33">
      <defs>
       <path id="m506168f0ae" d="M 0 0 
L -2.5 0 
" style="stroke: #262626; stroke-width: 1.5"/>
      </defs>
      <g>
       <use xlink:href="#m506168f0ae" x="33.826393" y="520.725655" style="fill: #262626; stroke: #262626; stroke-width: 1.5"/>
      </g>
     </g>
    </g>
    <g id="ytick_9">
     <g id="line2d_34">
      <g>
       <use xlink:href="#m506168f0ae" x="33.826393" y="490.333788" style="fill: #262626; stroke: #262626; stroke-width: 1.5"/>
      </g>
     </g>
    </g>
    <g id="ytick_10">
     <g id="line2d_35">
      <g>
       <use xlink:href="#m506168f0ae" x="33.826393" y="475.137855" style="fill: #262626; stroke: #262626; stroke-width: 1.5"/>
      </g>
     </g>
    </g>
    <g id="ytick_11">
     <g id="line2d_36">
      <g>
       <use xlink:href="#m506168f0ae" x="33.826393" y="459.941922" style="fill: #262626; stroke: #262626; stroke-width: 1.5"/>
      </g>
     </g>
    </g>
    <g id="ytick_12">
     <g id="line2d_37">
      <g>
       <use xlink:href="#m506168f0ae" x="33.826393" y="444.745989" style="fill: #262626; stroke: #262626; stroke-width: 1.5"/>
      </g>
     </g>
    </g>
    <g id="ytick_13">
     <g id="line2d_38">
      <g>
       <use xlink:href="#m506168f0ae" x="33.826393" y="414.354123" style="fill: #262626; stroke: #262626; stroke-width: 1.5"/>
      </g>
     </g>
    </g>
    <g id="ytick_14">
     <g id="line2d_39">
      <g>
       <use xlink:href="#m506168f0ae" x="33.826393" y="399.15819" style="fill: #262626; stroke: #262626; stroke-width: 1.5"/>
      </g>
     </g>
    </g>
    <g id="ytick_15">
     <g id="line2d_40">
      <g>
       <use xlink:href="#m506168f0ae" x="33.826393" y="383.962257" style="fill: #262626; stroke: #262626; stroke-width: 1.5"/>
      </g>
     </g>
    </g>
    <g id="ytick_16">
     <g id="line2d_41">
      <g>
       <use xlink:href="#m506168f0ae" x="33.826393" y="368.766324" style="fill: #262626; stroke: #262626; stroke-width: 1.5"/>
      </g>
     </g>
    </g>
    <g id="ytick_17">
     <g id="line2d_42">
      <g>
       <use xlink:href="#m506168f0ae" x="33.826393" y="338.374458" style="fill: #262626; stroke: #262626; stroke-width: 1.5"/>
      </g>
     </g>
    </g>
    <g id="ytick_18">
     <g id="line2d_43">
      <g>
       <use xlink:href="#m506168f0ae" x="33.826393" y="323.178525" style="fill: #262626; stroke: #262626; stroke-width: 1.5"/>
      </g>
     </g>
    </g>
    <g id="ytick_19">
     <g id="line2d_44">
      <g>
       <use xlink:href="#m506168f0ae" x="33.826393" y="307.982592" style="fill: #262626; stroke: #262626; stroke-width: 1.5"/>
      </g>
     </g>
    </g>
    <g id="ytick_20">
     <g id="line2d_45">
      <g>
       <use xlink:href="#m506168f0ae" x="33.826393" y="292.786659" style="fill: #262626; stroke: #262626; stroke-width: 1.5"/>
      </g>
     </g>
    </g>
    <g id="ytick_21">
     <g id="line2d_46">
      <g>
       <use xlink:href="#m506168f0ae" x="33.826393" y="262.394793" style="fill: #262626; stroke: #262626; stroke-width: 1.5"/>
      </g>
     </g>
    </g>
    <g id="ytick_22">
     <g id="line2d_47">
      <g>
       <use xlink:href="#m506168f0ae" x="33.826393" y="247.19886" style="fill: #262626; stroke: #262626; stroke-width: 1.5"/>
      </g>
     </g>
    </g>
    <g id="ytick_23">
     <g id="line2d_48">
      <g>
       <use xlink:href="#m506168f0ae" x="33.826393" y="232.002927" style="fill: #262626; stroke: #262626; stroke-width: 1.5"/>
      </g>
     </g>
    </g>
    <g id="ytick_24">
     <g id="line2d_49">
      <g>
       <use xlink:href="#m506168f0ae" x="33.826393" y="216.806994" style="fill: #262626; stroke: #262626; stroke-width: 1.5"/>
      </g>
     </g>
    </g>
    <g id="ytick_25">
     <g id="line2d_50">
      <g>
       <use xlink:href="#m506168f0ae" x="33.826393" y="186.415128" style="fill: #262626; stroke: #262626; stroke-width: 1.5"/>
      </g>
     </g>
    </g>
    <g id="ytick_26">
     <g id="line2d_51">
      <g>
       <use xlink:href="#m506168f0ae" x="33.826393" y="171.219195" style="fill: #262626; stroke: #262626; stroke-width: 1.5"/>
      </g>
     </g>
    </g>
    <g id="ytick_27">
     <g id="line2d_52">
      <g>
       <use xlink:href="#m506168f0ae" x="33.826393" y="156.023262" style="fill: #262626; stroke: #262626; stroke-width: 1.5"/>
      </g>
     </g>
    </g>
    <g id="ytick_28">
     <g id="line2d_53">
      <g>
       <use xlink:href="#m506168f0ae" x="33.826393" y="140.827329" style="fill: #262626; stroke: #262626; stroke-width: 1.5"/>
      </g>
     </g>
    </g>
    <g id="ytick_29">
     <g id="line2d_54">
      <g>
       <use xlink:href="#m506168f0ae" x="33.826393" y="110.435463" style="fill: #262626; stroke: #262626; stroke-width: 1.5"/>
      </g>
     </g>
    </g>
    <g id="ytick_30">
     <g id="line2d_55">
      <g>
       <use xlink:href="#m506168f0ae" x="33.826393" y="95.23953" style="fill: #262626; stroke: #262626; stroke-width: 1.5"/>
      </g>
     </g>
    </g>
    <g id="ytick_31">
     <g id="line2d_56">
      <g>
       <use xlink:href="#m506168f0ae" x="33.826393" y="80.043596" style="fill: #262626; stroke: #262626; stroke-width: 1.5"/>
      </g>
     </g>
    </g>
    <g id="ytick_32">
     <g id="line2d_57">
      <g>
       <use xlink:href="#m506168f0ae" x="33.826393" y="64.847663" style="fill: #262626; stroke: #262626; stroke-width: 1.5"/>
      </g>
     </g>
    </g>
    <g id="ytick_33">
     <g id="line2d_58">
      <g>
       <use xlink:href="#m506168f0ae" x="33.826393" y="34.455797" style="fill: #262626; stroke: #262626; stroke-width: 1.5"/>
      </g>
     </g>
    </g>
    <g id="text_14">
     <!-- Normalized Wound Area -->
     <g style="fill: #262626" transform="translate(13.285876 343.528969) rotate(-90) scale(0.14 -0.14)">
      <defs>
       <path id="CMSS17-4e" d="M 1466 4179 
L 1350 4416 
L 563 4416 
L 563 0 
L 1062 0 
L 1062 3925 
L 1069 3931 
C 1114 3817 1139 3759 1402 3193 
L 2771 236 
L 2886 0 
L 3674 0 
L 3674 4416 
L 3174 4416 
L 3174 490 
L 3168 484 
C 3123 598 3098 655 2835 1222 
L 1466 4179 
z
" transform="scale(0.015625)"/>
       <path id="CMSS17-6f" d="M 2829 1356 
C 2829 2175 2221 2816 1504 2816 
C 768 2816 173 2156 173 1356 
C 173 544 787 -64 1498 -64 
C 2227 -64 2829 563 2829 1356 
z
M 1504 339 
C 1050 339 659 710 659 1407 
C 659 2150 1114 2425 1498 2425 
C 1914 2425 2342 2124 2342 1407 
C 2342 684 1926 339 1504 339 
z
" transform="scale(0.015625)"/>
       <path id="CMSS17-72" d="M 954 1369 
C 954 1974 1395 2379 1958 2392 
L 1958 2816 
C 1549 2809 1165 2604 934 2270 
L 934 2783 
L 480 2783 
L 480 0 
L 954 0 
L 954 1369 
z
" transform="scale(0.015625)"/>
       <path id="CMSS17-61" d="M 2406 1789 
C 2406 2399 1978 2816 1402 2816 
C 1120 2816 813 2764 461 2559 
L 499 2133 
C 659 2250 934 2438 1395 2438 
C 1722 2438 1920 2185 1920 1782 
L 1920 1536 
C 896 1504 256 1209 256 711 
C 256 452 416 -64 947 -64 
C 1043 -64 1562 -52 1933 224 
L 1933 -13 
L 2406 -13 
L 2406 1789 
z
M 1920 824 
C 1920 711 1920 559 1728 446 
C 1562 339 1350 326 1261 326 
C 941 326 723 503 723 723 
C 723 1165 1722 1209 1920 1216 
L 1920 824 
z
" transform="scale(0.015625)"/>
       <path id="CMSS17-6c" d="M 947 4416 
L 474 4416 
L 474 0 
L 947 0 
L 947 4416 
z
" transform="scale(0.015625)"/>
       <path id="CMSS17-7a" d="M 2400 2502 
L 2400 2752 
L 250 2752 
L 250 2367 
L 1069 2367 
C 1146 2367 1222 2374 1299 2374 
L 1747 2374 
L 166 262 
L 166 0 
L 2419 0 
L 2419 396 
L 1549 396 
C 1472 396 1395 390 1318 390 
L 826 390 
L 2400 2502 
z
" transform="scale(0.015625)"/>
       <path id="CMSS17-64" d="M 2611 4416 
L 2138 4416 
L 2138 2495 
C 1939 2662 1613 2816 1254 2816 
C 672 2816 211 2179 211 1375 
C 211 572 666 -64 1235 -64 
C 1677 -64 1971 172 2125 307 
L 2125 -13 
L 2611 -13 
L 2611 4416 
z
M 2125 851 
C 2125 760 2125 663 1926 488 
C 1798 378 1645 326 1498 326 
C 1152 326 698 585 698 1369 
C 698 2185 1210 2425 1562 2425 
C 1798 2425 1990 2308 2125 2114 
L 2125 851 
z
" transform="scale(0.015625)"/>
       <path id="CMSS17-57" d="M 5581 4416 
L 5094 4416 
L 4557 2436 
C 4474 2118 4397 1800 4320 1482 
C 4205 1012 4122 681 4109 516 
L 4102 516 
C 4090 687 4006 1050 3904 1457 
C 3827 1794 3744 2131 3654 2462 
L 3123 4416 
L 2586 4416 
L 2080 2564 
L 1824 1552 
C 1632 751 1626 636 1613 509 
L 1606 509 
C 1606 547 1581 757 1402 1501 
C 1312 1870 1222 2246 1126 2602 
L 634 4416 
L 83 4416 
L 1299 0 
L 1830 0 
L 2336 1838 
L 2592 2850 
C 2765 3562 2803 3740 2816 3899 
L 2822 3899 
C 2822 3874 2880 3473 3130 2544 
L 3808 0 
L 4365 0 
L 5581 4416 
z
" transform="scale(0.015625)"/>
       <path id="CMSS17-75" d="M 2618 2752 
L 2131 2752 
L 2131 976 
C 2131 500 1786 307 1421 307 
C 998 307 960 448 960 712 
L 960 2752 
L 474 2752 
L 474 680 
C 474 179 646 -64 1088 -64 
C 1306 -64 1798 -13 2144 307 
L 2144 -13 
L 2618 -13 
L 2618 2752 
z
" transform="scale(0.015625)"/>
       <path id="CMSS17-6e" d="M 2618 1878 
C 2618 2283 2522 2816 1798 2816 
C 1389 2816 1120 2604 941 2386 
L 941 2783 
L 474 2783 
L 474 0 
L 960 0 
L 960 1556 
C 960 1962 1114 2425 1549 2425 
C 2112 2425 2131 2045 2131 1826 
L 2131 0 
L 2618 0 
L 2618 1878 
z
" transform="scale(0.015625)"/>
       <path id="CMSS17-41" d="M 2272 4416 
L 1722 4416 
L 166 0 
L 653 0 
L 1101 1280 
L 2816 1280 
L 3270 0 
L 3827 0 
L 2272 4416 
z
M 2694 1638 
L 1222 1638 
C 1530 2530 1914 3638 1958 3924 
L 1965 3924 
C 2010 3663 2138 3281 2246 2956 
L 2694 1638 
z
" transform="scale(0.015625)"/>
      </defs>
      <use xlink:href="#CMSS17-4e" transform="scale(0.996264)"/>
      <use xlink:href="#CMSS17-6f" transform="translate(66.061519 0) scale(0.996264)"/>
      <use xlink:href="#CMSS17-72" transform="translate(110.302689 0) scale(0.996264)"/>
      <use xlink:href="#CMSS17-6d" transform="translate(142.212461 0) scale(0.996264)"/>
      <use xlink:href="#CMSS17-61" transform="translate(216.441716 0) scale(0.996264)"/>
      <use xlink:href="#CMSS17-6c" transform="translate(261.363636 0) scale(0.996264)"/>
      <use xlink:href="#CMSS17-69" transform="translate(283.544359 0) scale(0.996264)"/>
      <use xlink:href="#CMSS17-7a" transform="translate(305.725082 0) scale(0.996264)"/>
      <use xlink:href="#CMSS17-65" transform="translate(346.402954 0) scale(0.996264)"/>
      <use xlink:href="#CMSS17-64" transform="translate(388.041776 0) scale(0.996264)"/>
      <use xlink:href="#CMSS17-57" transform="translate(467.475832 0) scale(0.996264)"/>
      <use xlink:href="#CMSS17-6f" transform="translate(553.115544 0) scale(0.996264)"/>
      <use xlink:href="#CMSS17-75" transform="translate(599.959168 0) scale(0.996264)"/>
      <use xlink:href="#CMSS17-6e" transform="translate(648.164111 0) scale(0.996264)"/>
      <use xlink:href="#CMSS17-64" transform="translate(696.369054 0) scale(0.996264)"/>
      <use xlink:href="#CMSS17-41" transform="translate(775.80311 0) scale(0.996264)"/>
      <use xlink:href="#CMSS17-72" transform="translate(838.020965 0) scale(0.996264)"/>
      <use xlink:href="#CMSS17-65" transform="translate(869.930738 0) scale(0.996264)"/>
      <use xlink:href="#CMSS17-61" transform="translate(911.56956 0) scale(0.996264)"/>
     </g>
    </g>
   </g>
   <g id="FillBetweenPolyCollection_1"/>
   <g id="FillBetweenPolyCollection_2"/>
   <g id="FillBetweenPolyCollection_3"/>
   <g id="FillBetweenPolyCollection_4"/>
   <g id="FillBetweenPolyCollection_5"/>
   <g id="FillBetweenPolyCollection_6"/>
   <g id="line2d_59">
    <path d="M 63.762419 429.550056 
L 70.566062 428.72923 
L 77.369704 428.253951 
L 84.173346 427.712182 
L 90.976988 426.777271 
L 97.78063 425.316401 
L 104.584273 423.451741 
L 111.387915 421.552148 
L 118.191557 420.151901 
L 124.995199 419.812843 
L 131.798842 420.962341 
L 138.602484 423.748907 
L 145.406126 427.958891 
L 152.209768 433.029731 
L 159.013411 438.175496 
L 165.817053 442.60804 
L 172.620695 445.797362 
L 179.424337 447.681943 
L 186.22798 448.733802 
L 193.031622 449.819264 
L 199.835264 451.872988 
L 206.638906 455.493098 
L 213.442549 460.625292 
L 220.246191 466.493014 
L 227.049833 471.838357 
L 233.853475 475.397794 
L 240.657117 476.415541 
L 247.46076 474.962967 
L 254.264402 471.912567 
L 261.068044 468.575792 
L 267.871686 466.174216 
L 274.675329 465.388832 
L 281.478971 466.183552 
L 288.282613 467.95564 
L 295.086255 469.906839 
L 301.889898 471.437274 
L 308.69354 472.379308 
L 315.497182 472.989858 
L 322.300824 473.744656 
L 329.104467 475.061922 
L 335.908109 477.092998 
L 342.711751 479.663208 
L 349.515393 482.365402 
L 356.319036 484.742557 
L 363.122678 486.46946 
L 369.92632 487.459275 
L 376.729962 487.86369 
L 383.533604 487.983327 
L 390.337247 488.138312 
L 397.140889 488.556406 
L 403.944531 489.318487 
L 410.748173 490.369661 
L 417.551816 491.57506 
L 424.355458 492.785708 
L 431.1591 493.885419 
L 437.962742 494.807574 
L 444.766385 495.528534 
L 451.570027 496.052681 
L 458.373669 496.401016 
L 465.177311 496.606479 
L 471.980954 496.712359 
L 478.784596 496.76913 
L 485.588238 496.828394 
L 492.39188 496.935874 
L 499.195523 497.125896 
L 505.999165 497.418009 
L 512.802807 497.815029 
L 519.606449 498.302512 
L 526.410091 498.85139 
L 533.213734 499.425829 
L 540.017376 499.995683 
L 546.821018 500.548816 
L 553.62466 501.096312 
L 560.428303 501.665759 
L 567.231945 502.283857 
L 574.035587 502.956144 
L 580.839229 505.529722 
L 587.642872 505.529722 
L 594.446514 505.529722 
L 601.250156 505.529722 
L 608.053798 505.529722 
L 614.857441 505.529722 
L 621.661083 505.529722 
L 628.464725 505.529722 
L 635.268367 505.529722 
L 642.07201 505.529722 
L 648.875652 505.529722 
L 655.679294 505.529722 
L 662.482936 505.529722 
" clip-path="url(#pb66c7facfa)" style="fill: none; stroke: #0c5da5; stroke-opacity: 0.8; stroke-width: 2; stroke-linecap: round"/>
   </g>
   <g id="line2d_60">
    <path d="M 63.762419 429.550056 
L 70.566062 425.305579 
L 77.369704 421.592039 
L 84.173346 418.414372 
L 90.976988 415.74415 
L 97.78063 413.52561 
L 104.584273 411.683972 
L 111.387915 410.135152 
L 118.191557 408.795905 
L 124.995199 407.59335 
L 131.798842 406.472961 
L 138.602484 405.404255 
L 145.406126 404.383691 
L 152.209768 403.434565 
L 159.013411 402.604033 
L 165.817053 401.957616 
L 172.620695 401.571825 
L 179.424337 401.525659 
L 186.22798 401.891818 
L 193.031622 402.728461 
L 199.835264 404.072265 
L 206.638906 405.933405 
L 213.442549 408.292885 
L 220.246191 411.102469 
L 227.049833 414.287218 
L 233.853475 417.750457 
L 240.657117 421.380765 
L 247.46076 425.060414 
L 254.264402 428.674544 
L 261.068044 432.120252 
L 267.871686 435.31475 
L 274.675329 438.201751 
L 281.478971 440.755419 
L 288.282613 442.981356 
L 295.086255 444.914422 
L 301.889898 446.613488 
L 308.69354 448.153591 
L 315.497182 449.616283 
L 322.300824 451.079218 
L 329.104467 452.606201 
L 335.908109 454.238911 
L 342.711751 455.991379 
L 349.515393 457.847988 
L 356.319036 459.765362 
L 363.122678 461.67799 
L 369.92632 463.506968 
L 376.729962 465.170773 
L 383.533604 466.59671 
L 390.337247 467.731539 
L 397.140889 468.549847 
L 403.944531 469.059062 
L 410.748173 469.300371 
L 417.551816 469.345399 
L 424.355458 469.289037 
L 431.1591 469.239316 
L 437.962742 469.30561 
L 444.766385 469.586634 
L 451.570027 470.159702 
L 458.373669 471.072528 
L 465.177311 472.338455 
L 471.980954 473.935559 
L 478.784596 475.80958 
L 485.588238 477.880144 
L 492.39188 480.049403 
L 499.195523 482.211999 
L 505.999165 484.265163 
L 512.802807 486.117899 
L 519.606449 487.698363 
L 526.410091 488.958887 
L 533.213734 489.878396 
L 540.017376 490.462279 
L 546.821018 490.740056 
L 553.62466 490.761306 
L 560.428303 490.590463 
L 567.231945 490.301036 
L 574.035587 489.969775 
L 580.839229 489.671191 
L 587.642872 489.472708 
L 594.446514 489.430626 
L 601.250156 489.586974 
L 608.053798 489.967293 
L 614.857441 490.579331 
L 621.661083 491.41266 
L 628.464725 492.439191 
L 635.268367 493.614587 
L 642.07201 494.880537 
L 648.875652 496.167835 
L 655.679294 497.400142 
L 662.482936 498.498262 
" clip-path="url(#pb66c7facfa)" style="fill: none; stroke: #00b945; stroke-opacity: 0.8; stroke-width: 2; stroke-linecap: round"/>
   </g>
   <g id="line2d_61">
    <path d="M 63.762419 429.550056 
L 70.566062 406.814343 
L 77.369704 390.921485 
L 84.173346 398.815731 
L 90.976988 416.72077 
L 97.78063 405.13327 
L 104.584273 338.457513 
L 111.387915 237.819016 
L 118.191557 154.835124 
L 124.995199 120.854562 
L 131.798842 119.928358 
L 138.602484 114.413174 
L 145.406126 88.120929 
L 152.209768 56.860474 
L 159.013411 42.440345 
L 165.817053 47.373776 
L 172.620695 56.839037 
L 179.424337 57.821722 
L 186.22798 50.919971 
L 193.031622 45.909028 
L 199.835264 50.672967 
L 206.638906 65.211076 
L 213.442549 83.517717 
L 220.246191 99.193362 
L 227.049833 109.747092 
L 233.853475 116.951087 
L 240.657117 124.048559 
L 247.46076 133.209172 
L 254.264402 145.622461 
L 261.068044 162.654052 
L 267.871686 184.978525 
L 274.675329 210.260276 
L 281.478971 233.489187 
L 288.282613 251.322364 
L 295.086255 265.67319 
L 301.889898 281.471137 
L 308.69354 300.912852 
L 315.497182 321.612022 
L 322.300824 340.583215 
L 329.104467 357.443125 
L 335.908109 372.094759 
L 342.711751 382.019364 
L 349.515393 385.694924 
L 356.319036 387.981812 
L 363.122678 397.787705 
L 369.92632 418.616317 
L 376.729962 443.887209 
L 383.533604 463.404925 
L 390.337247 472.774602 
L 397.140889 475.005876 
L 403.944531 474.98545 
L 410.748173 475.100683 
L 417.551816 475.399897 
L 424.355458 474.990548 
L 431.1591 505.529722 
L 437.962742 466.528088 
L 444.766385 458.12281 
L 451.570027 450.391403 
L 458.373669 446.500299 
L 465.177311 446.757492 
L 471.980954 448.469972 
L 478.784596 448.860946 
L 485.588238 448.037004 
L 492.39188 448.682449 
L 499.195523 452.620029 
L 505.999165 458.146141 
L 512.802807 461.410719 
L 519.606449 460.323314 
L 526.410091 456.489063 
L 533.213734 453.308214 
L 540.017376 452.865807 
L 546.821018 454.871481 
L 553.62466 457.832222 
L 560.428303 460.464395 
L 567.231945 462.134453 
L 574.035587 462.696726 
L 580.839229 462.383561 
L 587.642872 461.821674 
L 594.446514 461.933753 
L 601.250156 463.615007 
L 608.053798 467.291108 
L 614.857441 472.519478 
L 621.661083 477.78302 
L 628.464725 480.89346 
L 635.268367 480.57225 
L 642.07201 505.529722 
L 648.875652 479.557527 
L 655.679294 505.529722 
L 662.482936 505.529722 
" clip-path="url(#pb66c7facfa)" style="fill: none; stroke: #ff9500; stroke-opacity: 0.8; stroke-width: 2; stroke-linecap: round"/>
   </g>
   <g id="line2d_62">
    <path d="M 63.762419 429.550056 
L 70.566062 418.225834 
L 77.369704 404.457932 
L 84.173346 388.387905 
L 90.976988 370.260514 
L 97.78063 350.42124 
L 104.584273 329.306867 
L 111.387915 307.428886 
L 118.191557 285.350164 
L 124.995199 263.656125 
L 131.798842 242.922461 
L 138.602484 223.682063 
L 145.406126 206.394334 
L 152.209768 191.420058 
L 159.013411 179.004714 
L 165.817053 169.272273 
L 172.620695 162.23034 
L 179.424337 157.786068 
L 186.22798 155.77075 
L 193.031622 155.969715 
L 199.835264 158.153249 
L 206.638906 162.104003 
L 213.442549 167.636823 
L 220.246191 174.60807 
L 227.049833 182.91324 
L 233.853475 192.473694 
L 240.657117 203.215315 
L 247.46076 215.043479 
L 254.264402 227.819625 
L 261.068044 241.344699 
L 267.871686 255.353742 
L 274.675329 269.524108 
L 281.478971 283.497399 
L 288.282613 296.912677 
L 295.086255 309.446274 
L 301.889898 320.851975 
L 308.69354 330.99483 
L 315.497182 339.872467 
L 322.300824 347.619475 
L 329.104467 354.492999 
L 335.908109 360.840602 
L 342.711751 367.054365 
L 349.515393 373.517493 
L 356.319036 380.55107 
L 363.122678 388.368744 
L 369.92632 397.046051 
L 376.729962 406.508923 
L 383.533604 416.543073 
L 390.337247 426.822807 
L 397.140889 436.954953 
L 403.944531 446.531424 
L 410.748173 455.182765 
L 417.551816 462.625115 
L 424.355458 468.694155 
L 431.1591 473.361745 
L 437.962742 476.733615 
L 444.766385 479.029282 
L 451.570027 480.547857 
L 458.373669 481.625234 
L 465.177311 482.58911 
L 471.980954 483.718152 
L 478.784596 485.210706 
L 485.588238 487.166665 
L 492.39188 489.584046 
L 499.195523 505.529722 
L 505.999165 505.529722 
L 512.802807 505.529722 
L 519.606449 505.529722 
L 526.410091 505.529722 
L 533.213734 505.529722 
L 540.017376 505.529722 
L 546.821018 505.529722 
L 553.62466 505.529722 
L 560.428303 505.529722 
L 567.231945 505.529722 
L 574.035587 505.529722 
L 580.839229 505.529722 
L 587.642872 505.529722 
L 594.446514 505.529722 
L 601.250156 505.529722 
L 608.053798 505.529722 
L 614.857441 505.529722 
L 621.661083 505.529722 
L 628.464725 505.529722 
L 635.268367 505.529722 
L 642.07201 505.529722 
L 648.875652 505.529722 
L 655.679294 505.529722 
L 662.482936 505.529722 
" clip-path="url(#pb66c7facfa)" style="fill: none; stroke: #ff2c00; stroke-opacity: 0.8; stroke-width: 2; stroke-linecap: round"/>
   </g>
   <g id="line2d_63">
    <path d="M 63.762419 429.550056 
L 70.566062 420.995295 
L 77.369704 413.252509 
L 84.173346 407.916073 
L 90.976988 404.889089 
L 97.78063 402.706579 
L 104.584273 399.60978 
L 111.387915 394.682307 
L 118.191557 388.331381 
L 124.995199 381.856006 
L 131.798842 376.471036 
L 138.602484 372.497834 
L 145.406126 369.253115 
L 152.209768 365.640728 
L 159.013411 360.992981 
L 165.817053 355.612229 
L 172.620695 350.702626 
L 179.424337 347.738041 
L 186.22798 347.607594 
L 193.031622 350.025663 
L 199.835264 353.598691 
L 206.638906 356.556438 
L 213.442549 357.657778 
L 220.246191 356.585772 
L 227.049833 353.54279 
L 233.853475 348.499363 
L 240.657117 340.951802 
L 247.46076 330.616449 
L 254.264402 318.523325 
L 261.068044 307.375024 
L 267.871686 300.483702 
L 274.675329 299.814104 
L 281.478971 304.580898 
L 288.282613 311.584429 
L 295.086255 317.161098 
L 301.889898 319.358722 
L 308.69354 318.790069 
L 315.497182 317.678214 
L 322.300824 317.981321 
L 329.104467 320.075279 
L 335.908109 322.893548 
L 342.711751 325.221143 
L 349.515393 326.969923 
L 356.319036 329.349121 
L 363.122678 333.775783 
L 369.92632 340.420246 
L 376.729962 347.63404 
L 383.533604 352.84751 
L 390.337247 354.332855 
L 397.140889 352.471156 
L 403.944531 349.511381 
L 410.748173 348.015547 
L 417.551816 349.231541 
L 424.355458 352.627401 
L 431.1591 356.794427 
L 437.962742 360.804325 
L 444.766385 364.841744 
L 451.570027 369.676499 
L 458.373669 375.57346 
L 465.177311 381.672744 
L 471.980954 386.402454 
L 478.784596 388.574754 
L 485.588238 388.246361 
L 492.39188 386.646199 
L 499.195523 385.269731 
L 505.999165 384.931754 
L 512.802807 385.572543 
L 519.606449 386.915205 
L 526.410091 389.265794 
L 533.213734 393.554724 
L 540.017376 400.375492 
L 546.821018 408.774953 
L 553.62466 415.998694 
L 560.428303 418.784578 
L 567.231945 415.519573 
L 574.035587 407.6892 
L 580.839229 399.392044 
L 587.642872 395.089621 
L 594.446514 397.105503 
L 601.250156 404.571781 
L 608.053798 414.40862 
L 614.857441 423.445106 
L 621.661083 430.111742 
L 628.464725 434.679473 
L 635.268367 438.210552 
L 642.07201 441.242892 
L 648.875652 443.194939 
L 655.679294 442.763566 
L 662.482936 438.85022 
" clip-path="url(#pb66c7facfa)" style="fill: none; stroke: #845b97; stroke-opacity: 0.8; stroke-width: 2; stroke-linecap: round"/>
   </g>
   <g id="line2d_64"/>
   <g id="line2d_65"/>
   <g id="line2d_66"/>
   <g id="line2d_67"/>
   <g id="line2d_68"/>
   <g id="line2d_69">
    <path d="M 63.762419 429.550056 
L 70.566062 423.585619 
L 77.369704 418.047198 
L 84.173346 413.215102 
L 90.976988 408.814274 
L 97.78063 404.180575 
L 104.584273 398.888214 
L 111.387915 393.240204 
L 118.191557 388.046825 
L 124.995199 383.897043 
L 131.798842 380.725595 
L 138.602484 378.098943 
L 145.406126 375.785294 
L 152.209768 373.939387 
L 159.013411 372.811401 
L 165.817053 373.959834 
L 172.620695 372.642528 
L 179.424337 373.287985 
L 186.22798 374.38415 
L 193.031622 376.029267 
L 199.835264 378.256842 
L 206.638906 380.965287 
L 213.442549 383.965638 
L 220.246191 387.07939 
L 227.049833 390.20109 
L 233.853475 393.289116 
L 240.657117 396.318393 
L 247.46076 399.265257 
L 254.264402 402.151539 
L 261.068044 405.088073 
L 267.871686 408.236793 
L 274.675329 411.827956 
L 281.478971 415.441377 
L 288.282613 419.354087 
L 295.086255 423.194828 
L 301.889898 426.940666 
L 308.69354 430.532464 
L 315.497182 433.919307 
L 322.300824 437.065384 
L 329.104467 439.962466 
L 335.908109 442.615301 
L 342.711751 445.095178 
L 349.515393 447.358063 
L 356.319036 449.636405 
L 363.122678 452.290708 
L 369.92632 454.62885 
L 376.729962 457.064794 
L 383.533604 459.113437 
L 390.337247 460.76361 
L 397.140889 461.998267 
L 403.944531 463.145617 
L 410.748173 464.397641 
L 417.551816 465.824868 
L 424.355458 467.46708 
L 431.1591 469.533774 
L 437.962742 470.52381 
L 444.766385 471.795 
L 451.570027 473.319908 
L 458.373669 474.118038 
L 465.177311 475.060196 
L 471.980954 476.065944 
L 478.784596 477.068367 
L 485.588238 477.934257 
L 492.39188 479.018744 
L 499.195523 480.166185 
L 505.999165 481.273789 
L 512.802807 482.180158 
L 519.606449 483.142313 
L 526.410091 483.848623 
L 533.213734 484.734081 
L 540.017376 485.497619 
L 546.821018 486.204751 
L 553.62466 486.952695 
L 560.428303 487.917395 
L 567.231945 488.366052 
L 574.035587 488.56465 
L 580.839229 489.001398 
L 587.642872 489.05273 
L 594.446514 489.075066 
L 601.250156 489.42811 
L 608.053798 490.146272 
L 614.857441 490.730761 
L 621.661083 491.063676 
L 628.464725 491.492391 
L 635.268367 491.415014 
L 642.07201 491.89718 
L 648.875652 491.941504 
L 655.679294 492.021003 
L 662.482936 491.782015 
" clip-path="url(#pb66c7facfa)" style="fill: none; stroke: #000000; stroke-opacity: 0.8; stroke-width: 2; stroke-linecap: round"/>
   </g>
   <g id="patch_3">
    <path d="M 33.826393 528.68419 
L 33.826393 19.285876 
" style="fill: none; stroke: #262626; stroke-width: 1.5; stroke-linejoin: miter; stroke-linecap: square"/>
   </g>
   <g id="patch_4">
    <path d="M 692.418962 528.68419 
L 692.418962 19.285876 
" style="fill: none; stroke: #262626; stroke-width: 1.5; stroke-linejoin: miter; stroke-linecap: square"/>
   </g>
   <g id="patch_5">
    <path d="M 33.826393 528.68419 
L 692.418962 528.68419 
" style="fill: none; stroke: #262626; stroke-width: 1.5; stroke-linejoin: miter; stroke-linecap: square"/>
   </g>
   <g id="patch_6">
    <path d="M 33.826393 19.285876 
L 692.418962 19.285876 
" style="fill: none; stroke: #262626; stroke-width: 1.5; stroke-linejoin: miter; stroke-linecap: square"/>
   </g>
   <g id="text_15">
    <!-- Time Series of Outlier Wells - Normalized Wound Area -->
    <g style="fill: #262626" transform="translate(206.381622 13.285876) scale(0.14 -0.14)">
     <defs>
      <path id="CMSS17-53" d="M 2797 4230 
C 2515 4396 2208 4544 1690 4544 
C 864 4544 333 3934 333 3309 
C 333 3064 403 2787 653 2504 
C 902 2220 1184 2143 1542 2053 
C 1690 2014 1939 1943 1984 1924 
C 2342 1782 2515 1454 2515 1144 
C 2515 738 2202 307 1645 307 
C 1453 307 890 339 358 829 
L 269 320 
C 794 -64 1363 -128 1651 -128 
C 2438 -128 3002 494 3002 1202 
C 3002 1460 2925 1789 2656 2092 
C 2394 2381 2163 2446 1638 2588 
C 1338 2665 1146 2717 986 2916 
C 877 3058 819 3193 819 3367 
C 819 3728 1126 4121 1690 4121 
C 1971 4121 2336 4063 2707 3715 
L 2797 4230 
z
" transform="scale(0.015625)"/>
      <path id="CMSS17-73" d="M 2061 2623 
C 1683 2803 1389 2816 1197 2816 
C 742 2816 198 2655 198 2009 
C 198 1363 902 1222 1094 1183 
C 1389 1126 1715 1062 1715 742 
C 1715 339 1254 339 1171 339 
C 915 339 563 409 243 639 
L 166 211 
C 531 0 883 -64 1178 -64 
C 1965 -64 2163 416 2163 780 
C 2163 1094 1984 1305 1862 1401 
C 1651 1567 1574 1587 1050 1695 
C 960 1708 646 1779 646 2067 
C 646 2431 1050 2431 1139 2431 
C 1555 2431 1811 2303 1984 2207 
L 2061 2623 
z
" transform="scale(0.015625)"/>
      <path id="CMSS17-66" d="M 1075 2380 
L 1722 2380 
L 1722 2752 
L 1062 2752 
L 1062 3563 
C 1062 4013 1408 4089 1606 4089 
C 1670 4089 1850 4089 2080 4007 
L 2080 4428 
C 1933 4460 1754 4480 1613 4480 
C 1018 4480 602 3994 602 3366 
L 602 2752 
L 160 2752 
L 160 2380 
L 602 2380 
L 602 0 
L 1075 0 
L 1075 2380 
z
" transform="scale(0.015625)"/>
      <path id="CMSS17-4f" d="M 4096 2201 
C 4096 3541 3219 4544 2214 4544 
C 1210 4544 333 3535 333 2201 
C 333 855 1222 -128 2214 -128 
C 3206 -128 4096 855 4096 2201 
z
M 2214 275 
C 1510 275 870 1067 870 2285 
C 870 3470 1549 4140 2214 4140 
C 2880 4140 3558 3470 3558 2285 
C 3558 1061 2912 275 2214 275 
z
" transform="scale(0.015625)"/>
      <path id="CMSS17-74" d="M 1069 2380 
L 1901 2380 
L 1901 2752 
L 1069 2752 
L 1069 3520 
L 614 3520 
L 614 2752 
L 109 2752 
L 109 2380 
L 602 2380 
L 602 751 
C 602 384 685 -64 1107 -64 
C 1427 -64 1722 25 2003 172 
L 1901 551 
C 1747 416 1562 339 1363 339 
C 1082 339 1069 699 1069 860 
L 1069 2380 
z
" transform="scale(0.015625)"/>
      <path id="CMSS17-2d" d="M 1664 1216 
L 1664 1587 
L 64 1587 
L 64 1216 
L 1664 1216 
z
" transform="scale(0.015625)"/>
     </defs>
     <use xlink:href="#CMSS17-54" transform="scale(0.996264)"/>
     <use xlink:href="#CMSS17-69" transform="translate(63.819454 0) scale(0.996264)"/>
     <use xlink:href="#CMSS17-6d" transform="translate(86.000177 0) scale(0.996264)"/>
     <use xlink:href="#CMSS17-65" transform="translate(160.229431 0) scale(0.996264)"/>
     <use xlink:href="#CMSS17-53" transform="translate(233.097366 0) scale(0.996264)"/>
     <use xlink:href="#CMSS17-65" transform="translate(285.145882 0) scale(0.996264)"/>
     <use xlink:href="#CMSS17-72" transform="translate(326.784704 0) scale(0.996264)"/>
     <use xlink:href="#CMSS17-69" transform="translate(358.694477 0) scale(0.996264)"/>
     <use xlink:href="#CMSS17-65" transform="translate(380.8752 0) scale(0.996264)"/>
     <use xlink:href="#CMSS17-73" transform="translate(422.514022 0) scale(0.996264)"/>
     <use xlink:href="#CMSS17-6f" transform="translate(489.656677 0) scale(0.996264)"/>
     <use xlink:href="#CMSS17-66" transform="translate(536.5003 0) scale(0.996264)"/>
     <use xlink:href="#CMSS17-4f" transform="translate(596.356072 0) scale(0.996264)"/>
     <use xlink:href="#CMSS17-75" transform="translate(665.380327 0) scale(0.996264)"/>
     <use xlink:href="#CMSS17-74" transform="translate(713.58527 0) scale(0.996264)"/>
     <use xlink:href="#CMSS17-6c" transform="translate(747.416837 0) scale(0.996264)"/>
     <use xlink:href="#CMSS17-69" transform="translate(769.59756 0) scale(0.996264)"/>
     <use xlink:href="#CMSS17-65" transform="translate(791.778283 0) scale(0.996264)"/>
     <use xlink:href="#CMSS17-72" transform="translate(833.417105 0) scale(0.996264)"/>
     <use xlink:href="#CMSS17-57" transform="translate(896.555991 0) scale(0.996264)"/>
     <use xlink:href="#CMSS17-65" transform="translate(982.195703 0) scale(0.996264)"/>
     <use xlink:href="#CMSS17-6c" transform="translate(1023.834525 0) scale(0.996264)"/>
     <use xlink:href="#CMSS17-6c" transform="translate(1046.015248 0) scale(0.996264)"/>
     <use xlink:href="#CMSS17-73" transform="translate(1068.195971 0) scale(0.996264)"/>
     <use xlink:href="#CMSS17-2d" transform="translate(1135.338626 0) scale(0.996264)"/>
     <use xlink:href="#CMSS17-4e" transform="translate(1197.796851 0) scale(0.996264)"/>
     <use xlink:href="#CMSS17-6f" transform="translate(1263.85837 0) scale(0.996264)"/>
     <use xlink:href="#CMSS17-72" transform="translate(1308.09954 0) scale(0.996264)"/>
     <use xlink:href="#CMSS17-6d" transform="translate(1340.009313 0) scale(0.996264)"/>
     <use xlink:href="#CMSS17-61" transform="translate(1414.238567 0) scale(0.996264)"/>
     <use xlink:href="#CMSS17-6c" transform="translate(1459.160488 0) scale(0.996264)"/>
     <use xlink:href="#CMSS17-69" transform="translate(1481.341211 0) scale(0.996264)"/>
     <use xlink:href="#CMSS17-7a" transform="translate(1503.521934 0) scale(0.996264)"/>
     <use xlink:href="#CMSS17-65" transform="translate(1544.199806 0) scale(0.996264)"/>
     <use xlink:href="#CMSS17-64" transform="translate(1585.838628 0) scale(0.996264)"/>
     <use xlink:href="#CMSS17-57" transform="translate(1665.272683 0) scale(0.996264)"/>
     <use xlink:href="#CMSS17-6f" transform="translate(1750.912396 0) scale(0.996264)"/>
     <use xlink:href="#CMSS17-75" transform="translate(1797.756019 0) scale(0.996264)"/>
     <use xlink:href="#CMSS17-6e" transform="translate(1845.960962 0) scale(0.996264)"/>
     <use xlink:href="#CMSS17-64" transform="translate(1894.165906 0) scale(0.996264)"/>
     <use xlink:href="#CMSS17-41" transform="translate(1973.599961 0) scale(0.996264)"/>
     <use xlink:href="#CMSS17-72" transform="translate(2035.817816 0) scale(0.996264)"/>
     <use xlink:href="#CMSS17-65" transform="translate(2067.727589 0) scale(0.996264)"/>
     <use xlink:href="#CMSS17-61" transform="translate(2109.366411 0) scale(0.996264)"/>
    </g>
   </g>
   <g id="legend_1">
    <g id="line2d_70">
     <path d="M 739.748591 39.285876 
L 755.748591 39.285876 
L 771.748591 39.285876 
" style="fill: none; stroke: #0c5da5; stroke-opacity: 0.8; stroke-width: 2; stroke-linecap: round"/>
    </g>
    <g id="text_16">
     <!-- s003_A03 -->
     <g style="fill: #262626" transform="translate(784.548591 44.885876) scale(0.16 -0.16)">
      <use xlink:href="#CMSS17-73" transform="scale(0.996264)"/>
      <use xlink:href="#CMSS17-30" transform="translate(35.913542 0) scale(0.996264)"/>
      <use xlink:href="#CMSS17-30" transform="translate(82.757166 0) scale(0.996264)"/>
      <use xlink:href="#CMSS17-33" transform="translate(129.600789 0) scale(0.996264)"/>
      <use xlink:href="#CMSS17-41" transform="translate(210.171908 0) scale(0.996264)"/>
      <use xlink:href="#CMSS17-30" transform="translate(272.389763 0) scale(0.996264)"/>
      <use xlink:href="#CMSS17-33" transform="translate(319.233386 0) scale(0.996264)"/>
      <path d="M 182.065424 0 
L 210.171908 0 
L 210.171908 0.3985 
L 182.065424 0.3985 
L 182.065424 0 
z
"/>
     </g>
    </g>
    <g id="line2d_71">
     <path d="M 739.748591 61.585353 
L 755.748591 61.585353 
L 771.748591 61.585353 
" style="fill: none; stroke: #00b945; stroke-opacity: 0.8; stroke-width: 2; stroke-linecap: round"/>
    </g>
    <g id="text_17">
     <!-- s015_B07 -->
     <g style="fill: #262626" transform="translate(784.548591 67.185353) scale(0.16 -0.16)">
      <defs>
       <path id="CMSS17-42" d="M 570 4416 
L 570 0 
L 2163 0 
C 3034 0 3667 575 3667 1200 
C 3667 1684 3251 2175 2502 2316 
C 3334 2559 3501 3039 3501 3311 
C 3501 3880 2874 4416 1997 4416 
L 570 4416 
z
M 1088 2496 
L 1088 4057 
L 1824 4057 
C 2483 4057 3002 3722 3002 3305 
C 3002 2925 2592 2496 1766 2496 
L 1088 2496 
z
M 1088 358 
L 1088 2105 
L 1939 2105 
C 2630 2105 3162 1678 3162 1206 
C 3162 772 2694 358 1984 358 
L 1088 358 
z
" transform="scale(0.015625)"/>
       <path id="CMSS17-37" d="M 1389 3788 
C 1466 3788 1542 3795 1619 3795 
L 2355 3795 
C 1440 2715 915 1350 915 -64 
L 1427 -64 
C 1427 1305 1875 2695 2752 3807 
L 2752 4224 
L 250 4224 
L 250 3788 
L 1389 3788 
z
" transform="scale(0.015625)"/>
      </defs>
      <use xlink:href="#CMSS17-73" transform="scale(0.996264)"/>
      <use xlink:href="#CMSS17-30" transform="translate(35.913542 0) scale(0.996264)"/>
      <use xlink:href="#CMSS17-31" transform="translate(82.757166 0) scale(0.996264)"/>
      <use xlink:href="#CMSS17-35" transform="translate(129.600789 0) scale(0.996264)"/>
      <use xlink:href="#CMSS17-42" transform="translate(210.171908 0) scale(0.996264)"/>
      <use xlink:href="#CMSS17-30" transform="translate(272.509948 0) scale(0.996264)"/>
      <use xlink:href="#CMSS17-37" transform="translate(319.353572 0) scale(0.996264)"/>
      <path d="M 182.065424 0 
L 210.171908 0 
L 210.171908 0.3985 
L 182.065424 0.3985 
L 182.065424 0 
z
"/>
     </g>
    </g>
    <g id="line2d_72">
     <path d="M 739.748591 83.884829 
L 755.748591 83.884829 
L 771.748591 83.884829 
" style="fill: none; stroke: #ff9500; stroke-opacity: 0.8; stroke-width: 2; stroke-linecap: round"/>
    </g>
    <g id="text_18">
     <!-- s028_C10 -->
     <g style="fill: #262626" transform="translate(784.548591 89.484829) scale(0.16 -0.16)">
      <defs>
       <path id="CMSS17-38" d="M 1933 2246 
C 2419 2406 2669 2793 2669 3174 
C 2669 3774 2157 4288 1504 4288 
C 826 4288 333 3755 333 3174 
C 333 2799 576 2412 1069 2246 
C 442 2003 250 1516 250 1152 
C 250 448 819 -128 1498 -128 
C 2202 -128 2752 460 2752 1152 
C 2752 1574 2502 2022 1933 2246 
z
M 1504 2438 
C 1075 2438 787 2728 787 3167 
C 787 3613 1075 3897 1504 3897 
C 1901 3897 2214 3639 2214 3167 
C 2214 2703 1907 2438 1504 2438 
z
M 1504 268 
C 1139 268 749 518 749 1158 
C 749 1817 1184 2048 1498 2048 
C 1843 2048 2253 1804 2253 1158 
C 2253 492 1830 268 1504 268 
z
" transform="scale(0.015625)"/>
       <path id="CMSS17-43" d="M 3501 705 
C 3072 416 2874 332 2355 332 
C 1459 332 934 1304 934 2191 
C 934 3137 1472 4070 2381 4070 
C 2790 4070 3059 3954 3386 3748 
L 3475 4255 
C 3168 4409 2778 4480 2387 4480 
C 1158 4480 397 3343 397 2191 
C 397 924 1299 -77 2323 -77 
C 2874 -77 3066 -32 3539 268 
L 3501 705 
z
" transform="scale(0.015625)"/>
      </defs>
      <use xlink:href="#CMSS17-73" transform="scale(0.996264)"/>
      <use xlink:href="#CMSS17-30" transform="translate(35.913542 0) scale(0.996264)"/>
      <use xlink:href="#CMSS17-32" transform="translate(82.757166 0) scale(0.996264)"/>
      <use xlink:href="#CMSS17-38" transform="translate(129.600789 0) scale(0.996264)"/>
      <use xlink:href="#CMSS17-43" transform="translate(210.171908 0) scale(0.996264)"/>
      <use xlink:href="#CMSS17-31" transform="translate(270.027679 0) scale(0.996264)"/>
      <use xlink:href="#CMSS17-30" transform="translate(316.871303 0) scale(0.996264)"/>
      <path d="M 182.065424 0 
L 210.171908 0 
L 210.171908 0.3985 
L 182.065424 0.3985 
L 182.065424 0 
z
"/>
     </g>
    </g>
    <g id="line2d_73">
     <path d="M 739.748591 106.184305 
L 755.748591 106.184305 
L 771.748591 106.184305 
" style="fill: none; stroke: #ff2c00; stroke-opacity: 0.8; stroke-width: 2; stroke-linecap: round"/>
    </g>
    <g id="text_19">
     <!-- s054_F08 -->
     <g style="fill: #262626" transform="translate(784.548591 111.784305) scale(0.16 -0.16)">
      <defs>
       <path id="CMSS17-46" d="M 2918 1984 
L 2918 2374 
L 1101 2374 
L 1101 3993 
L 1882 3993 
C 1958 3993 2035 3987 2112 3987 
L 3168 3987 
L 3168 4403 
L 563 4403 
L 563 0 
L 1101 0 
L 1101 1984 
L 2918 1984 
z
" transform="scale(0.015625)"/>
      </defs>
      <use xlink:href="#CMSS17-73" transform="scale(0.996264)"/>
      <use xlink:href="#CMSS17-30" transform="translate(35.913542 0) scale(0.996264)"/>
      <use xlink:href="#CMSS17-35" transform="translate(82.757166 0) scale(0.996264)"/>
      <use xlink:href="#CMSS17-34" transform="translate(129.600789 0) scale(0.996264)"/>
      <use xlink:href="#CMSS17-46" transform="translate(210.171908 0) scale(0.996264)"/>
      <use xlink:href="#CMSS17-30" transform="translate(263.461467 0) scale(0.996264)"/>
      <use xlink:href="#CMSS17-38" transform="translate(310.305091 0) scale(0.996264)"/>
      <path d="M 182.065424 0 
L 210.171908 0 
L 210.171908 0.3985 
L 182.065424 0.3985 
L 182.065424 0 
z
"/>
     </g>
    </g>
    <g id="line2d_74">
     <path d="M 739.748591 128.483781 
L 755.748591 128.483781 
L 771.748591 128.483781 
" style="fill: none; stroke: #845b97; stroke-opacity: 0.8; stroke-width: 2; stroke-linecap: round"/>
    </g>
    <g id="text_20">
     <!-- s059_F02 -->
     <g style="fill: #262626" transform="translate(784.548591 134.083781) scale(0.16 -0.16)">
      <defs>
       <path id="CMSS17-39" d="M 435 172 
C 614 19 845 -128 1235 -128 
C 2010 -128 2752 738 2752 2136 
C 2752 3987 1952 4288 1523 4288 
C 1094 4288 819 4095 582 3789 
C 301 3438 250 3125 250 2761 
C 250 2327 326 2059 506 1753 
C 749 1356 973 1273 1222 1273 
C 1600 1273 1978 1459 2234 1778 
C 2189 908 1798 268 1235 268 
C 1005 268 819 340 634 516 
L 435 172 
z
M 2214 2774 
C 2221 2729 2221 2646 2221 2621 
C 2221 2085 1914 1664 1466 1664 
C 1171 1664 1018 1817 902 2015 
C 762 2263 755 2506 755 2761 
C 755 3010 755 3284 934 3559 
C 1069 3757 1235 3897 1523 3897 
C 2112 3897 2208 3036 2214 2774 
z
" transform="scale(0.015625)"/>
      </defs>
      <use xlink:href="#CMSS17-73" transform="scale(0.996264)"/>
      <use xlink:href="#CMSS17-30" transform="translate(35.913542 0) scale(0.996264)"/>
      <use xlink:href="#CMSS17-35" transform="translate(82.757166 0) scale(0.996264)"/>
      <use xlink:href="#CMSS17-39" transform="translate(129.600789 0) scale(0.996264)"/>
      <use xlink:href="#CMSS17-46" transform="translate(210.171908 0) scale(0.996264)"/>
      <use xlink:href="#CMSS17-30" transform="translate(263.461467 0) scale(0.996264)"/>
      <use xlink:href="#CMSS17-32" transform="translate(310.305091 0) scale(0.996264)"/>
      <path d="M 182.065424 0 
L 210.171908 0 
L 210.171908 0.3985 
L 182.065424 0.3985 
L 182.065424 0 
z
"/>
     </g>
    </g>
    <g id="line2d_75">
     <path d="M 739.748591 150.783257 
L 755.748591 150.783257 
L 771.748591 150.783257 
" style="fill: none; stroke: #000000; stroke-opacity: 0.8; stroke-width: 2; stroke-linecap: round"/>
    </g>
    <g id="text_21">
     <!-- Mean -->
     <g style="fill: #262626" transform="translate(784.548591 156.383257) scale(0.16 -0.16)">
      <defs>
       <path id="CMSS17-4d" d="M 3194 2373 
L 2886 1476 
C 2835 1311 2662 795 2624 592 
L 2618 592 
C 2598 719 2560 853 2458 1177 
C 2400 1368 2336 1565 2272 1743 
L 1325 4416 
L 576 4416 
L 576 0 
L 1075 0 
L 1075 3899 
L 1082 3899 
C 1082 3893 1139 3613 1530 2500 
L 2374 102 
L 2848 102 
L 3610 2233 
C 3661 2379 3821 2843 3891 3066 
C 3955 3257 4115 3728 4154 3912 
L 4160 3912 
L 4160 0 
L 4666 0 
L 4666 4416 
L 3923 4416 
L 3194 2373 
z
" transform="scale(0.015625)"/>
      </defs>
      <use xlink:href="#CMSS17-4d" transform="scale(0.996264)"/>
      <use xlink:href="#CMSS17-65" transform="translate(81.67603 0) scale(0.996264)"/>
      <use xlink:href="#CMSS17-61" transform="translate(123.314852 0) scale(0.996264)"/>
      <use xlink:href="#CMSS17-6e" transform="translate(168.236773 0) scale(0.996264)"/>
     </g>
    </g>
   </g>
  </g>
 </g>
 <defs>
  <clipPath id="pb66c7facfa">
   <rect x="33.826393" y="19.285876" width="658.592569" height="509.398314"/>
  </clipPath>
 </defs>
</svg>
