<?xml version="1.0" encoding="utf-8" standalone="no"?>
<!DOCTYPE svg PUBLIC "-//W3C//DTD SVG 1.1//EN"
  "http://www.w3.org/Graphics/SVG/1.1/DTD/svg11.dtd">
<svg xmlns:xlink="http://www.w3.org/1999/xlink" width="854.969466pt" height="568.08pt" viewBox="0 0 854.969466 568.08" xmlns="http://www.w3.org/2000/svg" version="1.1">
 <metadata>
  <rdf:RDF xmlns:dc="http://purl.org/dc/elements/1.1/" xmlns:cc="http://creativecommons.org/ns#" xmlns:rdf="http://www.w3.org/1999/02/22-rdf-syntax-ns#">
   <cc:Work>
    <dc:type rdf:resource="http://purl.org/dc/dcmitype/StillImage"/>
    <dc:date>2025-08-17T01:51:18.061231</dc:date>
    <dc:format>image/svg+xml</dc:format>
    <dc:creator>
     <cc:Agent>
      <dc:title>Matplotlib v3.10.0, https://matplotlib.org/</dc:title>
     </cc:Agent>
    </dc:creator>
   </cc:Work>
  </rdf:RDF>
 </metadata>
 <defs>
  <style type="text/css">*{stroke-linejoin: round; stroke-linecap: butt}</style>
 </defs>
 <g id="figure_1">
  <g id="patch_1">
   <path d="M -0 568.08 
L 854.969466 568.08 
L 854.969466 0 
L -0 0 
z
" style="fill: #ffffff"/>
  </g>
  <g id="axes_1">
   <g id="patch_2">
    <path d="M 44.448487 528.68419 
L 691.837798 528.68419 
L 691.837798 19.285876 
L 44.448487 19.285876 
z
" style="fill: #ffffff"/>
   </g>
   <g id="matplotlib.axis_1">
    <g id="xtick_1">
     <g id="line2d_1">
      <defs>
       <path id="maae61b8855" d="M 0 0 
L 0 3.5 
" style="stroke: #262626; stroke-width: 1.5"/>
      </defs>
      <g>
       <use xlink:href="#maae61b8855" x="73.875274" y="528.68419" style="fill: #262626; stroke: #262626; stroke-width: 1.5"/>
      </g>
     </g>
     <g id="text_1">
      <!-- $\mathdefault{0}$ -->
      <g style="fill: #262626" transform="translate(70.461029 545.370067) scale(0.14 -0.14)">
       <defs>
        <path id="CMSS17-30" d="M 2758 2073 
C 2758 2439 2752 3120 2490 3647 
C 2227 4153 1805 4288 1504 4288 
C 1069 4288 698 4031 506 3621 
C 301 3191 243 2748 243 2073 
C 243 1611 262 1046 493 551 
C 755 6 1197 -128 1498 -128 
C 1894 -128 2278 83 2496 525 
C 2720 988 2758 1495 2758 2073 
z
M 1498 262 
C 1011 262 864 821 819 1007 
C 742 1328 730 1636 730 2144 
C 730 2542 730 2992 851 3345 
C 998 3756 1254 3897 1498 3897 
C 1971 3897 2125 3422 2176 3255 
C 2272 2915 2272 2516 2272 2144 
C 2272 1546 2272 262 1498 262 
z
" transform="scale(0.015625)"/>
       </defs>
       <use xlink:href="#CMSS17-30" transform="scale(0.996264)"/>
      </g>
     </g>
    </g>
    <g id="xtick_2">
     <g id="line2d_2">
      <g>
       <use xlink:href="#maae61b8855" x="214.00283" y="528.68419" style="fill: #262626; stroke: #262626; stroke-width: 1.5"/>
      </g>
     </g>
     <g id="text_2">
      <!-- $\mathdefault{10}$ -->
      <g style="fill: #262626" transform="translate(207.174342 545.370067) scale(0.14 -0.14)">
       <defs>
        <path id="CMSS17-31" d="M 1818 4288 
L 1696 4288 
C 1350 3949 947 3902 538 3891 
L 538 3520 
C 723 3526 1024 3539 1325 3673 
L 1325 371 
L 570 371 
L 570 0 
L 2573 0 
L 2573 371 
L 1818 371 
L 1818 4288 
z
" transform="scale(0.015625)"/>
       </defs>
       <use xlink:href="#CMSS17-31" transform="scale(0.996264)"/>
       <use xlink:href="#CMSS17-30" transform="translate(46.843624 0) scale(0.996264)"/>
      </g>
     </g>
    </g>
    <g id="xtick_3">
     <g id="line2d_3">
      <g>
       <use xlink:href="#maae61b8855" x="354.130387" y="528.68419" style="fill: #262626; stroke: #262626; stroke-width: 1.5"/>
      </g>
     </g>
     <g id="text_3">
      <!-- $\mathdefault{20}$ -->
      <g style="fill: #262626" transform="translate(347.301898 545.370067) scale(0.14 -0.14)">
       <defs>
        <path id="CMSS17-32" d="M 1651 1353 
C 1830 1538 2099 1761 2285 1984 
C 2464 2201 2701 2507 2701 2953 
C 2701 3655 2227 4288 1421 4288 
C 787 4288 422 3891 250 3272 
L 499 2928 
C 640 3508 838 3878 1338 3878 
C 1888 3878 2195 3431 2195 2940 
C 2195 2354 1747 1901 1408 1563 
C 1030 1187 659 805 301 409 
L 301 0 
L 2701 0 
L 2701 435 
L 1613 435 
C 1536 435 1459 428 1382 428 
L 742 428 
L 742 435 
L 1651 1353 
z
" transform="scale(0.015625)"/>
       </defs>
       <use xlink:href="#CMSS17-32" transform="scale(0.996264)"/>
       <use xlink:href="#CMSS17-30" transform="translate(46.843624 0) scale(0.996264)"/>
      </g>
     </g>
    </g>
    <g id="xtick_4">
     <g id="line2d_4">
      <g>
       <use xlink:href="#maae61b8855" x="494.257943" y="528.68419" style="fill: #262626; stroke: #262626; stroke-width: 1.5"/>
      </g>
     </g>
     <g id="text_4">
      <!-- $\mathdefault{30}$ -->
      <g style="fill: #262626" transform="translate(487.429455 545.370067) scale(0.14 -0.14)">
       <defs>
        <path id="CMSS17-33" d="M 1005 2060 
L 1440 2060 
C 2042 2060 2214 1532 2214 1164 
C 2214 662 1933 268 1472 268 
C 1114 268 608 449 320 926 
C 275 700 275 687 250 533 
C 550 89 1037 -128 1485 -128 
C 2214 -128 2752 481 2752 1158 
C 2752 1667 2400 2092 1920 2252 
C 2304 2463 2586 2860 2586 3321 
C 2586 3859 2093 4288 1491 4288 
C 941 4288 512 3948 333 3583 
C 378 3519 493 3334 550 3238 
C 691 3615 1056 3897 1485 3897 
C 1843 3897 2080 3660 2080 3321 
C 2080 2969 1856 2585 1478 2496 
C 1453 2496 1056 2457 1005 2451 
L 1005 2060 
z
" transform="scale(0.015625)"/>
       </defs>
       <use xlink:href="#CMSS17-33" transform="scale(0.996264)"/>
       <use xlink:href="#CMSS17-30" transform="translate(46.843624 0) scale(0.996264)"/>
      </g>
     </g>
    </g>
    <g id="xtick_5">
     <g id="line2d_5">
      <g>
       <use xlink:href="#maae61b8855" x="634.3855" y="528.68419" style="fill: #262626; stroke: #262626; stroke-width: 1.5"/>
      </g>
     </g>
     <g id="text_5">
      <!-- $\mathdefault{40}$ -->
      <g style="fill: #262626" transform="translate(627.557011 545.370067) scale(0.14 -0.14)">
       <defs>
        <path id="CMSS17-34" d="M 2253 1088 
L 2835 1088 
L 2835 1478 
L 2253 1478 
L 2253 4224 
L 1690 4224 
L 166 1478 
L 166 1088 
L 1747 1088 
L 1747 0 
L 2253 0 
L 2253 1088 
z
M 659 1478 
C 1030 2139 1766 3474 1766 3927 
L 1766 1478 
L 659 1478 
z
" transform="scale(0.015625)"/>
       </defs>
       <use xlink:href="#CMSS17-34" transform="scale(0.996264)"/>
       <use xlink:href="#CMSS17-30" transform="translate(46.843624 0) scale(0.996264)"/>
      </g>
     </g>
    </g>
    <g id="xtick_6">
     <g id="line2d_6">
      <defs>
       <path id="mda94898925" d="M 0 0 
L 0 2.5 
" style="stroke: #262626; stroke-width: 1.5"/>
      </defs>
      <g>
       <use xlink:href="#mda94898925" x="45.849762" y="528.68419" style="fill: #262626; stroke: #262626; stroke-width: 1.5"/>
      </g>
     </g>
    </g>
    <g id="xtick_7">
     <g id="line2d_7">
      <g>
       <use xlink:href="#mda94898925" x="101.900785" y="528.68419" style="fill: #262626; stroke: #262626; stroke-width: 1.5"/>
      </g>
     </g>
    </g>
    <g id="xtick_8">
     <g id="line2d_8">
      <g>
       <use xlink:href="#mda94898925" x="129.926296" y="528.68419" style="fill: #262626; stroke: #262626; stroke-width: 1.5"/>
      </g>
     </g>
    </g>
    <g id="xtick_9">
     <g id="line2d_9">
      <g>
       <use xlink:href="#mda94898925" x="157.951808" y="528.68419" style="fill: #262626; stroke: #262626; stroke-width: 1.5"/>
      </g>
     </g>
    </g>
    <g id="xtick_10">
     <g id="line2d_10">
      <g>
       <use xlink:href="#mda94898925" x="185.977319" y="528.68419" style="fill: #262626; stroke: #262626; stroke-width: 1.5"/>
      </g>
     </g>
    </g>
    <g id="xtick_11">
     <g id="line2d_11">
      <g>
       <use xlink:href="#mda94898925" x="242.028342" y="528.68419" style="fill: #262626; stroke: #262626; stroke-width: 1.5"/>
      </g>
     </g>
    </g>
    <g id="xtick_12">
     <g id="line2d_12">
      <g>
       <use xlink:href="#mda94898925" x="270.053853" y="528.68419" style="fill: #262626; stroke: #262626; stroke-width: 1.5"/>
      </g>
     </g>
    </g>
    <g id="xtick_13">
     <g id="line2d_13">
      <g>
       <use xlink:href="#mda94898925" x="298.079364" y="528.68419" style="fill: #262626; stroke: #262626; stroke-width: 1.5"/>
      </g>
     </g>
    </g>
    <g id="xtick_14">
     <g id="line2d_14">
      <g>
       <use xlink:href="#mda94898925" x="326.104875" y="528.68419" style="fill: #262626; stroke: #262626; stroke-width: 1.5"/>
      </g>
     </g>
    </g>
    <g id="xtick_15">
     <g id="line2d_15">
      <g>
       <use xlink:href="#mda94898925" x="382.155898" y="528.68419" style="fill: #262626; stroke: #262626; stroke-width: 1.5"/>
      </g>
     </g>
    </g>
    <g id="xtick_16">
     <g id="line2d_16">
      <g>
       <use xlink:href="#mda94898925" x="410.181409" y="528.68419" style="fill: #262626; stroke: #262626; stroke-width: 1.5"/>
      </g>
     </g>
    </g>
    <g id="xtick_17">
     <g id="line2d_17">
      <g>
       <use xlink:href="#mda94898925" x="438.206921" y="528.68419" style="fill: #262626; stroke: #262626; stroke-width: 1.5"/>
      </g>
     </g>
    </g>
    <g id="xtick_18">
     <g id="line2d_18">
      <g>
       <use xlink:href="#mda94898925" x="466.232432" y="528.68419" style="fill: #262626; stroke: #262626; stroke-width: 1.5"/>
      </g>
     </g>
    </g>
    <g id="xtick_19">
     <g id="line2d_19">
      <g>
       <use xlink:href="#mda94898925" x="522.283455" y="528.68419" style="fill: #262626; stroke: #262626; stroke-width: 1.5"/>
      </g>
     </g>
    </g>
    <g id="xtick_20">
     <g id="line2d_20">
      <g>
       <use xlink:href="#mda94898925" x="550.308966" y="528.68419" style="fill: #262626; stroke: #262626; stroke-width: 1.5"/>
      </g>
     </g>
    </g>
    <g id="xtick_21">
     <g id="line2d_21">
      <g>
       <use xlink:href="#mda94898925" x="578.334477" y="528.68419" style="fill: #262626; stroke: #262626; stroke-width: 1.5"/>
      </g>
     </g>
    </g>
    <g id="xtick_22">
     <g id="line2d_22">
      <g>
       <use xlink:href="#mda94898925" x="606.359988" y="528.68419" style="fill: #262626; stroke: #262626; stroke-width: 1.5"/>
      </g>
     </g>
    </g>
    <g id="xtick_23">
     <g id="line2d_23">
      <g>
       <use xlink:href="#mda94898925" x="662.411011" y="528.68419" style="fill: #262626; stroke: #262626; stroke-width: 1.5"/>
      </g>
     </g>
    </g>
    <g id="xtick_24">
     <g id="line2d_24">
      <g>
       <use xlink:href="#mda94898925" x="690.436522" y="528.68419" style="fill: #262626; stroke: #262626; stroke-width: 1.5"/>
      </g>
     </g>
    </g>
    <g id="text_6">
     <!-- Time -->
     <g style="fill: #262626" transform="translate(353.444965 561.767972) scale(0.14 -0.14)">
      <defs>
       <path id="CMSS17-54" d="M 2317 3987 
L 2848 3987 
C 2925 3987 3002 3980 3078 3980 
L 3878 3980 
L 3878 4396 
L 218 4396 
L 218 3980 
L 1018 3980 
C 1094 3980 1171 3987 1248 3987 
L 1779 3987 
L 1779 0 
L 2317 0 
L 2317 3987 
z
" transform="scale(0.015625)"/>
       <path id="CMSS17-69" d="M 979 4224 
L 442 4224 
L 442 3686 
L 979 3686 
L 979 4224 
z
M 947 2752 
L 474 2752 
L 474 0 
L 947 0 
L 947 2752 
z
" transform="scale(0.015625)"/>
       <path id="CMSS17-6d" d="M 4288 1878 
C 4288 2309 4179 2816 3462 2816 
C 2982 2816 2694 2515 2566 2328 
C 2451 2668 2182 2816 1798 2816 
C 1363 2816 1088 2566 941 2386 
L 941 2783 
L 474 2783 
L 474 0 
L 960 0 
L 960 1556 
C 960 1936 1101 2425 1555 2425 
C 2138 2425 2138 2013 2138 1826 
L 2138 0 
L 2624 0 
L 2624 1556 
C 2624 1936 2765 2425 3219 2425 
C 3802 2425 3802 2013 3802 1826 
L 3802 0 
L 4288 0 
L 4288 1878 
z
" transform="scale(0.015625)"/>
       <path id="CMSS17-65" d="M 2502 1375 
C 2502 1587 2490 2001 2285 2347 
C 2061 2713 1696 2816 1421 2816 
C 755 2816 192 2184 192 1363 
C 192 579 774 -64 1510 -64 
C 1798 -64 2150 19 2470 249 
C 2470 275 2458 414 2451 421 
C 2451 433 2432 629 2432 655 
C 2125 408 1773 326 1517 326 
C 1107 326 666 667 646 1375 
L 2502 1375 
z
M 698 1728 
C 781 2086 1062 2425 1421 2425 
C 1517 2425 1965 2412 2080 1728 
L 698 1728 
z
" transform="scale(0.015625)"/>
      </defs>
      <use xlink:href="#CMSS17-54" transform="scale(0.996264)"/>
      <use xlink:href="#CMSS17-69" transform="translate(63.819454 0) scale(0.996264)"/>
      <use xlink:href="#CMSS17-6d" transform="translate(86.000177 0) scale(0.996264)"/>
      <use xlink:href="#CMSS17-65" transform="translate(160.229431 0) scale(0.996264)"/>
     </g>
    </g>
   </g>
   <g id="matplotlib.axis_2">
    <g id="ytick_1">
     <g id="line2d_25">
      <defs>
       <path id="m68717a4330" d="M 0 0 
L -3.5 0 
" style="stroke: #262626; stroke-width: 1.5"/>
      </defs>
      <g>
       <use xlink:href="#m68717a4330" x="44.448487" y="505.529722" style="fill: #262626; stroke: #262626; stroke-width: 1.5"/>
      </g>
     </g>
     <g id="text_7">
      <!-- $\mathdefault{0.0}$ -->
      <g style="fill: #262626" transform="translate(19.997905 510.37266) scale(0.14 -0.14)">
       <defs>
        <path id="CMSS17-2e" d="M 1088 512 
L 576 512 
L 576 0 
L 1088 0 
L 1088 512 
z
" transform="scale(0.015625)"/>
       </defs>
       <use xlink:href="#CMSS17-30" transform="scale(0.996264)"/>
       <use xlink:href="#CMSS17-2e" transform="translate(46.843624 0) scale(0.996264)"/>
       <use xlink:href="#CMSS17-30" transform="translate(72.867828 0) scale(0.996264)"/>
      </g>
     </g>
    </g>
    <g id="ytick_2">
     <g id="line2d_26">
      <g>
       <use xlink:href="#m68717a4330" x="44.448487" y="440.853959" style="fill: #262626; stroke: #262626; stroke-width: 1.5"/>
      </g>
     </g>
     <g id="text_8">
      <!-- $\mathdefault{0.5}$ -->
      <g style="fill: #262626" transform="translate(19.997905 445.696897) scale(0.14 -0.14)">
       <defs>
        <path id="CMSS17-35" d="M 934 3814 
L 2502 3814 
L 2502 4224 
L 467 4224 
L 467 1830 
L 896 1830 
C 1011 2103 1248 2304 1555 2304 
C 1843 2304 2163 2044 2163 1299 
C 2163 502 1709 268 1376 268 
C 966 268 589 521 422 871 
L 218 508 
C 512 51 992 -128 1376 -128 
C 2118 -128 2701 508 2701 1286 
C 2701 2083 2182 2694 1562 2694 
C 1338 2694 1120 2617 934 2464 
L 934 3814 
z
" transform="scale(0.015625)"/>
       </defs>
       <use xlink:href="#CMSS17-30" transform="scale(0.996264)"/>
       <use xlink:href="#CMSS17-2e" transform="translate(46.843624 0) scale(0.996264)"/>
       <use xlink:href="#CMSS17-35" transform="translate(72.867828 0) scale(0.996264)"/>
      </g>
     </g>
    </g>
    <g id="ytick_3">
     <g id="line2d_27">
      <g>
       <use xlink:href="#m68717a4330" x="44.448487" y="376.178196" style="fill: #262626; stroke: #262626; stroke-width: 1.5"/>
      </g>
     </g>
     <g id="text_9">
      <!-- $\mathdefault{1.0}$ -->
      <g style="fill: #262626" transform="translate(19.997905 381.021134) scale(0.14 -0.14)">
       <use xlink:href="#CMSS17-31" transform="scale(0.996264)"/>
       <use xlink:href="#CMSS17-2e" transform="translate(46.843624 0) scale(0.996264)"/>
       <use xlink:href="#CMSS17-30" transform="translate(72.867828 0) scale(0.996264)"/>
      </g>
     </g>
    </g>
    <g id="ytick_4">
     <g id="line2d_28">
      <g>
       <use xlink:href="#m68717a4330" x="44.448487" y="311.502433" style="fill: #262626; stroke: #262626; stroke-width: 1.5"/>
      </g>
     </g>
     <g id="text_10">
      <!-- $\mathdefault{1.5}$ -->
      <g style="fill: #262626" transform="translate(19.997905 316.345371) scale(0.14 -0.14)">
       <use xlink:href="#CMSS17-31" transform="scale(0.996264)"/>
       <use xlink:href="#CMSS17-2e" transform="translate(46.843624 0) scale(0.996264)"/>
       <use xlink:href="#CMSS17-35" transform="translate(72.867828 0) scale(0.996264)"/>
      </g>
     </g>
    </g>
    <g id="ytick_5">
     <g id="line2d_29">
      <g>
       <use xlink:href="#m68717a4330" x="44.448487" y="246.82667" style="fill: #262626; stroke: #262626; stroke-width: 1.5"/>
      </g>
     </g>
     <g id="text_11">
      <!-- $\mathdefault{2.0}$ -->
      <g style="fill: #262626" transform="translate(19.997905 251.669608) scale(0.14 -0.14)">
       <use xlink:href="#CMSS17-32" transform="scale(0.996264)"/>
       <use xlink:href="#CMSS17-2e" transform="translate(46.843624 0) scale(0.996264)"/>
       <use xlink:href="#CMSS17-30" transform="translate(72.867828 0) scale(0.996264)"/>
      </g>
     </g>
    </g>
    <g id="ytick_6">
     <g id="line2d_30">
      <g>
       <use xlink:href="#m68717a4330" x="44.448487" y="182.150907" style="fill: #262626; stroke: #262626; stroke-width: 1.5"/>
      </g>
     </g>
     <g id="text_12">
      <!-- $\mathdefault{2.5}$ -->
      <g style="fill: #262626" transform="translate(19.997905 186.993845) scale(0.14 -0.14)">
       <use xlink:href="#CMSS17-32" transform="scale(0.996264)"/>
       <use xlink:href="#CMSS17-2e" transform="translate(46.843624 0) scale(0.996264)"/>
       <use xlink:href="#CMSS17-35" transform="translate(72.867828 0) scale(0.996264)"/>
      </g>
     </g>
    </g>
    <g id="ytick_7">
     <g id="line2d_31">
      <g>
       <use xlink:href="#m68717a4330" x="44.448487" y="117.475144" style="fill: #262626; stroke: #262626; stroke-width: 1.5"/>
      </g>
     </g>
     <g id="text_13">
      <!-- $\mathdefault{3.0}$ -->
      <g style="fill: #262626" transform="translate(19.997905 122.318082) scale(0.14 -0.14)">
       <use xlink:href="#CMSS17-33" transform="scale(0.996264)"/>
       <use xlink:href="#CMSS17-2e" transform="translate(46.843624 0) scale(0.996264)"/>
       <use xlink:href="#CMSS17-30" transform="translate(72.867828 0) scale(0.996264)"/>
      </g>
     </g>
    </g>
    <g id="ytick_8">
     <g id="line2d_32">
      <g>
       <use xlink:href="#m68717a4330" x="44.448487" y="52.799381" style="fill: #262626; stroke: #262626; stroke-width: 1.5"/>
      </g>
     </g>
     <g id="text_14">
      <!-- $\mathdefault{3.5}$ -->
      <g style="fill: #262626" transform="translate(19.997905 57.642319) scale(0.14 -0.14)">
       <use xlink:href="#CMSS17-33" transform="scale(0.996264)"/>
       <use xlink:href="#CMSS17-2e" transform="translate(46.843624 0) scale(0.996264)"/>
       <use xlink:href="#CMSS17-35" transform="translate(72.867828 0) scale(0.996264)"/>
      </g>
     </g>
    </g>
    <g id="ytick_9">
     <g id="line2d_33">
      <defs>
       <path id="m49fe68cd63" d="M 0 0 
L -2.5 0 
" style="stroke: #262626; stroke-width: 1.5"/>
      </defs>
      <g>
       <use xlink:href="#m49fe68cd63" x="44.448487" y="518.464874" style="fill: #262626; stroke: #262626; stroke-width: 1.5"/>
      </g>
     </g>
    </g>
    <g id="ytick_10">
     <g id="line2d_34">
      <g>
       <use xlink:href="#m49fe68cd63" x="44.448487" y="492.594569" style="fill: #262626; stroke: #262626; stroke-width: 1.5"/>
      </g>
     </g>
    </g>
    <g id="ytick_11">
     <g id="line2d_35">
      <g>
       <use xlink:href="#m49fe68cd63" x="44.448487" y="479.659416" style="fill: #262626; stroke: #262626; stroke-width: 1.5"/>
      </g>
     </g>
    </g>
    <g id="ytick_12">
     <g id="line2d_36">
      <g>
       <use xlink:href="#m49fe68cd63" x="44.448487" y="466.724264" style="fill: #262626; stroke: #262626; stroke-width: 1.5"/>
      </g>
     </g>
    </g>
    <g id="ytick_13">
     <g id="line2d_37">
      <g>
       <use xlink:href="#m49fe68cd63" x="44.448487" y="453.789111" style="fill: #262626; stroke: #262626; stroke-width: 1.5"/>
      </g>
     </g>
    </g>
    <g id="ytick_14">
     <g id="line2d_38">
      <g>
       <use xlink:href="#m49fe68cd63" x="44.448487" y="427.918806" style="fill: #262626; stroke: #262626; stroke-width: 1.5"/>
      </g>
     </g>
    </g>
    <g id="ytick_15">
     <g id="line2d_39">
      <g>
       <use xlink:href="#m49fe68cd63" x="44.448487" y="414.983653" style="fill: #262626; stroke: #262626; stroke-width: 1.5"/>
      </g>
     </g>
    </g>
    <g id="ytick_16">
     <g id="line2d_40">
      <g>
       <use xlink:href="#m49fe68cd63" x="44.448487" y="402.048501" style="fill: #262626; stroke: #262626; stroke-width: 1.5"/>
      </g>
     </g>
    </g>
    <g id="ytick_17">
     <g id="line2d_41">
      <g>
       <use xlink:href="#m49fe68cd63" x="44.448487" y="389.113348" style="fill: #262626; stroke: #262626; stroke-width: 1.5"/>
      </g>
     </g>
    </g>
    <g id="ytick_18">
     <g id="line2d_42">
      <g>
       <use xlink:href="#m49fe68cd63" x="44.448487" y="363.243043" style="fill: #262626; stroke: #262626; stroke-width: 1.5"/>
      </g>
     </g>
    </g>
    <g id="ytick_19">
     <g id="line2d_43">
      <g>
       <use xlink:href="#m49fe68cd63" x="44.448487" y="350.30789" style="fill: #262626; stroke: #262626; stroke-width: 1.5"/>
      </g>
     </g>
    </g>
    <g id="ytick_20">
     <g id="line2d_44">
      <g>
       <use xlink:href="#m49fe68cd63" x="44.448487" y="337.372738" style="fill: #262626; stroke: #262626; stroke-width: 1.5"/>
      </g>
     </g>
    </g>
    <g id="ytick_21">
     <g id="line2d_45">
      <g>
       <use xlink:href="#m49fe68cd63" x="44.448487" y="324.437585" style="fill: #262626; stroke: #262626; stroke-width: 1.5"/>
      </g>
     </g>
    </g>
    <g id="ytick_22">
     <g id="line2d_46">
      <g>
       <use xlink:href="#m49fe68cd63" x="44.448487" y="298.56728" style="fill: #262626; stroke: #262626; stroke-width: 1.5"/>
      </g>
     </g>
    </g>
    <g id="ytick_23">
     <g id="line2d_47">
      <g>
       <use xlink:href="#m49fe68cd63" x="44.448487" y="285.632127" style="fill: #262626; stroke: #262626; stroke-width: 1.5"/>
      </g>
     </g>
    </g>
    <g id="ytick_24">
     <g id="line2d_48">
      <g>
       <use xlink:href="#m49fe68cd63" x="44.448487" y="272.696975" style="fill: #262626; stroke: #262626; stroke-width: 1.5"/>
      </g>
     </g>
    </g>
    <g id="ytick_25">
     <g id="line2d_49">
      <g>
       <use xlink:href="#m49fe68cd63" x="44.448487" y="259.761822" style="fill: #262626; stroke: #262626; stroke-width: 1.5"/>
      </g>
     </g>
    </g>
    <g id="ytick_26">
     <g id="line2d_50">
      <g>
       <use xlink:href="#m49fe68cd63" x="44.448487" y="233.891517" style="fill: #262626; stroke: #262626; stroke-width: 1.5"/>
      </g>
     </g>
    </g>
    <g id="ytick_27">
     <g id="line2d_51">
      <g>
       <use xlink:href="#m49fe68cd63" x="44.448487" y="220.956365" style="fill: #262626; stroke: #262626; stroke-width: 1.5"/>
      </g>
     </g>
    </g>
    <g id="ytick_28">
     <g id="line2d_52">
      <g>
       <use xlink:href="#m49fe68cd63" x="44.448487" y="208.021212" style="fill: #262626; stroke: #262626; stroke-width: 1.5"/>
      </g>
     </g>
    </g>
    <g id="ytick_29">
     <g id="line2d_53">
      <g>
       <use xlink:href="#m49fe68cd63" x="44.448487" y="195.086059" style="fill: #262626; stroke: #262626; stroke-width: 1.5"/>
      </g>
     </g>
    </g>
    <g id="ytick_30">
     <g id="line2d_54">
      <g>
       <use xlink:href="#m49fe68cd63" x="44.448487" y="169.215754" style="fill: #262626; stroke: #262626; stroke-width: 1.5"/>
      </g>
     </g>
    </g>
    <g id="ytick_31">
     <g id="line2d_55">
      <g>
       <use xlink:href="#m49fe68cd63" x="44.448487" y="156.280602" style="fill: #262626; stroke: #262626; stroke-width: 1.5"/>
      </g>
     </g>
    </g>
    <g id="ytick_32">
     <g id="line2d_56">
      <g>
       <use xlink:href="#m49fe68cd63" x="44.448487" y="143.345449" style="fill: #262626; stroke: #262626; stroke-width: 1.5"/>
      </g>
     </g>
    </g>
    <g id="ytick_33">
     <g id="line2d_57">
      <g>
       <use xlink:href="#m49fe68cd63" x="44.448487" y="130.410296" style="fill: #262626; stroke: #262626; stroke-width: 1.5"/>
      </g>
     </g>
    </g>
    <g id="ytick_34">
     <g id="line2d_58">
      <g>
       <use xlink:href="#m49fe68cd63" x="44.448487" y="104.539991" style="fill: #262626; stroke: #262626; stroke-width: 1.5"/>
      </g>
     </g>
    </g>
    <g id="ytick_35">
     <g id="line2d_59">
      <g>
       <use xlink:href="#m49fe68cd63" x="44.448487" y="91.604839" style="fill: #262626; stroke: #262626; stroke-width: 1.5"/>
      </g>
     </g>
    </g>
    <g id="ytick_36">
     <g id="line2d_60">
      <g>
       <use xlink:href="#m49fe68cd63" x="44.448487" y="78.669686" style="fill: #262626; stroke: #262626; stroke-width: 1.5"/>
      </g>
     </g>
    </g>
    <g id="ytick_37">
     <g id="line2d_61">
      <g>
       <use xlink:href="#m49fe68cd63" x="44.448487" y="65.734533" style="fill: #262626; stroke: #262626; stroke-width: 1.5"/>
      </g>
     </g>
    </g>
    <g id="ytick_38">
     <g id="line2d_62">
      <g>
       <use xlink:href="#m49fe68cd63" x="44.448487" y="39.864228" style="fill: #262626; stroke: #262626; stroke-width: 1.5"/>
      </g>
     </g>
    </g>
    <g id="ytick_39">
     <g id="line2d_63">
      <g>
       <use xlink:href="#m49fe68cd63" x="44.448487" y="26.929076" style="fill: #262626; stroke: #262626; stroke-width: 1.5"/>
      </g>
     </g>
    </g>
    <g id="text_15">
     <!-- Normalized Wound Area -->
     <g style="fill: #262626" transform="translate(13.285876 343.528969) rotate(-90) scale(0.14 -0.14)">
      <defs>
       <path id="CMSS17-4e" d="M 1466 4179 
L 1350 4416 
L 563 4416 
L 563 0 
L 1062 0 
L 1062 3925 
L 1069 3931 
C 1114 3817 1139 3759 1402 3193 
L 2771 236 
L 2886 0 
L 3674 0 
L 3674 4416 
L 3174 4416 
L 3174 490 
L 3168 484 
C 3123 598 3098 655 2835 1222 
L 1466 4179 
z
" transform="scale(0.015625)"/>
       <path id="CMSS17-6f" d="M 2829 1356 
C 2829 2175 2221 2816 1504 2816 
C 768 2816 173 2156 173 1356 
C 173 544 787 -64 1498 -64 
C 2227 -64 2829 563 2829 1356 
z
M 1504 339 
C 1050 339 659 710 659 1407 
C 659 2150 1114 2425 1498 2425 
C 1914 2425 2342 2124 2342 1407 
C 2342 684 1926 339 1504 339 
z
" transform="scale(0.015625)"/>
       <path id="CMSS17-72" d="M 954 1369 
C 954 1974 1395 2379 1958 2392 
L 1958 2816 
C 1549 2809 1165 2604 934 2270 
L 934 2783 
L 480 2783 
L 480 0 
L 954 0 
L 954 1369 
z
" transform="scale(0.015625)"/>
       <path id="CMSS17-61" d="M 2406 1789 
C 2406 2399 1978 2816 1402 2816 
C 1120 2816 813 2764 461 2559 
L 499 2133 
C 659 2250 934 2438 1395 2438 
C 1722 2438 1920 2185 1920 1782 
L 1920 1536 
C 896 1504 256 1209 256 711 
C 256 452 416 -64 947 -64 
C 1043 -64 1562 -52 1933 224 
L 1933 -13 
L 2406 -13 
L 2406 1789 
z
M 1920 824 
C 1920 711 1920 559 1728 446 
C 1562 339 1350 326 1261 326 
C 941 326 723 503 723 723 
C 723 1165 1722 1209 1920 1216 
L 1920 824 
z
" transform="scale(0.015625)"/>
       <path id="CMSS17-6c" d="M 947 4416 
L 474 4416 
L 474 0 
L 947 0 
L 947 4416 
z
" transform="scale(0.015625)"/>
       <path id="CMSS17-7a" d="M 2400 2502 
L 2400 2752 
L 250 2752 
L 250 2367 
L 1069 2367 
C 1146 2367 1222 2374 1299 2374 
L 1747 2374 
L 166 262 
L 166 0 
L 2419 0 
L 2419 396 
L 1549 396 
C 1472 396 1395 390 1318 390 
L 826 390 
L 2400 2502 
z
" transform="scale(0.015625)"/>
       <path id="CMSS17-64" d="M 2611 4416 
L 2138 4416 
L 2138 2495 
C 1939 2662 1613 2816 1254 2816 
C 672 2816 211 2179 211 1375 
C 211 572 666 -64 1235 -64 
C 1677 -64 1971 172 2125 307 
L 2125 -13 
L 2611 -13 
L 2611 4416 
z
M 2125 851 
C 2125 760 2125 663 1926 488 
C 1798 378 1645 326 1498 326 
C 1152 326 698 585 698 1369 
C 698 2185 1210 2425 1562 2425 
C 1798 2425 1990 2308 2125 2114 
L 2125 851 
z
" transform="scale(0.015625)"/>
       <path id="CMSS17-57" d="M 5581 4416 
L 5094 4416 
L 4557 2436 
C 4474 2118 4397 1800 4320 1482 
C 4205 1012 4122 681 4109 516 
L 4102 516 
C 4090 687 4006 1050 3904 1457 
C 3827 1794 3744 2131 3654 2462 
L 3123 4416 
L 2586 4416 
L 2080 2564 
L 1824 1552 
C 1632 751 1626 636 1613 509 
L 1606 509 
C 1606 547 1581 757 1402 1501 
C 1312 1870 1222 2246 1126 2602 
L 634 4416 
L 83 4416 
L 1299 0 
L 1830 0 
L 2336 1838 
L 2592 2850 
C 2765 3562 2803 3740 2816 3899 
L 2822 3899 
C 2822 3874 2880 3473 3130 2544 
L 3808 0 
L 4365 0 
L 5581 4416 
z
" transform="scale(0.015625)"/>
       <path id="CMSS17-75" d="M 2618 2752 
L 2131 2752 
L 2131 976 
C 2131 500 1786 307 1421 307 
C 998 307 960 448 960 712 
L 960 2752 
L 474 2752 
L 474 680 
C 474 179 646 -64 1088 -64 
C 1306 -64 1798 -13 2144 307 
L 2144 -13 
L 2618 -13 
L 2618 2752 
z
" transform="scale(0.015625)"/>
       <path id="CMSS17-6e" d="M 2618 1878 
C 2618 2283 2522 2816 1798 2816 
C 1389 2816 1120 2604 941 2386 
L 941 2783 
L 474 2783 
L 474 0 
L 960 0 
L 960 1556 
C 960 1962 1114 2425 1549 2425 
C 2112 2425 2131 2045 2131 1826 
L 2131 0 
L 2618 0 
L 2618 1878 
z
" transform="scale(0.015625)"/>
       <path id="CMSS17-41" d="M 2272 4416 
L 1722 4416 
L 166 0 
L 653 0 
L 1101 1280 
L 2816 1280 
L 3270 0 
L 3827 0 
L 2272 4416 
z
M 2694 1638 
L 1222 1638 
C 1530 2530 1914 3638 1958 3924 
L 1965 3924 
C 2010 3663 2138 3281 2246 2956 
L 2694 1638 
z
" transform="scale(0.015625)"/>
      </defs>
      <use xlink:href="#CMSS17-4e" transform="scale(0.996264)"/>
      <use xlink:href="#CMSS17-6f" transform="translate(66.061519 0) scale(0.996264)"/>
      <use xlink:href="#CMSS17-72" transform="translate(110.302689 0) scale(0.996264)"/>
      <use xlink:href="#CMSS17-6d" transform="translate(142.212461 0) scale(0.996264)"/>
      <use xlink:href="#CMSS17-61" transform="translate(216.441716 0) scale(0.996264)"/>
      <use xlink:href="#CMSS17-6c" transform="translate(261.363636 0) scale(0.996264)"/>
      <use xlink:href="#CMSS17-69" transform="translate(283.544359 0) scale(0.996264)"/>
      <use xlink:href="#CMSS17-7a" transform="translate(305.725082 0) scale(0.996264)"/>
      <use xlink:href="#CMSS17-65" transform="translate(346.402954 0) scale(0.996264)"/>
      <use xlink:href="#CMSS17-64" transform="translate(388.041776 0) scale(0.996264)"/>
      <use xlink:href="#CMSS17-57" transform="translate(467.475832 0) scale(0.996264)"/>
      <use xlink:href="#CMSS17-6f" transform="translate(553.115544 0) scale(0.996264)"/>
      <use xlink:href="#CMSS17-75" transform="translate(599.959168 0) scale(0.996264)"/>
      <use xlink:href="#CMSS17-6e" transform="translate(648.164111 0) scale(0.996264)"/>
      <use xlink:href="#CMSS17-64" transform="translate(696.369054 0) scale(0.996264)"/>
      <use xlink:href="#CMSS17-41" transform="translate(775.80311 0) scale(0.996264)"/>
      <use xlink:href="#CMSS17-72" transform="translate(838.020965 0) scale(0.996264)"/>
      <use xlink:href="#CMSS17-65" transform="translate(869.930738 0) scale(0.996264)"/>
      <use xlink:href="#CMSS17-61" transform="translate(911.56956 0) scale(0.996264)"/>
     </g>
    </g>
   </g>
   <g id="line2d_64">
    <path d="M 73.875274 376.178196 
L 80.881652 372.927653 
L 87.888029 369.576531 
L 94.894407 365.803356 
L 101.900785 361.463938 
L 108.907163 356.740915 
L 115.913541 352.149159 
L 122.919919 348.384828 
L 129.926296 346.088089 
L 136.932674 345.634944 
L 143.939052 347.054194 
L 150.94543 350.094041 
L 157.951808 354.384065 
L 164.958185 359.599128 
L 171.964563 365.710009 
L 178.970941 372.22947 
L 185.977319 379.467146 
L 192.983697 387.37691 
L 199.990075 395.825262 
L 206.996452 404.662052 
L 214.00283 413.444922 
L 221.009208 422.055143 
L 228.015586 430.657848 
L 235.021964 438.378065 
L 242.028342 445.614772 
L 249.034719 452.701204 
L 256.041097 459.155534 
L 263.047475 465.366262 
L 270.053853 470.962622 
L 277.060231 475.511235 
L 284.066609 479.603922 
L 291.072986 482.810395 
L 298.079364 485.786032 
L 305.085742 488.167439 
L 312.09212 490.547152 
L 319.098498 492.759428 
L 326.104875 494.479908 
L 333.111253 495.97446 
L 340.117631 497.236327 
L 347.124009 498.320189 
L 354.130387 499.519839 
L 361.136765 500.381227 
L 368.143142 501.059493 
L 375.14952 501.756054 
L 382.155898 502.513318 
L 389.162276 502.920254 
L 396.168654 503.310559 
L 403.175032 503.660988 
L 410.181409 504.012614 
L 417.187787 504.274474 
L 424.194165 504.496613 
L 431.200543 504.610994 
L 438.206921 504.738711 
L 445.213298 504.914898 
L 452.219676 505.069929 
L 459.226054 505.126432 
L 466.232432 505.143405 
L 473.23881 505.173012 
L 480.245188 505.179529 
L 487.251565 505.188486 
L 494.257943 505.198879 
L 501.264321 505.208462 
L 508.270699 505.215492 
L 515.277077 505.219917 
L 522.283455 505.152462 
L 529.289832 505.155796 
L 536.29621 505.230426 
L 543.302588 505.233772 
L 550.308966 505.235751 
L 557.315344 505.237266 
L 564.321722 505.241335 
L 571.328099 505.251609 
L 578.334477 505.269859 
L 585.340855 505.294159 
L 592.347233 505.319217 
L 599.353611 505.338902 
L 606.359988 505.349484 
L 613.366366 505.35161 
L 620.372744 505.349793 
L 627.379122 505.349782 
L 634.3855 505.355436 
L 641.391878 505.366835 
L 648.398255 505.380467 
L 655.404633 505.391002 
L 662.411011 505.447223 
" clip-path="url(#pa67f1156b0)" style="fill: none; stroke: #000000; stroke-opacity: 0.8; stroke-width: 2; stroke-linecap: round"/>
   </g>
   <g id="line2d_65">
    <path d="M 73.875274 376.178196 
L 80.881652 373.573905 
L 87.888029 372.115865 
L 94.894407 371.837958 
L 101.900785 372.70137 
L 108.907163 374.597023 
L 115.913541 377.358133 
L 122.919919 380.781845 
L 129.926296 384.657072 
L 136.932674 388.794183 
L 143.939052 393.051414 
L 150.94543 397.353063 
L 157.951808 401.695747 
L 164.958185 406.141028 
L 171.964563 410.795291 
L 178.970941 415.780266 
L 185.977319 421.199552 
L 192.983697 427.107506 
L 199.990075 433.486583 
L 206.996452 440.237704 
L 214.00283 447.185819 
L 221.009208 454.099878 
L 228.015586 460.723669 
L 235.021964 466.811911 
L 242.028342 472.165015 
L 249.034719 476.656317 
L 256.041097 480.247105 
L 263.047475 482.987207 
L 270.053853 485.001657 
L 277.060231 486.466474 
L 284.066609 487.57845 
L 291.072986 488.524568 
L 298.079364 489.456403 
L 305.085742 490.473451 
L 312.09212 491.617408 
L 319.098498 492.877184 
L 326.104875 494.202484 
L 333.111253 495.522389 
L 340.117631 496.764839 
L 347.124009 497.873165 
L 354.130387 498.816861 
L 361.136765 499.595192 
L 368.143142 500.233852 
L 375.14952 500.776233 
L 382.155898 501.271795 
L 389.162276 501.764339 
L 396.168654 502.282725 
L 403.175032 502.835772 
L 410.181409 505.529722 
L 417.187787 505.529722 
L 424.194165 505.529722 
L 431.200543 505.529722 
L 438.206921 505.529722 
L 445.213298 505.529722 
L 452.219676 505.529722 
L 459.226054 505.529722 
L 466.232432 505.529722 
L 473.23881 505.529722 
L 480.245188 505.529722 
L 487.251565 505.529722 
L 494.257943 505.529722 
L 501.264321 505.529722 
L 508.270699 505.529722 
L 515.277077 505.529722 
L 522.283455 505.529722 
L 529.289832 505.529722 
L 536.29621 505.529722 
L 543.302588 505.529722 
L 550.308966 505.529722 
L 557.315344 505.529722 
L 564.321722 505.529722 
L 571.328099 505.529722 
L 578.334477 505.529722 
L 585.340855 505.529722 
L 592.347233 505.529722 
L 599.353611 505.529722 
L 606.359988 505.529722 
L 613.366366 505.529722 
L 620.372744 505.529722 
L 627.379122 505.529722 
L 634.3855 505.529722 
L 641.391878 505.529722 
L 648.398255 505.529722 
L 655.404633 505.529722 
L 662.411011 505.529722 
" clip-path="url(#pa67f1156b0)" style="fill: none; stroke: #0c5da5; stroke-opacity: 0.8; stroke-width: 2; stroke-linecap: round"/>
   </g>
   <g id="line2d_66">
    <path d="M 73.875274 376.178196 
L 80.881652 308.222591 
L 87.888029 243.245598 
L 94.894407 183.893226 
L 101.900785 132.619443 
L 108.907163 91.529502 
L 115.913541 62.2393 
L 122.919919 45.763105 
L 129.926296 42.440345 
L 136.932674 51.909494 
L 143.939052 73.133195 
L 150.94543 104.474279 
L 157.951808 143.817448 
L 164.958185 188.726815 
L 171.964563 236.625704 
L 178.970941 284.982616 
L 185.977319 331.486469 
L 192.983697 374.195295 
L 199.990075 411.645394 
L 206.996452 442.912325 
L 214.00283 467.620369 
L 221.009208 485.902751 
L 228.015586 505.529722 
L 235.021964 505.529722 
L 242.028342 505.529722 
L 249.034719 505.529722 
L 256.041097 505.529722 
L 263.047475 505.529722 
L 270.053853 505.529722 
L 277.060231 505.529722 
L 284.066609 505.529722 
L 291.072986 505.529722 
L 298.079364 505.529722 
L 305.085742 505.529722 
L 312.09212 505.529722 
L 319.098498 505.529722 
L 326.104875 505.529722 
L 333.111253 505.529722 
L 340.117631 505.529722 
L 347.124009 505.529722 
L 354.130387 505.529722 
L 361.136765 505.529722 
L 368.143142 505.529722 
L 375.14952 505.529722 
L 382.155898 505.529722 
L 389.162276 505.529722 
L 396.168654 505.529722 
L 403.175032 505.529722 
L 410.181409 505.529722 
L 417.187787 505.529722 
L 424.194165 505.529722 
L 431.200543 505.529722 
L 438.206921 505.529722 
L 445.213298 505.529722 
L 452.219676 505.529722 
L 459.226054 505.529722 
L 466.232432 505.529722 
L 473.23881 505.529722 
L 480.245188 505.529722 
L 487.251565 505.529722 
L 494.257943 505.529722 
L 501.264321 505.529722 
L 508.270699 505.529722 
L 515.277077 505.529722 
L 522.283455 505.529722 
L 529.289832 505.529722 
L 536.29621 505.529722 
L 543.302588 505.529722 
L 550.308966 505.529722 
L 557.315344 505.529722 
L 564.321722 505.529722 
L 571.328099 505.529722 
L 578.334477 505.529722 
L 585.340855 505.529722 
L 592.347233 505.529722 
L 599.353611 505.529722 
L 606.359988 505.529722 
L 613.366366 505.529722 
L 620.372744 505.529722 
L 627.379122 505.529722 
L 634.3855 505.529722 
L 641.391878 505.529722 
L 648.398255 505.529722 
L 655.404633 505.529722 
L 662.411011 505.529722 
" clip-path="url(#pa67f1156b0)" style="fill: none; stroke: #00b945; stroke-opacity: 0.8; stroke-width: 2; stroke-linecap: round"/>
   </g>
   <g id="line2d_67">
    <path d="M 73.875274 376.178196 
L 80.881652 376.562194 
L 87.888029 374.087885 
L 94.894407 369.381587 
L 101.900785 363.498562 
L 108.907163 357.662575 
L 115.913541 352.978672 
L 122.919919 350.197201 
L 129.926296 349.590445 
L 136.932674 350.967527 
L 143.939052 353.81038 
L 150.94543 357.478146 
L 157.951808 361.411028 
L 164.958185 365.272016 
L 171.964563 368.991884 
L 178.970941 372.718593 
L 185.977319 376.703447 
L 192.983697 381.172639 
L 199.990075 386.230243 
L 206.996452 391.82062 
L 214.00283 397.753253 
L 221.009208 403.771085 
L 228.015586 409.631784 
L 235.021964 415.172363 
L 242.028342 420.338479 
L 249.034719 425.174833 
L 256.041097 429.786318 
L 263.047475 434.286943 
L 270.053853 438.754027 
L 277.060231 443.200379 
L 284.066609 447.569956 
L 291.072986 451.755492 
L 298.079364 455.631449 
L 305.085742 459.09279 
L 312.09212 462.089368 
L 319.098498 464.646762 
L 326.104875 466.867243 
L 333.111253 468.908971 
L 340.117631 470.947272 
L 347.124009 473.127572 
L 354.130387 475.52355 
L 361.136765 478.11431 
L 368.143142 480.789899 
L 375.14952 483.385877 
L 382.155898 485.737477 
L 389.162276 487.735887 
L 396.168654 489.366819 
L 403.175032 490.716612 
L 410.181409 491.942259 
L 417.187787 493.215241 
L 424.194165 494.659352 
L 431.200543 496.305633 
L 438.206921 498.081315 
L 445.213298 499.836703 
L 452.219676 501.399234 
L 459.226054 502.633665 
L 466.232432 503.485627 
L 473.23881 505.529722 
L 480.245188 505.529722 
L 487.251565 505.529722 
L 494.257943 505.529722 
L 501.264321 505.529722 
L 508.270699 505.529722 
L 515.277077 505.529722 
L 522.283455 505.529722 
L 529.289832 505.529722 
L 536.29621 505.529722 
L 543.302588 505.529722 
L 550.308966 505.529722 
L 557.315344 505.529722 
L 564.321722 505.529722 
L 571.328099 505.529722 
L 578.334477 505.529722 
L 585.340855 505.529722 
L 592.347233 505.529722 
L 599.353611 505.529722 
L 606.359988 505.529722 
L 613.366366 505.529722 
L 620.372744 505.529722 
L 627.379122 505.529722 
L 634.3855 505.529722 
L 641.391878 505.529722 
L 648.398255 505.529722 
L 655.404633 505.529722 
L 662.411011 505.529722 
" clip-path="url(#pa67f1156b0)" style="fill: none; stroke: #ff9500; stroke-opacity: 0.8; stroke-width: 2; stroke-linecap: round"/>
   </g>
   <g id="line2d_68">
    <path d="M 73.875274 376.178196 
L 80.881652 399.244138 
L 87.888029 407.312057 
L 94.894407 407.74578 
L 101.900785 406.024336 
L 108.907163 405.525121 
L 115.913541 407.707385 
L 122.919919 412.580181 
L 129.926296 419.301615 
L 136.932674 426.75725 
L 143.939052 434.00008 
L 150.94543 440.490235 
L 157.951808 446.133188 
L 164.958185 451.165031 
L 171.964563 455.961443 
L 178.970941 460.849429 
L 185.977319 465.981402 
L 192.983697 471.298795 
L 199.990075 476.578513 
L 206.996452 481.530333 
L 214.00283 485.90281 
L 221.009208 489.560154 
L 228.015586 492.508734 
L 235.021964 494.872331 
L 242.028342 496.83275 
L 249.034719 498.561486 
L 256.041097 500.167233 
L 263.047475 501.674758 
L 270.053853 505.529722 
L 277.060231 505.529722 
L 284.066609 505.529722 
L 291.072986 505.529722 
L 298.079364 505.529722 
L 305.085742 505.529722 
L 312.09212 505.529722 
L 319.098498 505.529722 
L 326.104875 505.529722 
L 333.111253 505.529722 
L 340.117631 505.529722 
L 347.124009 505.529722 
L 354.130387 505.529722 
L 361.136765 505.529722 
L 368.143142 505.529722 
L 375.14952 505.529722 
L 382.155898 505.529722 
L 389.162276 505.529722 
L 396.168654 505.529722 
L 403.175032 505.529722 
L 410.181409 505.529722 
L 417.187787 505.529722 
L 424.194165 505.529722 
L 431.200543 505.529722 
L 438.206921 505.529722 
L 445.213298 505.529722 
L 452.219676 505.529722 
L 459.226054 505.529722 
L 466.232432 505.529722 
L 473.23881 505.529722 
L 480.245188 505.529722 
L 487.251565 505.529722 
L 494.257943 505.529722 
L 501.264321 505.529722 
L 508.270699 505.529722 
L 515.277077 505.529722 
L 522.283455 505.529722 
L 529.289832 505.529722 
L 536.29621 505.529722 
L 543.302588 505.529722 
L 550.308966 505.529722 
L 557.315344 505.529722 
L 564.321722 505.529722 
L 571.328099 505.529722 
L 578.334477 505.529722 
L 585.340855 505.529722 
L 592.347233 505.529722 
L 599.353611 505.529722 
L 606.359988 505.529722 
L 613.366366 505.529722 
L 620.372744 505.529722 
L 627.379122 505.529722 
L 634.3855 505.529722 
L 641.391878 505.529722 
L 648.398255 505.529722 
L 655.404633 505.529722 
L 662.411011 505.529722 
" clip-path="url(#pa67f1156b0)" style="fill: none; stroke: #ff2c00; stroke-opacity: 0.8; stroke-width: 2; stroke-linecap: round"/>
   </g>
   <g id="line2d_69">
    <path d="M 73.875274 376.178196 
L 80.881652 390.821162 
L 87.888029 396.433087 
L 94.894407 397.189887 
L 101.900785 397.400294 
L 108.907163 399.068674 
L 115.913541 401.62192 
L 122.919919 403.484449 
L 129.926296 403.877035 
L 136.932674 403.387119 
L 143.939052 403.17993 
L 150.94543 403.893778 
L 157.951808 405.289142 
L 164.958185 406.782706 
L 171.964563 408.139182 
L 178.970941 409.610947 
L 185.977319 411.525468 
L 192.983697 413.88992 
L 199.990075 416.455946 
L 206.996452 419.105694 
L 214.00283 422.060949 
L 221.009208 425.64157 
L 228.015586 429.820207 
L 235.021964 434.066298 
L 242.028342 437.694274 
L 249.034719 440.421996 
L 256.041097 442.616754 
L 263.047475 444.983455 
L 270.053853 447.970087 
L 277.060231 451.433278 
L 284.066609 454.860151 
L 291.072986 457.910234 
L 298.079364 460.739008 
L 305.085742 463.797277 
L 312.09212 467.339364 
L 319.098498 471.165639 
L 326.104875 474.863007 
L 333.111253 478.267194 
L 340.117631 481.632442 
L 347.124009 485.314582 
L 354.130387 489.303021 
L 361.136765 493.103364 
L 368.143142 496.105241 
L 375.14952 498.073396 
L 382.155898 499.293837 
L 389.162276 500.27109 
L 396.168654 501.301305 
L 403.175032 502.313367 
L 410.181409 503.062594 
L 417.187787 505.529722 
L 424.194165 505.529722 
L 431.200543 505.529722 
L 438.206921 505.529722 
L 445.213298 505.529722 
L 452.219676 505.529722 
L 459.226054 505.529722 
L 466.232432 505.529722 
L 473.23881 505.529722 
L 480.245188 505.529722 
L 487.251565 505.529722 
L 494.257943 505.529722 
L 501.264321 505.529722 
L 508.270699 505.529722 
L 515.277077 505.529722 
L 522.283455 505.529722 
L 529.289832 505.529722 
L 536.29621 505.529722 
L 543.302588 505.529722 
L 550.308966 505.529722 
L 557.315344 505.529722 
L 564.321722 505.529722 
L 571.328099 505.529722 
L 578.334477 505.529722 
L 585.340855 505.529722 
L 592.347233 505.529722 
L 599.353611 505.529722 
L 606.359988 505.529722 
L 613.366366 505.529722 
L 620.372744 505.529722 
L 627.379122 505.529722 
L 634.3855 505.529722 
L 641.391878 505.529722 
L 648.398255 505.529722 
L 655.404633 505.529722 
L 662.411011 505.529722 
" clip-path="url(#pa67f1156b0)" style="fill: none; stroke: #845b97; stroke-opacity: 0.8; stroke-width: 2; stroke-linecap: round"/>
   </g>
   <g id="line2d_70">
    <path d="M 73.875274 376.178196 
L 80.881652 374.940896 
L 87.888029 374.230499 
L 94.894407 374.056338 
L 101.900785 374.421957 
L 108.907163 375.325026 
L 115.913541 376.757363 
L 122.919919 378.70504 
L 129.926296 381.148586 
L 136.932674 384.063267 
L 143.939052 387.419465 
L 150.94543 391.183117 
L 157.951808 395.316233 
L 164.958185 399.777467 
L 171.964563 404.522735 
L 178.970941 409.505873 
L 185.977319 414.679312 
L 192.983697 419.994775 
L 199.990075 425.403958 
L 206.996452 430.85921 
L 214.00283 436.314176 
L 221.009208 441.724413 
L 228.015586 447.047945 
L 235.021964 452.245774 
L 242.028342 457.282314 
L 249.034719 462.125763 
L 256.041097 466.748388 
L 263.047475 471.126741 
L 270.053853 475.241782 
L 277.060231 479.078931 
L 284.066609 482.628039 
L 291.072986 485.883272 
L 298.079364 488.842945 
L 305.085742 491.509271 
L 312.09212 493.888068 
L 319.098498 495.98841 
L 326.104875 497.822241 
L 333.111253 499.403963 
L 340.117631 500.749996 
L 347.124009 501.878342 
L 354.130387 502.808132 
L 361.136765 505.529722 
L 368.143142 505.529722 
L 375.14952 505.529722 
L 382.155898 505.529722 
L 389.162276 505.529722 
L 396.168654 505.529722 
L 403.175032 505.529722 
L 410.181409 505.529722 
L 417.187787 505.529722 
L 424.194165 505.529722 
L 431.200543 505.529722 
L 438.206921 505.529722 
L 445.213298 505.529722 
L 452.219676 505.529722 
L 459.226054 505.529722 
L 466.232432 505.529722 
L 473.23881 505.529722 
L 480.245188 505.529722 
L 487.251565 505.529722 
L 494.257943 505.529722 
L 501.264321 505.529722 
L 508.270699 505.529722 
L 515.277077 505.529722 
L 522.283455 505.529722 
L 529.289832 505.529722 
L 536.29621 505.529722 
L 543.302588 505.529722 
L 550.308966 505.529722 
L 557.315344 505.529722 
L 564.321722 505.529722 
L 571.328099 505.529722 
L 578.334477 505.529722 
L 585.340855 505.529722 
L 592.347233 505.529722 
L 599.353611 505.529722 
L 606.359988 505.529722 
L 613.366366 505.529722 
L 620.372744 505.529722 
L 627.379122 505.529722 
L 634.3855 505.529722 
L 641.391878 505.529722 
L 648.398255 505.529722 
L 655.404633 505.529722 
L 662.411011 505.529722 
" clip-path="url(#pa67f1156b0)" style="fill: none; stroke: #474747; stroke-opacity: 0.8; stroke-width: 2; stroke-linecap: round"/>
   </g>
   <g id="line2d_71">
    <path d="M 73.875274 376.178196 
L 80.881652 374.600604 
L 87.888029 373.042612 
L 94.894407 371.328766 
L 101.900785 369.402366 
L 108.907163 367.334911 
L 115.913541 365.307624 
L 122.919919 363.569123 
L 129.926296 362.378946 
L 136.932674 361.950155 
L 143.939052 362.404533 
L 150.94543 363.75077 
L 157.951808 365.890327 
L 164.958185 368.648643 
L 171.964563 371.823036 
L 178.970941 375.234515 
L 185.977319 378.770012 
L 192.983697 382.404323 
L 199.990075 386.196625 
L 206.996452 390.263205 
L 214.00283 394.73429 
L 221.009208 399.706843 
L 228.015586 405.205995 
L 235.021964 411.165234 
L 242.028342 417.430357 
L 249.034719 423.785945 
L 256.041097 429.997406 
L 263.047475 435.857857 
L 270.053853 441.228256 
L 277.060231 446.061225 
L 284.066609 450.403395 
L 291.072986 454.376501 
L 298.079364 458.142607 
L 305.085742 461.862343 
L 312.09212 465.656234 
L 319.098498 469.577882 
L 326.104875 473.604408 
L 333.111253 477.645166 
L 340.117631 481.565374 
L 347.124009 485.218102 
L 354.130387 488.476601 
L 361.136765 491.259613 
L 368.143142 493.544541 
L 375.14952 495.366733 
L 382.155898 496.806492 
L 389.162276 497.968165 
L 396.168654 498.956968 
L 403.175032 499.859088 
L 410.181409 500.729103 
L 417.187787 501.586487 
L 424.194165 502.420557 
L 431.200543 503.201295 
L 438.206921 505.529722 
L 445.213298 505.529722 
L 452.219676 505.529722 
L 459.226054 505.529722 
L 466.232432 505.529722 
L 473.23881 505.529722 
L 480.245188 505.529722 
L 487.251565 505.529722 
L 494.257943 505.529722 
L 501.264321 505.529722 
L 508.270699 505.529722 
L 515.277077 505.529722 
L 522.283455 505.529722 
L 529.289832 505.529722 
L 536.29621 505.529722 
L 543.302588 505.529722 
L 550.308966 505.529722 
L 557.315344 505.529722 
L 564.321722 505.529722 
L 571.328099 505.529722 
L 578.334477 505.529722 
L 585.340855 505.529722 
L 592.347233 505.529722 
L 599.353611 505.529722 
L 606.359988 505.529722 
L 613.366366 505.529722 
L 620.372744 505.529722 
L 627.379122 505.529722 
L 634.3855 505.529722 
L 641.391878 505.529722 
L 648.398255 505.529722 
L 655.404633 505.529722 
L 662.411011 505.529722 
" clip-path="url(#pa67f1156b0)" style="fill: none; stroke: #9e9e9e; stroke-opacity: 0.8; stroke-width: 2; stroke-linecap: round"/>
   </g>
   <g id="line2d_72">
    <path d="M 73.875274 376.178196 
L 80.881652 373.489506 
L 87.888029 371.345282 
L 94.894407 369.641693 
L 101.900785 368.257687 
L 108.907163 367.070045 
L 115.913541 365.969121 
L 122.919919 364.873453 
L 129.926296 363.741473 
L 136.932674 362.57875 
L 143.939052 361.439692 
L 150.94543 360.423252 
L 157.951808 359.662922 
L 164.958185 359.312049 
L 171.964563 359.526152 
L 178.970941 360.444384 
L 185.977319 362.172472 
L 192.983697 364.76934 
L 199.990075 368.23918 
L 206.996452 372.53006 
L 214.00283 377.539246 
L 221.009208 383.124522 
L 228.015586 389.119937 
L 235.021964 395.353787 
L 242.028342 401.666339 
L 249.034719 407.92485 
L 256.041097 414.033908 
L 263.047475 419.9398 
L 270.053853 425.628605 
L 277.060231 431.118615 
L 284.066609 436.448605 
L 291.072986 441.664018 
L 298.079364 446.80343 
L 305.085742 451.887481 
L 312.09212 456.912007 
L 319.098498 461.846294 
L 326.104875 466.636516 
L 333.111253 471.213521 
L 340.117631 475.503436 
L 347.124009 479.439136 
L 354.130387 482.970573 
L 361.136765 486.072223 
L 368.143142 488.746511 
L 375.14952 491.02278 
L 382.155898 492.952184 
L 389.162276 494.599547 
L 396.168654 496.033691 
L 403.175032 497.317917 
L 410.181409 498.502198 
L 417.187787 499.61824 
L 424.194165 500.678023 
L 431.200543 501.675782 
L 438.206921 502.592813 
L 445.213298 505.529722 
L 452.219676 505.529722 
L 459.226054 505.529722 
L 466.232432 505.529722 
L 473.23881 505.529722 
L 480.245188 505.529722 
L 487.251565 505.529722 
L 494.257943 505.529722 
L 501.264321 505.529722 
L 508.270699 505.529722 
L 515.277077 505.529722 
L 522.283455 505.529722 
L 529.289832 505.529722 
L 536.29621 505.529722 
L 543.302588 505.529722 
L 550.308966 505.529722 
L 557.315344 505.529722 
L 564.321722 505.529722 
L 571.328099 505.529722 
L 578.334477 505.529722 
L 585.340855 505.529722 
L 592.347233 505.529722 
L 599.353611 505.529722 
L 606.359988 505.529722 
L 613.366366 505.529722 
L 620.372744 505.529722 
L 627.379122 505.529722 
L 634.3855 505.529722 
L 641.391878 505.529722 
L 648.398255 505.529722 
L 655.404633 505.529722 
L 662.411011 505.529722 
" clip-path="url(#pa67f1156b0)" style="fill: none; stroke: #0c5da5; stroke-opacity: 0.8; stroke-width: 2; stroke-linecap: round"/>
   </g>
   <g id="line2d_73">
    <path d="M 73.875274 376.178196 
L 80.881652 377.568367 
L 87.888029 379.085107 
L 94.894407 380.46255 
L 101.900785 381.551558 
L 108.907163 382.342545 
L 115.913541 382.962727 
L 122.919919 383.647665 
L 129.926296 384.692018 
L 136.932674 386.388797 
L 143.939052 388.968954 
L 150.94543 392.553262 
L 157.951808 397.126073 
L 164.958185 402.536015 
L 171.964563 408.523114 
L 178.970941 414.766259 
L 185.977319 420.940802 
L 192.983697 426.77415 
L 199.990075 432.088013 
L 206.996452 436.819267 
L 214.00283 441.016316 
L 221.009208 444.813372 
L 228.015586 448.389704 
L 235.021964 451.923854 
L 242.028342 455.553183 
L 249.034719 459.34717 
L 256.041097 463.299061 
L 263.047475 467.335822 
L 270.053853 471.342103 
L 277.060231 475.19098 
L 284.066609 478.773361 
L 291.072986 482.019083 
L 298.079364 484.905543 
L 305.085742 487.453272 
L 312.09212 489.711296 
L 319.098498 491.737472 
L 326.104875 493.579775 
L 333.111253 495.263623 
L 340.117631 496.788194 
L 347.124009 498.1319 
L 354.130387 499.264604 
L 361.136765 500.162466 
L 368.143142 500.820842 
L 375.14952 501.261475 
L 382.155898 501.532068 
L 389.162276 501.698481 
L 396.168654 501.831845 
L 403.175032 501.994133 
L 410.181409 505.529722 
L 417.187787 502.539838 
L 424.194165 505.529722 
L 431.200543 505.529722 
L 438.206921 505.529722 
L 445.213298 505.529722 
L 452.219676 505.529722 
L 459.226054 505.529722 
L 466.232432 505.529722 
L 473.23881 505.529722 
L 480.245188 505.529722 
L 487.251565 505.529722 
L 494.257943 505.529722 
L 501.264321 505.529722 
L 508.270699 505.529722 
L 515.277077 505.529722 
L 522.283455 505.529722 
L 529.289832 505.529722 
L 536.29621 505.529722 
L 543.302588 505.529722 
L 550.308966 505.529722 
L 557.315344 505.529722 
L 564.321722 505.529722 
L 571.328099 505.529722 
L 578.334477 505.529722 
L 585.340855 505.529722 
L 592.347233 505.529722 
L 599.353611 505.529722 
L 606.359988 505.529722 
L 613.366366 505.529722 
L 620.372744 505.529722 
L 627.379122 505.529722 
L 634.3855 505.529722 
L 641.391878 505.529722 
L 648.398255 505.529722 
L 655.404633 505.529722 
L 662.411011 505.529722 
" clip-path="url(#pa67f1156b0)" style="fill: none; stroke: #00b945; stroke-opacity: 0.8; stroke-width: 2; stroke-linecap: round"/>
   </g>
   <g id="line2d_74">
    <path d="M 73.875274 376.178196 
L 80.881652 369.79765 
L 87.888029 364.532971 
L 94.894407 360.142912 
L 101.900785 356.231829 
L 108.907163 352.332168 
L 115.913541 348.01453 
L 122.919919 343.003702 
L 129.926296 337.274368 
L 136.932674 331.101711 
L 143.939052 325.050383 
L 150.94543 319.898871 
L 157.951808 316.511962 
L 164.958185 315.687674 
L 171.964563 318.012492 
L 178.970941 323.757583 
L 185.977319 332.838639 
L 192.983697 344.845715 
L 199.990075 359.131413 
L 206.996452 374.931462 
L 214.00283 391.485251 
L 221.009208 408.127209 
L 228.015586 424.331669 
L 235.021964 439.710057 
L 242.028342 453.974395 
L 249.034719 466.8903 
L 256.041097 478.243067 
L 263.047475 487.832349 
L 270.053853 505.529722 
L 277.060231 505.529722 
L 284.066609 505.529722 
L 291.072986 505.529722 
L 298.079364 505.529722 
L 305.085742 505.529722 
L 312.09212 505.529722 
L 319.098498 505.529722 
L 326.104875 505.529722 
L 333.111253 505.529722 
L 340.117631 505.529722 
L 347.124009 505.529722 
L 354.130387 505.529722 
L 361.136765 505.529722 
L 368.143142 505.529722 
L 375.14952 505.529722 
L 382.155898 505.529722 
L 389.162276 505.529722 
L 396.168654 505.529722 
L 403.175032 505.529722 
L 410.181409 505.529722 
L 417.187787 505.529722 
L 424.194165 505.529722 
L 431.200543 505.529722 
L 438.206921 505.529722 
L 445.213298 505.529722 
L 452.219676 505.529722 
L 459.226054 505.529722 
L 466.232432 505.529722 
L 473.23881 505.529722 
L 480.245188 505.529722 
L 487.251565 505.529722 
L 494.257943 505.529722 
L 501.264321 505.529722 
L 508.270699 505.529722 
L 515.277077 505.529722 
L 522.283455 505.529722 
L 529.289832 505.529722 
L 536.29621 505.529722 
L 543.302588 505.529722 
L 550.308966 505.529722 
L 557.315344 505.529722 
L 564.321722 505.529722 
L 571.328099 505.529722 
L 578.334477 505.529722 
L 585.340855 505.529722 
L 592.347233 505.529722 
L 599.353611 505.529722 
L 606.359988 505.529722 
L 613.366366 505.529722 
L 620.372744 505.529722 
L 627.379122 505.529722 
L 634.3855 505.529722 
L 641.391878 505.529722 
L 648.398255 505.529722 
L 655.404633 505.529722 
L 662.411011 505.529722 
" clip-path="url(#pa67f1156b0)" style="fill: none; stroke: #ff9500; stroke-opacity: 0.8; stroke-width: 2; stroke-linecap: round"/>
   </g>
   <g id="line2d_75">
    <path d="M 73.875274 376.178196 
L 80.881652 380.017157 
L 87.888029 382.088883 
L 94.894407 381.156458 
L 101.900785 376.485735 
L 108.907163 368.064889 
L 115.913541 356.680996 
L 122.919919 343.813517 
L 129.926296 331.351475 
L 136.932674 321.194008 
L 143.939052 314.835918 
L 150.94543 313.05406 
L 157.951808 315.788108 
L 164.958185 322.253347 
L 171.964563 331.250135 
L 178.970941 341.569076 
L 185.977319 352.357099 
L 192.983697 363.322003 
L 199.990075 374.709556 
L 206.996452 387.068917 
L 214.00283 400.899387 
L 221.009208 416.315085 
L 228.015586 432.856901 
L 235.021964 449.525013 
L 242.028342 465.021505 
L 249.034719 478.113563 
L 256.041097 487.983911 
L 263.047475 494.443262 
L 270.053853 497.93529 
L 277.060231 505.529722 
L 284.066609 505.529722 
L 291.072986 505.529722 
L 298.079364 505.529722 
L 305.085742 505.529722 
L 312.09212 505.529722 
L 319.098498 505.529722 
L 326.104875 505.529722 
L 333.111253 505.529722 
L 340.117631 505.529722 
L 347.124009 505.529722 
L 354.130387 505.529722 
L 361.136765 505.529722 
L 368.143142 505.529722 
L 375.14952 505.529722 
L 382.155898 505.529722 
L 389.162276 505.529722 
L 396.168654 505.529722 
L 403.175032 505.529722 
L 410.181409 505.529722 
L 417.187787 505.529722 
L 424.194165 505.529722 
L 431.200543 505.529722 
L 438.206921 505.529722 
L 445.213298 505.529722 
L 452.219676 505.529722 
L 459.226054 505.529722 
L 466.232432 505.529722 
L 473.23881 505.529722 
L 480.245188 505.529722 
L 487.251565 505.529722 
L 494.257943 505.529722 
L 501.264321 505.529722 
L 508.270699 505.529722 
L 515.277077 505.529722 
L 522.283455 505.529722 
L 529.289832 505.529722 
L 536.29621 505.529722 
L 543.302588 505.529722 
L 550.308966 505.529722 
L 557.315344 505.529722 
L 564.321722 505.529722 
L 571.328099 505.529722 
L 578.334477 505.529722 
L 585.340855 505.529722 
L 592.347233 505.529722 
L 599.353611 505.529722 
L 606.359988 505.529722 
L 613.366366 505.529722 
L 620.372744 505.529722 
L 627.379122 505.529722 
L 634.3855 505.529722 
L 641.391878 505.529722 
L 648.398255 505.529722 
L 655.404633 505.529722 
L 662.411011 505.529722 
" clip-path="url(#pa67f1156b0)" style="fill: none; stroke: #ff2c00; stroke-opacity: 0.8; stroke-width: 2; stroke-linecap: round"/>
   </g>
   <g id="line2d_76">
    <path d="M 73.875274 376.178196 
L 80.881652 314.455193 
L 87.888029 275.135068 
L 94.894407 254.225843 
L 101.900785 242.485395 
L 108.907163 230.196487 
L 115.913541 211.73526 
L 122.919919 187.781031 
L 129.926296 164.264095 
L 136.932674 148.821842 
L 143.939052 146.738044 
L 150.94543 158.466165 
L 157.951808 179.874056 
L 164.958185 204.854066 
L 171.964563 228.724144 
L 178.970941 250.521713 
L 185.977319 272.989932 
L 192.983697 300.36756 
L 199.990075 335.302922 
L 206.996452 376.670303 
L 214.00283 419.530584 
L 221.009208 457.247712 
L 228.015586 505.529722 
L 235.021964 505.529722 
L 242.028342 505.529722 
L 249.034719 505.529722 
L 256.041097 505.529722 
L 263.047475 505.529722 
L 270.053853 505.529722 
L 277.060231 505.529722 
L 284.066609 505.529722 
L 291.072986 505.529722 
L 298.079364 505.529722 
L 305.085742 505.529722 
L 312.09212 505.529722 
L 319.098498 505.529722 
L 326.104875 505.529722 
L 333.111253 505.529722 
L 340.117631 505.529722 
L 347.124009 505.529722 
L 354.130387 505.529722 
L 361.136765 505.529722 
L 368.143142 505.529722 
L 375.14952 505.529722 
L 382.155898 505.529722 
L 389.162276 505.529722 
L 396.168654 505.529722 
L 403.175032 505.529722 
L 410.181409 505.529722 
L 417.187787 505.529722 
L 424.194165 505.529722 
L 431.200543 505.529722 
L 438.206921 505.529722 
L 445.213298 505.529722 
L 452.219676 505.529722 
L 459.226054 505.529722 
L 466.232432 505.529722 
L 473.23881 505.529722 
L 480.245188 505.529722 
L 487.251565 505.529722 
L 494.257943 505.529722 
L 501.264321 505.529722 
L 508.270699 505.529722 
L 515.277077 505.529722 
L 522.283455 505.529722 
L 529.289832 505.529722 
L 536.29621 505.529722 
L 543.302588 505.529722 
L 550.308966 505.529722 
L 557.315344 505.529722 
L 564.321722 505.529722 
L 571.328099 505.529722 
L 578.334477 505.529722 
L 585.340855 505.529722 
L 592.347233 505.529722 
L 599.353611 505.529722 
L 606.359988 505.529722 
L 613.366366 505.529722 
L 620.372744 505.529722 
L 627.379122 505.529722 
L 634.3855 505.529722 
L 641.391878 505.529722 
L 648.398255 505.529722 
L 655.404633 505.529722 
L 662.411011 505.529722 
" clip-path="url(#pa67f1156b0)" style="fill: none; stroke: #845b97; stroke-opacity: 0.8; stroke-width: 2; stroke-linecap: round"/>
   </g>
   <g id="line2d_77">
    <path d="M 73.875274 376.178196 
L 80.881652 358.930837 
L 87.888029 349.561364 
L 94.894407 343.026356 
L 101.900785 334.222612 
L 108.907163 320.949878 
L 115.913541 304.905153 
L 122.919919 290.134832 
L 129.926296 280.090565 
L 136.932674 275.363512 
L 143.939052 273.612358 
L 150.94543 271.570175 
L 157.951808 267.543323 
L 164.958185 262.584742 
L 171.964563 259.632634 
L 178.970941 261.432091 
L 185.977319 268.833081 
L 192.983697 280.585732 
L 199.990075 294.528152 
L 206.996452 309.088452 
L 214.00283 323.990626 
L 221.009208 339.848634 
L 228.015586 357.226368 
L 235.021964 376.028177 
L 242.028342 395.628023 
L 249.034719 415.419992 
L 256.041097 435.127608 
L 263.047475 454.51914 
L 270.053853 472.825535 
L 277.060231 488.528917 
L 284.066609 505.529722 
L 291.072986 505.529722 
L 298.079364 505.529722 
L 305.085742 505.529722 
L 312.09212 505.529722 
L 319.098498 505.529722 
L 326.104875 505.529722 
L 333.111253 505.529722 
L 340.117631 505.529722 
L 347.124009 505.529722 
L 354.130387 505.529722 
L 361.136765 505.529722 
L 368.143142 505.529722 
L 375.14952 505.529722 
L 382.155898 505.529722 
L 389.162276 505.529722 
L 396.168654 505.529722 
L 403.175032 505.529722 
L 410.181409 505.529722 
L 417.187787 505.529722 
L 424.194165 505.529722 
L 431.200543 505.529722 
L 438.206921 505.529722 
L 445.213298 505.529722 
L 452.219676 505.529722 
L 459.226054 505.529722 
L 466.232432 505.529722 
L 473.23881 505.529722 
L 480.245188 505.529722 
L 487.251565 505.529722 
L 494.257943 505.529722 
L 501.264321 505.529722 
L 508.270699 505.529722 
L 515.277077 505.529722 
L 522.283455 505.529722 
L 529.289832 505.529722 
L 536.29621 505.529722 
L 543.302588 505.529722 
L 550.308966 505.529722 
L 557.315344 505.529722 
L 564.321722 505.529722 
L 571.328099 505.529722 
L 578.334477 505.529722 
L 585.340855 505.529722 
L 592.347233 505.529722 
L 599.353611 505.529722 
L 606.359988 505.529722 
L 613.366366 505.529722 
L 620.372744 505.529722 
L 627.379122 505.529722 
L 634.3855 505.529722 
L 641.391878 505.529722 
L 648.398255 505.529722 
L 655.404633 505.529722 
L 662.411011 505.529722 
" clip-path="url(#pa67f1156b0)" style="fill: none; stroke: #474747; stroke-opacity: 0.8; stroke-width: 2; stroke-linecap: round"/>
   </g>
   <g id="patch_3">
    <path d="M 44.448487 528.68419 
L 44.448487 19.285876 
" style="fill: none; stroke: #262626; stroke-width: 1.5; stroke-linejoin: miter; stroke-linecap: square"/>
   </g>
   <g id="patch_4">
    <path d="M 691.837798 528.68419 
L 691.837798 19.285876 
" style="fill: none; stroke: #262626; stroke-width: 1.5; stroke-linejoin: miter; stroke-linecap: square"/>
   </g>
   <g id="patch_5">
    <path d="M 44.448487 528.68419 
L 691.837798 528.68419 
" style="fill: none; stroke: #262626; stroke-width: 1.5; stroke-linejoin: miter; stroke-linecap: square"/>
   </g>
   <g id="patch_6">
    <path d="M 44.448487 19.285876 
L 691.837798 19.285876 
" style="fill: none; stroke: #262626; stroke-width: 1.5; stroke-linejoin: miter; stroke-linecap: square"/>
   </g>
   <g id="text_16">
    <!-- Time Series of Outlier Wells - Normalized Wound Area -->
    <g style="fill: #262626" transform="translate(211.402087 13.285876) scale(0.14 -0.14)">
     <defs>
      <path id="CMSS17-53" d="M 2797 4230 
C 2515 4396 2208 4544 1690 4544 
C 864 4544 333 3934 333 3309 
C 333 3064 403 2787 653 2504 
C 902 2220 1184 2143 1542 2053 
C 1690 2014 1939 1943 1984 1924 
C 2342 1782 2515 1454 2515 1144 
C 2515 738 2202 307 1645 307 
C 1453 307 890 339 358 829 
L 269 320 
C 794 -64 1363 -128 1651 -128 
C 2438 -128 3002 494 3002 1202 
C 3002 1460 2925 1789 2656 2092 
C 2394 2381 2163 2446 1638 2588 
C 1338 2665 1146 2717 986 2916 
C 877 3058 819 3193 819 3367 
C 819 3728 1126 4121 1690 4121 
C 1971 4121 2336 4063 2707 3715 
L 2797 4230 
z
" transform="scale(0.015625)"/>
      <path id="CMSS17-73" d="M 2061 2623 
C 1683 2803 1389 2816 1197 2816 
C 742 2816 198 2655 198 2009 
C 198 1363 902 1222 1094 1183 
C 1389 1126 1715 1062 1715 742 
C 1715 339 1254 339 1171 339 
C 915 339 563 409 243 639 
L 166 211 
C 531 0 883 -64 1178 -64 
C 1965 -64 2163 416 2163 780 
C 2163 1094 1984 1305 1862 1401 
C 1651 1567 1574 1587 1050 1695 
C 960 1708 646 1779 646 2067 
C 646 2431 1050 2431 1139 2431 
C 1555 2431 1811 2303 1984 2207 
L 2061 2623 
z
" transform="scale(0.015625)"/>
      <path id="CMSS17-66" d="M 1075 2380 
L 1722 2380 
L 1722 2752 
L 1062 2752 
L 1062 3563 
C 1062 4013 1408 4089 1606 4089 
C 1670 4089 1850 4089 2080 4007 
L 2080 4428 
C 1933 4460 1754 4480 1613 4480 
C 1018 4480 602 3994 602 3366 
L 602 2752 
L 160 2752 
L 160 2380 
L 602 2380 
L 602 0 
L 1075 0 
L 1075 2380 
z
" transform="scale(0.015625)"/>
      <path id="CMSS17-4f" d="M 4096 2201 
C 4096 3541 3219 4544 2214 4544 
C 1210 4544 333 3535 333 2201 
C 333 855 1222 -128 2214 -128 
C 3206 -128 4096 855 4096 2201 
z
M 2214 275 
C 1510 275 870 1067 870 2285 
C 870 3470 1549 4140 2214 4140 
C 2880 4140 3558 3470 3558 2285 
C 3558 1061 2912 275 2214 275 
z
" transform="scale(0.015625)"/>
      <path id="CMSS17-74" d="M 1069 2380 
L 1901 2380 
L 1901 2752 
L 1069 2752 
L 1069 3520 
L 614 3520 
L 614 2752 
L 109 2752 
L 109 2380 
L 602 2380 
L 602 751 
C 602 384 685 -64 1107 -64 
C 1427 -64 1722 25 2003 172 
L 1901 551 
C 1747 416 1562 339 1363 339 
C 1082 339 1069 699 1069 860 
L 1069 2380 
z
" transform="scale(0.015625)"/>
      <path id="CMSS17-2d" d="M 1664 1216 
L 1664 1587 
L 64 1587 
L 64 1216 
L 1664 1216 
z
" transform="scale(0.015625)"/>
     </defs>
     <use xlink:href="#CMSS17-54" transform="scale(0.996264)"/>
     <use xlink:href="#CMSS17-69" transform="translate(63.819454 0) scale(0.996264)"/>
     <use xlink:href="#CMSS17-6d" transform="translate(86.000177 0) scale(0.996264)"/>
     <use xlink:href="#CMSS17-65" transform="translate(160.229431 0) scale(0.996264)"/>
     <use xlink:href="#CMSS17-53" transform="translate(233.097366 0) scale(0.996264)"/>
     <use xlink:href="#CMSS17-65" transform="translate(285.145882 0) scale(0.996264)"/>
     <use xlink:href="#CMSS17-72" transform="translate(326.784704 0) scale(0.996264)"/>
     <use xlink:href="#CMSS17-69" transform="translate(358.694477 0) scale(0.996264)"/>
     <use xlink:href="#CMSS17-65" transform="translate(380.8752 0) scale(0.996264)"/>
     <use xlink:href="#CMSS17-73" transform="translate(422.514022 0) scale(0.996264)"/>
     <use xlink:href="#CMSS17-6f" transform="translate(489.656677 0) scale(0.996264)"/>
     <use xlink:href="#CMSS17-66" transform="translate(536.5003 0) scale(0.996264)"/>
     <use xlink:href="#CMSS17-4f" transform="translate(596.356072 0) scale(0.996264)"/>
     <use xlink:href="#CMSS17-75" transform="translate(665.380327 0) scale(0.996264)"/>
     <use xlink:href="#CMSS17-74" transform="translate(713.58527 0) scale(0.996264)"/>
     <use xlink:href="#CMSS17-6c" transform="translate(747.416837 0) scale(0.996264)"/>
     <use xlink:href="#CMSS17-69" transform="translate(769.59756 0) scale(0.996264)"/>
     <use xlink:href="#CMSS17-65" transform="translate(791.778283 0) scale(0.996264)"/>
     <use xlink:href="#CMSS17-72" transform="translate(833.417105 0) scale(0.996264)"/>
     <use xlink:href="#CMSS17-57" transform="translate(896.555991 0) scale(0.996264)"/>
     <use xlink:href="#CMSS17-65" transform="translate(982.195703 0) scale(0.996264)"/>
     <use xlink:href="#CMSS17-6c" transform="translate(1023.834525 0) scale(0.996264)"/>
     <use xlink:href="#CMSS17-6c" transform="translate(1046.015248 0) scale(0.996264)"/>
     <use xlink:href="#CMSS17-73" transform="translate(1068.195971 0) scale(0.996264)"/>
     <use xlink:href="#CMSS17-2d" transform="translate(1135.338626 0) scale(0.996264)"/>
     <use xlink:href="#CMSS17-4e" transform="translate(1197.796851 0) scale(0.996264)"/>
     <use xlink:href="#CMSS17-6f" transform="translate(1263.85837 0) scale(0.996264)"/>
     <use xlink:href="#CMSS17-72" transform="translate(1308.09954 0) scale(0.996264)"/>
     <use xlink:href="#CMSS17-6d" transform="translate(1340.009313 0) scale(0.996264)"/>
     <use xlink:href="#CMSS17-61" transform="translate(1414.238567 0) scale(0.996264)"/>
     <use xlink:href="#CMSS17-6c" transform="translate(1459.160488 0) scale(0.996264)"/>
     <use xlink:href="#CMSS17-69" transform="translate(1481.341211 0) scale(0.996264)"/>
     <use xlink:href="#CMSS17-7a" transform="translate(1503.521934 0) scale(0.996264)"/>
     <use xlink:href="#CMSS17-65" transform="translate(1544.199806 0) scale(0.996264)"/>
     <use xlink:href="#CMSS17-64" transform="translate(1585.838628 0) scale(0.996264)"/>
     <use xlink:href="#CMSS17-57" transform="translate(1665.272683 0) scale(0.996264)"/>
     <use xlink:href="#CMSS17-6f" transform="translate(1750.912396 0) scale(0.996264)"/>
     <use xlink:href="#CMSS17-75" transform="translate(1797.756019 0) scale(0.996264)"/>
     <use xlink:href="#CMSS17-6e" transform="translate(1845.960962 0) scale(0.996264)"/>
     <use xlink:href="#CMSS17-64" transform="translate(1894.165906 0) scale(0.996264)"/>
     <use xlink:href="#CMSS17-41" transform="translate(1973.599961 0) scale(0.996264)"/>
     <use xlink:href="#CMSS17-72" transform="translate(2035.817816 0) scale(0.996264)"/>
     <use xlink:href="#CMSS17-65" transform="translate(2067.727589 0) scale(0.996264)"/>
     <use xlink:href="#CMSS17-61" transform="translate(2109.366411 0) scale(0.996264)"/>
    </g>
   </g>
   <g id="legend_1">
    <g id="line2d_78">
     <path d="M 738.607264 39.285876 
L 754.607264 39.285876 
L 770.607264 39.285876 
" style="fill: none; stroke: #000000; stroke-opacity: 0.8; stroke-width: 2; stroke-linecap: round"/>
    </g>
    <g id="text_17">
     <!-- mean -->
     <g style="fill: #262626" transform="translate(783.407264 44.885876) scale(0.16 -0.16)">
      <use xlink:href="#CMSS17-6d" transform="scale(0.996264)"/>
      <use xlink:href="#CMSS17-65" transform="translate(74.229254 0) scale(0.996264)"/>
      <use xlink:href="#CMSS17-61" transform="translate(115.868077 0) scale(0.996264)"/>
      <use xlink:href="#CMSS17-6e" transform="translate(160.789997 0) scale(0.996264)"/>
     </g>
    </g>
    <g id="line2d_79">
     <path d="M 738.607264 61.585353 
L 754.607264 61.585353 
L 770.607264 61.585353 
" style="fill: none; stroke: #0c5da5; stroke-opacity: 0.8; stroke-width: 2; stroke-linecap: round"/>
    </g>
    <g id="text_18">
     <!-- s004_A04 -->
     <g style="fill: #262626" transform="translate(783.407264 67.185353) scale(0.16 -0.16)">
      <use xlink:href="#CMSS17-73" transform="scale(0.996264)"/>
      <use xlink:href="#CMSS17-30" transform="translate(35.913542 0) scale(0.996264)"/>
      <use xlink:href="#CMSS17-30" transform="translate(82.757166 0) scale(0.996264)"/>
      <use xlink:href="#CMSS17-34" transform="translate(129.600789 0) scale(0.996264)"/>
      <use xlink:href="#CMSS17-41" transform="translate(210.171908 0) scale(0.996264)"/>
      <use xlink:href="#CMSS17-30" transform="translate(272.389763 0) scale(0.996264)"/>
      <use xlink:href="#CMSS17-34" transform="translate(319.233386 0) scale(0.996264)"/>
      <path d="M 182.065424 0 
L 210.171908 0 
L 210.171908 0.3985 
L 182.065424 0.3985 
L 182.065424 0 
z
"/>
     </g>
    </g>
    <g id="line2d_80">
     <path d="M 738.607264 83.884829 
L 754.607264 83.884829 
L 770.607264 83.884829 
" style="fill: none; stroke: #00b945; stroke-opacity: 0.8; stroke-width: 2; stroke-linecap: round"/>
    </g>
    <g id="text_19">
     <!-- s011_B11 -->
     <g style="fill: #262626" transform="translate(783.407264 89.484829) scale(0.16 -0.16)">
      <defs>
       <path id="CMSS17-42" d="M 570 4416 
L 570 0 
L 2163 0 
C 3034 0 3667 575 3667 1200 
C 3667 1684 3251 2175 2502 2316 
C 3334 2559 3501 3039 3501 3311 
C 3501 3880 2874 4416 1997 4416 
L 570 4416 
z
M 1088 2496 
L 1088 4057 
L 1824 4057 
C 2483 4057 3002 3722 3002 3305 
C 3002 2925 2592 2496 1766 2496 
L 1088 2496 
z
M 1088 358 
L 1088 2105 
L 1939 2105 
C 2630 2105 3162 1678 3162 1206 
C 3162 772 2694 358 1984 358 
L 1088 358 
z
" transform="scale(0.015625)"/>
      </defs>
      <use xlink:href="#CMSS17-73" transform="scale(0.996264)"/>
      <use xlink:href="#CMSS17-30" transform="translate(35.913542 0) scale(0.996264)"/>
      <use xlink:href="#CMSS17-31" transform="translate(82.757166 0) scale(0.996264)"/>
      <use xlink:href="#CMSS17-31" transform="translate(129.600789 0) scale(0.996264)"/>
      <use xlink:href="#CMSS17-42" transform="translate(210.171908 0) scale(0.996264)"/>
      <use xlink:href="#CMSS17-31" transform="translate(272.509948 0) scale(0.996264)"/>
      <use xlink:href="#CMSS17-31" transform="translate(319.353572 0) scale(0.996264)"/>
      <path d="M 182.065424 0 
L 210.171908 0 
L 210.171908 0.3985 
L 182.065424 0.3985 
L 182.065424 0 
z
"/>
     </g>
    </g>
    <g id="line2d_81">
     <path d="M 738.607264 106.184305 
L 754.607264 106.184305 
L 770.607264 106.184305 
" style="fill: none; stroke: #ff9500; stroke-opacity: 0.8; stroke-width: 2; stroke-linecap: round"/>
    </g>
    <g id="text_20">
     <!-- s018_B04 -->
     <g style="fill: #262626" transform="translate(783.407264 111.784305) scale(0.16 -0.16)">
      <defs>
       <path id="CMSS17-38" d="M 1933 2246 
C 2419 2406 2669 2793 2669 3174 
C 2669 3774 2157 4288 1504 4288 
C 826 4288 333 3755 333 3174 
C 333 2799 576 2412 1069 2246 
C 442 2003 250 1516 250 1152 
C 250 448 819 -128 1498 -128 
C 2202 -128 2752 460 2752 1152 
C 2752 1574 2502 2022 1933 2246 
z
M 1504 2438 
C 1075 2438 787 2728 787 3167 
C 787 3613 1075 3897 1504 3897 
C 1901 3897 2214 3639 2214 3167 
C 2214 2703 1907 2438 1504 2438 
z
M 1504 268 
C 1139 268 749 518 749 1158 
C 749 1817 1184 2048 1498 2048 
C 1843 2048 2253 1804 2253 1158 
C 2253 492 1830 268 1504 268 
z
" transform="scale(0.015625)"/>
      </defs>
      <use xlink:href="#CMSS17-73" transform="scale(0.996264)"/>
      <use xlink:href="#CMSS17-30" transform="translate(35.913542 0) scale(0.996264)"/>
      <use xlink:href="#CMSS17-31" transform="translate(82.757166 0) scale(0.996264)"/>
      <use xlink:href="#CMSS17-38" transform="translate(129.600789 0) scale(0.996264)"/>
      <use xlink:href="#CMSS17-42" transform="translate(210.171908 0) scale(0.996264)"/>
      <use xlink:href="#CMSS17-30" transform="translate(272.509948 0) scale(0.996264)"/>
      <use xlink:href="#CMSS17-34" transform="translate(319.353572 0) scale(0.996264)"/>
      <path d="M 182.065424 0 
L 210.171908 0 
L 210.171908 0.3985 
L 182.065424 0.3985 
L 182.065424 0 
z
"/>
     </g>
    </g>
    <g id="line2d_82">
     <path d="M 738.607264 128.483781 
L 754.607264 128.483781 
L 770.607264 128.483781 
" style="fill: none; stroke: #ff2c00; stroke-opacity: 0.8; stroke-width: 2; stroke-linecap: round"/>
    </g>
    <g id="text_21">
     <!-- s026_C05 -->
     <g style="fill: #262626" transform="translate(783.407264 134.083781) scale(0.16 -0.16)">
      <defs>
       <path id="CMSS17-36" d="M 2496 4159 
C 2227 4268 2035 4288 1856 4288 
C 1024 4288 250 3408 250 2023 
C 250 268 986 -128 1510 -128 
C 1798 -128 2086 -39 2362 281 
C 2643 619 2752 900 2752 1392 
C 2752 2183 2362 2886 1779 2886 
C 1357 2886 992 2662 768 2381 
C 832 3290 1254 3897 1862 3897 
C 2029 3897 2246 3871 2496 3760 
L 2496 4159 
z
M 774 1372 
C 774 1423 774 1455 781 1551 
C 781 2049 1069 2496 1536 2496 
C 1837 2496 1990 2336 2106 2138 
C 2240 1889 2246 1653 2246 1392 
C 2246 1143 2246 894 2099 638 
C 1978 441 1818 268 1510 268 
C 902 268 800 1117 774 1372 
z
" transform="scale(0.015625)"/>
       <path id="CMSS17-43" d="M 3501 705 
C 3072 416 2874 332 2355 332 
C 1459 332 934 1304 934 2191 
C 934 3137 1472 4070 2381 4070 
C 2790 4070 3059 3954 3386 3748 
L 3475 4255 
C 3168 4409 2778 4480 2387 4480 
C 1158 4480 397 3343 397 2191 
C 397 924 1299 -77 2323 -77 
C 2874 -77 3066 -32 3539 268 
L 3501 705 
z
" transform="scale(0.015625)"/>
      </defs>
      <use xlink:href="#CMSS17-73" transform="scale(0.996264)"/>
      <use xlink:href="#CMSS17-30" transform="translate(35.913542 0) scale(0.996264)"/>
      <use xlink:href="#CMSS17-32" transform="translate(82.757166 0) scale(0.996264)"/>
      <use xlink:href="#CMSS17-36" transform="translate(129.600789 0) scale(0.996264)"/>
      <use xlink:href="#CMSS17-43" transform="translate(210.171908 0) scale(0.996264)"/>
      <use xlink:href="#CMSS17-30" transform="translate(270.027679 0) scale(0.996264)"/>
      <use xlink:href="#CMSS17-35" transform="translate(316.871303 0) scale(0.996264)"/>
      <path d="M 182.065424 0 
L 210.171908 0 
L 210.171908 0.3985 
L 182.065424 0.3985 
L 182.065424 0 
z
"/>
     </g>
    </g>
    <g id="line2d_83">
     <path d="M 738.607264 150.783257 
L 754.607264 150.783257 
L 770.607264 150.783257 
" style="fill: none; stroke: #845b97; stroke-opacity: 0.8; stroke-width: 2; stroke-linecap: round"/>
    </g>
    <g id="text_22">
     <!-- s033_C12 -->
     <g style="fill: #262626" transform="translate(783.407264 156.383257) scale(0.16 -0.16)">
      <use xlink:href="#CMSS17-73" transform="scale(0.996264)"/>
      <use xlink:href="#CMSS17-30" transform="translate(35.913542 0) scale(0.996264)"/>
      <use xlink:href="#CMSS17-33" transform="translate(82.757166 0) scale(0.996264)"/>
      <use xlink:href="#CMSS17-33" transform="translate(129.600789 0) scale(0.996264)"/>
      <use xlink:href="#CMSS17-43" transform="translate(210.171908 0) scale(0.996264)"/>
      <use xlink:href="#CMSS17-31" transform="translate(270.027679 0) scale(0.996264)"/>
      <use xlink:href="#CMSS17-32" transform="translate(316.871303 0) scale(0.996264)"/>
      <path d="M 182.065424 0 
L 210.171908 0 
L 210.171908 0.3985 
L 182.065424 0.3985 
L 182.065424 0 
z
"/>
     </g>
    </g>
    <g id="line2d_84">
     <path d="M 738.607264 173.082734 
L 754.607264 173.082734 
L 770.607264 173.082734 
" style="fill: none; stroke: #474747; stroke-opacity: 0.8; stroke-width: 2; stroke-linecap: round"/>
    </g>
    <g id="text_23">
     <!-- s052_E07 -->
     <g style="fill: #262626" transform="translate(783.407264 178.682734) scale(0.16 -0.16)">
      <defs>
       <path id="CMSS17-45" d="M 1958 435 
C 1446 435 1216 435 1101 428 
L 1101 2105 
L 3085 2105 
L 3085 2496 
L 1101 2496 
L 1101 3993 
L 1926 3993 
C 2003 3993 2080 3987 2157 3987 
L 3251 3987 
L 3251 4403 
L 563 4403 
L 563 0 
L 3334 0 
L 3334 441 
L 1958 435 
z
" transform="scale(0.015625)"/>
       <path id="CMSS17-37" d="M 1389 3788 
C 1466 3788 1542 3795 1619 3795 
L 2355 3795 
C 1440 2715 915 1350 915 -64 
L 1427 -64 
C 1427 1305 1875 2695 2752 3807 
L 2752 4224 
L 250 4224 
L 250 3788 
L 1389 3788 
z
" transform="scale(0.015625)"/>
      </defs>
      <use xlink:href="#CMSS17-73" transform="scale(0.996264)"/>
      <use xlink:href="#CMSS17-30" transform="translate(35.913542 0) scale(0.996264)"/>
      <use xlink:href="#CMSS17-35" transform="translate(82.757166 0) scale(0.996264)"/>
      <use xlink:href="#CMSS17-32" transform="translate(129.600789 0) scale(0.996264)"/>
      <use xlink:href="#CMSS17-45" transform="translate(210.171908 0) scale(0.996264)"/>
      <use xlink:href="#CMSS17-30" transform="translate(266.063921 0) scale(0.996264)"/>
      <use xlink:href="#CMSS17-37" transform="translate(312.907545 0) scale(0.996264)"/>
      <path d="M 182.065424 0 
L 210.171908 0 
L 210.171908 0.3985 
L 182.065424 0.3985 
L 182.065424 0 
z
"/>
     </g>
    </g>
    <g id="line2d_85">
     <path d="M 738.607264 195.38221 
L 754.607264 195.38221 
L 770.607264 195.38221 
" style="fill: none; stroke: #9e9e9e; stroke-opacity: 0.8; stroke-width: 2; stroke-linecap: round"/>
    </g>
    <g id="text_24">
     <!-- s055_E10 -->
     <g style="fill: #262626" transform="translate(783.407264 200.98221) scale(0.16 -0.16)">
      <use xlink:href="#CMSS17-73" transform="scale(0.996264)"/>
      <use xlink:href="#CMSS17-30" transform="translate(35.913542 0) scale(0.996264)"/>
      <use xlink:href="#CMSS17-35" transform="translate(82.757166 0) scale(0.996264)"/>
      <use xlink:href="#CMSS17-35" transform="translate(129.600789 0) scale(0.996264)"/>
      <use xlink:href="#CMSS17-45" transform="translate(210.171908 0) scale(0.996264)"/>
      <use xlink:href="#CMSS17-31" transform="translate(266.063921 0) scale(0.996264)"/>
      <use xlink:href="#CMSS17-30" transform="translate(312.907545 0) scale(0.996264)"/>
      <path d="M 182.065424 0 
L 210.171908 0 
L 210.171908 0.3985 
L 182.065424 0.3985 
L 182.065424 0 
z
"/>
     </g>
    </g>
    <g id="line2d_86">
     <path d="M 738.607264 217.681686 
L 754.607264 217.681686 
L 770.607264 217.681686 
" style="fill: none; stroke: #0c5da5; stroke-opacity: 0.8; stroke-width: 2; stroke-linecap: round"/>
    </g>
    <g id="text_25">
     <!-- s057_E12 -->
     <g style="fill: #262626" transform="translate(783.407264 223.281686) scale(0.16 -0.16)">
      <use xlink:href="#CMSS17-73" transform="scale(0.996264)"/>
      <use xlink:href="#CMSS17-30" transform="translate(35.913542 0) scale(0.996264)"/>
      <use xlink:href="#CMSS17-35" transform="translate(82.757166 0) scale(0.996264)"/>
      <use xlink:href="#CMSS17-37" transform="translate(129.600789 0) scale(0.996264)"/>
      <use xlink:href="#CMSS17-45" transform="translate(210.171908 0) scale(0.996264)"/>
      <use xlink:href="#CMSS17-31" transform="translate(266.063921 0) scale(0.996264)"/>
      <use xlink:href="#CMSS17-32" transform="translate(312.907545 0) scale(0.996264)"/>
      <path d="M 182.065424 0 
L 210.171908 0 
L 210.171908 0.3985 
L 182.065424 0.3985 
L 182.065424 0 
z
"/>
     </g>
    </g>
    <g id="line2d_87">
     <path d="M 738.607264 239.981162 
L 754.607264 239.981162 
L 770.607264 239.981162 
" style="fill: none; stroke: #00b945; stroke-opacity: 0.8; stroke-width: 2; stroke-linecap: round"/>
    </g>
    <g id="text_26">
     <!-- s058_F12 -->
     <g style="fill: #262626" transform="translate(783.407264 245.581162) scale(0.16 -0.16)">
      <defs>
       <path id="CMSS17-46" d="M 2918 1984 
L 2918 2374 
L 1101 2374 
L 1101 3993 
L 1882 3993 
C 1958 3993 2035 3987 2112 3987 
L 3168 3987 
L 3168 4403 
L 563 4403 
L 563 0 
L 1101 0 
L 1101 1984 
L 2918 1984 
z
" transform="scale(0.015625)"/>
      </defs>
      <use xlink:href="#CMSS17-73" transform="scale(0.996264)"/>
      <use xlink:href="#CMSS17-30" transform="translate(35.913542 0) scale(0.996264)"/>
      <use xlink:href="#CMSS17-35" transform="translate(82.757166 0) scale(0.996264)"/>
      <use xlink:href="#CMSS17-38" transform="translate(129.600789 0) scale(0.996264)"/>
      <use xlink:href="#CMSS17-46" transform="translate(210.171908 0) scale(0.996264)"/>
      <use xlink:href="#CMSS17-31" transform="translate(263.461467 0) scale(0.996264)"/>
      <use xlink:href="#CMSS17-32" transform="translate(310.305091 0) scale(0.996264)"/>
      <path d="M 182.065424 0 
L 210.171908 0 
L 210.171908 0.3985 
L 182.065424 0.3985 
L 182.065424 0 
z
"/>
     </g>
    </g>
    <g id="line2d_88">
     <path d="M 738.607264 262.280639 
L 754.607264 262.280639 
L 770.607264 262.280639 
" style="fill: none; stroke: #ff9500; stroke-opacity: 0.8; stroke-width: 2; stroke-linecap: round"/>
    </g>
    <g id="text_27">
     <!-- s071_G04 -->
     <g style="fill: #262626" transform="translate(783.407264 267.880639) scale(0.16 -0.16)">
      <defs>
       <path id="CMSS17-47" d="M 3610 1868 
L 2336 1868 
L 2336 1472 
L 3123 1472 
L 3123 473 
C 2874 403 2618 352 2362 352 
C 1466 352 934 1311 934 2220 
C 934 3123 1491 4070 2362 4070 
C 2854 4070 3130 3916 3469 3660 
L 3552 4172 
C 3130 4390 2867 4480 2387 4480 
C 1146 4480 397 3353 397 2201 
C 397 1100 1152 -64 2349 -64 
C 2797 -64 3213 51 3610 249 
L 3610 1868 
z
" transform="scale(0.015625)"/>
      </defs>
      <use xlink:href="#CMSS17-73" transform="scale(0.996264)"/>
      <use xlink:href="#CMSS17-30" transform="translate(35.913542 0) scale(0.996264)"/>
      <use xlink:href="#CMSS17-37" transform="translate(82.757166 0) scale(0.996264)"/>
      <use xlink:href="#CMSS17-31" transform="translate(129.600789 0) scale(0.996264)"/>
      <use xlink:href="#CMSS17-47" transform="translate(210.171908 0) scale(0.996264)"/>
      <use xlink:href="#CMSS17-30" transform="translate(272.630133 0) scale(0.996264)"/>
      <use xlink:href="#CMSS17-34" transform="translate(319.473757 0) scale(0.996264)"/>
      <path d="M 182.065424 0 
L 210.171908 0 
L 210.171908 0.3985 
L 182.065424 0.3985 
L 182.065424 0 
z
"/>
     </g>
    </g>
    <g id="line2d_89">
     <path d="M 738.607264 284.580115 
L 754.607264 284.580115 
L 770.607264 284.580115 
" style="fill: none; stroke: #ff2c00; stroke-opacity: 0.8; stroke-width: 2; stroke-linecap: round"/>
    </g>
    <g id="text_28">
     <!-- s073_G06 -->
     <g style="fill: #262626" transform="translate(783.407264 290.180115) scale(0.16 -0.16)">
      <use xlink:href="#CMSS17-73" transform="scale(0.996264)"/>
      <use xlink:href="#CMSS17-30" transform="translate(35.913542 0) scale(0.996264)"/>
      <use xlink:href="#CMSS17-37" transform="translate(82.757166 0) scale(0.996264)"/>
      <use xlink:href="#CMSS17-33" transform="translate(129.600789 0) scale(0.996264)"/>
      <use xlink:href="#CMSS17-47" transform="translate(210.171908 0) scale(0.996264)"/>
      <use xlink:href="#CMSS17-30" transform="translate(272.630133 0) scale(0.996264)"/>
      <use xlink:href="#CMSS17-36" transform="translate(319.473757 0) scale(0.996264)"/>
      <path d="M 182.065424 0 
L 210.171908 0 
L 210.171908 0.3985 
L 182.065424 0.3985 
L 182.065424 0 
z
"/>
     </g>
    </g>
    <g id="line2d_90">
     <path d="M 738.607264 306.879591 
L 754.607264 306.879591 
L 770.607264 306.879591 
" style="fill: none; stroke: #845b97; stroke-opacity: 0.8; stroke-width: 2; stroke-linecap: round"/>
    </g>
    <g id="text_29">
     <!-- s088_H04 -->
     <g style="fill: #262626" transform="translate(783.407264 312.479591) scale(0.16 -0.16)">
      <defs>
       <path id="CMSS17-48" d="M 3674 4416 
L 3136 4416 
L 3136 2496 
L 1101 2496 
L 1101 4416 
L 563 4416 
L 563 0 
L 1101 0 
L 1101 2105 
L 3136 2105 
L 3136 0 
L 3674 0 
L 3674 4416 
z
" transform="scale(0.015625)"/>
      </defs>
      <use xlink:href="#CMSS17-73" transform="scale(0.996264)"/>
      <use xlink:href="#CMSS17-30" transform="translate(35.913542 0) scale(0.996264)"/>
      <use xlink:href="#CMSS17-38" transform="translate(82.757166 0) scale(0.996264)"/>
      <use xlink:href="#CMSS17-38" transform="translate(129.600789 0) scale(0.996264)"/>
      <use xlink:href="#CMSS17-48" transform="translate(210.171908 0) scale(0.996264)"/>
      <use xlink:href="#CMSS17-30" transform="translate(276.233427 0) scale(0.996264)"/>
      <use xlink:href="#CMSS17-34" transform="translate(323.077051 0) scale(0.996264)"/>
      <path d="M 182.065424 0 
L 210.171908 0 
L 210.171908 0.3985 
L 182.065424 0.3985 
L 182.065424 0 
z
"/>
     </g>
    </g>
    <g id="line2d_91">
     <path d="M 738.607264 329.179067 
L 754.607264 329.179067 
L 770.607264 329.179067 
" style="fill: none; stroke: #474747; stroke-opacity: 0.8; stroke-width: 2; stroke-linecap: round"/>
    </g>
    <g id="text_30">
     <!-- s090_H01 -->
     <g style="fill: #262626" transform="translate(783.407264 334.779067) scale(0.16 -0.16)">
      <defs>
       <path id="CMSS17-39" d="M 435 172 
C 614 19 845 -128 1235 -128 
C 2010 -128 2752 738 2752 2136 
C 2752 3987 1952 4288 1523 4288 
C 1094 4288 819 4095 582 3789 
C 301 3438 250 3125 250 2761 
C 250 2327 326 2059 506 1753 
C 749 1356 973 1273 1222 1273 
C 1600 1273 1978 1459 2234 1778 
C 2189 908 1798 268 1235 268 
C 1005 268 819 340 634 516 
L 435 172 
z
M 2214 2774 
C 2221 2729 2221 2646 2221 2621 
C 2221 2085 1914 1664 1466 1664 
C 1171 1664 1018 1817 902 2015 
C 762 2263 755 2506 755 2761 
C 755 3010 755 3284 934 3559 
C 1069 3757 1235 3897 1523 3897 
C 2112 3897 2208 3036 2214 2774 
z
" transform="scale(0.015625)"/>
      </defs>
      <use xlink:href="#CMSS17-73" transform="scale(0.996264)"/>
      <use xlink:href="#CMSS17-30" transform="translate(35.913542 0) scale(0.996264)"/>
      <use xlink:href="#CMSS17-39" transform="translate(82.757166 0) scale(0.996264)"/>
      <use xlink:href="#CMSS17-30" transform="translate(129.600789 0) scale(0.996264)"/>
      <use xlink:href="#CMSS17-48" transform="translate(210.171908 0) scale(0.996264)"/>
      <use xlink:href="#CMSS17-30" transform="translate(276.233427 0) scale(0.996264)"/>
      <use xlink:href="#CMSS17-31" transform="translate(323.077051 0) scale(0.996264)"/>
      <path d="M 182.065424 0 
L 210.171908 0 
L 210.171908 0.3985 
L 182.065424 0.3985 
L 182.065424 0 
z
"/>
     </g>
    </g>
   </g>
  </g>
 </g>
 <defs>
  <clipPath id="pa67f1156b0">
   <rect x="44.448487" y="19.285876" width="647.389311" height="509.398314"/>
  </clipPath>
 </defs>
</svg>
